<svg width="721" height="112" viewBox="0 0 721 112" fill="none" xmlns="http://www.w3.org/2000/svg">
<rect x="1" y="0.5" width="719" height="111" rx="15.5" fill="white"/>
<rect x="1" y="0.5" width="719" height="111" rx="15.5" stroke="#C6C6C6"/>
<circle cx="60.5" cy="56" r="28" fill="#FAFAFB"/>
<path d="M74.4662 65.9999H72.5V51.9999C72.5 51.4695 72.2893 50.9608 71.9142 50.5857C71.5391 50.2106 71.0304 49.9999 70.5 49.9999H65C64.8674 49.9999 64.7402 50.0526 64.6464 50.1463C64.5527 50.2401 64.5 50.3673 64.5 50.4999V65.9999H62.5V44.0512C62.5033 43.7396 62.4357 43.4314 62.3023 43.1499C62.1689 42.8684 61.9732 42.6209 61.73 42.4262C61.3985 42.1677 60.994 42.0203 60.5739 42.0048C60.1539 41.9893 59.7396 42.1066 59.39 42.3399L49.39 48.9999C49.1157 49.1829 48.8909 49.4309 48.7356 49.7219C48.5803 50.0128 48.4994 50.3376 48.5 50.6674V65.9999H46.5337C46.2753 65.9961 46.0251 66.0903 45.8333 66.2635C45.6415 66.4367 45.5224 66.6762 45.5 66.9337C45.4909 67.0704 45.5101 67.2076 45.5562 67.3367C45.6024 67.4658 45.6746 67.584 45.7684 67.684C45.8622 67.784 45.9755 67.8636 46.1014 67.918C46.2272 67.9723 46.3629 68.0002 46.5 67.9999H74.5C74.6371 68.0002 74.7728 67.9723 74.8986 67.918C75.0245 67.8636 75.1378 67.784 75.2316 67.684C75.3254 67.584 75.3976 67.4658 75.4438 67.3367C75.4899 67.2076 75.5091 67.0704 75.5 66.9337C75.4776 66.6762 75.3585 66.4367 75.1667 66.2635C74.9749 66.0903 74.7247 65.9961 74.4662 65.9999ZM54 62.9999C54.0003 63.137 53.9724 63.2727 53.9181 63.3985C53.8637 63.5244 53.7841 63.6377 53.6841 63.7315C53.5841 63.8253 53.4659 63.8975 53.3368 63.9437C53.2077 63.9898 53.0705 64.009 52.9338 63.9999C52.6761 63.9775 52.4364 63.8582 52.2632 63.6662C52.0899 63.4741 51.9959 63.2235 52 62.9649V61.0337C51.9965 60.7753 52.0908 60.5252 52.2639 60.3335C52.4371 60.1417 52.6764 60.0226 52.9338 59.9999C53.0705 59.9908 53.2077 60.01 53.3368 60.0561C53.4659 60.1023 53.5841 60.1745 53.6841 60.2683C53.7841 60.3621 53.8637 60.4754 53.9181 60.6013C53.9724 60.7271 54.0003 60.8628 54 60.9999V62.9999ZM54 55.9999C54.0003 56.137 53.9724 56.2727 53.9181 56.3985C53.8637 56.5244 53.7841 56.6377 53.6841 56.7315C53.5841 56.8253 53.4659 56.8975 53.3368 56.9437C53.2077 56.9898 53.0705 57.009 52.9338 56.9999C52.6762 56.9772 52.4367 56.8579 52.2635 56.6659C52.0903 56.4739 51.9962 56.2235 52 55.9649V54.0337C51.9965 53.7753 52.0908 53.5252 52.2639 53.3335C52.4371 53.1417 52.6764 53.0226 52.9338 52.9999C53.0705 52.9908 53.2077 53.01 53.3368 53.0561C53.4659 53.1023 53.5841 53.1745 53.6841 53.2683C53.7841 53.3621 53.8637 53.4754 53.9181 53.6013C53.9724 53.7271 54.0003 53.8628 54 53.9999V55.9999ZM59 62.9999C59.0003 63.137 58.9724 63.2727 58.9181 63.3985C58.8637 63.5244 58.7841 63.6377 58.6841 63.7315C58.5841 63.8253 58.4659 63.8975 58.3368 63.9437C58.2077 63.9898 58.0705 64.009 57.9338 63.9999C57.6765 63.9775 57.4372 63.8586 57.264 63.6671C57.0908 63.4756 56.9965 63.2256 57 62.9674V61.0337C56.9968 60.7755 57.0912 60.5257 57.2644 60.3343C57.4375 60.1428 57.6766 60.0238 57.9338 60.0012C58.0705 59.9921 58.2077 60.0112 58.3368 60.0574C58.4659 60.1035 58.5841 60.1758 58.6841 60.2696C58.7841 60.3633 58.8637 60.4767 58.9181 60.6025C58.9724 60.7284 59.0003 60.8641 59 61.0012V62.9999ZM59 55.9999C59.0003 56.137 58.9724 56.2727 58.9181 56.3985C58.8637 56.5244 58.7841 56.6377 58.6841 56.7315C58.5841 56.8253 58.4659 56.8975 58.3368 56.9437C58.2077 56.9898 58.0705 57.009 57.9338 56.9999C57.6766 56.9772 57.4375 56.8582 57.2644 56.6668C57.0912 56.4753 56.9968 56.2255 57 55.9674V54.0337C56.9968 53.7755 57.0912 53.5257 57.2644 53.3343C57.4375 53.1428 57.6766 53.0238 57.9338 53.0012C58.0705 52.9921 58.2077 53.0112 58.3368 53.0574C58.4659 53.1036 58.5841 53.1758 58.6841 53.2696C58.7841 53.3633 58.8637 53.4767 58.9181 53.6025C58.9724 53.7284 59.0003 53.8641 59 54.0012V55.9999Z" fill="#C6C6C6"/>
<path d="M103.381 50V48.0469H107.541C108.472 48.0469 109.178 47.8581 109.66 47.4805C110.142 47.1029 110.383 46.556 110.383 45.8398V45.8203C110.383 45.3451 110.272 44.9447 110.051 44.6191C109.829 44.2936 109.497 44.0495 109.055 43.8867C108.618 43.724 108.078 43.6426 107.434 43.6426H103.381V41.8555H107.033C107.932 41.8555 108.615 41.6829 109.084 41.3379C109.553 40.9928 109.787 40.498 109.787 39.8535V39.834C109.787 39.209 109.576 38.724 109.152 38.3789C108.729 38.0339 108.137 37.8613 107.375 37.8613H103.381V35.9082H107.99C108.882 35.9082 109.647 36.0514 110.285 36.3379C110.923 36.6243 111.411 37.0312 111.75 37.5586C112.095 38.0794 112.268 38.7012 112.268 39.4238V39.4434C112.268 39.9382 112.154 40.4004 111.926 40.8301C111.704 41.2598 111.402 41.6211 111.018 41.9141C110.64 42.207 110.21 42.3893 109.729 42.4609V42.6074C110.367 42.666 110.926 42.8483 111.408 43.1543C111.896 43.4538 112.277 43.8477 112.551 44.3359C112.824 44.8242 112.961 45.3743 112.961 45.9863V46.0059C112.961 46.8262 112.766 47.5358 112.375 48.1348C111.984 48.7337 111.428 49.196 110.705 49.5215C109.982 49.8405 109.12 50 108.117 50H103.381ZM102.121 50V35.9082H104.641V50H102.121ZM118.762 50.2148C117.974 50.2148 117.31 50.0586 116.77 49.7461C116.229 49.4336 115.822 48.9844 115.549 48.3984C115.275 47.806 115.139 47.0931 115.139 46.2598V39.4043H117.57V45.7129C117.57 46.5202 117.736 47.1322 118.068 47.5488C118.4 47.959 118.928 48.1641 119.65 48.1641C120.035 48.1641 120.373 48.1055 120.666 47.9883C120.965 47.8646 121.216 47.6888 121.418 47.4609C121.62 47.2331 121.773 46.9596 121.877 46.6406C121.981 46.3216 122.033 45.9668 122.033 45.5762V39.4043H124.465V50H122.033V48.3789H121.896C121.727 48.7565 121.496 49.082 121.203 49.3555C120.91 49.6289 120.559 49.8405 120.148 49.9902C119.738 50.14 119.276 50.2148 118.762 50.2148ZM131.232 50.2148C130.327 50.2148 129.549 50.0846 128.898 49.8242C128.247 49.5638 127.733 49.2025 127.355 48.7402C126.984 48.2715 126.766 47.7311 126.701 47.1191L126.691 47.0801H129.104L129.113 47.1191C129.23 47.5098 129.468 47.8255 129.826 48.0664C130.184 48.3008 130.663 48.418 131.262 48.418C131.672 48.418 132.027 48.3626 132.326 48.252C132.626 48.1413 132.86 47.9883 133.029 47.793C133.199 47.5911 133.283 47.3568 133.283 47.0898V47.0801C133.283 46.7676 133.16 46.5072 132.912 46.2988C132.671 46.0905 132.264 45.9212 131.691 45.791L129.963 45.4102C129.292 45.2604 128.736 45.0521 128.293 44.7852C127.85 44.5182 127.518 44.1895 127.297 43.7988C127.082 43.4082 126.975 42.9557 126.975 42.4414V42.4316C126.975 41.7871 127.154 41.224 127.512 40.7422C127.87 40.2539 128.368 39.873 129.006 39.5996C129.644 39.3262 130.38 39.1895 131.213 39.1895C132.079 39.1895 132.821 39.3262 133.439 39.5996C134.064 39.8665 134.549 40.2311 134.895 40.6934C135.246 41.1556 135.445 41.6764 135.49 42.2559V42.2949H133.215L133.205 42.2559C133.127 41.8978 132.915 41.5983 132.57 41.3574C132.232 41.11 131.779 40.9863 131.213 40.9863C130.848 40.9863 130.529 41.0417 130.256 41.1523C129.982 41.2565 129.768 41.4062 129.611 41.6016C129.455 41.7969 129.377 42.028 129.377 42.2949V42.3047C129.377 42.5065 129.429 42.6888 129.533 42.8516C129.637 43.0078 129.803 43.1445 130.031 43.2617C130.266 43.3724 130.572 43.4733 130.949 43.5645L132.668 43.9551C133.723 44.1895 134.494 44.5345 134.982 44.9902C135.477 45.446 135.725 46.0612 135.725 46.8359V46.8555C135.725 47.526 135.529 48.1152 135.139 48.623C134.755 49.1243 134.224 49.515 133.547 49.7949C132.876 50.0749 132.105 50.2148 131.232 50.2148ZM138 50V39.4043H140.432V50H138ZM139.221 37.6855C138.83 37.6855 138.495 37.5488 138.215 37.2754C137.935 36.9954 137.795 36.6634 137.795 36.2793C137.795 35.8887 137.935 35.5566 138.215 35.2832C138.495 35.0098 138.83 34.873 139.221 34.873C139.611 34.873 139.947 35.0098 140.227 35.2832C140.507 35.5566 140.646 35.8887 140.646 36.2793C140.646 36.6634 140.507 36.9954 140.227 37.2754C139.947 37.5488 139.611 37.6855 139.221 37.6855ZM143.195 50V39.4043H145.627V41.0352H145.764C146.024 40.4622 146.411 40.013 146.926 39.6875C147.447 39.3555 148.094 39.1895 148.869 39.1895C150.048 39.1895 150.949 39.5345 151.574 40.2246C152.206 40.9147 152.521 41.888 152.521 43.1445V50H150.09V43.6914C150.09 42.8841 149.914 42.2754 149.562 41.8652C149.217 41.4486 148.684 41.2402 147.961 41.2402C147.479 41.2402 147.062 41.3477 146.711 41.5625C146.366 41.7773 146.099 42.0768 145.91 42.4609C145.721 42.8451 145.627 43.3008 145.627 43.8281V50H143.195ZM159.729 50.2148C158.68 50.2148 157.775 49.9935 157.014 49.5508C156.258 49.1016 155.676 48.4668 155.266 47.6465C154.862 46.8262 154.66 45.8529 154.66 44.7266V44.7168C154.66 43.6035 154.862 42.6335 155.266 41.8066C155.676 40.9798 156.252 40.3385 156.994 39.8828C157.736 39.4206 158.612 39.1895 159.621 39.1895C160.624 39.1895 161.49 39.4108 162.219 39.8535C162.954 40.2962 163.518 40.918 163.908 41.7188C164.305 42.513 164.504 43.444 164.504 44.5117V45.3125H155.881V43.6816H163.322L162.16 45.2051V44.2383C162.16 43.5352 162.053 42.9525 161.838 42.4902C161.623 42.028 161.327 41.6797 160.949 41.4453C160.578 41.2109 160.145 41.0938 159.65 41.0938C159.156 41.0938 158.716 41.2142 158.332 41.4551C157.948 41.696 157.642 42.0508 157.414 42.5195C157.193 42.9883 157.082 43.5612 157.082 44.2383V45.2051C157.082 45.8561 157.189 46.4128 157.404 46.875C157.626 47.3372 157.938 47.6921 158.342 47.9395C158.752 48.1868 159.234 48.3105 159.787 48.3105C160.217 48.3105 160.588 48.2487 160.9 48.125C161.213 47.9948 161.467 47.8385 161.662 47.6562C161.857 47.4674 161.994 47.2852 162.072 47.1094L162.102 47.041H164.396L164.377 47.1289C164.292 47.487 164.136 47.8483 163.908 48.2129C163.68 48.571 163.378 48.903 163 49.209C162.622 49.5085 162.16 49.7526 161.613 49.9414C161.073 50.1237 160.445 50.2148 159.729 50.2148ZM170.764 50.2148C169.859 50.2148 169.081 50.0846 168.43 49.8242C167.779 49.5638 167.264 49.2025 166.887 48.7402C166.516 48.2715 166.298 47.7311 166.232 47.1191L166.223 47.0801H168.635L168.645 47.1191C168.762 47.5098 168.999 47.8255 169.357 48.0664C169.715 48.3008 170.194 48.418 170.793 48.418C171.203 48.418 171.558 48.3626 171.857 48.252C172.157 48.1413 172.391 47.9883 172.561 47.793C172.73 47.5911 172.814 47.3568 172.814 47.0898V47.0801C172.814 46.7676 172.691 46.5072 172.443 46.2988C172.202 46.0905 171.796 45.9212 171.223 45.791L169.494 45.4102C168.824 45.2604 168.267 45.0521 167.824 44.7852C167.382 44.5182 167.049 44.1895 166.828 43.7988C166.613 43.4082 166.506 42.9557 166.506 42.4414V42.4316C166.506 41.7871 166.685 41.224 167.043 40.7422C167.401 40.2539 167.899 39.873 168.537 39.5996C169.175 39.3262 169.911 39.1895 170.744 39.1895C171.61 39.1895 172.352 39.3262 172.971 39.5996C173.596 39.8665 174.081 40.2311 174.426 40.6934C174.777 41.1556 174.976 41.6764 175.021 42.2559V42.2949H172.746L172.736 42.2559C172.658 41.8978 172.447 41.5983 172.102 41.3574C171.763 41.11 171.311 40.9863 170.744 40.9863C170.38 40.9863 170.061 41.0417 169.787 41.1523C169.514 41.2565 169.299 41.4062 169.143 41.6016C168.986 41.7969 168.908 42.028 168.908 42.2949V42.3047C168.908 42.5065 168.96 42.6888 169.064 42.8516C169.169 43.0078 169.335 43.1445 169.562 43.2617C169.797 43.3724 170.103 43.4733 170.48 43.5645L172.199 43.9551C173.254 44.1895 174.025 44.5345 174.514 44.9902C175.008 45.446 175.256 46.0612 175.256 46.8359V46.8555C175.256 47.526 175.061 48.1152 174.67 48.623C174.286 49.1243 173.755 49.515 173.078 49.7949C172.408 50.0749 171.636 50.2148 170.764 50.2148ZM181.369 50.2148C180.464 50.2148 179.686 50.0846 179.035 49.8242C178.384 49.5638 177.87 49.2025 177.492 48.7402C177.121 48.2715 176.903 47.7311 176.838 47.1191L176.828 47.0801H179.24L179.25 47.1191C179.367 47.5098 179.605 47.8255 179.963 48.0664C180.321 48.3008 180.799 48.418 181.398 48.418C181.809 48.418 182.163 48.3626 182.463 48.252C182.762 48.1413 182.997 47.9883 183.166 47.793C183.335 47.5911 183.42 47.3568 183.42 47.0898V47.0801C183.42 46.7676 183.296 46.5072 183.049 46.2988C182.808 46.0905 182.401 45.9212 181.828 45.791L180.1 45.4102C179.429 45.2604 178.872 45.0521 178.43 44.7852C177.987 44.5182 177.655 44.1895 177.434 43.7988C177.219 43.4082 177.111 42.9557 177.111 42.4414V42.4316C177.111 41.7871 177.29 41.224 177.648 40.7422C178.007 40.2539 178.505 39.873 179.143 39.5996C179.781 39.3262 180.516 39.1895 181.35 39.1895C182.215 39.1895 182.958 39.3262 183.576 39.5996C184.201 39.8665 184.686 40.2311 185.031 40.6934C185.383 41.1556 185.581 41.6764 185.627 42.2559V42.2949H183.352L183.342 42.2559C183.264 41.8978 183.052 41.5983 182.707 41.3574C182.368 41.11 181.916 40.9863 181.35 40.9863C180.985 40.9863 180.666 41.0417 180.393 41.1523C180.119 41.2565 179.904 41.4062 179.748 41.6016C179.592 41.7969 179.514 42.028 179.514 42.2949V42.3047C179.514 42.5065 179.566 42.6888 179.67 42.8516C179.774 43.0078 179.94 43.1445 180.168 43.2617C180.402 43.3724 180.708 43.4733 181.086 43.5645L182.805 43.9551C183.859 44.1895 184.631 44.5345 185.119 44.9902C185.614 45.446 185.861 46.0612 185.861 46.8359V46.8555C185.861 47.526 185.666 48.1152 185.275 48.623C184.891 49.1243 184.361 49.515 183.684 49.7949C183.013 50.0749 182.242 50.2148 181.369 50.2148Z" fill="#48484A"/>
<rect x="195.5" y="32" width="116" height="22" rx="4" fill="#EAEAEA"/>
<path d="M205.479 47.2109C204.822 47.2109 204.252 47.1094 203.768 46.9062C203.287 46.7031 202.908 46.4199 202.631 46.0566C202.354 45.6934 202.197 45.2695 202.162 44.7852L202.156 44.7031H203.621L203.627 44.7617C203.65 45 203.744 45.207 203.908 45.3828C204.076 45.5586 204.299 45.6973 204.576 45.7988C204.854 45.8965 205.17 45.9453 205.525 45.9453C205.865 45.9453 206.166 45.8926 206.428 45.7871C206.689 45.6816 206.895 45.5371 207.043 45.3535C207.191 45.166 207.266 44.9512 207.266 44.709V44.7031C207.266 44.3984 207.146 44.1504 206.908 43.959C206.67 43.7637 206.277 43.6074 205.73 43.4902L204.822 43.3027C203.955 43.1191 203.324 42.8262 202.93 42.4238C202.539 42.0176 202.344 41.5 202.344 40.8711V40.8652C202.344 40.3613 202.477 39.9199 202.742 39.541C203.012 39.1621 203.381 38.8672 203.85 38.6562C204.322 38.4414 204.863 38.334 205.473 38.334C206.098 38.334 206.639 38.4395 207.096 38.6504C207.553 38.8574 207.912 39.1406 208.174 39.5C208.436 39.8594 208.582 40.2656 208.613 40.7188L208.619 40.7949H207.178L207.166 40.7246C207.131 40.502 207.039 40.3086 206.891 40.1445C206.746 39.9766 206.553 39.8438 206.311 39.7461C206.068 39.6484 205.785 39.5996 205.461 39.5996C205.152 39.5996 204.877 39.6484 204.635 39.7461C204.393 39.8398 204.201 39.9727 204.061 40.1445C203.924 40.3164 203.855 40.5234 203.855 40.7656V40.7715C203.855 41.0684 203.971 41.3145 204.201 41.5098C204.436 41.7051 204.816 41.8574 205.344 41.9668L206.252 42.1602C206.846 42.2852 207.328 42.4512 207.699 42.6582C208.07 42.8652 208.342 43.123 208.514 43.4316C208.689 43.7363 208.777 44.1035 208.777 44.5332V44.5391C208.777 45.0859 208.643 45.5586 208.373 45.957C208.107 46.3555 207.727 46.6641 207.23 46.8828C206.738 47.1016 206.154 47.2109 205.479 47.2109ZM212.445 47.1289C211.969 47.1289 211.568 47.0371 211.244 46.8535C210.92 46.666 210.676 46.3945 210.512 46.0391C210.348 45.6797 210.266 45.2461 210.266 44.7383V40.5957H211.725V44.4043C211.725 44.9004 211.822 45.2734 212.018 45.5234C212.213 45.7734 212.531 45.8984 212.973 45.8984C213.207 45.8984 213.414 45.8633 213.594 45.793C213.777 45.7188 213.93 45.6133 214.051 45.4766C214.172 45.3398 214.264 45.1758 214.326 44.9844C214.389 44.7891 214.42 44.5703 214.42 44.3281V40.5957H215.879V47H214.42V46.0273H214.32C214.223 46.2539 214.086 46.4512 213.91 46.6191C213.734 46.7832 213.523 46.9102 213.277 47C213.031 47.0859 212.754 47.1289 212.445 47.1289ZM221.223 47.1055C220.922 47.1055 220.646 47.0625 220.396 46.9766C220.146 46.8867 219.926 46.7598 219.734 46.5957C219.547 46.4277 219.395 46.2285 219.277 45.998H219.178V47H217.719V38.1172H219.178V41.6152H219.277C219.391 41.3848 219.543 41.1855 219.734 41.0176C219.926 40.8496 220.148 40.7207 220.402 40.6309C220.656 40.5371 220.93 40.4902 221.223 40.4902C221.762 40.4902 222.227 40.625 222.617 40.8945C223.012 41.1602 223.316 41.541 223.531 42.0371C223.746 42.5293 223.854 43.1152 223.854 43.7949V43.8066C223.854 44.4785 223.744 45.0625 223.525 45.5586C223.311 46.0547 223.006 46.4375 222.611 46.707C222.221 46.9727 221.758 47.1055 221.223 47.1055ZM220.766 45.875C221.098 45.875 221.383 45.793 221.621 45.6289C221.859 45.4609 222.043 45.2227 222.172 44.9141C222.301 44.6055 222.365 44.2363 222.365 43.8066V43.7949C222.365 43.3652 222.301 42.9961 222.172 42.6875C222.043 42.375 221.859 42.1367 221.621 41.9727C221.383 41.8047 221.098 41.7207 220.766 41.7207C220.438 41.7207 220.152 41.8047 219.91 41.9727C219.668 42.1406 219.48 42.3789 219.348 42.6875C219.219 42.9961 219.154 43.3652 219.154 43.7949V43.8066C219.154 44.2324 219.219 44.6016 219.348 44.9141C219.48 45.2227 219.666 45.4609 219.904 45.6289C220.146 45.793 220.434 45.875 220.766 45.875ZM227.732 47.1289C227.189 47.1289 226.721 47.0527 226.326 46.9004C225.936 46.7441 225.627 46.5293 225.4 46.2559C225.174 45.9785 225.039 45.6582 224.996 45.2949V45.2832H226.443L226.449 45.2949C226.527 45.5176 226.674 45.6992 226.889 45.8398C227.104 45.9805 227.393 46.0508 227.756 46.0508C227.998 46.0508 228.211 46.0176 228.395 45.9512C228.578 45.8809 228.723 45.7852 228.828 45.6641C228.934 45.543 228.986 45.4023 228.986 45.2422V45.2305C228.986 45.043 228.91 44.8867 228.758 44.7617C228.605 44.6328 228.354 44.5293 228.002 44.4512L226.965 44.2168C226.559 44.127 226.223 44.002 225.957 43.8418C225.691 43.6816 225.492 43.4844 225.359 43.25C225.23 43.0156 225.166 42.7422 225.166 42.4297V42.4238C225.166 42.0371 225.273 41.6973 225.488 41.4043C225.707 41.1113 226.01 40.8828 226.396 40.7188C226.783 40.5547 227.229 40.4727 227.732 40.4727C228.252 40.4727 228.699 40.5508 229.074 40.707C229.449 40.8633 229.742 41.0781 229.953 41.3516C230.164 41.625 230.285 41.9355 230.316 42.2832V42.2949H228.945L228.939 42.2773C228.885 42.0742 228.754 41.9023 228.547 41.7617C228.344 41.6172 228.07 41.5449 227.727 41.5449C227.512 41.5449 227.318 41.5781 227.146 41.6445C226.979 41.7109 226.846 41.8047 226.748 41.9258C226.654 42.043 226.607 42.1816 226.607 42.3418V42.3477C226.607 42.4727 226.639 42.582 226.701 42.6758C226.768 42.7695 226.871 42.8516 227.012 42.9219C227.152 42.9922 227.338 43.0547 227.568 43.1094L228.605 43.3379C229.234 43.4785 229.699 43.6875 230 43.9648C230.301 44.2422 230.451 44.6152 230.451 45.084V45.0957C230.451 45.502 230.334 45.8574 230.1 46.1621C229.865 46.4668 229.543 46.7051 229.133 46.877C228.723 47.0449 228.256 47.1289 227.732 47.1289ZM234.67 47.1289C234.025 47.1289 233.475 46.9961 233.018 46.7305C232.561 46.4648 232.211 46.082 231.969 45.582C231.727 45.082 231.605 44.4844 231.605 43.7891V43.7773C231.605 43.0859 231.727 42.4941 231.969 42.002C232.211 41.5098 232.561 41.1328 233.018 40.8711C233.475 40.6055 234.023 40.4727 234.664 40.4727C235.215 40.4727 235.688 40.5684 236.082 40.7598C236.48 40.9473 236.795 41.209 237.025 41.5449C237.26 41.877 237.404 42.2656 237.459 42.7109V42.7344H236.082L236.076 42.7168C236.01 42.4043 235.857 42.1484 235.619 41.9492C235.385 41.75 235.068 41.6504 234.67 41.6504C234.338 41.6504 234.053 41.7344 233.814 41.9023C233.58 42.0703 233.4 42.3125 233.275 42.6289C233.15 42.9453 233.088 43.3281 233.088 43.7773V43.7891C233.088 44.2422 233.15 44.6309 233.275 44.9551C233.404 45.2754 233.586 45.5215 233.82 45.6934C234.055 45.8613 234.338 45.9453 234.67 45.9453C235.049 45.9453 235.354 45.8594 235.584 45.6875C235.818 45.5156 235.98 45.2617 236.07 44.9258L236.082 44.9023L237.453 44.8965L237.447 44.9492C237.377 45.3828 237.225 45.7637 236.99 46.0918C236.76 46.4199 236.451 46.6758 236.064 46.8594C235.678 47.0391 235.213 47.1289 234.67 47.1289ZM238.848 47V40.5957H240.307V41.5801H240.406C240.516 41.2363 240.711 40.9688 240.992 40.7773C241.277 40.5859 241.631 40.4902 242.053 40.4902C242.162 40.4902 242.27 40.498 242.375 40.5137C242.484 40.5254 242.574 40.541 242.645 40.5605V41.8672C242.527 41.8398 242.408 41.8203 242.287 41.8086C242.17 41.793 242.047 41.7852 241.918 41.7852C241.594 41.7852 241.311 41.8457 241.068 41.9668C240.826 42.0879 240.639 42.2617 240.506 42.4883C240.373 42.7109 240.307 42.9746 240.307 43.2793V47H238.848ZM243.846 47V40.5957H245.299V47H243.846ZM244.578 39.5234C244.34 39.5234 244.135 39.4395 243.963 39.2715C243.791 39.1035 243.705 38.9023 243.705 38.668C243.705 38.4258 243.791 38.2227 243.963 38.0586C244.135 37.8906 244.34 37.8066 244.578 37.8066C244.816 37.8066 245.02 37.8906 245.188 38.0586C245.359 38.2227 245.445 38.4258 245.445 38.668C245.445 38.9023 245.359 39.1035 245.188 39.2715C245.02 39.4395 244.816 39.5234 244.578 39.5234ZM247.098 49.127V40.5957H248.557V41.5977H248.656C248.773 41.3672 248.926 41.1699 249.113 41.0059C249.305 40.8418 249.525 40.7148 249.775 40.625C250.025 40.5352 250.301 40.4902 250.602 40.4902C251.137 40.4902 251.6 40.625 251.99 40.8945C252.385 41.1641 252.689 41.5469 252.904 42.043C253.123 42.5352 253.232 43.1191 253.232 43.7949V43.8066C253.232 44.4863 253.125 45.0723 252.91 45.5645C252.695 46.0566 252.391 46.4375 251.996 46.707C251.605 46.9727 251.141 47.1055 250.602 47.1055C250.309 47.1055 250.035 47.0605 249.781 46.9707C249.527 46.877 249.305 46.7461 249.113 46.5781C248.922 46.4102 248.77 46.2109 248.656 45.9805H248.557V49.127H247.098ZM250.145 45.875C250.477 45.875 250.762 45.793 251 45.6289C251.238 45.4609 251.422 45.2227 251.551 44.9141C251.68 44.6016 251.744 44.2324 251.744 43.8066V43.7949C251.744 43.3613 251.68 42.9902 251.551 42.6816C251.422 42.373 251.238 42.1367 251 41.9727C250.762 41.8047 250.477 41.7207 250.145 41.7207C249.812 41.7207 249.525 41.8047 249.283 41.9727C249.045 42.1367 248.859 42.373 248.727 42.6816C248.598 42.9902 248.533 43.3594 248.533 43.7891V43.8008C248.533 44.2305 248.598 44.6016 248.727 44.9141C248.859 45.2227 249.047 45.4609 249.289 45.6289C249.531 45.793 249.816 45.875 250.145 45.875ZM257.223 47.0293C256.488 47.0293 255.959 46.8945 255.635 46.625C255.311 46.3555 255.148 45.9141 255.148 45.3008V41.7266H254.152V40.5957H255.148V39.0254H256.631V40.5957H257.979V41.7266H256.631V44.9551C256.631 45.2715 256.697 45.5039 256.83 45.6523C256.967 45.7969 257.186 45.8691 257.486 45.8691C257.592 45.8691 257.678 45.8672 257.744 45.8633C257.814 45.8555 257.893 45.8477 257.979 45.8398V46.9648C257.877 46.9844 257.76 47 257.627 47.0117C257.498 47.0234 257.363 47.0293 257.223 47.0293ZM259.455 47V40.5957H260.908V47H259.455ZM260.188 39.5234C259.949 39.5234 259.744 39.4395 259.572 39.2715C259.4 39.1035 259.314 38.9023 259.314 38.668C259.314 38.4258 259.4 38.2227 259.572 38.0586C259.744 37.8906 259.949 37.8066 260.188 37.8066C260.426 37.8066 260.629 37.8906 260.797 38.0586C260.969 38.2227 261.055 38.4258 261.055 38.668C261.055 38.9023 260.969 39.1035 260.797 39.2715C260.629 39.4395 260.426 39.5234 260.188 39.5234ZM265.473 47.1289C264.836 47.1289 264.287 46.9961 263.826 46.7305C263.365 46.4609 263.01 46.0781 262.76 45.582C262.514 45.0859 262.391 44.4922 262.391 43.8008V43.7891C262.391 43.1055 262.516 42.5156 262.766 42.0195C263.016 41.5195 263.369 41.1367 263.826 40.8711C264.287 40.6055 264.836 40.4727 265.473 40.4727C266.109 40.4727 266.656 40.6055 267.113 40.8711C267.574 41.1367 267.93 41.5176 268.18 42.0137C268.43 42.5098 268.555 43.1016 268.555 43.7891V43.8008C268.555 44.4922 268.43 45.0859 268.18 45.582C267.934 46.0781 267.58 46.4609 267.119 46.7305C266.662 46.9961 266.113 47.1289 265.473 47.1289ZM265.473 45.9453C265.809 45.9453 266.094 45.8613 266.328 45.6934C266.566 45.5215 266.748 45.2773 266.873 44.9609C266.998 44.6406 267.061 44.2559 267.061 43.8066V43.7949C267.061 43.3418 266.998 42.957 266.873 42.6406C266.748 42.3203 266.566 42.0762 266.328 41.9082C266.094 41.7363 265.809 41.6504 265.473 41.6504C265.137 41.6504 264.85 41.7363 264.611 41.9082C264.373 42.0762 264.191 42.3203 264.066 42.6406C263.941 42.957 263.879 43.3418 263.879 43.7949V43.8066C263.879 44.2559 263.941 44.6406 264.066 44.9609C264.191 45.2812 264.371 45.5254 264.605 45.6934C264.844 45.8613 265.133 45.9453 265.473 45.9453ZM270.02 47V40.5957H271.479V41.5801H271.578C271.73 41.2324 271.961 40.9609 272.27 40.7656C272.578 40.5703 272.963 40.4727 273.424 40.4727C274.139 40.4727 274.686 40.6797 275.064 41.0938C275.443 41.5078 275.633 42.0957 275.633 42.8574V47H274.174V43.1973C274.174 42.6973 274.068 42.3223 273.857 42.0723C273.65 41.8223 273.326 41.6973 272.885 41.6973C272.596 41.6973 272.346 41.7617 272.135 41.8906C271.924 42.0195 271.762 42.2012 271.648 42.4355C271.535 42.6699 271.479 42.9473 271.479 43.2676V47H270.02ZM281.463 44.2051V42.9863H283.713C284.256 42.9863 284.678 42.8477 284.979 42.5703C285.279 42.2891 285.43 41.8945 285.43 41.3867V41.375C285.43 40.8633 285.279 40.4688 284.979 40.1914C284.678 39.9141 284.256 39.7754 283.713 39.7754H281.463V38.5449H284.082C284.656 38.5449 285.158 38.6621 285.588 38.8965C286.018 39.1309 286.354 39.4609 286.596 39.8867C286.838 40.3086 286.959 40.8027 286.959 41.3691V41.3809C286.959 41.9434 286.838 42.4375 286.596 42.8633C286.354 43.2852 286.018 43.6152 285.588 43.8535C285.158 44.0879 284.656 44.2051 284.082 44.2051H281.463ZM280.707 47V38.5449H282.219V47H280.707ZM288.535 47V38.1172H289.994V47H288.535ZM293.574 47.1055C293.172 47.1055 292.811 47.0273 292.49 46.8711C292.174 46.7148 291.924 46.4941 291.74 46.209C291.561 45.9199 291.471 45.5801 291.471 45.1895V45.1777C291.471 44.7988 291.564 44.4727 291.752 44.1992C291.939 43.9219 292.215 43.7051 292.578 43.5488C292.941 43.3926 293.383 43.3008 293.902 43.2734L296.27 43.127V44.0879L294.107 44.2285C293.697 44.252 293.395 44.3379 293.199 44.4863C293.004 44.6348 292.906 44.8418 292.906 45.1074V45.1191C292.906 45.3926 293.01 45.6055 293.217 45.7578C293.428 45.9102 293.695 45.9863 294.02 45.9863C294.312 45.9863 294.574 45.9277 294.805 45.8105C295.035 45.6934 295.217 45.5352 295.35 45.3359C295.482 45.1328 295.549 44.9043 295.549 44.6504V42.623C295.549 42.3027 295.447 42.0586 295.244 41.8906C295.041 41.7188 294.74 41.6328 294.342 41.6328C294.01 41.6328 293.738 41.6914 293.527 41.8086C293.316 41.9219 293.174 42.084 293.1 42.2949L293.094 42.3184H291.717L291.723 42.2656C291.77 41.9062 291.91 41.5918 292.145 41.3223C292.379 41.0527 292.689 40.8438 293.076 40.6953C293.463 40.5469 293.908 40.4727 294.412 40.4727C294.967 40.4727 295.436 40.5586 295.818 40.7305C296.201 40.8984 296.492 41.1445 296.691 41.4688C296.891 41.7891 296.99 42.1738 296.99 42.623V47H295.549V46.1211H295.449C295.332 46.3242 295.18 46.5 294.992 46.6484C294.809 46.7969 294.598 46.9102 294.359 46.9883C294.121 47.0664 293.859 47.1055 293.574 47.1055ZM298.742 47V40.5957H300.201V41.5801H300.301C300.453 41.2324 300.684 40.9609 300.992 40.7656C301.301 40.5703 301.686 40.4727 302.146 40.4727C302.861 40.4727 303.408 40.6797 303.787 41.0938C304.166 41.5078 304.355 42.0957 304.355 42.8574V47H302.896V43.1973C302.896 42.6973 302.791 42.3223 302.58 42.0723C302.373 41.8223 302.049 41.6973 301.607 41.6973C301.318 41.6973 301.068 41.7617 300.857 41.8906C300.646 42.0195 300.484 42.2012 300.371 42.4355C300.258 42.6699 300.201 42.9473 300.201 43.2676V47H298.742Z" fill="#48484A"/>
<path d="M101.848 77V66.4312H103.166V77H101.848ZM108.505 77.0586C107.695 77.0586 107.106 76.895 106.74 76.5679C106.379 76.2407 106.198 75.7012 106.198 74.9492V70.1592H104.953V69.1045H106.198V67.061H107.517V69.1045H109.245V70.1592H107.517V74.627C107.517 75.0908 107.604 75.4253 107.78 75.6304C107.956 75.8306 108.249 75.9307 108.659 75.9307C108.771 75.9307 108.867 75.9282 108.945 75.9233C109.028 75.9185 109.128 75.9111 109.245 75.9014V76.9854C109.123 77.0049 109.001 77.022 108.879 77.0366C108.757 77.0513 108.632 77.0586 108.505 77.0586ZM111.435 70.5986L112.072 66.4312H113.53L112.38 70.5986H111.435ZM117.653 77.1392C117.067 77.1392 116.55 77.0513 116.101 76.8755C115.651 76.6948 115.29 76.4434 115.017 76.1211C114.748 75.7988 114.589 75.4204 114.541 74.9858H115.844C115.952 75.313 116.162 75.5767 116.474 75.7769C116.787 75.9771 117.194 76.0771 117.697 76.0771C118.054 76.0771 118.366 76.0259 118.635 75.9233C118.908 75.8159 119.123 75.6719 119.279 75.4912C119.436 75.3057 119.514 75.0933 119.514 74.854V74.8394C119.514 74.5708 119.406 74.3438 119.191 74.1582C118.977 73.9678 118.625 73.814 118.137 73.6968L116.914 73.4038C116.42 73.2866 116.015 73.1353 115.698 72.9497C115.38 72.7593 115.146 72.5273 114.995 72.2539C114.843 71.9756 114.768 71.6484 114.768 71.2725V71.2651C114.768 70.8257 114.895 70.4326 115.148 70.0859C115.407 69.7393 115.759 69.4658 116.203 69.2656C116.647 69.0654 117.148 68.9653 117.705 68.9653C118.256 68.9653 118.745 69.0532 119.169 69.229C119.599 69.3999 119.943 69.644 120.202 69.9614C120.466 70.2788 120.627 70.6523 120.686 71.082H119.433C119.35 70.7695 119.16 70.5156 118.862 70.3203C118.564 70.125 118.176 70.0273 117.697 70.0273C117.385 70.0273 117.106 70.0786 116.862 70.1812C116.618 70.2788 116.425 70.4155 116.284 70.5913C116.142 70.7671 116.071 70.9722 116.071 71.2065V71.2212C116.071 71.397 116.118 71.5532 116.21 71.6899C116.303 71.8267 116.447 71.9463 116.643 72.0488C116.838 72.1514 117.089 72.2417 117.397 72.3198L118.613 72.6128C119.355 72.7935 119.907 73.0522 120.268 73.3892C120.634 73.7261 120.817 74.1777 120.817 74.7441V74.7588C120.817 75.2275 120.678 75.6426 120.4 76.0039C120.122 76.3604 119.743 76.6387 119.265 76.8389C118.791 77.0391 118.254 77.1392 117.653 77.1392ZM129.724 77.1392C129.138 77.1392 128.62 77.0513 128.171 76.8755C127.722 76.6948 127.36 76.4434 127.087 76.1211C126.818 75.7988 126.66 75.4204 126.611 74.9858H127.915C128.022 75.313 128.232 75.5767 128.544 75.7769C128.857 75.9771 129.265 76.0771 129.768 76.0771C130.124 76.0771 130.437 76.0259 130.705 75.9233C130.979 75.8159 131.193 75.6719 131.35 75.4912C131.506 75.3057 131.584 75.0933 131.584 74.854V74.8394C131.584 74.5708 131.477 74.3438 131.262 74.1582C131.047 73.9678 130.695 73.814 130.207 73.6968L128.984 73.4038C128.491 73.2866 128.085 73.1353 127.768 72.9497C127.451 72.7593 127.216 72.5273 127.065 72.2539C126.914 71.9756 126.838 71.6484 126.838 71.2725V71.2651C126.838 70.8257 126.965 70.4326 127.219 70.0859C127.478 69.7393 127.829 69.4658 128.273 69.2656C128.718 69.0654 129.218 68.9653 129.775 68.9653C130.327 68.9653 130.815 69.0532 131.24 69.229C131.669 69.3999 132.014 69.644 132.272 69.9614C132.536 70.2788 132.697 70.6523 132.756 71.082H131.503C131.42 70.7695 131.23 70.5156 130.932 70.3203C130.634 70.125 130.246 70.0273 129.768 70.0273C129.455 70.0273 129.177 70.0786 128.933 70.1812C128.688 70.2788 128.496 70.4155 128.354 70.5913C128.212 70.7671 128.142 70.9722 128.142 71.2065V71.2212C128.142 71.397 128.188 71.5532 128.281 71.6899C128.374 71.8267 128.518 71.9463 128.713 72.0488C128.908 72.1514 129.16 72.2417 129.467 72.3198L130.683 72.6128C131.425 72.7935 131.977 73.0522 132.338 73.3892C132.705 73.7261 132.888 74.1777 132.888 74.7441V74.7588C132.888 75.2275 132.749 75.6426 132.47 76.0039C132.192 76.3604 131.813 76.6387 131.335 76.8389C130.861 77.0391 130.324 77.1392 129.724 77.1392ZM137.509 77.1392C136.914 77.1392 136.413 77.0269 136.008 76.8022C135.603 76.5728 135.297 76.2407 135.092 75.8062C134.892 75.3667 134.792 74.8369 134.792 74.2168V69.1045H136.066V73.9092C136.066 74.6172 136.203 75.1445 136.477 75.4912C136.755 75.8379 137.209 76.0112 137.839 76.0112C138.186 76.0112 138.491 75.96 138.754 75.8574C139.023 75.7549 139.248 75.6084 139.428 75.418C139.609 75.2227 139.743 74.9883 139.831 74.7148C139.924 74.4365 139.97 74.124 139.97 73.7773V69.1045H141.245V77H139.97V75.8208H139.853C139.726 76.0991 139.553 76.3384 139.333 76.5386C139.113 76.7339 138.85 76.8828 138.542 76.9854C138.239 77.0879 137.895 77.1392 137.509 77.1392ZM143.654 77V69.1045H144.929V77H143.654ZM144.299 67.5811C144.06 67.5811 143.852 67.4956 143.676 67.3247C143.505 67.1489 143.42 66.9414 143.42 66.7021C143.42 66.458 143.505 66.2505 143.676 66.0796C143.852 65.9087 144.06 65.8232 144.299 65.8232C144.543 65.8232 144.75 65.9087 144.921 66.0796C145.092 66.2505 145.178 66.458 145.178 66.7021C145.178 66.9414 145.092 67.1489 144.921 67.3247C144.75 67.4956 144.543 67.5811 144.299 67.5811ZM150.136 77.0586C149.326 77.0586 148.737 76.895 148.371 76.5679C148.01 76.2407 147.829 75.7012 147.829 74.9492V70.1592H146.584V69.1045H147.829V67.061H149.147V69.1045H150.876V70.1592H149.147V74.627C149.147 75.0908 149.235 75.4253 149.411 75.6304C149.587 75.8306 149.88 75.9307 150.29 75.9307C150.402 75.9307 150.498 75.9282 150.576 75.9233C150.659 75.9185 150.759 75.9111 150.876 75.9014V76.9854C150.754 77.0049 150.632 77.022 150.51 77.0366C150.388 77.0513 150.263 77.0586 150.136 77.0586ZM154.948 77.1392C154.45 77.1392 154.001 77.0439 153.601 76.8535C153.205 76.6631 152.89 76.3921 152.656 76.0405C152.426 75.689 152.312 75.2739 152.312 74.7954V74.7808C152.312 74.312 152.424 73.9116 152.648 73.5796C152.873 73.2427 153.2 72.979 153.63 72.7886C154.06 72.5981 154.58 72.4858 155.19 72.4517L158.09 72.2759V73.2939L155.344 73.4697C154.743 73.5039 154.304 73.6284 154.025 73.8433C153.752 74.0581 153.615 74.3608 153.615 74.7515V74.7661C153.615 75.1665 153.767 75.479 154.069 75.7036C154.372 75.9233 154.753 76.0332 155.212 76.0332C155.646 76.0332 156.032 75.9478 156.369 75.7769C156.706 75.6011 156.97 75.3643 157.16 75.0664C157.355 74.7686 157.453 74.4316 157.453 74.0557V71.5947C157.453 71.1064 157.304 70.7354 157.006 70.4814C156.713 70.2227 156.271 70.0933 155.681 70.0933C155.207 70.0933 154.819 70.1787 154.516 70.3496C154.213 70.5156 154.011 70.7524 153.908 71.0601L153.901 71.082H152.626L152.634 71.0381C152.702 70.623 152.873 70.2617 153.146 69.9541C153.425 69.6416 153.784 69.3999 154.223 69.229C154.663 69.0532 155.163 68.9653 155.725 68.9653C156.369 68.9653 156.914 69.0703 157.358 69.2803C157.807 69.4902 158.146 69.793 158.376 70.1885C158.61 70.5791 158.728 71.0479 158.728 71.5947V77H157.453V75.8354H157.336C157.17 76.1138 156.967 76.3506 156.728 76.5459C156.494 76.7412 156.228 76.8901 155.93 76.9927C155.632 77.0903 155.305 77.1392 154.948 77.1392ZM164.982 77.1392C164.616 77.1392 164.277 77.083 163.964 76.9707C163.652 76.8584 163.374 76.6997 163.129 76.4946C162.885 76.2847 162.683 76.0332 162.521 75.7402H162.404V77H161.13V65.9697H162.404V70.3496H162.521C162.668 70.0664 162.863 69.8223 163.107 69.6172C163.356 69.4121 163.64 69.2534 163.957 69.1411C164.279 69.0239 164.621 68.9653 164.982 68.9653C165.651 68.9653 166.232 69.1338 166.726 69.4707C167.224 69.8076 167.609 70.2812 167.883 70.8916C168.156 71.502 168.293 72.2197 168.293 73.0449V73.0596C168.293 73.8799 168.156 74.5977 167.883 75.2129C167.609 75.8232 167.224 76.2969 166.726 76.6338C166.232 76.9707 165.651 77.1392 164.982 77.1392ZM164.689 76.0112C165.173 76.0112 165.585 75.894 165.927 75.6597C166.269 75.4204 166.53 75.0811 166.711 74.6416C166.896 74.1973 166.989 73.6699 166.989 73.0596V73.0449C166.989 72.4297 166.896 71.9023 166.711 71.4629C166.53 71.0234 166.269 70.6865 165.927 70.4521C165.585 70.2129 165.173 70.0933 164.689 70.0933C164.211 70.0933 163.798 70.2129 163.452 70.4521C163.105 70.6914 162.839 71.0308 162.653 71.4702C162.468 71.9097 162.375 72.4346 162.375 73.0449V73.0596C162.375 73.665 162.468 74.1899 162.653 74.6343C162.839 75.0737 163.105 75.4131 163.452 75.6523C163.798 75.8916 164.211 76.0112 164.689 76.0112ZM170.344 77V65.9697H171.618V77H170.344ZM177.287 77.1392C176.535 77.1392 175.888 76.9731 175.346 76.6411C174.809 76.3091 174.394 75.8403 174.101 75.2349C173.813 74.6245 173.669 73.9067 173.669 73.0815V73.0742C173.669 72.2588 173.813 71.5435 174.101 70.9282C174.394 70.313 174.807 69.832 175.339 69.4854C175.871 69.1387 176.494 68.9653 177.207 68.9653C177.924 68.9653 178.54 69.1313 179.052 69.4634C179.57 69.7954 179.965 70.2593 180.239 70.855C180.517 71.4458 180.656 72.1343 180.656 72.9204V73.4185H174.328V72.4004H180.004L179.375 73.3306V72.8252C179.375 72.2051 179.282 71.6948 179.096 71.2944C178.911 70.894 178.654 70.5962 178.327 70.4009C178 70.2007 177.624 70.1006 177.199 70.1006C176.774 70.1006 176.394 70.2056 176.057 70.4155C175.725 70.6206 175.461 70.9258 175.266 71.3311C175.07 71.7363 174.973 72.2344 174.973 72.8252V73.3306C174.973 73.8921 175.068 74.373 175.258 74.7734C175.449 75.1689 175.72 75.4741 176.071 75.689C176.423 75.8989 176.838 76.0039 177.316 76.0039C177.673 76.0039 177.983 75.9551 178.247 75.8574C178.51 75.7598 178.728 75.6353 178.898 75.4839C179.069 75.3325 179.189 75.1787 179.257 75.0225L179.287 74.9565H180.561L180.546 75.0151C180.478 75.2837 180.356 75.5449 180.18 75.7988C180.009 76.0479 179.787 76.2749 179.514 76.48C179.24 76.6802 178.916 76.8413 178.54 76.9634C178.168 77.0806 177.751 77.1392 177.287 77.1392ZM187.38 77V70.1592H186.069V69.1045H187.38V68.2256C187.38 67.6982 187.465 67.2637 187.636 66.9219C187.812 66.5752 188.071 66.3188 188.413 66.1528C188.754 65.9819 189.174 65.8965 189.672 65.8965C189.829 65.8965 189.975 65.9038 190.112 65.9185C190.253 65.9282 190.39 65.9453 190.522 65.9697V66.9878C190.444 66.9731 190.354 66.9634 190.251 66.9585C190.148 66.9536 190.041 66.9512 189.929 66.9512C189.475 66.9512 189.147 67.061 188.947 67.2808C188.752 67.5005 188.654 67.8276 188.654 68.2622V69.1045H190.449V70.1592H188.654V77H187.38ZM195.209 77.1392C194.462 77.1392 193.815 76.9756 193.269 76.6484C192.727 76.3164 192.307 75.8452 192.009 75.2349C191.716 74.6245 191.569 73.8994 191.569 73.0596V73.0449C191.569 72.2002 191.716 71.4727 192.009 70.8623C192.307 70.252 192.727 69.7832 193.269 69.4561C193.815 69.1289 194.462 68.9653 195.209 68.9653C195.961 68.9653 196.608 69.1289 197.15 69.4561C197.692 69.7832 198.11 70.252 198.403 70.8623C198.701 71.4727 198.85 72.2002 198.85 73.0449V73.0596C198.85 73.8994 198.701 74.6245 198.403 75.2349C198.11 75.8452 197.692 76.3164 197.15 76.6484C196.608 76.9756 195.961 77.1392 195.209 77.1392ZM195.209 76.0112C195.708 76.0112 196.13 75.894 196.477 75.6597C196.823 75.4253 197.087 75.0884 197.268 74.6489C197.453 74.2095 197.546 73.6797 197.546 73.0596V73.0449C197.546 72.4199 197.453 71.8877 197.268 71.4482C197.087 71.0088 196.823 70.6743 196.477 70.4448C196.13 70.2104 195.708 70.0933 195.209 70.0933C194.711 70.0933 194.289 70.2104 193.942 70.4448C193.596 70.6743 193.33 71.0088 193.144 71.4482C192.963 71.8877 192.873 72.4199 192.873 73.0449V73.0596C192.873 73.6797 192.963 74.2095 193.144 74.6489C193.33 75.0884 193.596 75.4253 193.942 75.6597C194.289 75.894 194.711 76.0112 195.209 76.0112ZM200.827 77V69.1045H202.102V70.2764H202.219C202.37 69.8613 202.626 69.5391 202.988 69.3096C203.349 69.0801 203.796 68.9653 204.328 68.9653C204.45 68.9653 204.57 68.9727 204.687 68.9873C204.809 68.9971 204.902 69.0068 204.965 69.0166V70.2544C204.833 70.23 204.704 70.2129 204.577 70.2031C204.455 70.1885 204.323 70.1812 204.182 70.1812C203.776 70.1812 203.417 70.2617 203.105 70.4229C202.792 70.584 202.546 70.8086 202.365 71.0967C202.189 71.3848 202.102 71.7217 202.102 72.1074V77H200.827ZM211.286 77V70.1592H209.975V69.1045H211.286V68.2256C211.286 67.6982 211.372 67.2637 211.542 66.9219C211.718 66.5752 211.977 66.3188 212.319 66.1528C212.661 65.9819 213.081 65.8965 213.579 65.8965C213.735 65.8965 213.881 65.9038 214.018 65.9185C214.16 65.9282 214.296 65.9453 214.428 65.9697V66.9878C214.35 66.9731 214.26 66.9634 214.157 66.9585C214.055 66.9536 213.947 66.9512 213.835 66.9512C213.381 66.9512 213.054 67.061 212.854 67.2808C212.658 67.5005 212.561 67.8276 212.561 68.2622V69.1045H214.355V70.1592H212.561V77H211.286ZM216.193 77V69.1045H217.468V70.2764H217.585C217.736 69.8613 217.993 69.5391 218.354 69.3096C218.715 69.0801 219.162 68.9653 219.694 68.9653C219.816 68.9653 219.936 68.9727 220.053 68.9873C220.175 68.9971 220.268 69.0068 220.332 69.0166V70.2544C220.2 70.23 220.07 70.2129 219.943 70.2031C219.821 70.1885 219.689 70.1812 219.548 70.1812C219.143 70.1812 218.784 70.2617 218.471 70.4229C218.159 70.584 217.912 70.8086 217.731 71.0967C217.556 71.3848 217.468 71.7217 217.468 72.1074V77H216.193ZM224.909 77.1392C224.157 77.1392 223.51 76.9731 222.968 76.6411C222.431 76.3091 222.016 75.8403 221.723 75.2349C221.435 74.6245 221.291 73.9067 221.291 73.0815V73.0742C221.291 72.2588 221.435 71.5435 221.723 70.9282C222.016 70.313 222.429 69.832 222.961 69.4854C223.493 69.1387 224.116 68.9653 224.829 68.9653C225.546 68.9653 226.162 69.1313 226.674 69.4634C227.192 69.7954 227.587 70.2593 227.861 70.855C228.139 71.4458 228.278 72.1343 228.278 72.9204V73.4185H221.95V72.4004H227.626L226.997 73.3306V72.8252C226.997 72.2051 226.904 71.6948 226.718 71.2944C226.533 70.894 226.276 70.5962 225.949 70.4009C225.622 70.2007 225.246 70.1006 224.821 70.1006C224.396 70.1006 224.016 70.2056 223.679 70.4155C223.347 70.6206 223.083 70.9258 222.888 71.3311C222.692 71.7363 222.595 72.2344 222.595 72.8252V73.3306C222.595 73.8921 222.69 74.373 222.88 74.7734C223.071 75.1689 223.342 75.4741 223.693 75.689C224.045 75.8989 224.46 76.0039 224.938 76.0039C225.295 76.0039 225.605 75.9551 225.869 75.8574C226.132 75.7598 226.35 75.6353 226.521 75.4839C226.691 75.3325 226.811 75.1787 226.879 75.0225L226.909 74.9565H228.183L228.168 75.0151C228.1 75.2837 227.978 75.5449 227.802 75.7988C227.631 76.0479 227.409 76.2749 227.136 76.48C226.862 76.6802 226.538 76.8413 226.162 76.9634C225.791 77.0806 225.373 77.1392 224.909 77.1392ZM235.764 79.6367V75.8135H235.646C235.505 76.0918 235.312 76.3311 235.068 76.5312C234.824 76.7266 234.541 76.8779 234.218 76.9854C233.901 77.0879 233.554 77.1392 233.178 77.1392C232.509 77.1392 231.926 76.9707 231.428 76.6338C230.93 76.2969 230.544 75.8232 230.271 75.2129C229.997 74.5977 229.86 73.8799 229.86 73.0596V73.0449C229.86 72.2197 229.997 71.502 230.271 70.8916C230.544 70.2812 230.93 69.8076 231.428 69.4707C231.926 69.1338 232.509 68.9653 233.178 68.9653C233.535 68.9653 233.869 69.0239 234.182 69.1411C234.499 69.2583 234.785 69.4268 235.039 69.6465C235.297 69.8613 235.51 70.1201 235.676 70.4229H235.764V69.1045H237.038V79.6367H235.764ZM233.479 76.0112C233.952 76.0112 234.362 75.8916 234.709 75.6523C235.056 75.4082 235.324 75.0664 235.515 74.627C235.705 74.1826 235.8 73.6602 235.8 73.0596V73.0449C235.8 72.4395 235.705 71.917 235.515 71.4775C235.324 71.0332 235.056 70.6914 234.709 70.4521C234.362 70.2129 233.95 70.0933 233.471 70.0933C232.993 70.0933 232.58 70.2129 232.233 70.4521C231.887 70.6865 231.621 71.0234 231.435 71.4629C231.254 71.9023 231.164 72.4297 231.164 73.0449V73.0596C231.164 73.6699 231.257 74.1973 231.442 74.6416C231.628 75.0811 231.892 75.4204 232.233 75.6597C232.58 75.894 232.995 76.0112 233.479 76.0112ZM242.041 77.1392C241.445 77.1392 240.944 77.0269 240.539 76.8022C240.134 76.5728 239.829 76.2407 239.624 75.8062C239.423 75.3667 239.323 74.8369 239.323 74.2168V69.1045H240.598V73.9092C240.598 74.6172 240.734 75.1445 241.008 75.4912C241.286 75.8379 241.74 76.0112 242.37 76.0112C242.717 76.0112 243.022 75.96 243.286 75.8574C243.554 75.7549 243.779 75.6084 243.959 75.418C244.14 75.2227 244.274 74.9883 244.362 74.7148C244.455 74.4365 244.501 74.124 244.501 73.7773V69.1045H245.776V77H244.501V75.8208H244.384C244.257 76.0991 244.084 76.3384 243.864 76.5386C243.645 76.7339 243.381 76.8828 243.073 76.9854C242.771 77.0879 242.426 77.1392 242.041 77.1392ZM251.379 77.1392C250.627 77.1392 249.98 76.9731 249.438 76.6411C248.901 76.3091 248.486 75.8403 248.193 75.2349C247.905 74.6245 247.761 73.9067 247.761 73.0815V73.0742C247.761 72.2588 247.905 71.5435 248.193 70.9282C248.486 70.313 248.898 69.832 249.431 69.4854C249.963 69.1387 250.585 68.9653 251.298 68.9653C252.016 68.9653 252.631 69.1313 253.144 69.4634C253.662 69.7954 254.057 70.2593 254.331 70.855C254.609 71.4458 254.748 72.1343 254.748 72.9204V73.4185H248.42V72.4004H254.096L253.466 73.3306V72.8252C253.466 72.2051 253.374 71.6948 253.188 71.2944C253.002 70.894 252.746 70.5962 252.419 70.4009C252.092 70.2007 251.716 70.1006 251.291 70.1006C250.866 70.1006 250.485 70.2056 250.148 70.4155C249.816 70.6206 249.553 70.9258 249.357 71.3311C249.162 71.7363 249.064 72.2344 249.064 72.8252V73.3306C249.064 73.8921 249.16 74.373 249.35 74.7734C249.541 75.1689 249.812 75.4741 250.163 75.689C250.515 75.8989 250.93 76.0039 251.408 76.0039C251.765 76.0039 252.075 75.9551 252.338 75.8574C252.602 75.7598 252.819 75.6353 252.99 75.4839C253.161 75.3325 253.281 75.1787 253.349 75.0225L253.378 74.9565H254.653L254.638 75.0151C254.57 75.2837 254.448 75.5449 254.272 75.7988C254.101 76.0479 253.879 76.2749 253.605 76.48C253.332 76.6802 253.007 76.8413 252.631 76.9634C252.26 77.0806 251.843 77.1392 251.379 77.1392ZM256.726 77V69.1045H258V70.291H258.117C258.317 69.8711 258.605 69.5464 258.981 69.3169C259.357 69.0825 259.836 68.9653 260.417 68.9653C261.306 68.9653 261.987 69.2192 262.46 69.7271C262.939 70.23 263.178 70.9502 263.178 71.8877V77H261.904V72.1953C261.904 71.4824 261.752 70.9551 261.45 70.6133C261.152 70.2666 260.688 70.0933 260.058 70.0933C259.638 70.0933 259.274 70.1836 258.967 70.3643C258.659 70.5449 258.42 70.8013 258.249 71.1333C258.083 71.4653 258 71.8633 258 72.3271V77H256.726ZM268.291 77.0586C267.48 77.0586 266.892 76.895 266.525 76.5679C266.164 76.2407 265.983 75.7012 265.983 74.9492V70.1592H264.738V69.1045H265.983V67.061H267.302V69.1045H269.03V70.1592H267.302V74.627C267.302 75.0908 267.39 75.4253 267.565 75.6304C267.741 75.8306 268.034 75.9307 268.444 75.9307C268.557 75.9307 268.652 75.9282 268.73 75.9233C268.813 75.9185 268.913 75.9111 269.03 75.9014V76.9854C268.908 77.0049 268.786 77.022 268.664 77.0366C268.542 77.0513 268.417 77.0586 268.291 77.0586ZM275.153 77V69.1045H276.428V70.2764H276.545C276.696 69.8613 276.953 69.5391 277.314 69.3096C277.675 69.0801 278.122 68.9653 278.654 68.9653C278.776 68.9653 278.896 68.9727 279.013 68.9873C279.135 68.9971 279.228 69.0068 279.292 69.0166V70.2544C279.16 70.23 279.03 70.2129 278.903 70.2031C278.781 70.1885 278.649 70.1812 278.508 70.1812C278.103 70.1812 277.744 70.2617 277.431 70.4229C277.119 70.584 276.872 70.8086 276.691 71.0967C276.516 71.3848 276.428 71.7217 276.428 72.1074V77H275.153ZM283.869 77.1392C283.117 77.1392 282.47 76.9731 281.928 76.6411C281.391 76.3091 280.976 75.8403 280.683 75.2349C280.395 74.6245 280.251 73.9067 280.251 73.0815V73.0742C280.251 72.2588 280.395 71.5435 280.683 70.9282C280.976 70.313 281.389 69.832 281.921 69.4854C282.453 69.1387 283.076 68.9653 283.789 68.9653C284.506 68.9653 285.122 69.1313 285.634 69.4634C286.152 69.7954 286.547 70.2593 286.821 70.855C287.099 71.4458 287.238 72.1343 287.238 72.9204V73.4185H280.91V72.4004H286.586L285.957 73.3306V72.8252C285.957 72.2051 285.864 71.6948 285.678 71.2944C285.493 70.894 285.236 70.5962 284.909 70.4009C284.582 70.2007 284.206 70.1006 283.781 70.1006C283.356 70.1006 282.976 70.2056 282.639 70.4155C282.307 70.6206 282.043 70.9258 281.848 71.3311C281.652 71.7363 281.555 72.2344 281.555 72.8252V73.3306C281.555 73.8921 281.65 74.373 281.84 74.7734C282.031 75.1689 282.302 75.4741 282.653 75.689C283.005 75.8989 283.42 76.0039 283.898 76.0039C284.255 76.0039 284.565 75.9551 284.829 75.8574C285.092 75.7598 285.31 75.6353 285.48 75.4839C285.651 75.3325 285.771 75.1787 285.839 75.0225L285.869 74.9565H287.143L287.128 75.0151C287.06 75.2837 286.938 75.5449 286.762 75.7988C286.591 76.0479 286.369 76.2749 286.096 76.48C285.822 76.6802 285.498 76.8413 285.122 76.9634C284.75 77.0806 284.333 77.1392 283.869 77.1392ZM289.216 77V69.1045H290.49V70.291H290.607C290.808 69.8711 291.096 69.5464 291.472 69.3169C291.848 69.0825 292.326 68.9653 292.907 68.9653C293.796 68.9653 294.477 69.2192 294.951 69.7271C295.429 70.23 295.668 70.9502 295.668 71.8877V77H294.394V72.1953C294.394 71.4824 294.243 70.9551 293.94 70.6133C293.642 70.2666 293.178 70.0933 292.548 70.0933C292.128 70.0933 291.765 70.1836 291.457 70.3643C291.149 70.5449 290.91 70.8013 290.739 71.1333C290.573 71.4653 290.49 71.8633 290.49 72.3271V77H289.216ZM300.781 77.0586C299.97 77.0586 299.382 76.895 299.016 76.5679C298.654 76.2407 298.474 75.7012 298.474 74.9492V70.1592H297.229V69.1045H298.474V67.061H299.792V69.1045H301.521V70.1592H299.792V74.627C299.792 75.0908 299.88 75.4253 300.056 75.6304C300.231 75.8306 300.524 75.9307 300.935 75.9307C301.047 75.9307 301.142 75.9282 301.22 75.9233C301.303 75.9185 301.403 75.9111 301.521 75.9014V76.9854C301.398 77.0049 301.276 77.022 301.154 77.0366C301.032 77.0513 300.908 77.0586 300.781 77.0586ZM305.593 77.1392C305.095 77.1392 304.646 77.0439 304.245 76.8535C303.85 76.6631 303.535 76.3921 303.3 76.0405C303.071 75.689 302.956 75.2739 302.956 74.7954V74.7808C302.956 74.312 303.068 73.9116 303.293 73.5796C303.518 73.2427 303.845 72.979 304.274 72.7886C304.704 72.5981 305.224 72.4858 305.834 72.4517L308.735 72.2759V73.2939L305.988 73.4697C305.388 73.5039 304.948 73.6284 304.67 73.8433C304.396 74.0581 304.26 74.3608 304.26 74.7515V74.7661C304.26 75.1665 304.411 75.479 304.714 75.7036C305.017 75.9233 305.397 76.0332 305.856 76.0332C306.291 76.0332 306.677 75.9478 307.014 75.7769C307.351 75.6011 307.614 75.3643 307.805 75.0664C308 74.7686 308.098 74.4316 308.098 74.0557V71.5947C308.098 71.1064 307.949 70.7354 307.651 70.4814C307.358 70.2227 306.916 70.0933 306.325 70.0933C305.852 70.0933 305.463 70.1787 305.161 70.3496C304.858 70.5156 304.655 70.7524 304.553 71.0601L304.545 71.082H303.271L303.278 71.0381C303.347 70.623 303.518 70.2617 303.791 69.9541C304.069 69.6416 304.428 69.3999 304.868 69.229C305.307 69.0532 305.808 68.9653 306.369 68.9653C307.014 68.9653 307.558 69.0703 308.002 69.2803C308.452 69.4902 308.791 69.793 309.021 70.1885C309.255 70.5791 309.372 71.0479 309.372 71.5947V77H308.098V75.8354H307.98C307.814 76.1138 307.612 76.3506 307.373 76.5459C307.138 76.7412 306.872 76.8901 306.574 76.9927C306.276 77.0903 305.949 77.1392 305.593 77.1392ZM311.774 77V65.9697H313.049V77H311.774ZM318.205 77.1392C317.619 77.1392 317.102 77.0513 316.652 76.8755C316.203 76.6948 315.842 76.4434 315.568 76.1211C315.3 75.7988 315.141 75.4204 315.092 74.9858H316.396C316.503 75.313 316.713 75.5767 317.026 75.7769C317.338 75.9771 317.746 76.0771 318.249 76.0771C318.605 76.0771 318.918 76.0259 319.187 75.9233C319.46 75.8159 319.675 75.6719 319.831 75.4912C319.987 75.3057 320.065 75.0933 320.065 74.854V74.8394C320.065 74.5708 319.958 74.3438 319.743 74.1582C319.528 73.9678 319.177 73.814 318.688 73.6968L317.465 73.4038C316.972 73.2866 316.567 73.1353 316.25 72.9497C315.932 72.7593 315.698 72.5273 315.546 72.2539C315.395 71.9756 315.319 71.6484 315.319 71.2725V71.2651C315.319 70.8257 315.446 70.4326 315.7 70.0859C315.959 69.7393 316.311 69.4658 316.755 69.2656C317.199 69.0654 317.7 68.9653 318.256 68.9653C318.808 68.9653 319.296 69.0532 319.721 69.229C320.151 69.3999 320.495 69.644 320.754 69.9614C321.018 70.2788 321.179 70.6523 321.237 71.082H319.985C319.902 70.7695 319.711 70.5156 319.414 70.3203C319.116 70.125 318.728 70.0273 318.249 70.0273C317.937 70.0273 317.658 70.0786 317.414 70.1812C317.17 70.2788 316.977 70.4155 316.835 70.5913C316.694 70.7671 316.623 70.9722 316.623 71.2065V71.2212C316.623 71.397 316.669 71.5532 316.762 71.6899C316.855 71.8267 316.999 71.9463 317.194 72.0488C317.39 72.1514 317.641 72.2417 317.949 72.3198L319.165 72.6128C319.907 72.7935 320.458 73.0522 320.82 73.3892C321.186 73.7261 321.369 74.1777 321.369 74.7441V74.7588C321.369 75.2275 321.23 75.6426 320.952 76.0039C320.673 76.3604 320.295 76.6387 319.816 76.8389C319.343 77.0391 318.806 77.1392 318.205 77.1392ZM323.024 79.688L323.662 75.5205H325.119L323.969 79.688H323.024ZM332.092 77V65.9697H333.366V77H332.092ZM339.057 77.1392C338.31 77.1392 337.663 76.9756 337.116 76.6484C336.574 76.3164 336.154 75.8452 335.856 75.2349C335.563 74.6245 335.417 73.8994 335.417 73.0596V73.0449C335.417 72.2002 335.563 71.4727 335.856 70.8623C336.154 70.252 336.574 69.7832 337.116 69.4561C337.663 69.1289 338.31 68.9653 339.057 68.9653C339.809 68.9653 340.456 69.1289 340.998 69.4561C341.54 69.7832 341.958 70.252 342.25 70.8623C342.548 71.4727 342.697 72.2002 342.697 73.0449V73.0596C342.697 73.8994 342.548 74.6245 342.25 75.2349C341.958 75.8452 341.54 76.3164 340.998 76.6484C340.456 76.9756 339.809 77.1392 339.057 77.1392ZM339.057 76.0112C339.555 76.0112 339.978 75.894 340.324 75.6597C340.671 75.4253 340.935 75.0884 341.115 74.6489C341.301 74.2095 341.394 73.6797 341.394 73.0596V73.0449C341.394 72.4199 341.301 71.8877 341.115 71.4482C340.935 71.0088 340.671 70.6743 340.324 70.4448C339.978 70.2104 339.555 70.0933 339.057 70.0933C338.559 70.0933 338.137 70.2104 337.79 70.4448C337.443 70.6743 337.177 71.0088 336.992 71.4482C336.811 71.8877 336.721 72.4199 336.721 73.0449V73.0596C336.721 73.6797 336.811 74.2095 336.992 74.6489C337.177 75.0884 337.443 75.4253 337.79 75.6597C338.137 75.894 338.559 76.0112 339.057 76.0112ZM344.675 77V69.1045H345.949V70.291H346.066C346.267 69.8711 346.555 69.5464 346.931 69.3169C347.307 69.0825 347.785 68.9653 348.366 68.9653C349.255 68.9653 349.936 69.2192 350.41 69.7271C350.888 70.23 351.127 70.9502 351.127 71.8877V77H349.853V72.1953C349.853 71.4824 349.702 70.9551 349.399 70.6133C349.101 70.2666 348.637 70.0933 348.007 70.0933C347.587 70.0933 347.224 70.1836 346.916 70.3643C346.608 70.5449 346.369 70.8013 346.198 71.1333C346.032 71.4653 345.949 71.8633 345.949 72.3271V77H344.675ZM356.687 79.7832C356.052 79.7832 355.498 79.6929 355.024 79.5122C354.55 79.3364 354.172 79.085 353.889 78.7578C353.61 78.4355 353.437 78.0596 353.369 77.6299L353.383 77.6226H354.702L354.709 77.6299C354.777 77.9277 354.982 78.1719 355.324 78.3623C355.666 78.5576 356.12 78.6553 356.687 78.6553C357.395 78.6553 357.946 78.4941 358.342 78.1719C358.742 77.8545 358.942 77.4053 358.942 76.8242V75.2275H358.825C358.659 75.5156 358.452 75.7622 358.203 75.9673C357.954 76.1724 357.673 76.3286 357.36 76.436C357.048 76.5386 356.711 76.5898 356.35 76.5898C355.671 76.5898 355.083 76.4287 354.584 76.1064C354.091 75.7793 353.71 75.3301 353.442 74.7588C353.173 74.1875 353.039 73.5332 353.039 72.7959V72.7812C353.039 72.0439 353.173 71.3896 353.442 70.8184C353.715 70.2422 354.101 69.7905 354.599 69.4634C355.097 69.1313 355.69 68.9653 356.379 68.9653C356.75 68.9653 357.092 69.0239 357.404 69.1411C357.717 69.2583 357.993 69.4243 358.232 69.6392C358.476 69.854 358.679 70.1104 358.84 70.4082H358.928V69.1045H360.202V76.8901C360.202 77.4761 360.058 77.9863 359.77 78.4209C359.487 78.8555 359.082 79.1899 358.554 79.4243C358.027 79.6636 357.404 79.7832 356.687 79.7832ZM356.628 75.4619C357.116 75.4619 357.534 75.3496 357.88 75.125C358.232 74.8955 358.5 74.5806 358.686 74.1802C358.876 73.7798 358.972 73.3184 358.972 72.7959V72.7812C358.972 72.2588 358.876 71.7949 358.686 71.3896C358.5 70.9844 358.232 70.667 357.88 70.4375C357.534 70.208 357.116 70.0933 356.628 70.0933C356.14 70.0933 355.725 70.208 355.383 70.4375C355.046 70.667 354.787 70.9844 354.606 71.3896C354.431 71.7949 354.343 72.2588 354.343 72.7812V72.7959C354.343 73.3184 354.431 73.7798 354.606 74.1802C354.787 74.5806 355.046 74.8955 355.383 75.125C355.725 75.3496 356.14 75.4619 356.628 75.4619ZM362.465 73.3379V72.1514H367.387V73.3379H362.465ZM372.163 77.0586C371.352 77.0586 370.764 76.895 370.397 76.5679C370.036 76.2407 369.855 75.7012 369.855 74.9492V70.1592H368.61V69.1045H369.855V67.061H371.174V69.1045H372.902V70.1592H371.174V74.627C371.174 75.0908 371.262 75.4253 371.438 75.6304C371.613 75.8306 371.906 75.9307 372.316 75.9307C372.429 75.9307 372.524 75.9282 372.602 75.9233C372.685 75.9185 372.785 75.9111 372.902 75.9014V76.9854C372.78 77.0049 372.658 77.022 372.536 77.0366C372.414 77.0513 372.29 77.0586 372.163 77.0586ZM377.927 77.1392C377.175 77.1392 376.528 76.9731 375.986 76.6411C375.449 76.3091 375.034 75.8403 374.741 75.2349C374.453 74.6245 374.309 73.9067 374.309 73.0815V73.0742C374.309 72.2588 374.453 71.5435 374.741 70.9282C375.034 70.313 375.446 69.832 375.979 69.4854C376.511 69.1387 377.133 68.9653 377.846 68.9653C378.564 68.9653 379.179 69.1313 379.692 69.4634C380.209 69.7954 380.605 70.2593 380.878 70.855C381.157 71.4458 381.296 72.1343 381.296 72.9204V73.4185H374.968V72.4004H380.644L380.014 73.3306V72.8252C380.014 72.2051 379.921 71.6948 379.736 71.2944C379.55 70.894 379.294 70.5962 378.967 70.4009C378.64 70.2007 378.264 70.1006 377.839 70.1006C377.414 70.1006 377.033 70.2056 376.696 70.4155C376.364 70.6206 376.101 70.9258 375.905 71.3311C375.71 71.7363 375.612 72.2344 375.612 72.8252V73.3306C375.612 73.8921 375.708 74.373 375.898 74.7734C376.088 75.1689 376.359 75.4741 376.711 75.689C377.062 75.8989 377.478 76.0039 377.956 76.0039C378.312 76.0039 378.623 75.9551 378.886 75.8574C379.15 75.7598 379.367 75.6353 379.538 75.4839C379.709 75.3325 379.829 75.1787 379.897 75.0225L379.926 74.9565H381.201L381.186 75.0151C381.118 75.2837 380.996 75.5449 380.82 75.7988C380.649 76.0479 380.427 76.2749 380.153 76.48C379.88 76.6802 379.555 76.8413 379.179 76.9634C378.808 77.0806 378.391 77.1392 377.927 77.1392ZM383.273 77V69.1045H384.548V70.2764H384.665C384.816 69.8613 385.073 69.5391 385.434 69.3096C385.795 69.0801 386.242 68.9653 386.774 68.9653C386.896 68.9653 387.016 68.9727 387.133 68.9873C387.255 68.9971 387.348 69.0068 387.412 69.0166V70.2544C387.28 70.23 387.15 70.2129 387.023 70.2031C386.901 70.1885 386.77 70.1812 386.628 70.1812C386.223 70.1812 385.864 70.2617 385.551 70.4229C385.239 70.584 384.992 70.8086 384.812 71.0967C384.636 71.3848 384.548 71.7217 384.548 72.1074V77H383.273ZM389.133 77V69.1045H390.407V70.3057H390.524C390.7 69.8809 390.969 69.5513 391.33 69.3169C391.696 69.0825 392.138 68.9653 392.656 68.9653C393.012 68.9653 393.332 69.0239 393.615 69.1411C393.898 69.2583 394.143 69.4219 394.348 69.6318C394.553 69.8369 394.716 70.0762 394.838 70.3496H394.956C395.097 70.0713 395.288 69.8296 395.527 69.6245C395.766 69.4146 396.042 69.2534 396.354 69.1411C396.672 69.0239 397.011 68.9653 397.373 68.9653C397.91 68.9653 398.364 69.0654 398.735 69.2656C399.111 69.4658 399.396 69.7588 399.592 70.1445C399.787 70.5254 399.885 70.9917 399.885 71.5435V77H398.61V71.8364C398.61 71.4458 398.549 71.1235 398.427 70.8696C398.31 70.6108 398.129 70.418 397.885 70.291C397.641 70.1592 397.333 70.0933 396.962 70.0933C396.596 70.0933 396.276 70.1763 396.003 70.3423C395.729 70.5083 395.517 70.7305 395.366 71.0088C395.214 71.2822 395.139 71.5874 395.139 71.9243V77H393.864V71.6387C393.864 71.3262 393.796 71.0552 393.659 70.8257C393.527 70.5913 393.337 70.4106 393.088 70.2837C392.844 70.1567 392.556 70.0933 392.224 70.0933C391.882 70.0933 391.572 70.1836 391.293 70.3643C391.02 70.5449 390.803 70.7891 390.642 71.0967C390.485 71.3994 390.407 71.7363 390.407 72.1074V77H389.133ZM409.047 77.1392C408.452 77.1392 407.951 77.0269 407.546 76.8022C407.141 76.5728 406.835 76.2407 406.63 75.8062C406.43 75.3667 406.33 74.8369 406.33 74.2168V69.1045H407.604V73.9092C407.604 74.6172 407.741 75.1445 408.015 75.4912C408.293 75.8379 408.747 76.0112 409.377 76.0112C409.724 76.0112 410.029 75.96 410.292 75.8574C410.561 75.7549 410.786 75.6084 410.966 75.418C411.147 75.2227 411.281 74.9883 411.369 74.7148C411.462 74.4365 411.508 74.124 411.508 73.7773V69.1045H412.783V77H411.508V75.8208H411.391C411.264 76.0991 411.091 76.3384 410.871 76.5386C410.651 76.7339 410.388 76.8828 410.08 76.9854C409.777 77.0879 409.433 77.1392 409.047 77.1392ZM417.873 77.1392C417.287 77.1392 416.77 77.0513 416.32 76.8755C415.871 76.6948 415.51 76.4434 415.236 76.1211C414.968 75.7988 414.809 75.4204 414.76 74.9858H416.064C416.171 75.313 416.381 75.5767 416.694 75.7769C417.006 75.9771 417.414 76.0771 417.917 76.0771C418.273 76.0771 418.586 76.0259 418.854 75.9233C419.128 75.8159 419.343 75.6719 419.499 75.4912C419.655 75.3057 419.733 75.0933 419.733 74.854V74.8394C419.733 74.5708 419.626 74.3438 419.411 74.1582C419.196 73.9678 418.845 73.814 418.356 73.6968L417.133 73.4038C416.64 73.2866 416.235 73.1353 415.917 72.9497C415.6 72.7593 415.366 72.5273 415.214 72.2539C415.063 71.9756 414.987 71.6484 414.987 71.2725V71.2651C414.987 70.8257 415.114 70.4326 415.368 70.0859C415.627 69.7393 415.979 69.4658 416.423 69.2656C416.867 69.0654 417.368 68.9653 417.924 68.9653C418.476 68.9653 418.964 69.0532 419.389 69.229C419.819 69.3999 420.163 69.644 420.422 69.9614C420.686 70.2788 420.847 70.6523 420.905 71.082H419.653C419.57 70.7695 419.379 70.5156 419.082 70.3203C418.784 70.125 418.396 70.0273 417.917 70.0273C417.604 70.0273 417.326 70.0786 417.082 70.1812C416.838 70.2788 416.645 70.4155 416.503 70.5913C416.362 70.7671 416.291 70.9722 416.291 71.2065V71.2212C416.291 71.397 416.337 71.5532 416.43 71.6899C416.523 71.8267 416.667 71.9463 416.862 72.0488C417.058 72.1514 417.309 72.2417 417.617 72.3198L418.833 72.6128C419.575 72.7935 420.126 73.0522 420.488 73.3892C420.854 73.7261 421.037 74.1777 421.037 74.7441V74.7588C421.037 75.2275 420.898 75.6426 420.62 76.0039C420.341 76.3604 419.963 76.6387 419.484 76.8389C419.011 77.0391 418.474 77.1392 417.873 77.1392ZM426.237 77.1392C425.485 77.1392 424.838 76.9731 424.296 76.6411C423.759 76.3091 423.344 75.8403 423.051 75.2349C422.763 74.6245 422.619 73.9067 422.619 73.0815V73.0742C422.619 72.2588 422.763 71.5435 423.051 70.9282C423.344 70.313 423.757 69.832 424.289 69.4854C424.821 69.1387 425.444 68.9653 426.157 68.9653C426.875 68.9653 427.49 69.1313 428.002 69.4634C428.52 69.7954 428.916 70.2593 429.189 70.855C429.467 71.4458 429.606 72.1343 429.606 72.9204V73.4185H423.278V72.4004H428.955L428.325 73.3306V72.8252C428.325 72.2051 428.232 71.6948 428.046 71.2944C427.861 70.894 427.604 70.5962 427.277 70.4009C426.95 70.2007 426.574 70.1006 426.149 70.1006C425.725 70.1006 425.344 70.2056 425.007 70.4155C424.675 70.6206 424.411 70.9258 424.216 71.3311C424.021 71.7363 423.923 72.2344 423.923 72.8252V73.3306C423.923 73.8921 424.018 74.373 424.208 74.7734C424.399 75.1689 424.67 75.4741 425.021 75.689C425.373 75.8989 425.788 76.0039 426.267 76.0039C426.623 76.0039 426.933 75.9551 427.197 75.8574C427.46 75.7598 427.678 75.6353 427.849 75.4839C428.02 75.3325 428.139 75.1787 428.208 75.0225L428.237 74.9565H429.511L429.497 75.0151C429.428 75.2837 429.306 75.5449 429.13 75.7988C428.959 76.0479 428.737 76.2749 428.464 76.48C428.19 76.6802 427.866 76.8413 427.49 76.9634C427.119 77.0806 426.701 77.1392 426.237 77.1392ZM431.262 79.688L431.899 75.5205H433.356L432.207 79.688H431.262ZM443.5 77.1392C442.753 77.1392 442.106 76.9756 441.56 76.6484C441.018 76.3164 440.598 75.8452 440.3 75.2349C440.007 74.6245 439.86 73.8994 439.86 73.0596V73.0449C439.86 72.2002 440.007 71.4727 440.3 70.8623C440.598 70.252 441.018 69.7832 441.56 69.4561C442.106 69.1289 442.753 68.9653 443.5 68.9653C444.252 68.9653 444.899 69.1289 445.441 69.4561C445.983 69.7832 446.401 70.252 446.694 70.8623C446.992 71.4727 447.141 72.2002 447.141 73.0449V73.0596C447.141 73.8994 446.992 74.6245 446.694 75.2349C446.401 75.8452 445.983 76.3164 445.441 76.6484C444.899 76.9756 444.252 77.1392 443.5 77.1392ZM443.5 76.0112C443.999 76.0112 444.421 75.894 444.768 75.6597C445.114 75.4253 445.378 75.0884 445.559 74.6489C445.744 74.2095 445.837 73.6797 445.837 73.0596V73.0449C445.837 72.4199 445.744 71.8877 445.559 71.4482C445.378 71.0088 445.114 70.6743 444.768 70.4448C444.421 70.2104 443.999 70.0933 443.5 70.0933C443.002 70.0933 442.58 70.2104 442.233 70.4448C441.887 70.6743 441.621 71.0088 441.435 71.4482C441.254 71.8877 441.164 72.4199 441.164 73.0449V73.0596C441.164 73.6797 441.254 74.2095 441.435 74.6489C441.621 75.0884 441.887 75.4253 442.233 75.6597C442.58 75.894 443.002 76.0112 443.5 76.0112ZM449.118 77V69.1045H450.393V70.2764H450.51C450.661 69.8613 450.917 69.5391 451.279 69.3096C451.64 69.0801 452.087 68.9653 452.619 68.9653C452.741 68.9653 452.861 68.9727 452.978 68.9873C453.1 68.9971 453.193 69.0068 453.256 69.0166V70.2544C453.125 70.23 452.995 70.2129 452.868 70.2031C452.746 70.1885 452.614 70.1812 452.473 70.1812C452.067 70.1812 451.708 70.2617 451.396 70.4229C451.083 70.584 450.837 70.8086 450.656 71.0967C450.48 71.3848 450.393 71.7217 450.393 72.1074V77H449.118ZM461.401 77L458.522 66.4312H459.899L462.001 75.0225H462.089L464.455 66.4312H465.788L468.154 75.0225H468.242L470.344 66.4312H471.721L468.842 77H467.597L465.166 68.6577H465.078L462.646 77H461.401ZM476.079 77.1392C475.332 77.1392 474.685 76.9756 474.138 76.6484C473.596 76.3164 473.176 75.8452 472.878 75.2349C472.585 74.6245 472.438 73.8994 472.438 73.0596V73.0449C472.438 72.2002 472.585 71.4727 472.878 70.8623C473.176 70.252 473.596 69.7832 474.138 69.4561C474.685 69.1289 475.332 68.9653 476.079 68.9653C476.831 68.9653 477.478 69.1289 478.02 69.4561C478.562 69.7832 478.979 70.252 479.272 70.8623C479.57 71.4727 479.719 72.2002 479.719 73.0449V73.0596C479.719 73.8994 479.57 74.6245 479.272 75.2349C478.979 75.8452 478.562 76.3164 478.02 76.6484C477.478 76.9756 476.831 77.1392 476.079 77.1392ZM476.079 76.0112C476.577 76.0112 476.999 75.894 477.346 75.6597C477.692 75.4253 477.956 75.0884 478.137 74.6489C478.322 74.2095 478.415 73.6797 478.415 73.0596V73.0449C478.415 72.4199 478.322 71.8877 478.137 71.4482C477.956 71.0088 477.692 70.6743 477.346 70.4448C476.999 70.2104 476.577 70.0933 476.079 70.0933C475.581 70.0933 475.158 70.2104 474.812 70.4448C474.465 70.6743 474.199 71.0088 474.013 71.4482C473.833 71.8877 473.742 72.4199 473.742 73.0449V73.0596C473.742 73.6797 473.833 74.2095 474.013 74.6489C474.199 75.0884 474.465 75.4253 474.812 75.6597C475.158 75.894 475.581 76.0112 476.079 76.0112ZM481.696 77V69.1045H482.971V70.2764H483.088C483.239 69.8613 483.496 69.5391 483.857 69.3096C484.218 69.0801 484.665 68.9653 485.197 68.9653C485.319 68.9653 485.439 68.9727 485.556 68.9873C485.678 68.9971 485.771 69.0068 485.834 69.0166V70.2544C485.703 70.23 485.573 70.2129 485.446 70.2031C485.324 70.1885 485.192 70.1812 485.051 70.1812C484.646 70.1812 484.287 70.2617 483.974 70.4229C483.662 70.584 483.415 70.8086 483.234 71.0967C483.059 71.3848 482.971 71.7217 482.971 72.1074V77H481.696ZM487.482 77V65.9697H488.757V77H487.482ZM494.118 77.1392C493.454 77.1392 492.873 76.9707 492.375 76.6338C491.877 76.2969 491.491 75.8232 491.218 75.2129C490.944 74.5977 490.808 73.8799 490.808 73.0596V73.0449C490.808 72.2197 490.944 71.502 491.218 70.8916C491.491 70.2812 491.875 69.8076 492.368 69.4707C492.866 69.1338 493.449 68.9653 494.118 68.9653C494.479 68.9653 494.819 69.0239 495.136 69.1411C495.458 69.2534 495.744 69.4121 495.993 69.6172C496.242 69.8223 496.438 70.0664 496.579 70.3496H496.696V65.9697H497.971V77H496.696V75.7402H496.579C496.418 76.0332 496.215 76.2847 495.971 76.4946C495.727 76.6997 495.449 76.8584 495.136 76.9707C494.824 77.083 494.484 77.1392 494.118 77.1392ZM494.411 76.0112C494.89 76.0112 495.302 75.8916 495.649 75.6523C495.996 75.4131 496.262 75.0737 496.447 74.6343C496.633 74.1899 496.726 73.665 496.726 73.0596V73.0449C496.726 72.4346 496.633 71.9097 496.447 71.4702C496.262 71.0308 495.996 70.6914 495.649 70.4521C495.302 70.2129 494.89 70.0933 494.411 70.0933C493.933 70.0933 493.52 70.2129 493.173 70.4521C492.832 70.6865 492.568 71.0234 492.382 71.4629C492.202 71.9023 492.111 72.4297 492.111 73.0449V73.0596C492.111 73.6699 492.202 74.1973 492.382 74.6416C492.568 75.0811 492.832 75.4204 493.173 75.6597C493.52 75.894 493.933 76.0112 494.411 76.0112ZM501.94 77L499.729 69.1045H501.003L502.556 75.418H502.673L504.438 69.1045H505.646L507.412 75.418H507.529L509.082 69.1045H510.349L508.137 77H506.855L505.09 70.8916H504.973L503.215 77H501.94ZM512.062 77V69.1045H513.337V77H512.062ZM512.707 67.5811C512.468 67.5811 512.26 67.4956 512.084 67.3247C511.914 67.1489 511.828 66.9414 511.828 66.7021C511.828 66.458 511.914 66.2505 512.084 66.0796C512.26 65.9087 512.468 65.8232 512.707 65.8232C512.951 65.8232 513.159 65.9087 513.33 66.0796C513.5 66.2505 513.586 66.458 513.586 66.7021C513.586 66.9414 513.5 67.1489 513.33 67.3247C513.159 67.4956 512.951 67.5811 512.707 67.5811ZM518.654 77.1392C517.99 77.1392 517.409 76.9707 516.911 76.6338C516.413 76.2969 516.027 75.8232 515.754 75.2129C515.48 74.5977 515.344 73.8799 515.344 73.0596V73.0449C515.344 72.2197 515.48 71.502 515.754 70.8916C516.027 70.2812 516.411 69.8076 516.904 69.4707C517.402 69.1338 517.985 68.9653 518.654 68.9653C519.016 68.9653 519.355 69.0239 519.672 69.1411C519.995 69.2534 520.28 69.4121 520.529 69.6172C520.778 69.8223 520.974 70.0664 521.115 70.3496H521.232V65.9697H522.507V77H521.232V75.7402H521.115C520.954 76.0332 520.751 76.2847 520.507 76.4946C520.263 76.6997 519.985 76.8584 519.672 76.9707C519.36 77.083 519.021 77.1392 518.654 77.1392ZM518.947 76.0112C519.426 76.0112 519.838 75.8916 520.185 75.6523C520.532 75.4131 520.798 75.0737 520.983 74.6343C521.169 74.1899 521.262 73.665 521.262 73.0596V73.0449C521.262 72.4346 521.169 71.9097 520.983 71.4702C520.798 71.0308 520.532 70.6914 520.185 70.4521C519.838 70.2129 519.426 70.0933 518.947 70.0933C518.469 70.0933 518.056 70.2129 517.709 70.4521C517.368 70.6865 517.104 71.0234 516.918 71.4629C516.738 71.9023 516.647 72.4297 516.647 73.0449V73.0596C516.647 73.6699 516.738 74.1973 516.918 74.6416C517.104 75.0811 517.368 75.4204 517.709 75.6597C518.056 75.894 518.469 76.0112 518.947 76.0112ZM528.176 77.1392C527.424 77.1392 526.777 76.9731 526.235 76.6411C525.698 76.3091 525.283 75.8403 524.99 75.2349C524.702 74.6245 524.558 73.9067 524.558 73.0815V73.0742C524.558 72.2588 524.702 71.5435 524.99 70.9282C525.283 70.313 525.695 69.832 526.228 69.4854C526.76 69.1387 527.382 68.9653 528.095 68.9653C528.813 68.9653 529.428 69.1313 529.941 69.4634C530.458 69.7954 530.854 70.2593 531.127 70.855C531.406 71.4458 531.545 72.1343 531.545 72.9204V73.4185H525.217V72.4004H530.893L530.263 73.3306V72.8252C530.263 72.2051 530.17 71.6948 529.985 71.2944C529.799 70.894 529.543 70.5962 529.216 70.4009C528.889 70.2007 528.513 70.1006 528.088 70.1006C527.663 70.1006 527.282 70.2056 526.945 70.4155C526.613 70.6206 526.35 70.9258 526.154 71.3311C525.959 71.7363 525.861 72.2344 525.861 72.8252V73.3306C525.861 73.8921 525.957 74.373 526.147 74.7734C526.337 75.1689 526.608 75.4741 526.96 75.689C527.312 75.8989 527.727 76.0039 528.205 76.0039C528.562 76.0039 528.872 75.9551 529.135 75.8574C529.399 75.7598 529.616 75.6353 529.787 75.4839C529.958 75.3325 530.078 75.1787 530.146 75.0225L530.175 74.9565H531.45L531.435 75.0151C531.367 75.2837 531.245 75.5449 531.069 75.7988C530.898 76.0479 530.676 76.2749 530.402 76.48C530.129 76.6802 529.804 76.8413 529.428 76.9634C529.057 77.0806 528.64 77.1392 528.176 77.1392ZM540.971 77.1392C540.234 77.1392 539.594 76.9707 539.052 76.6338C538.51 76.2969 538.09 75.8208 537.792 75.2056C537.495 74.5903 537.346 73.8652 537.346 73.0303V73.0156C537.346 72.1953 537.492 71.4824 537.785 70.877C538.083 70.2715 538.503 69.8027 539.045 69.4707C539.587 69.1338 540.227 68.9653 540.964 68.9653C541.604 68.9653 542.155 69.0776 542.619 69.3022C543.083 69.5269 543.454 69.8296 543.732 70.2104C544.011 70.5864 544.189 71.0088 544.267 71.4775L544.274 71.5215H543.007L543 71.4995C542.902 71.1089 542.68 70.7769 542.333 70.5034C541.987 70.23 541.53 70.0933 540.964 70.0933C540.49 70.0933 540.08 70.2129 539.733 70.4521C539.387 70.6914 539.118 71.0308 538.928 71.4702C538.742 71.9048 538.649 72.4199 538.649 73.0156V73.0303C538.649 73.6357 538.745 74.1631 538.935 74.6123C539.125 75.0566 539.394 75.4009 539.741 75.645C540.087 75.8892 540.495 76.0112 540.964 76.0112C541.496 76.0112 541.931 75.8965 542.268 75.667C542.604 75.4375 542.846 75.103 542.993 74.6636L543.007 74.6196L544.267 74.6123L544.252 74.6929C544.145 75.1665 543.955 75.5889 543.681 75.96C543.408 76.3262 543.046 76.6143 542.597 76.8242C542.148 77.0342 541.606 77.1392 540.971 77.1392ZM549.379 77.1392C548.632 77.1392 547.985 76.9756 547.438 76.6484C546.896 76.3164 546.477 75.8452 546.179 75.2349C545.886 74.6245 545.739 73.8994 545.739 73.0596V73.0449C545.739 72.2002 545.886 71.4727 546.179 70.8623C546.477 70.252 546.896 69.7832 547.438 69.4561C547.985 69.1289 548.632 68.9653 549.379 68.9653C550.131 68.9653 550.778 69.1289 551.32 69.4561C551.862 69.7832 552.28 70.252 552.573 70.8623C552.871 71.4727 553.02 72.2002 553.02 73.0449V73.0596C553.02 73.8994 552.871 74.6245 552.573 75.2349C552.28 75.8452 551.862 76.3164 551.32 76.6484C550.778 76.9756 550.131 77.1392 549.379 77.1392ZM549.379 76.0112C549.877 76.0112 550.3 75.894 550.646 75.6597C550.993 75.4253 551.257 75.0884 551.438 74.6489C551.623 74.2095 551.716 73.6797 551.716 73.0596V73.0449C551.716 72.4199 551.623 71.8877 551.438 71.4482C551.257 71.0088 550.993 70.6743 550.646 70.4448C550.3 70.2104 549.877 70.0933 549.379 70.0933C548.881 70.0933 548.459 70.2104 548.112 70.4448C547.766 70.6743 547.5 71.0088 547.314 71.4482C547.133 71.8877 547.043 72.4199 547.043 73.0449V73.0596C547.043 73.6797 547.133 74.2095 547.314 74.6489C547.5 75.0884 547.766 75.4253 548.112 75.6597C548.459 75.894 548.881 76.0112 549.379 76.0112ZM556.938 77L554.016 69.1045H555.363L557.524 75.6084H557.641L559.802 69.1045H561.149L558.227 77H556.938ZM565.764 77.1392C565.012 77.1392 564.365 76.9731 563.823 76.6411C563.286 76.3091 562.871 75.8403 562.578 75.2349C562.29 74.6245 562.146 73.9067 562.146 73.0815V73.0742C562.146 72.2588 562.29 71.5435 562.578 70.9282C562.871 70.313 563.283 69.832 563.815 69.4854C564.348 69.1387 564.97 68.9653 565.683 68.9653C566.401 68.9653 567.016 69.1313 567.529 69.4634C568.046 69.7954 568.442 70.2593 568.715 70.855C568.994 71.4458 569.133 72.1343 569.133 72.9204V73.4185H562.805V72.4004H568.481L567.851 73.3306V72.8252C567.851 72.2051 567.758 71.6948 567.573 71.2944C567.387 70.894 567.131 70.5962 566.804 70.4009C566.477 70.2007 566.101 70.1006 565.676 70.1006C565.251 70.1006 564.87 70.2056 564.533 70.4155C564.201 70.6206 563.938 70.9258 563.742 71.3311C563.547 71.7363 563.449 72.2344 563.449 72.8252V73.3306C563.449 73.8921 563.544 74.373 563.735 74.7734C563.925 75.1689 564.196 75.4741 564.548 75.689C564.899 75.8989 565.314 76.0039 565.793 76.0039C566.149 76.0039 566.459 75.9551 566.723 75.8574C566.987 75.7598 567.204 75.6353 567.375 75.4839C567.546 75.3325 567.666 75.1787 567.734 75.0225L567.763 74.9565H569.038L569.023 75.0151C568.955 75.2837 568.833 75.5449 568.657 75.7988C568.486 76.0479 568.264 76.2749 567.99 76.48C567.717 76.6802 567.392 76.8413 567.016 76.9634C566.645 77.0806 566.228 77.1392 565.764 77.1392ZM571.11 77V69.1045H572.385V70.2764H572.502C572.653 69.8613 572.91 69.5391 573.271 69.3096C573.632 69.0801 574.079 68.9653 574.611 68.9653C574.733 68.9653 574.853 68.9727 574.97 68.9873C575.092 68.9971 575.185 69.0068 575.249 69.0166V70.2544C575.117 70.23 574.987 70.2129 574.86 70.2031C574.738 70.1885 574.606 70.1812 574.465 70.1812C574.06 70.1812 573.701 70.2617 573.388 70.4229C573.076 70.584 572.829 70.8086 572.648 71.0967C572.473 71.3848 572.385 71.7217 572.385 72.1074V77H571.11ZM578.991 77.1392C578.493 77.1392 578.044 77.0439 577.644 76.8535C577.248 76.6631 576.933 76.3921 576.699 76.0405C576.469 75.689 576.354 75.2739 576.354 74.7954V74.7808C576.354 74.312 576.467 73.9116 576.691 73.5796C576.916 73.2427 577.243 72.979 577.673 72.7886C578.103 72.5981 578.623 72.4858 579.233 72.4517L582.133 72.2759V73.2939L579.387 73.4697C578.786 73.5039 578.347 73.6284 578.068 73.8433C577.795 74.0581 577.658 74.3608 577.658 74.7515V74.7661C577.658 75.1665 577.81 75.479 578.112 75.7036C578.415 75.9233 578.796 76.0332 579.255 76.0332C579.689 76.0332 580.075 75.9478 580.412 75.7769C580.749 75.6011 581.013 75.3643 581.203 75.0664C581.398 74.7686 581.496 74.4316 581.496 74.0557V71.5947C581.496 71.1064 581.347 70.7354 581.049 70.4814C580.756 70.2227 580.314 70.0933 579.724 70.0933C579.25 70.0933 578.862 70.1787 578.559 70.3496C578.256 70.5156 578.054 70.7524 577.951 71.0601L577.944 71.082H576.669L576.677 71.0381C576.745 70.623 576.916 70.2617 577.189 69.9541C577.468 69.6416 577.827 69.3999 578.266 69.229C578.706 69.0532 579.206 68.9653 579.768 68.9653C580.412 68.9653 580.957 69.0703 581.401 69.2803C581.85 69.4902 582.189 69.793 582.419 70.1885C582.653 70.5791 582.771 71.0479 582.771 71.5947V77H581.496V75.8354H581.379C581.213 76.1138 581.01 76.3506 580.771 76.5459C580.537 76.7412 580.271 76.8901 579.973 76.9927C579.675 77.0903 579.348 77.1392 578.991 77.1392ZM588.352 79.7832C587.717 79.7832 587.163 79.6929 586.689 79.5122C586.215 79.3364 585.837 79.085 585.554 78.7578C585.275 78.4355 585.102 78.0596 585.034 77.6299L585.048 77.6226H586.367L586.374 77.6299C586.442 77.9277 586.647 78.1719 586.989 78.3623C587.331 78.5576 587.785 78.6553 588.352 78.6553C589.06 78.6553 589.611 78.4941 590.007 78.1719C590.407 77.8545 590.607 77.4053 590.607 76.8242V75.2275H590.49C590.324 75.5156 590.117 75.7622 589.868 75.9673C589.619 76.1724 589.338 76.3286 589.025 76.436C588.713 76.5386 588.376 76.5898 588.015 76.5898C587.336 76.5898 586.748 76.4287 586.25 76.1064C585.756 75.7793 585.375 75.3301 585.107 74.7588C584.838 74.1875 584.704 73.5332 584.704 72.7959V72.7812C584.704 72.0439 584.838 71.3896 585.107 70.8184C585.38 70.2422 585.766 69.7905 586.264 69.4634C586.762 69.1313 587.355 68.9653 588.044 68.9653C588.415 68.9653 588.757 69.0239 589.069 69.1411C589.382 69.2583 589.658 69.4243 589.897 69.6392C590.141 69.854 590.344 70.1104 590.505 70.4082H590.593V69.1045H591.867V76.8901C591.867 77.4761 591.723 77.9863 591.435 78.4209C591.152 78.8555 590.747 79.1899 590.219 79.4243C589.692 79.6636 589.069 79.7832 588.352 79.7832ZM588.293 75.4619C588.781 75.4619 589.199 75.3496 589.545 75.125C589.897 74.8955 590.166 74.5806 590.351 74.1802C590.542 73.7798 590.637 73.3184 590.637 72.7959V72.7812C590.637 72.2588 590.542 71.7949 590.351 71.3896C590.166 70.9844 589.897 70.667 589.545 70.4375C589.199 70.208 588.781 70.0933 588.293 70.0933C587.805 70.0933 587.39 70.208 587.048 70.4375C586.711 70.667 586.452 70.9844 586.271 71.3896C586.096 71.7949 586.008 72.2588 586.008 72.7812V72.7959C586.008 73.3184 586.096 73.7798 586.271 74.1802C586.452 74.5806 586.711 74.8955 587.048 75.125C587.39 75.3496 587.805 75.4619 588.293 75.4619ZM597.463 77.1392C596.711 77.1392 596.064 76.9731 595.522 76.6411C594.985 76.3091 594.57 75.8403 594.277 75.2349C593.989 74.6245 593.845 73.9067 593.845 73.0815V73.0742C593.845 72.2588 593.989 71.5435 594.277 70.9282C594.57 70.313 594.982 69.832 595.515 69.4854C596.047 69.1387 596.669 68.9653 597.382 68.9653C598.1 68.9653 598.715 69.1313 599.228 69.4634C599.746 69.7954 600.141 70.2593 600.415 70.855C600.693 71.4458 600.832 72.1343 600.832 72.9204V73.4185H594.504V72.4004H600.18L599.55 73.3306V72.8252C599.55 72.2051 599.458 71.6948 599.272 71.2944C599.086 70.894 598.83 70.5962 598.503 70.4009C598.176 70.2007 597.8 70.1006 597.375 70.1006C596.95 70.1006 596.569 70.2056 596.232 70.4155C595.9 70.6206 595.637 70.9258 595.441 71.3311C595.246 71.7363 595.148 72.2344 595.148 72.8252V73.3306C595.148 73.8921 595.244 74.373 595.434 74.7734C595.625 75.1689 595.896 75.4741 596.247 75.689C596.599 75.8989 597.014 76.0039 597.492 76.0039C597.849 76.0039 598.159 75.9551 598.422 75.8574C598.686 75.7598 598.903 75.6353 599.074 75.4839C599.245 75.3325 599.365 75.1787 599.433 75.0225L599.462 74.9565H600.737L600.722 75.0151C600.654 75.2837 600.532 75.5449 600.356 75.7988C600.185 76.0479 599.963 76.2749 599.689 76.48C599.416 76.6802 599.091 76.8413 598.715 76.9634C598.344 77.0806 597.927 77.1392 597.463 77.1392ZM603.85 77.0732C603.591 77.0732 603.366 76.9805 603.176 76.7949C602.99 76.6045 602.897 76.3799 602.897 76.1211C602.897 75.8574 602.99 75.6328 603.176 75.4473C603.366 75.2617 603.591 75.1689 603.85 75.1689C604.113 75.1689 604.338 75.2617 604.523 75.4473C604.709 75.6328 604.802 75.8574 604.802 76.1211C604.802 76.3799 604.709 76.6045 604.523 76.7949C604.338 76.9805 604.113 77.0732 603.85 77.0732Z" fill="#48484A"/>
</svg>
