<svg width="768" height="137" viewBox="0 0 768 137" fill="none" xmlns="http://www.w3.org/2000/svg">
<g clip-path="url(#clip0_164_2641)" filter="url(#filter0_d_164_2641)">
<rect x="26" y="27" width="720" height="75" rx="8" fill="white"/>
</g>
<path d="M306.616 59V46.9805H314.436V48.79H308.774V52.0771H314.021V53.8867H308.774V57.1738H314.469V59H306.616ZM316.411 59V49.9854H318.437V51.5127H318.553C318.926 50.4834 319.831 49.8691 321.026 49.8691C322.247 49.8691 323.126 50.4917 323.467 51.5127H323.566C323.957 50.5166 324.961 49.8691 326.272 49.8691C327.924 49.8691 329.086 50.9316 329.078 52.9404V59H326.97V53.2725C326.97 52.1519 326.289 51.6455 325.426 51.6455C324.388 51.6455 323.782 52.3511 323.782 53.3721V59H321.724V53.1895C321.715 52.2515 321.101 51.6455 320.196 51.6455C319.283 51.6455 318.536 52.4009 318.536 53.5215V59H316.411ZM335.104 59.1826C332.39 59.1826 330.722 57.373 330.722 54.5508C330.722 51.7617 332.415 49.8691 334.988 49.8691C337.196 49.8691 339.105 51.2554 339.105 54.418V55.082H332.813C332.847 56.6177 333.751 57.5308 335.121 57.5225C336.051 57.5308 336.673 57.1323 336.947 56.5928H339.022C338.641 58.1533 337.196 59.1826 335.104 59.1826ZM332.822 53.6377H337.08C337.072 52.4092 336.242 51.5127 335.021 51.5127C333.751 51.5127 332.896 52.4922 332.822 53.6377ZM340.749 59V49.9854H342.808V51.4795H342.907C343.231 50.4419 344.094 49.8525 345.132 49.8525C345.364 49.8525 345.696 49.8774 345.896 49.9023V51.8613C345.705 51.7949 345.265 51.7368 344.916 51.7285C343.737 51.7368 342.874 52.5503 342.874 53.6875V59H340.749ZM350.793 62.5693C348.402 62.5693 346.883 61.5068 346.742 59.8135H348.851C349 60.6021 349.739 60.9673 350.826 60.9756C352.096 60.9673 352.918 60.4194 352.918 59.0996V57.373H352.818C352.486 58.0371 351.764 58.8672 350.212 58.8672C348.128 58.8672 346.493 57.3564 346.493 54.418C346.493 51.4546 348.137 49.8691 350.229 49.8691C351.814 49.8691 352.486 50.8237 352.818 51.4629H352.918V49.9854H355.01V59.1494C355.01 61.457 353.225 62.5693 350.793 62.5693ZM348.651 54.4512C348.651 56.1113 349.398 57.207 350.793 57.207C352.163 57.207 352.935 56.1777 352.935 54.4512C352.935 52.7329 352.171 51.604 350.793 51.5957C349.382 51.604 348.651 52.8076 348.651 54.4512ZM361.036 59.1826C358.322 59.1826 356.653 57.373 356.653 54.5508C356.653 51.7617 358.347 49.8691 360.92 49.8691C363.128 49.8691 365.037 51.2554 365.037 54.418V55.082H358.745C358.778 56.6177 359.683 57.5308 361.053 57.5225C361.982 57.5308 362.605 57.1323 362.879 56.5928H364.954C364.572 58.1533 363.128 59.1826 361.036 59.1826ZM358.753 53.6377H363.012C363.003 52.4092 362.173 51.5127 360.953 51.5127C359.683 51.5127 358.828 52.4922 358.753 53.6377ZM368.806 53.7207V59H366.681V49.9854H368.706V51.5127H368.822C369.229 50.5083 370.15 49.8691 371.495 49.8691C373.363 49.8691 374.591 51.0977 374.583 53.2559V59H372.475V53.5879C372.475 52.376 371.819 51.6538 370.715 51.6621C369.594 51.6538 368.806 52.4092 368.806 53.7207ZM380.543 59.1826C377.854 59.1826 376.227 57.2568 376.227 54.5342C376.227 51.77 377.903 49.8691 380.543 49.8691C382.726 49.8691 384.262 51.1475 384.411 53.0898H382.386C382.22 52.2266 381.589 51.5708 380.56 51.5625C379.248 51.5708 378.368 52.6665 378.368 54.4844C378.368 56.3438 379.231 57.4478 380.56 57.4561C381.498 57.4478 382.195 56.8999 382.386 55.9287H384.411C384.253 57.8296 382.809 59.1826 380.543 59.1826ZM387.283 62.3867C386.86 62.3784 386.461 62.3701 386.188 62.3369V60.6436C386.445 60.6685 386.802 60.6685 387.084 60.6768C387.599 60.6685 388.03 60.6353 388.396 59.6641L388.578 59.1826L385.291 49.9854H387.532L389.624 56.792H389.724L391.815 49.9854H394.057L390.438 60.0957C389.923 61.5317 388.977 62.3784 387.283 62.3867ZM404.532 52.5586C404.399 51.8779 403.835 51.438 402.938 51.4463C402.034 51.438 401.37 51.8945 401.378 52.5088C401.37 52.9736 401.743 53.3223 402.656 53.5381L404.184 53.8535C405.885 54.2271 406.715 55.0156 406.724 56.3105C406.715 58.0039 405.229 59.1826 402.872 59.1826C400.581 59.1826 399.228 58.1533 399.004 56.4268H401.162C401.287 57.1987 401.884 57.5806 402.872 57.5723C403.893 57.5806 404.557 57.1655 404.565 56.4932C404.557 55.9702 404.15 55.6382 403.254 55.4473L401.81 55.1318C400.133 54.7915 399.261 53.9116 399.27 52.625C399.261 50.9565 400.706 49.8691 402.905 49.8691C405.055 49.8691 406.383 50.9233 406.541 52.5586H404.532ZM414.095 55.2148V49.9854H416.203V59H414.161V57.4062H414.062C413.646 58.4106 412.7 59.1162 411.355 59.1162C409.571 59.1162 408.342 57.8877 408.334 55.7295V49.9854H410.459V55.3975C410.459 56.543 411.14 57.2734 412.169 57.2734C413.099 57.2734 414.095 56.5928 414.095 55.2148ZM418.229 62.3867V49.9854H420.304V51.4629H420.437C420.76 50.8237 421.424 49.8691 423.026 49.8691C425.102 49.8691 426.737 51.4961 426.745 54.501C426.737 57.4644 425.151 59.1577 423.026 59.166C421.474 59.1577 420.769 58.2363 420.437 57.5723H420.354V62.3867H418.229ZM420.304 54.4844C420.312 56.2441 421.076 57.4229 422.445 57.4229C423.848 57.4229 424.587 56.186 424.587 54.4844C424.587 52.8076 423.865 51.604 422.445 51.5957C421.059 51.604 420.312 52.7329 420.304 54.4844ZM428.405 62.3867V49.9854H430.48V51.4629H430.613C430.937 50.8237 431.601 49.8691 433.203 49.8691C435.278 49.8691 436.914 51.4961 436.922 54.501C436.914 57.4644 435.328 59.1577 433.203 59.166C431.651 59.1577 430.945 58.2363 430.613 57.5723H430.53V62.3867H428.405ZM430.48 54.4844C430.489 56.2441 431.252 57.4229 432.622 57.4229C434.025 57.4229 434.764 56.186 434.764 54.4844C434.764 52.8076 434.042 51.604 432.622 51.5957C431.236 51.604 430.489 52.7329 430.48 54.4844ZM442.517 59.1826C439.885 59.1826 438.2 57.3149 438.2 54.5342C438.2 51.7285 439.885 49.8691 442.517 49.8691C445.156 49.8691 446.841 51.7285 446.833 54.5342C446.841 57.3149 445.156 59.1826 442.517 59.1826ZM440.342 54.5176C440.342 56.1694 441.064 57.4893 442.533 57.4893C443.978 57.4893 444.7 56.1694 444.691 54.5176C444.7 52.8657 443.978 51.5376 442.533 51.5459C441.064 51.5376 440.342 52.8657 440.342 54.5176ZM448.477 59V49.9854H450.535V51.4795H450.635C450.958 50.4419 451.822 49.8525 452.859 49.8525C453.092 49.8525 453.424 49.8774 453.623 49.9023V51.8613C453.432 51.7949 452.992 51.7368 452.644 51.7285C451.465 51.7368 450.602 52.5503 450.602 53.6875V59H448.477ZM459.882 49.9854V51.6123H458.105V56.2939C458.105 57.1572 458.537 57.3315 459.068 57.3398C459.317 57.3481 459.732 57.3232 459.998 57.3066V59.0332C459.749 59.0747 459.342 59.1245 458.803 59.1162C457.209 59.1245 455.98 58.3359 455.997 56.6426V51.6123H454.702V49.9854H455.997V47.8271H458.105V49.9854H459.882Z" fill="black"/>
<path d="M231.835 81V70.4312H233.117L239.174 79.1177L238.295 78.6562H238.969V70.4312H240.273V81H238.991L232.934 72.3428L233.813 72.8042H233.139V81H231.835ZM246.03 81.1392C245.278 81.1392 244.631 80.9731 244.089 80.6411C243.552 80.3091 243.137 79.8403 242.844 79.2349C242.556 78.6245 242.412 77.9067 242.412 77.0815V77.0742C242.412 76.2588 242.556 75.5435 242.844 74.9282C243.137 74.313 243.549 73.832 244.082 73.4854C244.614 73.1387 245.236 72.9653 245.949 72.9653C246.667 72.9653 247.282 73.1313 247.795 73.4634C248.312 73.7954 248.708 74.2593 248.981 74.855C249.26 75.4458 249.399 76.1343 249.399 76.9204V77.4185H243.071V76.4004H248.747L248.117 77.3306V76.8252C248.117 76.2051 248.024 75.6948 247.839 75.2944C247.653 74.894 247.397 74.5962 247.07 74.4009C246.743 74.2007 246.367 74.1006 245.942 74.1006C245.517 74.1006 245.136 74.2056 244.799 74.4155C244.467 74.6206 244.204 74.9258 244.008 75.3311C243.813 75.7363 243.715 76.2344 243.715 76.8252V77.3306C243.715 77.8921 243.811 78.373 244.001 78.7734C244.191 79.1689 244.462 79.4741 244.814 79.689C245.166 79.8989 245.581 80.0039 246.059 80.0039C246.416 80.0039 246.726 79.9551 246.989 79.8574C247.253 79.7598 247.47 79.6353 247.641 79.4839C247.812 79.3325 247.932 79.1787 248 79.0225L248.029 78.9565H249.304L249.289 79.0151C249.221 79.2837 249.099 79.5449 248.923 79.7988C248.752 80.0479 248.53 80.2749 248.256 80.48C247.983 80.6802 247.658 80.8413 247.282 80.9634C246.911 81.0806 246.494 81.1392 246.03 81.1392ZM254.599 81.1392C253.847 81.1392 253.2 80.9731 252.658 80.6411C252.121 80.3091 251.706 79.8403 251.413 79.2349C251.125 78.6245 250.981 77.9067 250.981 77.0815V77.0742C250.981 76.2588 251.125 75.5435 251.413 74.9282C251.706 74.313 252.119 73.832 252.651 73.4854C253.183 73.1387 253.806 72.9653 254.519 72.9653C255.236 72.9653 255.852 73.1313 256.364 73.4634C256.882 73.7954 257.277 74.2593 257.551 74.855C257.829 75.4458 257.968 76.1343 257.968 76.9204V77.4185H251.64V76.4004H257.316L256.687 77.3306V76.8252C256.687 76.2051 256.594 75.6948 256.408 75.2944C256.223 74.894 255.966 74.5962 255.639 74.4009C255.312 74.2007 254.936 74.1006 254.511 74.1006C254.086 74.1006 253.706 74.2056 253.369 74.4155C253.037 74.6206 252.773 74.9258 252.578 75.3311C252.382 75.7363 252.285 76.2344 252.285 76.8252V77.3306C252.285 77.8921 252.38 78.373 252.57 78.7734C252.761 79.1689 253.032 79.4741 253.383 79.689C253.735 79.8989 254.15 80.0039 254.628 80.0039C254.985 80.0039 255.295 79.9551 255.559 79.8574C255.822 79.7598 256.04 79.6353 256.21 79.4839C256.381 79.3325 256.501 79.1787 256.569 79.0225L256.599 78.9565H257.873L257.858 79.0151C257.79 79.2837 257.668 79.5449 257.492 79.7988C257.321 80.0479 257.099 80.2749 256.826 80.48C256.552 80.6802 256.228 80.8413 255.852 80.9634C255.48 81.0806 255.063 81.1392 254.599 81.1392ZM262.861 81.1392C262.197 81.1392 261.616 80.9707 261.118 80.6338C260.62 80.2969 260.234 79.8232 259.96 79.2129C259.687 78.5977 259.55 77.8799 259.55 77.0596V77.0449C259.55 76.2197 259.687 75.502 259.96 74.8916C260.234 74.2812 260.617 73.8076 261.11 73.4707C261.608 73.1338 262.192 72.9653 262.861 72.9653C263.403 72.9653 263.894 73.0923 264.333 73.3462C264.777 73.5952 265.107 73.9297 265.322 74.3496H265.439V69.9697H266.713V81H265.439V79.7402H265.322C265.083 80.1797 264.75 80.5239 264.326 80.7729C263.901 81.0171 263.413 81.1392 262.861 81.1392ZM263.154 80.0112C263.632 80.0112 264.045 79.8916 264.392 79.6523C264.738 79.4131 265.004 79.0737 265.19 78.6343C265.375 78.1899 265.468 77.665 265.468 77.0596V77.0449C265.468 76.4346 265.375 75.9097 265.19 75.4702C265.004 75.0308 264.738 74.6914 264.392 74.4521C264.045 74.2129 263.632 74.0933 263.154 74.0933C262.675 74.0933 262.263 74.2129 261.916 74.4521C261.574 74.6865 261.311 75.0234 261.125 75.4629C260.944 75.9023 260.854 76.4297 260.854 77.0449V77.0596C260.854 77.6699 260.944 78.1973 261.125 78.6416C261.311 79.0811 261.574 79.4204 261.916 79.6597C262.263 79.894 262.675 80.0112 263.154 80.0112ZM273.452 81V69.9697H274.726V74.291H274.843C275.043 73.8711 275.332 73.5464 275.708 73.3169C276.083 73.0825 276.562 72.9653 277.143 72.9653C277.734 72.9653 278.234 73.0801 278.645 73.3096C279.055 73.5342 279.367 73.8638 279.582 74.2983C279.797 74.7329 279.904 75.2627 279.904 75.8877V81H278.63V76.1953C278.63 75.4824 278.479 74.9551 278.176 74.6133C277.878 74.2666 277.414 74.0933 276.784 74.0933C276.364 74.0933 276 74.1836 275.693 74.3643C275.385 74.5449 275.146 74.8013 274.975 75.1333C274.809 75.4653 274.726 75.8633 274.726 76.3271V81H273.452ZM285.434 81.1392C284.682 81.1392 284.035 80.9731 283.493 80.6411C282.956 80.3091 282.541 79.8403 282.248 79.2349C281.96 78.6245 281.816 77.9067 281.816 77.0815V77.0742C281.816 76.2588 281.96 75.5435 282.248 74.9282C282.541 74.313 282.954 73.832 283.486 73.4854C284.018 73.1387 284.641 72.9653 285.354 72.9653C286.071 72.9653 286.687 73.1313 287.199 73.4634C287.717 73.7954 288.112 74.2593 288.386 74.855C288.664 75.4458 288.803 76.1343 288.803 76.9204V77.4185H282.475V76.4004H288.151L287.521 77.3306V76.8252C287.521 76.2051 287.429 75.6948 287.243 75.2944C287.058 74.894 286.801 74.5962 286.474 74.4009C286.147 74.2007 285.771 74.1006 285.346 74.1006C284.921 74.1006 284.541 74.2056 284.204 74.4155C283.872 74.6206 283.608 74.9258 283.413 75.3311C283.217 75.7363 283.12 76.2344 283.12 76.8252V77.3306C283.12 77.8921 283.215 78.373 283.405 78.7734C283.596 79.1689 283.867 79.4741 284.218 79.689C284.57 79.8989 284.985 80.0039 285.463 80.0039C285.82 80.0039 286.13 79.9551 286.394 79.8574C286.657 79.7598 286.875 79.6353 287.045 79.4839C287.216 79.3325 287.336 79.1787 287.404 79.0225L287.434 78.9565H288.708L288.693 79.0151C288.625 79.2837 288.503 79.5449 288.327 79.7988C288.156 80.0479 287.934 80.2749 287.661 80.48C287.387 80.6802 287.062 80.8413 286.687 80.9634C286.315 81.0806 285.898 81.1392 285.434 81.1392ZM290.854 81V69.9697H292.128V81H290.854ZM294.575 83.6367V73.1045H295.849V74.3643H295.966C296.127 74.0713 296.33 73.8223 296.574 73.6172C296.818 73.4072 297.097 73.2461 297.409 73.1338C297.722 73.0215 298.061 72.9653 298.427 72.9653C299.096 72.9653 299.677 73.1362 300.17 73.478C300.668 73.8149 301.054 74.2886 301.328 74.8989C301.601 75.5093 301.738 76.2246 301.738 77.0449V77.0596C301.738 77.8848 301.601 78.6025 301.328 79.2129C301.054 79.8232 300.668 80.2969 300.17 80.6338C299.677 80.9707 299.096 81.1392 298.427 81.1392C298.066 81.1392 297.724 81.083 297.402 80.9707C297.084 80.8535 296.801 80.6924 296.552 80.4873C296.308 80.2822 296.113 80.0381 295.966 79.7549H295.849V83.6367H294.575ZM298.134 80.0112C298.618 80.0112 299.03 79.894 299.372 79.6597C299.714 79.4204 299.975 79.0811 300.156 78.6416C300.341 78.1973 300.434 77.6699 300.434 77.0596V77.0449C300.434 76.4297 300.341 75.9023 300.156 75.4629C299.975 75.0234 299.714 74.6865 299.372 74.4521C299.03 74.2129 298.618 74.0933 298.134 74.0933C297.656 74.0933 297.243 74.2129 296.896 74.4521C296.55 74.6914 296.284 75.0308 296.098 75.4702C295.913 75.9097 295.82 76.4346 295.82 77.0449V77.0596C295.82 77.665 295.913 78.1899 296.098 78.6343C296.284 79.0737 296.55 79.4131 296.896 79.6523C297.243 79.8916 297.656 80.0112 298.134 80.0112ZM305.422 77.7334V77.0596C305.422 76.7373 305.473 76.4468 305.576 76.188C305.678 75.9243 305.839 75.6826 306.059 75.4629C306.279 75.2432 306.555 75.0332 306.887 74.833C307.17 74.6572 307.397 74.4863 307.568 74.3203C307.744 74.1494 307.871 73.9639 307.949 73.7637C308.027 73.5635 308.066 73.334 308.066 73.0752V73.0605C308.066 72.7578 307.993 72.4893 307.846 72.2549C307.7 72.0205 307.492 71.835 307.224 71.6982C306.955 71.5615 306.638 71.4932 306.271 71.4932C305.905 71.4932 305.585 71.5615 305.312 71.6982C305.039 71.835 304.821 72.0303 304.66 72.2842C304.504 72.5381 304.414 72.8384 304.389 73.1851L304.375 73.1924L303.129 73.1997V73.1851C303.159 72.6626 303.295 72.1865 303.54 71.7568C303.784 71.3271 304.138 70.9854 304.602 70.7314C305.065 70.4775 305.639 70.3506 306.323 70.3506C306.938 70.3506 307.478 70.4678 307.941 70.7021C308.41 70.9316 308.774 71.2466 309.033 71.647C309.296 72.0425 309.428 72.4917 309.428 72.9946V73.0093C309.428 73.5806 309.289 74.0737 309.011 74.4888C308.737 74.8989 308.366 75.2456 307.897 75.5288C307.59 75.7095 307.348 75.8828 307.172 76.0488C307.001 76.2148 306.879 76.3931 306.806 76.5835C306.738 76.7739 306.704 76.9985 306.704 77.2573V77.7334H305.422ZM306.162 81.1318C305.864 81.1318 305.62 81.0366 305.429 80.8462C305.239 80.6558 305.144 80.4116 305.144 80.1138C305.144 79.811 305.239 79.5645 305.429 79.374C305.62 79.1836 305.864 79.0884 306.162 79.0884C306.459 79.0884 306.701 79.1836 306.887 79.374C307.077 79.5645 307.172 79.811 307.172 80.1138C307.172 80.4116 307.077 80.6558 306.887 80.8462C306.701 81.0366 306.459 81.1318 306.162 81.1318ZM320.056 81.249C319.099 81.249 318.271 81.0244 317.573 80.5752C316.875 80.126 316.335 79.4888 315.954 78.6636C315.578 77.8384 315.39 76.8594 315.39 75.7266V75.7119C315.39 74.5742 315.578 73.5928 315.954 72.7676C316.335 71.9424 316.872 71.3052 317.565 70.856C318.264 70.4067 319.091 70.1821 320.048 70.1821C320.791 70.1821 321.464 70.3286 322.07 70.6216C322.68 70.9097 323.183 71.3125 323.579 71.8301C323.974 72.3428 324.223 72.936 324.326 73.6099L324.318 73.6245H322.993L322.985 73.6099C322.868 73.1558 322.67 72.7651 322.392 72.438C322.114 72.106 321.774 71.8496 321.374 71.6689C320.979 71.4883 320.537 71.3979 320.048 71.3979C319.375 71.3979 318.789 71.5737 318.291 71.9253C317.797 72.2769 317.417 72.7749 317.148 73.4194C316.879 74.064 316.745 74.8281 316.745 75.7119V75.7266C316.745 76.6055 316.879 77.3672 317.148 78.0117C317.417 78.6562 317.797 79.1543 318.291 79.5059C318.789 79.8574 319.377 80.0332 320.056 80.0332C320.549 80.0332 320.996 79.9551 321.396 79.7988C321.796 79.6377 322.133 79.4106 322.407 79.1177C322.68 78.8198 322.871 78.4683 322.978 78.063L322.993 78.0483H324.326V78.063C324.208 78.7075 323.955 79.269 323.564 79.7476C323.173 80.2212 322.678 80.5898 322.077 80.8535C321.481 81.1172 320.808 81.249 320.056 81.249ZM329.621 81.1392C328.874 81.1392 328.227 80.9756 327.68 80.6484C327.138 80.3164 326.718 79.8452 326.42 79.2349C326.127 78.6245 325.981 77.8994 325.981 77.0596V77.0449C325.981 76.2002 326.127 75.4727 326.42 74.8623C326.718 74.252 327.138 73.7832 327.68 73.4561C328.227 73.1289 328.874 72.9653 329.621 72.9653C330.373 72.9653 331.02 73.1289 331.562 73.4561C332.104 73.7832 332.521 74.252 332.814 74.8623C333.112 75.4727 333.261 76.2002 333.261 77.0449V77.0596C333.261 77.8994 333.112 78.6245 332.814 79.2349C332.521 79.8452 332.104 80.3164 331.562 80.6484C331.02 80.9756 330.373 81.1392 329.621 81.1392ZM329.621 80.0112C330.119 80.0112 330.542 79.894 330.888 79.6597C331.235 79.4253 331.499 79.0884 331.679 78.6489C331.865 78.2095 331.958 77.6797 331.958 77.0596V77.0449C331.958 76.4199 331.865 75.8877 331.679 75.4482C331.499 75.0088 331.235 74.6743 330.888 74.4448C330.542 74.2104 330.119 74.0933 329.621 74.0933C329.123 74.0933 328.701 74.2104 328.354 74.4448C328.007 74.6743 327.741 75.0088 327.556 75.4482C327.375 75.8877 327.285 76.4199 327.285 77.0449V77.0596C327.285 77.6797 327.375 78.2095 327.556 78.6489C327.741 79.0884 328.007 79.4253 328.354 79.6597C328.701 79.894 329.123 80.0112 329.621 80.0112ZM335.239 81V73.1045H336.513V74.291H336.63C336.831 73.8711 337.119 73.5464 337.495 73.3169C337.871 73.0825 338.349 72.9653 338.93 72.9653C339.819 72.9653 340.5 73.2192 340.974 73.7271C341.452 74.23 341.691 74.9502 341.691 75.8877V81H340.417V76.1953C340.417 75.4824 340.266 74.9551 339.963 74.6133C339.665 74.2666 339.201 74.0933 338.571 74.0933C338.151 74.0933 337.788 74.1836 337.48 74.3643C337.172 74.5449 336.933 74.8013 336.762 75.1333C336.596 75.4653 336.513 75.8633 336.513 76.3271V81H335.239ZM346.804 81.0586C345.993 81.0586 345.405 80.895 345.039 80.5679C344.677 80.2407 344.497 79.7012 344.497 78.9492V74.1592H343.251V73.1045H344.497V71.061H345.815V73.1045H347.543V74.1592H345.815V78.627C345.815 79.0908 345.903 79.4253 346.079 79.6304C346.254 79.8306 346.547 79.9307 346.958 79.9307C347.07 79.9307 347.165 79.9282 347.243 79.9233C347.326 79.9185 347.426 79.9111 347.543 79.9014V80.9854C347.421 81.0049 347.299 81.022 347.177 81.0366C347.055 81.0513 346.931 81.0586 346.804 81.0586ZM351.616 81.1392C351.118 81.1392 350.668 81.0439 350.268 80.8535C349.873 80.6631 349.558 80.3921 349.323 80.0405C349.094 79.689 348.979 79.2739 348.979 78.7954V78.7808C348.979 78.0776 349.228 77.5283 349.726 77.1328C350.229 76.7324 350.939 76.5054 351.857 76.4517L354.758 76.2759V77.2939L352.011 77.4697C351.411 77.5039 350.971 77.6284 350.693 77.8433C350.419 78.0581 350.283 78.3608 350.283 78.7515V78.7661C350.283 79.1665 350.434 79.479 350.737 79.7036C351.04 79.9233 351.42 80.0332 351.879 80.0332C352.314 80.0332 352.7 79.9478 353.037 79.7769C353.374 79.6011 353.637 79.3643 353.828 79.0664C354.023 78.7686 354.121 78.4316 354.121 78.0557V75.5947C354.121 75.1064 353.972 74.7354 353.674 74.4814C353.381 74.2227 352.939 74.0933 352.348 74.0933C351.875 74.0933 351.486 74.1787 351.184 74.3496C350.881 74.5156 350.678 74.7524 350.576 75.0601L350.568 75.082H349.294L349.301 75.0381C349.37 74.623 349.541 74.2617 349.814 73.9541C350.092 73.6416 350.451 73.3999 350.891 73.229C351.33 73.0532 351.831 72.9653 352.392 72.9653C353.037 72.9653 353.581 73.0703 354.025 73.2803C354.475 73.4902 354.814 73.793 355.043 74.1885C355.278 74.5791 355.395 75.0479 355.395 75.5947V81H354.121V79.8354H354.003C353.837 80.1138 353.635 80.3506 353.396 80.5459C353.161 80.7412 352.895 80.8901 352.597 80.9927C352.299 81.0903 351.972 81.1392 351.616 81.1392ZM360.954 81.1392C360.217 81.1392 359.577 80.9707 359.035 80.6338C358.493 80.2969 358.073 79.8208 357.775 79.2056C357.478 78.5903 357.329 77.8652 357.329 77.0303V77.0156C357.329 76.1953 357.475 75.4824 357.768 74.877C358.066 74.2715 358.486 73.8027 359.028 73.4707C359.57 73.1338 360.209 72.9653 360.947 72.9653C361.586 72.9653 362.138 73.0776 362.602 73.3022C363.066 73.5269 363.437 73.8296 363.715 74.2104C363.994 74.5864 364.172 75.0088 364.25 75.4775L364.257 75.5215H362.99L362.983 75.4995C362.885 75.1089 362.663 74.7769 362.316 74.5034C361.97 74.23 361.513 74.0933 360.947 74.0933C360.473 74.0933 360.063 74.2129 359.716 74.4521C359.37 74.6914 359.101 75.0308 358.911 75.4702C358.725 75.9048 358.632 76.4199 358.632 77.0156V77.0303C358.632 77.6357 358.728 78.1631 358.918 78.6123C359.108 79.0566 359.377 79.4009 359.724 79.645C360.07 79.8892 360.478 80.0112 360.947 80.0112C361.479 80.0112 361.914 79.8965 362.25 79.667C362.587 79.4375 362.829 79.103 362.976 78.6636L362.99 78.6196L364.25 78.6123L364.235 78.6929C364.128 79.1665 363.938 79.5889 363.664 79.96C363.391 80.3262 363.029 80.6143 362.58 80.8242C362.131 81.0342 361.589 81.1392 360.954 81.1392ZM369.069 81.0586C368.259 81.0586 367.67 80.895 367.304 80.5679C366.943 80.2407 366.762 79.7012 366.762 78.9492V74.1592H365.517V73.1045H366.762V71.061H368.081V73.1045H369.809V74.1592H368.081V78.627C368.081 79.0908 368.168 79.4253 368.344 79.6304C368.52 79.8306 368.813 79.9307 369.223 79.9307C369.335 79.9307 369.431 79.9282 369.509 79.9233C369.592 79.9185 369.692 79.9111 369.809 79.9014V80.9854C369.687 81.0049 369.565 81.022 369.443 81.0366C369.321 81.0513 369.196 81.0586 369.069 81.0586ZM379.177 81.1392C378.43 81.1392 377.783 80.9756 377.236 80.6484C376.694 80.3164 376.274 79.8452 375.976 79.2349C375.683 78.6245 375.537 77.8994 375.537 77.0596V77.0449C375.537 76.2002 375.683 75.4727 375.976 74.8623C376.274 74.252 376.694 73.7832 377.236 73.4561C377.783 73.1289 378.43 72.9653 379.177 72.9653C379.929 72.9653 380.576 73.1289 381.118 73.4561C381.66 73.7832 382.077 74.252 382.37 74.8623C382.668 75.4727 382.817 76.2002 382.817 77.0449V77.0596C382.817 77.8994 382.668 78.6245 382.37 79.2349C382.077 79.8452 381.66 80.3164 381.118 80.6484C380.576 80.9756 379.929 81.1392 379.177 81.1392ZM379.177 80.0112C379.675 80.0112 380.097 79.894 380.444 79.6597C380.791 79.4253 381.054 79.0884 381.235 78.6489C381.42 78.2095 381.513 77.6797 381.513 77.0596V77.0449C381.513 76.4199 381.42 75.8877 381.235 75.4482C381.054 75.0088 380.791 74.6743 380.444 74.4448C380.097 74.2104 379.675 74.0933 379.177 74.0933C378.679 74.0933 378.256 74.2104 377.91 74.4448C377.563 74.6743 377.297 75.0088 377.111 75.4482C376.931 75.8877 376.84 76.4199 376.84 77.0449V77.0596C376.84 77.6797 376.931 78.2095 377.111 78.6489C377.297 79.0884 377.563 79.4253 377.91 79.6597C378.256 79.894 378.679 80.0112 379.177 80.0112ZM387.438 81.1392C386.843 81.1392 386.342 81.0269 385.937 80.8022C385.532 80.5728 385.227 80.2407 385.021 79.8062C384.821 79.3667 384.721 78.8369 384.721 78.2168V73.1045H385.996V77.9092C385.996 78.6172 386.132 79.1445 386.406 79.4912C386.684 79.8379 387.138 80.0112 387.768 80.0112C388.232 80.0112 388.623 79.9209 388.94 79.7402C389.257 79.5596 389.497 79.3032 389.658 78.9712C389.819 78.6343 389.899 78.2363 389.899 77.7773V73.1045H391.174V81H389.899V79.8208H389.782C389.587 80.2407 389.292 80.5654 388.896 80.7949C388.505 81.0244 388.02 81.1392 387.438 81.1392ZM393.554 81V73.1045H394.829V74.2764H394.946C395.097 73.8613 395.354 73.5391 395.715 73.3096C396.076 73.0801 396.523 72.9653 397.055 72.9653C397.177 72.9653 397.297 72.9727 397.414 72.9873C397.536 72.9971 397.629 73.0068 397.692 73.0166V74.2544C397.561 74.23 397.431 74.2129 397.304 74.2031C397.182 74.1885 397.05 74.1812 396.909 74.1812C396.503 74.1812 396.145 74.2617 395.832 74.4229C395.52 74.584 395.273 74.8086 395.092 75.0967C394.917 75.3848 394.829 75.7217 394.829 76.1074V81H393.554ZM406.196 81.1392C405.61 81.1392 405.092 81.0513 404.643 80.8755C404.194 80.6948 403.833 80.4434 403.559 80.1211C403.291 79.7988 403.132 79.4204 403.083 78.9858H404.387C404.494 79.313 404.704 79.5767 405.017 79.7769C405.329 79.9771 405.737 80.0771 406.24 80.0771C406.596 80.0771 406.909 80.0259 407.177 79.9233C407.451 79.8159 407.666 79.6719 407.822 79.4912C407.978 79.3057 408.056 79.0933 408.056 78.854V78.8394C408.056 78.5708 407.949 78.3438 407.734 78.1582C407.519 77.9678 407.167 77.814 406.679 77.6968L405.456 77.4038C404.719 77.228 404.177 76.9717 403.83 76.6348C403.483 76.293 403.31 75.8389 403.31 75.2725V75.2651C403.31 74.8257 403.437 74.4326 403.691 74.0859C403.95 73.7393 404.301 73.4658 404.746 73.2656C405.19 73.0654 405.69 72.9653 406.247 72.9653C406.799 72.9653 407.287 73.0532 407.712 73.229C408.142 73.3999 408.486 73.644 408.745 73.9614C409.008 74.2788 409.169 74.6523 409.228 75.082H407.976C407.893 74.7695 407.702 74.5156 407.404 74.3203C407.106 74.125 406.718 74.0273 406.24 74.0273C405.927 74.0273 405.649 74.0786 405.405 74.1812C405.161 74.2788 404.968 74.4155 404.826 74.5913C404.685 74.7671 404.614 74.9722 404.614 75.2065V75.2212C404.614 75.4897 404.719 75.7119 404.929 75.8877C405.139 76.0635 405.476 76.2075 405.939 76.3198L407.155 76.6128C407.897 76.7935 408.449 77.0522 408.811 77.3892C409.177 77.7261 409.36 78.1777 409.36 78.7441V78.7588C409.36 79.2275 409.221 79.6426 408.942 80.0039C408.664 80.3604 408.286 80.6387 407.807 80.8389C407.333 81.0391 406.796 81.1392 406.196 81.1392ZM413.981 81.1392C413.386 81.1392 412.885 81.0269 412.48 80.8022C412.075 80.5728 411.77 80.2407 411.564 79.8062C411.364 79.3667 411.264 78.8369 411.264 78.2168V73.1045H412.539V77.9092C412.539 78.6172 412.675 79.1445 412.949 79.4912C413.227 79.8379 413.681 80.0112 414.311 80.0112C414.775 80.0112 415.166 79.9209 415.483 79.7402C415.8 79.5596 416.04 79.3032 416.201 78.9712C416.362 78.6343 416.442 78.2363 416.442 77.7773V73.1045H417.717V81H416.442V79.8208H416.325C416.13 80.2407 415.834 80.5654 415.439 80.7949C415.048 81.0244 414.562 81.1392 413.981 81.1392ZM420.097 83.6367V73.1045H421.372V74.3643H421.489C421.65 74.0713 421.853 73.8223 422.097 73.6172C422.341 73.4072 422.619 73.2461 422.932 73.1338C423.244 73.0215 423.583 72.9653 423.95 72.9653C424.619 72.9653 425.2 73.1362 425.693 73.478C426.191 73.8149 426.577 74.2886 426.85 74.8989C427.124 75.5093 427.26 76.2246 427.26 77.0449V77.0596C427.26 77.8848 427.124 78.6025 426.85 79.2129C426.577 79.8232 426.191 80.2969 425.693 80.6338C425.2 80.9707 424.619 81.1392 423.95 81.1392C423.588 81.1392 423.247 81.083 422.924 80.9707C422.607 80.8535 422.324 80.6924 422.075 80.4873C421.831 80.2822 421.635 80.0381 421.489 79.7549H421.372V83.6367H420.097ZM423.657 80.0112C424.14 80.0112 424.553 79.894 424.895 79.6597C425.236 79.4204 425.498 79.0811 425.678 78.6416C425.864 78.1973 425.957 77.6699 425.957 77.0596V77.0449C425.957 76.4297 425.864 75.9023 425.678 75.4629C425.498 75.0234 425.236 74.6865 424.895 74.4521C424.553 74.2129 424.14 74.0933 423.657 74.0933C423.178 74.0933 422.766 74.2129 422.419 74.4521C422.072 74.6914 421.806 75.0308 421.621 75.4702C421.435 75.9097 421.342 76.4346 421.342 77.0449V77.0596C421.342 77.665 421.435 78.1899 421.621 78.6343C421.806 79.0737 422.072 79.4131 422.419 79.6523C422.766 79.8916 423.178 80.0112 423.657 80.0112ZM429.252 83.6367V73.1045H430.527V74.3643H430.644C430.805 74.0713 431.008 73.8223 431.252 73.6172C431.496 73.4072 431.774 73.2461 432.087 73.1338C432.399 73.0215 432.739 72.9653 433.105 72.9653C433.774 72.9653 434.355 73.1362 434.848 73.478C435.346 73.8149 435.732 74.2886 436.005 74.8989C436.279 75.5093 436.416 76.2246 436.416 77.0449V77.0596C436.416 77.8848 436.279 78.6025 436.005 79.2129C435.732 79.8232 435.346 80.2969 434.848 80.6338C434.355 80.9707 433.774 81.1392 433.105 81.1392C432.744 81.1392 432.402 81.083 432.08 80.9707C431.762 80.8535 431.479 80.6924 431.23 80.4873C430.986 80.2822 430.791 80.0381 430.644 79.7549H430.527V83.6367H429.252ZM432.812 80.0112C433.295 80.0112 433.708 79.894 434.05 79.6597C434.392 79.4204 434.653 79.0811 434.833 78.6416C435.019 78.1973 435.112 77.6699 435.112 77.0596V77.0449C435.112 76.4297 435.019 75.9023 434.833 75.4629C434.653 75.0234 434.392 74.6865 434.05 74.4521C433.708 74.2129 433.295 74.0933 432.812 74.0933C432.333 74.0933 431.921 74.2129 431.574 74.4521C431.228 74.6914 430.961 75.0308 430.776 75.4702C430.59 75.9097 430.498 76.4346 430.498 77.0449V77.0596C430.498 77.665 430.59 78.1899 430.776 78.6343C430.961 79.0737 431.228 79.4131 431.574 79.6523C431.921 79.8916 432.333 80.0112 432.812 80.0112ZM441.652 81.1392C440.905 81.1392 440.258 80.9756 439.711 80.6484C439.169 80.3164 438.75 79.8452 438.452 79.2349C438.159 78.6245 438.012 77.8994 438.012 77.0596V77.0449C438.012 76.2002 438.159 75.4727 438.452 74.8623C438.75 74.252 439.169 73.7832 439.711 73.4561C440.258 73.1289 440.905 72.9653 441.652 72.9653C442.404 72.9653 443.051 73.1289 443.593 73.4561C444.135 73.7832 444.553 74.252 444.846 74.8623C445.144 75.4727 445.292 76.2002 445.292 77.0449V77.0596C445.292 77.8994 445.144 78.6245 444.846 79.2349C444.553 79.8452 444.135 80.3164 443.593 80.6484C443.051 80.9756 442.404 81.1392 441.652 81.1392ZM441.652 80.0112C442.15 80.0112 442.573 79.894 442.919 79.6597C443.266 79.4253 443.53 79.0884 443.71 78.6489C443.896 78.2095 443.989 77.6797 443.989 77.0596V77.0449C443.989 76.4199 443.896 75.8877 443.71 75.4482C443.53 75.0088 443.266 74.6743 442.919 74.4448C442.573 74.2104 442.15 74.0933 441.652 74.0933C441.154 74.0933 440.732 74.2104 440.385 74.4448C440.039 74.6743 439.772 75.0088 439.587 75.4482C439.406 75.8877 439.316 76.4199 439.316 77.0449V77.0596C439.316 77.6797 439.406 78.2095 439.587 78.6489C439.772 79.0884 440.039 79.4253 440.385 79.6597C440.732 79.894 441.154 80.0112 441.652 80.0112ZM447.27 81V73.1045H448.544V74.2764H448.662C448.813 73.8613 449.069 73.5391 449.431 73.3096C449.792 73.0801 450.239 72.9653 450.771 72.9653C450.893 72.9653 451.013 72.9727 451.13 72.9873C451.252 72.9971 451.345 73.0068 451.408 73.0166V74.2544C451.276 74.23 451.147 74.2129 451.02 74.2031C450.898 74.1885 450.766 74.1812 450.625 74.1812C450.219 74.1812 449.86 74.2617 449.548 74.4229C449.235 74.584 448.989 74.8086 448.808 75.0967C448.632 75.3848 448.544 75.7217 448.544 76.1074V81H447.27ZM455.935 81.0586C455.124 81.0586 454.536 80.895 454.169 80.5679C453.808 80.2407 453.627 79.7012 453.627 78.9492V74.1592H452.382V73.1045H453.627V71.061H454.946V73.1045H456.674V74.1592H454.946V78.627C454.946 79.0908 455.034 79.4253 455.209 79.6304C455.385 79.8306 455.678 79.9307 456.088 79.9307C456.201 79.9307 456.296 79.9282 456.374 79.9233C456.457 79.9185 456.557 79.9111 456.674 79.9014V80.9854C456.552 81.0049 456.43 81.022 456.308 81.0366C456.186 81.0513 456.062 81.0586 455.935 81.0586ZM465.603 81.0586C464.792 81.0586 464.204 80.895 463.837 80.5679C463.476 80.2407 463.295 79.7012 463.295 78.9492V74.1592H462.05V73.1045H463.295V71.061H464.614V73.1045H466.342V74.1592H464.614V78.627C464.614 79.0908 464.702 79.4253 464.877 79.6304C465.053 79.8306 465.346 79.9307 465.756 79.9307C465.869 79.9307 465.964 79.9282 466.042 79.9233C466.125 79.9185 466.225 79.9111 466.342 79.9014V80.9854C466.22 81.0049 466.098 81.022 465.976 81.0366C465.854 81.0513 465.729 81.0586 465.603 81.0586ZM471.367 81.1392C470.615 81.1392 469.968 80.9731 469.426 80.6411C468.889 80.3091 468.474 79.8403 468.181 79.2349C467.893 78.6245 467.749 77.9067 467.749 77.0815V77.0742C467.749 76.2588 467.893 75.5435 468.181 74.9282C468.474 74.313 468.886 73.832 469.418 73.4854C469.951 73.1387 470.573 72.9653 471.286 72.9653C472.004 72.9653 472.619 73.1313 473.132 73.4634C473.649 73.7954 474.045 74.2593 474.318 74.855C474.597 75.4458 474.736 76.1343 474.736 76.9204V77.4185H468.408V76.4004H474.084L473.454 77.3306V76.8252C473.454 76.2051 473.361 75.6948 473.176 75.2944C472.99 74.894 472.734 74.5962 472.407 74.4009C472.08 74.2007 471.704 74.1006 471.279 74.1006C470.854 74.1006 470.473 74.2056 470.136 74.4155C469.804 74.6206 469.541 74.9258 469.345 75.3311C469.15 75.7363 469.052 76.2344 469.052 76.8252V77.3306C469.052 77.8921 469.147 78.373 469.338 78.7734C469.528 79.1689 469.799 79.4741 470.151 79.689C470.502 79.8989 470.917 80.0039 471.396 80.0039C471.752 80.0039 472.062 79.9551 472.326 79.8574C472.59 79.7598 472.807 79.6353 472.978 79.4839C473.149 79.3325 473.269 79.1787 473.337 79.0225L473.366 78.9565H474.641L474.626 79.0151C474.558 79.2837 474.436 79.5449 474.26 79.7988C474.089 80.0479 473.867 80.2749 473.593 80.48C473.32 80.6802 472.995 80.8413 472.619 80.9634C472.248 81.0806 471.831 81.1392 471.367 81.1392ZM478.881 81.1392C478.383 81.1392 477.934 81.0439 477.534 80.8535C477.138 80.6631 476.823 80.3921 476.589 80.0405C476.359 79.689 476.245 79.2739 476.245 78.7954V78.7808C476.245 78.0776 476.494 77.5283 476.992 77.1328C477.495 76.7324 478.205 76.5054 479.123 76.4517L482.023 76.2759V77.2939L479.277 77.4697C478.676 77.5039 478.237 77.6284 477.958 77.8433C477.685 78.0581 477.548 78.3608 477.548 78.7515V78.7661C477.548 79.1665 477.7 79.479 478.002 79.7036C478.305 79.9233 478.686 80.0332 479.145 80.0332C479.58 80.0332 479.965 79.9478 480.302 79.7769C480.639 79.6011 480.903 79.3643 481.093 79.0664C481.289 78.7686 481.386 78.4316 481.386 78.0557V75.5947C481.386 75.1064 481.237 74.7354 480.939 74.4814C480.646 74.2227 480.205 74.0933 479.614 74.0933C479.14 74.0933 478.752 74.1787 478.449 74.3496C478.146 74.5156 477.944 74.7524 477.841 75.0601L477.834 75.082H476.56L476.567 75.0381C476.635 74.623 476.806 74.2617 477.08 73.9541C477.358 73.6416 477.717 73.3999 478.156 73.229C478.596 73.0532 479.096 72.9653 479.658 72.9653C480.302 72.9653 480.847 73.0703 481.291 73.2803C481.74 73.4902 482.08 73.793 482.309 74.1885C482.543 74.5791 482.661 75.0479 482.661 75.5947V81H481.386V79.8354H481.269C481.103 80.1138 480.9 80.3506 480.661 80.5459C480.427 80.7412 480.161 80.8901 479.863 80.9927C479.565 81.0903 479.238 81.1392 478.881 81.1392ZM484.99 81V73.1045H486.264V74.3057H486.381C486.557 73.8809 486.826 73.5513 487.187 73.3169C487.553 73.0825 487.995 72.9653 488.513 72.9653C488.869 72.9653 489.189 73.0239 489.472 73.1411C489.755 73.2583 490 73.4219 490.205 73.6318C490.41 73.8369 490.573 74.0762 490.695 74.3496H490.812C490.954 74.0713 491.145 73.8296 491.384 73.6245C491.623 73.4146 491.899 73.2534 492.211 73.1411C492.529 73.0239 492.868 72.9653 493.229 72.9653C493.767 72.9653 494.221 73.0654 494.592 73.2656C494.968 73.4658 495.253 73.7588 495.449 74.1445C495.644 74.5254 495.742 74.9917 495.742 75.5435V81H494.467V75.8364C494.467 75.2554 494.331 74.8208 494.057 74.5327C493.789 74.2397 493.376 74.0933 492.819 74.0933C492.453 74.0933 492.133 74.1763 491.86 74.3423C491.586 74.5083 491.374 74.7305 491.223 75.0088C491.071 75.2822 490.996 75.5874 490.996 75.9243V81H489.721V75.6387C489.721 75.1699 489.572 74.7964 489.274 74.5181C488.977 74.2349 488.579 74.0933 488.081 74.0933C487.739 74.0933 487.429 74.1836 487.15 74.3643C486.877 74.5449 486.66 74.7891 486.499 75.0967C486.342 75.3994 486.264 75.7363 486.264 76.1074V81H484.99ZM502.253 81V80.0918L505.827 76.2246C506.276 75.7363 506.628 75.3335 506.882 75.0161C507.136 74.6938 507.314 74.4033 507.417 74.1445C507.519 73.8857 507.57 73.6025 507.57 73.2949V73.2803C507.57 72.9092 507.49 72.5771 507.329 72.2842C507.167 71.9912 506.938 71.7593 506.64 71.5884C506.342 71.4175 505.986 71.332 505.571 71.332C505.151 71.332 504.782 71.4199 504.465 71.5957C504.147 71.7666 503.901 72.0083 503.725 72.3208C503.549 72.6284 503.461 72.9897 503.461 73.4048L503.454 73.4194L502.194 73.4121L502.18 73.4048C502.185 72.7798 502.336 72.2256 502.634 71.7422C502.932 71.2539 503.342 70.873 503.864 70.5996C504.387 70.3213 504.985 70.1821 505.659 70.1821C506.274 70.1821 506.828 70.3115 507.321 70.5703C507.814 70.8242 508.203 71.1733 508.486 71.6177C508.774 72.062 508.918 72.5698 508.918 73.1411V73.1558C508.918 73.5562 508.847 73.9419 508.706 74.313C508.569 74.6841 508.325 75.0967 507.973 75.5508C507.622 76 507.126 76.5542 506.486 77.2134L503.754 80.0332L504.084 79.4253V80.0332L503.762 79.8135H509.094V81H502.253ZM515.913 81V78.8101H510.764V77.6089C511.052 77.1304 511.345 76.647 511.643 76.1587C511.94 75.6655 512.241 75.1748 512.543 74.6865C512.851 74.1934 513.159 73.7051 513.466 73.2217C513.774 72.7383 514.079 72.2622 514.382 71.7935C514.689 71.3247 514.992 70.8706 515.29 70.4312H517.202V77.6309H518.703V78.8101H517.202V81H515.913ZM512.111 77.6382H515.92V71.6543H515.832C515.593 72.0107 515.349 72.3818 515.1 72.7676C514.851 73.1484 514.597 73.5391 514.338 73.9395C514.084 74.3398 513.83 74.7427 513.576 75.1479C513.322 75.5532 513.071 75.9585 512.822 76.3638C512.578 76.7642 512.341 77.1597 512.111 77.5503V77.6382ZM524.123 69.9697L520.783 83.6367H519.56L522.9 69.9697H524.123ZM525.749 81L530.495 71.7129V71.6104H524.841V70.4312H531.835V71.6543L527.133 81H525.749ZM533.286 81.0732C533.027 81.0732 532.802 80.9805 532.612 80.7949C532.426 80.6045 532.333 80.3799 532.333 80.1211C532.333 79.8574 532.426 79.6328 532.612 79.4473C532.802 79.2617 533.027 79.1689 533.286 79.1689C533.549 79.1689 533.774 79.2617 533.959 79.4473C534.145 79.6328 534.238 79.8574 534.238 80.1211C534.238 80.3799 534.145 80.6045 533.959 80.7949C533.774 80.9805 533.549 81.0732 533.286 81.0732Z" fill="black"/>
<g opacity="0.9">
<rect x="676.5" y="42.5" width="43" height="43" rx="21.5" fill="white"/>
<rect x="676.5" y="42.5" width="43" height="43" rx="21.5" stroke="#EAEAEA"/>
<path d="M700.027 55.3928C700.054 55.2913 700.101 55.1961 700.165 55.1127C700.229 55.0293 700.309 54.9593 700.4 54.9068C700.491 54.8542 700.591 54.8201 700.696 54.8064C700.8 54.7926 700.906 54.7996 701.007 54.8268C702.49 55.2138 703.843 55.9891 704.927 57.0729C706.011 58.1567 706.786 59.5098 707.173 60.9928C707.2 61.0944 707.207 61.2002 707.194 61.3044C707.18 61.4086 707.146 61.5091 707.093 61.6001C707.041 61.6911 706.971 61.7709 706.887 61.8348C706.804 61.8988 706.709 61.9457 706.607 61.9729C706.54 61.9906 706.47 61.9997 706.4 61.9999C706.224 61.9999 706.053 61.9418 705.913 61.8346C705.773 61.7274 705.673 61.577 705.627 61.4069C705.312 60.196 704.679 59.0911 703.794 58.2063C702.91 57.3214 701.805 56.6885 700.594 56.3728C700.492 56.3458 700.397 56.2989 700.314 56.235C700.23 56.1711 700.16 56.0914 700.107 56.0004C700.055 55.9093 700.021 55.8088 700.007 55.7046C699.993 55.6003 700 55.4944 700.027 55.3928ZM699.794 59.5728C701.173 59.9408 702.059 60.8278 702.427 62.2069C702.473 62.377 702.573 62.5274 702.713 62.6346C702.853 62.7418 703.024 62.7999 703.2 62.7999C703.27 62.7997 703.34 62.7906 703.407 62.7729C703.509 62.7457 703.604 62.6988 703.687 62.6349C703.771 62.5709 703.841 62.4911 703.893 62.4001C703.946 62.3091 703.98 62.2086 703.994 62.1044C704.007 62.0002 704 61.8944 703.973 61.7929C703.461 59.8768 702.123 58.5388 700.207 58.0268C700.002 57.9721 699.784 58.001 699.6 58.1072C699.416 58.2135 699.282 58.3883 699.228 58.5933C699.173 58.7983 699.202 59.0167 699.308 59.2004C699.414 59.3841 699.589 59.5181 699.794 59.5728ZM707.037 67.4459L702.326 65.3349L702.313 65.3289C702.069 65.2243 701.802 65.1823 701.537 65.2067C701.272 65.2312 701.017 65.3213 700.796 65.4689C700.77 65.4861 700.745 65.5048 700.721 65.5249L698.287 67.5999C696.745 66.8509 695.153 65.2709 694.404 63.7489L696.482 61.2778C696.502 61.2528 696.521 61.2278 696.539 61.2008C696.683 60.9801 696.771 60.7272 696.794 60.4644C696.817 60.2017 696.775 59.9373 696.671 59.6948V59.6828L694.554 54.9638C694.417 54.6471 694.181 54.3832 693.881 54.2116C693.582 54.0401 693.235 53.97 692.892 54.0118C691.537 54.1901 690.293 54.8556 689.393 55.8839C688.493 56.9122 687.998 58.2331 688 59.5998C688 67.5399 694.46 73.9999 702.4 73.9999C703.767 74.0024 705.088 73.5072 706.116 72.607C707.144 71.7067 707.81 70.4629 707.988 69.1079C708.03 68.7654 707.96 68.4185 707.789 68.1189C707.617 67.8194 707.354 67.5833 707.037 67.4459Z" fill="#FF3B30"/>
</g>
<defs>
<filter id="filter0_d_164_2641" x="-4.1" y="0.9" width="780.2" height="135.2" filterUnits="userSpaceOnUse" color-interpolation-filters="sRGB">
<feFlood flood-opacity="0" result="BackgroundImageFix"/>
<feColorMatrix in="SourceAlpha" type="matrix" values="0 0 0 0 0 0 0 0 0 0 0 0 0 0 0 0 0 0 127 0" result="hardAlpha"/>
<feOffset dy="4"/>
<feGaussianBlur stdDeviation="15.05"/>
<feComposite in2="hardAlpha" operator="out"/>
<feColorMatrix type="matrix" values="0 0 0 0 0 0 0 0 0 0.478431 0 0 0 0 1 0 0 0 0.07 0"/>
<feBlend mode="normal" in2="BackgroundImageFix" result="effect1_dropShadow_164_2641"/>
<feBlend mode="normal" in="SourceGraphic" in2="effect1_dropShadow_164_2641" result="shape"/>
</filter>
<clipPath id="clip0_164_2641">
<rect width="720" height="75" fill="white" transform="translate(26 27)"/>
</clipPath>
</defs>
</svg>
