<svg width="33" height="32" viewBox="0 0 33 32" fill="none" xmlns="http://www.w3.org/2000/svg">
<rect x="0.5" width="32" height="32" rx="16" fill="#007AFF"/>
<path d="M22.4998 8.79985H20.6998V8.19985C20.6998 8.04072 20.6366 7.88811 20.5241 7.77559C20.4115 7.66307 20.2589 7.59985 20.0998 7.59985C19.9407 7.59985 19.7881 7.66307 19.6755 7.77559C19.563 7.88811 19.4998 8.04072 19.4998 8.19985V8.79985H13.4998V8.19985C13.4998 8.04072 13.4366 7.88811 13.3241 7.77559C13.2115 7.66307 13.0589 7.59985 12.8998 7.59985C12.7407 7.59985 12.5881 7.66307 12.4755 7.77559C12.363 7.88811 12.2998 8.04072 12.2998 8.19985V8.79985H10.4998C10.1815 8.79985 9.87632 8.92628 9.65128 9.15133C9.42623 9.37637 9.2998 9.68159 9.2998 9.99985V21.9999C9.2998 22.3181 9.42623 22.6233 9.65128 22.8484C9.87632 23.0734 10.1815 23.1999 10.4998 23.1999H22.4998C22.8181 23.1999 23.1233 23.0734 23.3483 22.8484C23.5734 22.6233 23.6998 22.3181 23.6998 21.9999V9.99985C23.6998 9.68159 23.5734 9.37637 23.3483 9.15133C23.1233 8.92628 22.8181 8.79985 22.4998 8.79985ZM13.1998 20.1999C13.0218 20.1999 12.8478 20.1471 12.6998 20.0482C12.5518 19.9493 12.4364 19.8087 12.3683 19.6443C12.3002 19.4798 12.2824 19.2989 12.3171 19.1243C12.3518 18.9497 12.4375 18.7893 12.5634 18.6635C12.6893 18.5376 12.8496 18.4519 13.0242 18.4171C13.1988 18.3824 13.3798 18.4002 13.5442 18.4684C13.7087 18.5365 13.8492 18.6518 13.9481 18.7998C14.047 18.9478 14.0998 19.1219 14.0998 19.2999C14.0998 19.5385 14.005 19.7675 13.8362 19.9362C13.6674 20.105 13.4385 20.1999 13.1998 20.1999ZM16.4998 20.1999C16.3218 20.1999 16.1478 20.1471 15.9998 20.0482C15.8518 19.9493 15.7364 19.8087 15.6683 19.6443C15.6002 19.4798 15.5824 19.2989 15.6171 19.1243C15.6518 18.9497 15.7375 18.7893 15.8634 18.6635C15.9893 18.5376 16.1496 18.4519 16.3242 18.4171C16.4988 18.3824 16.6798 18.4002 16.8442 18.4684C17.0087 18.5365 17.1492 18.6518 17.2481 18.7998C17.347 18.9478 17.3998 19.1219 17.3998 19.2999C17.3998 19.5385 17.305 19.7675 17.1362 19.9362C16.9674 20.105 16.7385 20.1999 16.4998 20.1999ZM16.4998 17.1999C16.3218 17.1999 16.1478 17.1471 15.9998 17.0482C15.8518 16.9493 15.7364 16.8087 15.6683 16.6443C15.6002 16.4798 15.5824 16.2989 15.6171 16.1243C15.6518 15.9497 15.7375 15.7893 15.8634 15.6635C15.9893 15.5376 16.1496 15.4519 16.3242 15.4171C16.4988 15.3824 16.6798 15.4002 16.8442 15.4684C17.0087 15.5365 17.1492 15.6518 17.2481 15.7998C17.347 15.9478 17.3998 16.1219 17.3998 16.2999C17.3998 16.5385 17.305 16.7675 17.1362 16.9362C16.9674 17.105 16.7385 17.1999 16.4998 17.1999ZM19.7998 20.1999C19.6218 20.1999 19.4478 20.1471 19.2998 20.0482C19.1518 19.9493 19.0364 19.8087 18.9683 19.6443C18.9002 19.4798 18.8824 19.2989 18.9171 19.1243C18.9518 18.9497 19.0375 18.7893 19.1634 18.6635C19.2893 18.5376 19.4496 18.4519 19.6242 18.4171C19.7988 18.3824 19.9798 18.4002 20.1442 18.4684C20.3087 18.5365 20.4492 18.6518 20.5481 18.7998C20.647 18.9478 20.6998 19.1219 20.6998 19.2999C20.6998 19.5385 20.605 19.7675 20.4362 19.9362C20.2674 20.105 20.0385 20.1999 19.7998 20.1999ZM19.7998 17.1999C19.6218 17.1999 19.4478 17.1471 19.2998 17.0482C19.1518 16.9493 19.0364 16.8087 18.9683 16.6443C18.9002 16.4798 18.8824 16.2989 18.9171 16.1243C18.9518 15.9497 19.0375 15.7893 19.1634 15.6635C19.2893 15.5376 19.4496 15.4519 19.6242 15.4171C19.7988 15.3824 19.9798 15.4002 20.1442 15.4684C20.3087 15.5365 20.4492 15.6518 20.5481 15.7998C20.647 15.9478 20.6998 16.1219 20.6998 16.2999C20.6998 16.5385 20.605 16.7675 20.4362 16.9362C20.2674 17.105 20.0385 17.1999 19.7998 17.1999ZM22.4998 12.3999H10.4998V9.99985H12.2998V10.5999C12.2998 10.759 12.363 10.9116 12.4755 11.0241C12.5881 11.1366 12.7407 11.1999 12.8998 11.1999C13.0589 11.1999 13.2115 11.1366 13.3241 11.0241C13.4366 10.9116 13.4998 10.759 13.4998 10.5999V9.99985H19.4998V10.5999C19.4998 10.759 19.563 10.9116 19.6755 11.0241C19.7881 11.1366 19.9407 11.1999 20.0998 11.1999C20.2589 11.1999 20.4115 11.1366 20.5241 11.0241C20.6366 10.9116 20.6998 10.759 20.6998 10.5999V9.99985H22.4998V12.3999Z" fill="white"/>
</svg>
