<svg width="33" height="32" viewBox="0 0 33 32" fill="none" xmlns="http://www.w3.org/2000/svg">
<rect x="0.5" width="32" height="32" rx="16" fill="#007AFF"/>
<path d="M24.9 14.2H24.09L22.0065 9.51255C21.9122 9.30047 21.7584 9.12028 21.5638 8.99382C21.3692 8.86736 21.1421 8.80005 20.91 8.80005H12.09C11.8579 8.80005 11.6308 8.86736 11.4362 8.99382C11.2416 9.12028 11.0878 9.30047 10.9935 9.51255L8.91 14.2H8.1C7.94087 14.2 7.78826 14.2633 7.67574 14.3758C7.56321 14.4883 7.5 14.6409 7.5 14.8C7.5 14.9592 7.56321 15.1118 7.67574 15.2243C7.78826 15.3368 7.94087 15.4 8.1 15.4H8.7V21.4C8.7 21.7183 8.82643 22.0235 9.05147 22.2486C9.27652 22.4736 9.58174 22.6 9.9 22.6H11.7C12.0183 22.6 12.3235 22.4736 12.5485 22.2486C12.7736 22.0235 12.9 21.7183 12.9 21.4V20.8H20.1V21.4C20.1 21.7183 20.2264 22.0235 20.4515 22.2486C20.6765 22.4736 20.9817 22.6 21.3 22.6H23.1C23.4183 22.6 23.7235 22.4736 23.9485 22.2486C24.1736 22.0235 24.3 21.7183 24.3 21.4V15.4H24.9C25.0591 15.4 25.2117 15.3368 25.3243 15.2243C25.4368 15.1118 25.5 14.9592 25.5 14.8C25.5 14.6409 25.4368 14.4883 25.3243 14.3758C25.2117 14.2633 25.0591 14.2 24.9 14.2ZM12.9 17.8H11.1C10.9409 17.8 10.7883 17.7368 10.6757 17.6243C10.5632 17.5118 10.5 17.3592 10.5 17.2C10.5 17.0409 10.5632 16.8883 10.6757 16.7758C10.7883 16.6633 10.9409 16.6 11.1 16.6H12.9C13.0591 16.6 13.2117 16.6633 13.3243 16.7758C13.4368 16.8883 13.5 17.0409 13.5 17.2C13.5 17.3592 13.4368 17.5118 13.3243 17.6243C13.2117 17.7368 13.0591 17.8 12.9 17.8ZM21.9 17.8H20.1C19.9409 17.8 19.7883 17.7368 19.6757 17.6243C19.5632 17.5118 19.5 17.3592 19.5 17.2C19.5 17.0409 19.5632 16.8883 19.6757 16.7758C19.7883 16.6633 19.9409 16.6 20.1 16.6H21.9C22.0591 16.6 22.2117 16.6633 22.3243 16.7758C22.4368 16.8883 22.5 17.0409 22.5 17.2C22.5 17.3592 22.4368 17.5118 22.3243 17.6243C22.2117 17.7368 22.0591 17.8 21.9 17.8ZM10.2233 14.2L12.09 10H20.91L22.7768 14.2H10.2233Z" fill="white"/>
</svg>
