<svg width="194" height="44" viewBox="0 0 194 44" fill="none" xmlns="http://www.w3.org/2000/svg">
<rect x="0.5" y="0.5" width="43" height="43" rx="21.5" fill="#FAFAFB"/>
<rect x="0.5" y="0.5" width="43" height="43" rx="21.5" stroke="#EAEAEA"/>
<path d="M25.9732 29.3343C17.4001 27.1686 10.8955 35.5008 8.71484 39.9376L17.9643 43.9987H25.1837L32.7416 41.7426L39.1714 35.764C38.3442 34.5232 34.5464 31.5 25.9732 29.3343Z" fill="#007AFF"/>
<g clip-path="url(#clip0_164_1836)">
<path d="M43.4038 42.3403C42.6555 40.4167 41.5781 38.6354 40.2194 37.0702C41.2013 34.6987 41.2384 32.6697 40.3149 31.0413C38.9668 28.654 35.9787 27.9162 34.7156 27.7001L33.8717 24.1955C33.9725 23.9584 34.0628 23.7107 34.1371 23.463C35.655 18.2878 31.2817 11.558 31.0959 11.2734C31.0959 11.2734 31.0694 11.2418 31.0587 11.2207C31.0057 11.1575 26.0061 5.42366 19.5363 8.72797C14.2501 11.3999 13.8467 16.9071 13.8786 18.8728C13.2152 19.0625 12.6473 19.4946 12.2864 20.0744C12.0794 20.4169 11.952 20.8069 11.9201 21.2074C9.88208 21.3497 7.95018 22.1666 6.43756 23.5315C4.65426 24.8964 4.08637 27.3259 5.08947 29.3285C1.14074 30.5512 0.578152 36.4062 0.551615 36.6697C0.530385 36.9227 0.631226 37.1703 0.827601 37.3337C0.827601 37.3337 6.61271 43.9792 8.6083 43.995H8.66668C8.72506 44.0003 8.77814 44.0003 8.83652 43.995C9.21335 43.995 9.53179 43.7315 9.61141 43.3679C9.70694 42.9252 12.0316 32.733 21.8822 31.2468C22.6571 32.4906 23.9521 33.3285 25.4116 33.534C25.5868 33.5551 25.7672 33.5604 25.9424 33.5604C28.2989 33.5604 30.2679 31.8055 30.3529 31.7264C30.4059 31.6842 30.4484 31.6315 30.4802 31.5736C32.996 32.8647 39.5878 36.7329 41.9337 42.8514C42.0451 43.1624 42.3424 43.3732 42.6767 43.3784C42.7723 43.3784 42.8731 43.3626 42.9633 43.3257C43.3455 43.1624 43.5418 42.7302 43.4038 42.3403Z" fill="#212124"/>
<path d="M28.9301 27.1991L28.9991 30.8249C28.4259 31.2571 27.0194 32.1793 25.5864 32.016C24.6417 31.8737 23.8031 31.3309 23.283 30.5298V30.3401L22.4921 22.962C22.4444 22.5562 22.0941 22.2506 21.6801 22.2559C21.2449 22.2559 19.9552 22.1557 19.3289 21.518C19.037 21.2018 18.899 20.775 18.9468 20.3481C18.9149 19.7842 19.1325 19.2361 19.5412 18.8461C19.9817 18.5089 20.7407 18.4509 21.7969 18.6828C23.1609 18.9726 26.4993 17.0122 28.325 15.5998C29.1424 14.9937 29.8748 14.277 30.4958 13.4707C31.6315 15.5787 33.5369 19.7947 32.5816 23.0411C32.1092 24.6063 30.931 25.8711 29.3971 26.4613C29.1052 26.5931 28.9248 26.8829 28.9301 27.1991Z" fill="white"/>
</g>
<path d="M57.6362 17.2988C56.7065 17.2988 55.8986 17.1549 55.2124 16.8672C54.5317 16.5794 53.995 16.1782 53.6021 15.6636C53.2091 15.1489 52.9878 14.5485 52.938 13.8623L52.9297 13.7461H55.0049L55.0132 13.8291C55.0464 14.1667 55.1792 14.46 55.4116 14.709C55.6496 14.958 55.965 15.1545 56.3579 15.2983C56.7508 15.4367 57.1991 15.5059 57.7026 15.5059C58.1841 15.5059 58.6102 15.4312 58.981 15.2817C59.3517 15.1323 59.6423 14.9276 59.8525 14.6675C60.0628 14.4019 60.168 14.0975 60.168 13.7544V13.7461C60.168 13.3145 59.9992 12.9631 59.6616 12.6919C59.3241 12.4152 58.7679 12.1938 57.9932 12.0278L56.7065 11.7622C55.478 11.5021 54.5843 11.0871 54.0254 10.5171C53.472 9.94157 53.1953 9.20833 53.1953 8.31738V8.30908C53.1953 7.59521 53.3835 6.96989 53.7598 6.43311C54.1416 5.89632 54.6646 5.47852 55.3286 5.17969C55.9982 4.87533 56.7646 4.72314 57.6279 4.72314C58.5133 4.72314 59.2798 4.87256 59.9272 5.17139C60.5747 5.46468 61.0838 5.86589 61.4546 6.375C61.8254 6.88411 62.0329 7.45964 62.0771 8.10156L62.0854 8.20947H60.0435L60.0269 8.10986C59.9771 7.79443 59.847 7.52051 59.6367 7.28809C59.432 7.05013 59.158 6.86198 58.8149 6.72363C58.4718 6.58529 58.0706 6.51611 57.6113 6.51611C57.1742 6.51611 56.784 6.58529 56.4409 6.72363C56.0978 6.85645 55.8267 7.0446 55.6274 7.28809C55.4338 7.53158 55.3369 7.82487 55.3369 8.16797V8.17627C55.3369 8.59684 55.5002 8.94548 55.8267 9.22217C56.1587 9.49886 56.6982 9.71468 57.4453 9.86963L58.7319 10.1436C59.9937 10.4092 60.904 10.8104 61.4629 11.3472C62.0273 11.8784 62.3096 12.5978 62.3096 13.5054V13.5137C62.3096 14.2884 62.1187 14.958 61.7368 15.5225C61.3605 16.0869 60.821 16.5241 60.1182 16.834C59.4209 17.1439 58.5936 17.2988 57.6362 17.2988ZM67.5059 17.1826C66.8307 17.1826 66.2635 17.0526 65.8042 16.7925C65.3449 16.5269 64.999 16.1423 64.7666 15.6387C64.5342 15.1296 64.418 14.5153 64.418 13.7959V7.92725H66.4849V13.3228C66.4849 14.0256 66.6232 14.554 66.8999 14.9082C67.1766 15.2624 67.6276 15.4395 68.2529 15.4395C68.6956 15.4395 69.0692 15.3481 69.3735 15.1655C69.6834 14.9829 69.9159 14.7256 70.0708 14.3936C70.2257 14.0615 70.3032 13.6686 70.3032 13.2148V7.92725H72.3701V17H70.3032V15.6221H70.1621C69.9518 16.109 69.6198 16.4909 69.166 16.7676C68.7178 17.0443 68.1644 17.1826 67.5059 17.1826ZM79.6416 17V5.02197H81.7832V15.1987H87.27V17H79.6416ZM92.8398 17.1826C91.9378 17.1826 91.1631 16.9917 90.5156 16.6099C89.8737 16.228 89.3784 15.6857 89.0298 14.9829C88.6812 14.2801 88.5068 13.4473 88.5068 12.4844V12.4761C88.5068 11.5243 88.6784 10.6942 89.0215 9.98584C89.3701 9.27751 89.8626 8.72965 90.499 8.34229C91.1354 7.94938 91.8825 7.75293 92.7402 7.75293C93.6035 7.75293 94.3451 7.94385 94.9648 8.32568C95.5902 8.70199 96.0716 9.23047 96.4092 9.91113C96.7467 10.5918 96.9155 11.3887 96.9155 12.3018V12.9824H89.5444V11.5962H95.9028L94.9233 12.8911V12.0693C94.9233 11.4661 94.832 10.9653 94.6494 10.5669C94.4668 10.1685 94.2122 9.86963 93.8857 9.67041C93.5648 9.47119 93.1912 9.37158 92.7651 9.37158C92.339 9.37158 91.96 9.47673 91.6279 9.68701C91.3014 9.89176 91.0413 10.1961 90.8477 10.6001C90.6595 10.9985 90.5654 11.4883 90.5654 12.0693V12.8994C90.5654 13.4583 90.6595 13.937 90.8477 14.3354C91.0358 14.7284 91.3014 15.0327 91.6445 15.2485C91.9932 15.4588 92.4054 15.564 92.8813 15.564C93.2521 15.564 93.5703 15.5114 93.8359 15.4062C94.1071 15.2956 94.3257 15.1655 94.4917 15.0161C94.6577 14.8612 94.7739 14.7145 94.8403 14.5762L94.8652 14.5181H96.8242L96.8076 14.5928C96.7357 14.8861 96.6029 15.1849 96.4092 15.4893C96.221 15.7881 95.9637 16.0675 95.6372 16.3276C95.3162 16.5822 94.9233 16.7897 94.4585 16.9502C93.9937 17.1051 93.4541 17.1826 92.8398 17.1826ZM102.867 17.1826C101.965 17.1826 101.19 16.9917 100.543 16.6099C99.901 16.228 99.4058 15.6857 99.0571 14.9829C98.7085 14.2801 98.5342 13.4473 98.5342 12.4844V12.4761C98.5342 11.5243 98.7057 10.6942 99.0488 9.98584C99.3975 9.27751 99.89 8.72965 100.526 8.34229C101.163 7.94938 101.91 7.75293 102.768 7.75293C103.631 7.75293 104.372 7.94385 104.992 8.32568C105.618 8.70199 106.099 9.23047 106.437 9.91113C106.774 10.5918 106.943 11.3887 106.943 12.3018V12.9824H99.5718V11.5962H105.93L104.951 12.8911V12.0693C104.951 11.4661 104.859 10.9653 104.677 10.5669C104.494 10.1685 104.24 9.86963 103.913 9.67041C103.592 9.47119 103.219 9.37158 102.792 9.37158C102.366 9.37158 101.987 9.47673 101.655 9.68701C101.329 9.89176 101.069 10.1961 100.875 10.6001C100.687 10.9985 100.593 11.4883 100.593 12.0693V12.8994C100.593 13.4583 100.687 13.937 100.875 14.3354C101.063 14.7284 101.329 15.0327 101.672 15.2485C102.021 15.4588 102.433 15.564 102.909 15.564C103.279 15.564 103.598 15.5114 103.863 15.4062C104.134 15.2956 104.353 15.1655 104.519 15.0161C104.685 14.8612 104.801 14.7145 104.868 14.5762L104.893 14.5181H106.852L106.835 14.5928C106.763 14.8861 106.63 15.1849 106.437 15.4893C106.248 15.7881 105.991 16.0675 105.665 16.3276C105.344 16.5822 104.951 16.7897 104.486 16.9502C104.021 17.1051 103.481 17.1826 102.867 17.1826Z" fill="black"/>
<path d="M53.6553 39V27.022H55.1494V39H53.6553ZM58.0215 39V30.0518H59.4658V31.3965H59.5986C59.8255 30.9206 60.152 30.5526 60.5781 30.2925C61.0042 30.0269 61.5465 29.894 62.2051 29.894C63.2122 29.894 63.9842 30.1818 64.521 30.7573C65.0633 31.3273 65.3345 32.1436 65.3345 33.2061V39H63.8901V33.5547C63.8901 32.7467 63.7186 32.1491 63.3755 31.7617C63.0379 31.3688 62.5122 31.1724 61.7983 31.1724C61.3224 31.1724 60.9102 31.2747 60.5615 31.4795C60.2129 31.6842 59.9417 31.9748 59.748 32.3511C59.5599 32.7274 59.4658 33.1784 59.4658 33.7041V39H58.0215ZM71.0205 39.1577C70.3564 39.1577 69.7699 39.0581 69.2607 38.8589C68.7516 38.6541 68.3421 38.3691 68.0322 38.0039C67.7279 37.6387 67.548 37.2098 67.4927 36.7173H68.9702C69.092 37.0881 69.3299 37.3869 69.6841 37.6138C70.0382 37.8407 70.5003 37.9541 71.0703 37.9541C71.4743 37.9541 71.8285 37.896 72.1328 37.7798C72.4427 37.658 72.6862 37.4948 72.8633 37.29C73.0404 37.0798 73.1289 36.839 73.1289 36.5679V36.5513C73.1289 36.2469 73.0072 35.9896 72.7637 35.7793C72.5202 35.5635 72.1217 35.3892 71.5684 35.2563L70.1821 34.9243C69.3465 34.7251 68.7323 34.4346 68.3394 34.0527C67.9465 33.6654 67.75 33.1507 67.75 32.5088V32.5005C67.75 32.0024 67.8939 31.557 68.1816 31.1641C68.4749 30.7712 68.8734 30.4613 69.377 30.2344C69.8805 30.0075 70.4478 29.894 71.0786 29.894C71.7039 29.894 72.2573 29.9937 72.7388 30.1929C73.2257 30.3866 73.6159 30.6632 73.9092 31.0229C74.208 31.3826 74.3906 31.806 74.457 32.293H73.0376C72.9435 31.9388 72.7277 31.651 72.3901 31.4297C72.0526 31.2083 71.6126 31.0977 71.0703 31.0977C70.7161 31.0977 70.4007 31.1558 70.124 31.272C69.8473 31.3826 69.6287 31.5376 69.4683 31.7368C69.3078 31.936 69.2275 32.1685 69.2275 32.4341V32.4507C69.2275 32.755 69.3465 33.0068 69.5845 33.2061C69.8224 33.4053 70.2043 33.5685 70.73 33.6958L72.1079 34.0278C72.9491 34.2326 73.5744 34.5259 73.9839 34.9077C74.3989 35.2896 74.6064 35.8014 74.6064 36.4434V36.46C74.6064 36.9912 74.4487 37.4616 74.1333 37.8711C73.8179 38.2751 73.389 38.5905 72.8467 38.8174C72.3099 39.0443 71.7012 39.1577 71.0205 39.1577ZM79.8442 39.1577C79.1691 39.1577 78.6019 39.0304 78.1426 38.7759C77.6833 38.5158 77.3374 38.1395 77.105 37.647C76.8781 37.1489 76.7646 36.5485 76.7646 35.8457V30.0518H78.209V35.4971C78.209 36.2995 78.3639 36.8971 78.6738 37.29C78.9893 37.6829 79.5039 37.8794 80.2178 37.8794C80.7435 37.8794 81.1862 37.777 81.5459 37.5723C81.9056 37.3675 82.1768 37.077 82.3594 36.7007C82.542 36.3188 82.6333 35.8678 82.6333 35.3477V30.0518H84.0776V39H82.6333V37.6636H82.5005C82.2791 38.1395 81.9443 38.5075 81.4961 38.7676C81.0534 39.0277 80.5028 39.1577 79.8442 39.1577ZM86.7754 39V30.0518H88.2197V31.3799H88.3525C88.5241 30.9095 88.8146 30.5443 89.2241 30.2842C89.6336 30.0241 90.14 29.894 90.7432 29.894C90.8815 29.894 91.0171 29.9023 91.1499 29.9189C91.2882 29.93 91.3934 29.9411 91.4653 29.9521V31.355C91.3159 31.3273 91.1693 31.3079 91.0254 31.2969C90.887 31.2803 90.7376 31.272 90.5771 31.272C90.1178 31.272 89.7111 31.3633 89.3569 31.5459C89.0028 31.7285 88.7233 31.9831 88.5186 32.3096C88.3193 32.6361 88.2197 33.0179 88.2197 33.4551V39H86.7754ZM95.707 39.1577C95.1426 39.1577 94.6335 39.0498 94.1797 38.834C93.7314 38.6182 93.3745 38.311 93.1089 37.9126C92.8488 37.5142 92.7188 37.0438 92.7188 36.5015V36.4849C92.7188 35.688 93.001 35.0654 93.5654 34.6172C94.1354 34.1634 94.9406 33.9061 95.981 33.8452L99.2681 33.646V34.7998L96.1553 34.999C95.4746 35.0378 94.9766 35.1789 94.6611 35.4224C94.3512 35.6659 94.1963 36.009 94.1963 36.4517V36.4683C94.1963 36.922 94.3678 37.2762 94.7109 37.5308C95.054 37.7798 95.4857 37.9043 96.0059 37.9043C96.4984 37.9043 96.9355 37.8075 97.3174 37.6138C97.6992 37.4146 97.998 37.1462 98.2139 36.8086C98.4352 36.471 98.5459 36.0892 98.5459 35.6631V32.874C98.5459 32.3206 98.3771 31.9001 98.0396 31.6123C97.7075 31.319 97.2067 31.1724 96.5371 31.1724C96.0003 31.1724 95.5604 31.2692 95.2173 31.4629C94.8742 31.651 94.6445 31.9194 94.5283 32.2681L94.52 32.293H93.0757L93.084 32.2432C93.1615 31.7728 93.3551 31.3633 93.665 31.0146C93.9805 30.6605 94.3872 30.3866 94.8853 30.1929C95.3833 29.9937 95.9505 29.894 96.5869 29.894C97.3174 29.894 97.9344 30.013 98.438 30.251C98.9471 30.4889 99.3317 30.832 99.5918 31.2803C99.8574 31.723 99.9902 32.2542 99.9902 32.874V39H98.5459V37.6802H98.4131C98.2249 37.9956 97.9953 38.264 97.7241 38.4854C97.4585 38.7067 97.1569 38.8755 96.8193 38.9917C96.4818 39.1024 96.111 39.1577 95.707 39.1577ZM102.63 39V30.0518H104.074V31.3965H104.207C104.434 30.9206 104.76 30.5526 105.187 30.2925C105.613 30.0269 106.155 29.894 106.813 29.894C107.821 29.894 108.593 30.1818 109.129 30.7573C109.672 31.3273 109.943 32.1436 109.943 33.2061V39H108.499V33.5547C108.499 32.7467 108.327 32.1491 107.984 31.7617C107.646 31.3688 107.121 31.1724 106.407 31.1724C105.931 31.1724 105.519 31.2747 105.17 31.4795C104.821 31.6842 104.55 31.9748 104.356 32.3511C104.168 32.7274 104.074 33.1784 104.074 33.7041V39H102.63ZM116.218 39.1577C115.383 39.1577 114.658 38.9668 114.043 38.585C113.429 38.2031 112.953 37.6636 112.616 36.9663C112.278 36.269 112.109 35.4473 112.109 34.501V34.4844C112.109 33.5547 112.275 32.7467 112.607 32.0605C112.945 31.3743 113.421 30.8431 114.035 30.4668C114.649 30.085 115.374 29.894 116.21 29.894C116.935 29.894 117.56 30.0213 118.086 30.2759C118.612 30.5304 119.032 30.8735 119.348 31.3052C119.663 31.7313 119.865 32.21 119.954 32.7412L119.962 32.791H118.526L118.518 32.7661C118.407 32.3234 118.155 31.9471 117.762 31.6372C117.369 31.3273 116.852 31.1724 116.21 31.1724C115.673 31.1724 115.208 31.3079 114.815 31.5791C114.423 31.8503 114.118 32.2349 113.902 32.7329C113.692 33.2254 113.587 33.8092 113.587 34.4844V34.501C113.587 35.1872 113.695 35.7848 113.911 36.2939C114.126 36.7975 114.431 37.1877 114.824 37.4644C115.217 37.741 115.679 37.8794 116.21 37.8794C116.813 37.8794 117.306 37.7493 117.688 37.4893C118.069 37.2292 118.343 36.8501 118.509 36.3521L118.526 36.3022L119.954 36.2939L119.937 36.3853C119.815 36.922 119.599 37.4007 119.29 37.8213C118.98 38.2363 118.57 38.5628 118.061 38.8008C117.552 39.0387 116.938 39.1577 116.218 39.1577ZM125.723 39.1577C124.87 39.1577 124.137 38.9696 123.523 38.5933C122.914 38.217 122.444 37.6857 122.112 36.9995C121.785 36.3078 121.622 35.4943 121.622 34.5591V34.5508C121.622 33.6266 121.785 32.8159 122.112 32.1187C122.444 31.4214 122.911 30.8763 123.515 30.4834C124.118 30.0905 124.823 29.894 125.631 29.894C126.445 29.894 127.142 30.0822 127.723 30.4585C128.31 30.8348 128.758 31.3605 129.068 32.0356C129.383 32.7052 129.541 33.4855 129.541 34.3765V34.9409H122.369V33.7871H128.802L128.088 34.8413V34.2686C128.088 33.5658 127.983 32.9875 127.773 32.5337C127.563 32.0799 127.272 31.7424 126.901 31.521C126.531 31.2941 126.104 31.1807 125.623 31.1807C125.142 31.1807 124.71 31.2996 124.328 31.5376C123.952 31.77 123.653 32.1159 123.432 32.5752C123.21 33.0345 123.1 33.599 123.1 34.2686V34.8413C123.1 35.4777 123.208 36.0228 123.423 36.4766C123.639 36.9248 123.946 37.2707 124.345 37.5142C124.743 37.7521 125.214 37.8711 125.756 37.8711C126.16 37.8711 126.511 37.8158 126.81 37.7051C127.109 37.5944 127.355 37.4533 127.549 37.2817C127.743 37.1102 127.878 36.9359 127.956 36.7588L127.989 36.6841H129.433L129.417 36.7505C129.339 37.0549 129.201 37.3509 129.001 37.6387C128.808 37.9209 128.556 38.1782 128.246 38.4106C127.936 38.6375 127.568 38.8201 127.142 38.9585C126.722 39.0913 126.248 39.1577 125.723 39.1577ZM139.021 39.1577C138.456 39.1577 137.947 39.0498 137.493 38.834C137.045 38.6182 136.688 38.311 136.422 37.9126C136.162 37.5142 136.032 37.0438 136.032 36.5015V36.4849C136.032 35.688 136.314 35.0654 136.879 34.6172C137.449 34.1634 138.254 33.9061 139.294 33.8452L142.582 33.646V34.7998L139.469 34.999C138.788 35.0378 138.29 35.1789 137.975 35.4224C137.665 35.6659 137.51 36.009 137.51 36.4517V36.4683C137.51 36.922 137.681 37.2762 138.024 37.5308C138.368 37.7798 138.799 37.9043 139.319 37.9043C139.812 37.9043 140.249 37.8075 140.631 37.6138C141.013 37.4146 141.312 37.1462 141.527 36.8086C141.749 36.471 141.859 36.0892 141.859 35.6631V32.874C141.859 32.3206 141.691 31.9001 141.353 31.6123C141.021 31.319 140.52 31.1724 139.851 31.1724C139.314 31.1724 138.874 31.2692 138.531 31.4629C138.188 31.651 137.958 31.9194 137.842 32.2681L137.833 32.293H136.389L136.397 32.2432C136.475 31.7728 136.669 31.3633 136.979 31.0146C137.294 30.6605 137.701 30.3866 138.199 30.1929C138.697 29.9937 139.264 29.894 139.9 29.894C140.631 29.894 141.248 30.013 141.751 30.251C142.261 30.4889 142.645 30.832 142.905 31.2803C143.171 31.723 143.304 32.2542 143.304 32.874V39H141.859V37.6802H141.727C141.538 37.9956 141.309 38.264 141.038 38.4854C140.772 38.7067 140.47 38.8755 140.133 38.9917C139.795 39.1024 139.424 39.1577 139.021 39.1577ZM149.247 39.1577C148.494 39.1577 147.836 38.9668 147.271 38.585C146.707 38.2031 146.27 37.6663 145.96 36.9746C145.65 36.2773 145.495 35.4639 145.495 34.5342V34.5176C145.495 33.5824 145.65 32.7689 145.96 32.0771C146.27 31.3854 146.704 30.8486 147.263 30.4668C147.828 30.085 148.489 29.894 149.247 29.894C149.861 29.894 150.417 30.0379 150.916 30.3257C151.419 30.6079 151.793 30.987 152.036 31.4629H152.169V26.499H153.613V39H152.169V37.5723H152.036C151.765 38.0703 151.389 38.4604 150.907 38.7427C150.426 39.0194 149.872 39.1577 149.247 39.1577ZM149.579 37.8794C150.121 37.8794 150.589 37.7438 150.982 37.4727C151.375 37.2015 151.676 36.8169 151.887 36.3188C152.097 35.8153 152.202 35.2204 152.202 34.5342V34.5176C152.202 33.8258 152.097 33.231 151.887 32.7329C151.676 32.2349 151.375 31.8503 150.982 31.5791C150.589 31.3079 150.121 31.1724 149.579 31.1724C149.037 31.1724 148.569 31.3079 148.176 31.5791C147.789 31.8447 147.49 32.2266 147.28 32.7246C147.075 33.2227 146.973 33.8203 146.973 34.5176V34.5342C146.973 35.2259 147.075 35.8236 147.28 36.3271C147.49 36.8252 147.789 37.2098 148.176 37.481C148.569 37.7466 149.037 37.8794 149.579 37.8794ZM158.917 39L155.605 30.0518H157.133L159.582 37.4229H159.714L162.163 30.0518H163.69L160.378 39H158.917ZM165.633 39V30.0518H167.077V39H165.633ZM166.363 28.3252C166.092 28.3252 165.857 28.2284 165.658 28.0347C165.464 27.8354 165.367 27.6003 165.367 27.3291C165.367 27.0524 165.464 26.8172 165.658 26.6235C165.857 26.4299 166.092 26.333 166.363 26.333C166.64 26.333 166.875 26.4299 167.069 26.6235C167.263 26.8172 167.359 27.0524 167.359 27.3291C167.359 27.6003 167.263 27.8354 167.069 28.0347C166.875 28.2284 166.64 28.3252 166.363 28.3252ZM172.871 39.1577C172.207 39.1577 171.62 39.0581 171.111 38.8589C170.602 38.6541 170.193 38.3691 169.883 38.0039C169.578 37.6387 169.399 37.2098 169.343 36.7173H170.821C170.943 37.0881 171.181 37.3869 171.535 37.6138C171.889 37.8407 172.351 37.9541 172.921 37.9541C173.325 37.9541 173.679 37.896 173.983 37.7798C174.293 37.658 174.537 37.4948 174.714 37.29C174.891 37.0798 174.979 36.839 174.979 36.5679V36.5513C174.979 36.2469 174.858 35.9896 174.614 35.7793C174.371 35.5635 173.972 35.3892 173.419 35.2563L172.033 34.9243C171.197 34.7251 170.583 34.4346 170.19 34.0527C169.797 33.6654 169.601 33.1507 169.601 32.5088V32.5005C169.601 32.0024 169.744 31.557 170.032 31.1641C170.326 30.7712 170.724 30.4613 171.228 30.2344C171.731 30.0075 172.298 29.894 172.929 29.894C173.555 29.894 174.108 29.9937 174.589 30.1929C175.076 30.3866 175.466 30.6632 175.76 31.0229C176.059 31.3826 176.241 31.806 176.308 32.293H174.888C174.794 31.9388 174.578 31.651 174.241 31.4297C173.903 31.2083 173.463 31.0977 172.921 31.0977C172.567 31.0977 172.251 31.1558 171.975 31.272C171.698 31.3826 171.479 31.5376 171.319 31.7368C171.158 31.936 171.078 32.1685 171.078 32.4341V32.4507C171.078 32.755 171.197 33.0068 171.435 33.2061C171.673 33.4053 172.055 33.5685 172.581 33.6958L173.958 34.0278C174.8 34.2326 175.425 34.5259 175.834 34.9077C176.25 35.2896 176.457 35.8014 176.457 36.4434V36.46C176.457 36.9912 176.299 37.4616 175.984 37.8711C175.668 38.2751 175.24 38.5905 174.697 38.8174C174.16 39.0443 173.552 39.1577 172.871 39.1577ZM182.375 39.1577C181.529 39.1577 180.796 38.9723 180.176 38.6016C179.562 38.2253 179.086 37.6912 178.748 36.9995C178.416 36.3078 178.25 35.486 178.25 34.5342V34.5176C178.25 33.5602 178.416 32.7357 178.748 32.0439C179.086 31.3522 179.562 30.821 180.176 30.4502C180.796 30.0794 181.529 29.894 182.375 29.894C183.228 29.894 183.961 30.0794 184.575 30.4502C185.189 30.821 185.663 31.3522 185.995 32.0439C186.332 32.7357 186.501 33.5602 186.501 34.5176V34.5342C186.501 35.486 186.332 36.3078 185.995 36.9995C185.663 37.6912 185.189 38.2253 184.575 38.6016C183.961 38.9723 183.228 39.1577 182.375 39.1577ZM182.375 37.8794C182.94 37.8794 183.419 37.7466 183.812 37.481C184.204 37.2153 184.503 36.8335 184.708 36.3354C184.918 35.8374 185.023 35.237 185.023 34.5342V34.5176C185.023 33.8092 184.918 33.2061 184.708 32.708C184.503 32.21 184.204 31.8309 183.812 31.5708C183.419 31.3052 182.94 31.1724 182.375 31.1724C181.811 31.1724 181.332 31.3052 180.939 31.5708C180.547 31.8309 180.245 32.21 180.035 32.708C179.83 33.2061 179.728 33.8092 179.728 34.5176V34.5342C179.728 35.237 179.83 35.8374 180.035 36.3354C180.245 36.8335 180.547 37.2153 180.939 37.481C181.332 37.7466 181.811 37.8794 182.375 37.8794ZM188.742 39V30.0518H190.187V31.3799H190.319C190.491 30.9095 190.781 30.5443 191.191 30.2842C191.6 30.0241 192.107 29.894 192.71 29.894C192.848 29.894 192.984 29.9023 193.117 29.9189C193.255 29.93 193.36 29.9411 193.432 29.9521V31.355C193.283 31.3273 193.136 31.3079 192.992 31.2969C192.854 31.2803 192.704 31.272 192.544 31.272C192.085 31.272 191.678 31.3633 191.324 31.5459C190.97 31.7285 190.69 31.9831 190.485 32.3096C190.286 32.6361 190.187 33.0179 190.187 33.4551V39H188.742Z" fill="black"/>
<defs>
<clipPath id="clip0_164_1836">
<rect width="42.9" height="36.3" fill="white" transform="translate(0.550781 7.7002)"/>
</clipPath>
</defs>
</svg>
