<svg width="721" height="112" viewBox="0 0 721 112" fill="none" xmlns="http://www.w3.org/2000/svg">
<rect x="1" y="0.5" width="719" height="111" rx="15.5" fill="white"/>
<rect x="1" y="0.5" width="719" height="111" rx="15.5" stroke="#C6C6C6"/>
<circle cx="60.5" cy="56" r="28" fill="#FAFAFB"/>
<path d="M73.3662 67.5C73.2784 67.652 73.1521 67.7783 73.0001 67.8661C72.848 67.9538 72.6755 68 72.5 68H48.5C48.3245 67.9998 48.1522 67.9535 48.0003 67.8656C47.8484 67.7778 47.7223 67.6515 47.6347 67.4995C47.547 67.3475 47.5009 67.1752 47.501 66.9997C47.501 66.8243 47.5472 66.6519 47.635 66.5C49.5387 63.2087 52.4725 60.8487 55.8962 59.73C54.2027 58.7218 52.8869 57.1856 52.1509 55.3572C51.415 53.5289 51.2996 51.5095 51.8224 49.6092C52.3452 47.7089 53.4774 46.0327 55.045 44.8381C56.6126 43.6436 58.529 42.9966 60.5 42.9966C62.4709 42.9966 64.3873 43.6436 65.9549 44.8381C67.5226 46.0327 68.6547 47.7089 69.1775 49.6092C69.7003 51.5095 69.5849 53.5289 68.849 55.3572C68.113 57.1856 66.7972 58.7218 65.1037 59.73C68.5275 60.8487 71.4612 63.2087 73.365 66.5C73.4529 66.6519 73.4993 66.8243 73.4995 66.9998C73.4998 67.1754 73.4538 67.3479 73.3662 67.5Z" fill="#C6C6C6"/>
<path d="M102.121 50V35.9082H104.641V50H102.121ZM107.629 50V39.4043H110.061V41.0352H110.197C110.458 40.4622 110.845 40.013 111.359 39.6875C111.88 39.3555 112.528 39.1895 113.303 39.1895C114.481 39.1895 115.383 39.5345 116.008 40.2246C116.639 40.9147 116.955 41.888 116.955 43.1445V50H114.523V43.6914C114.523 42.8841 114.348 42.2754 113.996 41.8652C113.651 41.4486 113.117 41.2402 112.395 41.2402C111.913 41.2402 111.496 41.3477 111.145 41.5625C110.799 41.7773 110.533 42.0768 110.344 42.4609C110.155 42.8451 110.061 43.3008 110.061 43.8281V50H107.629ZM123.459 50.1855C122.567 50.1855 121.796 49.9642 121.145 49.5215C120.493 49.0723 119.989 48.4375 119.631 47.6172C119.273 46.7969 119.094 45.8268 119.094 44.707V44.6973C119.094 43.5645 119.27 42.5911 119.621 41.7773C119.979 40.957 120.484 40.3255 121.135 39.8828C121.786 39.4401 122.557 39.2188 123.449 39.2188C124.185 39.2188 124.839 39.3913 125.412 39.7363C125.985 40.0749 126.411 40.5371 126.691 41.123H126.828V35.3613H129.26V50H126.828V48.3105H126.691C126.398 48.8965 125.972 49.3555 125.412 49.6875C124.859 50.0195 124.208 50.1855 123.459 50.1855ZM124.201 48.1348C124.748 48.1348 125.22 47.998 125.617 47.7246C126.014 47.4447 126.32 47.0475 126.535 46.5332C126.75 46.0189 126.857 45.4134 126.857 44.7168V44.6973C126.857 43.9876 126.747 43.3789 126.525 42.8711C126.311 42.3568 126.005 41.9629 125.607 41.6895C125.21 41.4095 124.742 41.2695 124.201 41.2695C123.661 41.2695 123.192 41.4095 122.795 41.6895C122.404 41.9629 122.102 42.3535 121.887 42.8613C121.678 43.3691 121.574 43.9811 121.574 44.6973V44.707C121.574 45.4167 121.678 46.0286 121.887 46.543C122.102 47.0573 122.404 47.4512 122.795 47.7246C123.192 47.998 123.661 48.1348 124.201 48.1348ZM132.121 50V39.4043H134.553V50H132.121ZM133.342 37.6855C132.951 37.6855 132.616 37.5488 132.336 37.2754C132.056 36.9954 131.916 36.6634 131.916 36.2793C131.916 35.8887 132.056 35.5566 132.336 35.2832C132.616 35.0098 132.951 34.873 133.342 34.873C133.732 34.873 134.068 35.0098 134.348 35.2832C134.628 35.5566 134.768 35.8887 134.768 36.2793C134.768 36.6634 134.628 36.9954 134.348 37.2754C134.068 37.5488 133.732 37.6855 133.342 37.6855ZM140.168 50L136.408 39.4043H138.996L141.447 47.6562H141.594L144.035 39.4043H146.584L142.834 50H140.168ZM148.449 50V39.4043H150.881V50H148.449ZM149.67 37.6855C149.279 37.6855 148.944 37.5488 148.664 37.2754C148.384 36.9954 148.244 36.6634 148.244 36.2793C148.244 35.8887 148.384 35.5566 148.664 35.2832C148.944 35.0098 149.279 34.873 149.67 34.873C150.061 34.873 150.396 35.0098 150.676 35.2832C150.956 35.5566 151.096 35.8887 151.096 36.2793C151.096 36.6634 150.956 36.9954 150.676 37.2754C150.396 37.5488 150.061 37.6855 149.67 37.6855ZM157.502 50.1855C156.61 50.1855 155.839 49.9642 155.188 49.5215C154.536 49.0723 154.032 48.4375 153.674 47.6172C153.316 46.7969 153.137 45.8268 153.137 44.707V44.6973C153.137 43.5645 153.312 42.5911 153.664 41.7773C154.022 40.957 154.527 40.3255 155.178 39.8828C155.829 39.4401 156.6 39.2188 157.492 39.2188C158.228 39.2188 158.882 39.3913 159.455 39.7363C160.028 40.0749 160.454 40.5371 160.734 41.123H160.871V35.3613H163.303V50H160.871V48.3105H160.734C160.441 48.8965 160.015 49.3555 159.455 49.6875C158.902 50.0195 158.251 50.1855 157.502 50.1855ZM158.244 48.1348C158.791 48.1348 159.263 47.998 159.66 47.7246C160.057 47.4447 160.363 47.0475 160.578 46.5332C160.793 46.0189 160.9 45.4134 160.9 44.7168V44.6973C160.9 43.9876 160.79 43.3789 160.568 42.8711C160.354 42.3568 160.048 41.9629 159.65 41.6895C159.253 41.4095 158.785 41.2695 158.244 41.2695C157.704 41.2695 157.235 41.4095 156.838 41.6895C156.447 41.9629 156.145 42.3535 155.93 42.8613C155.721 43.3691 155.617 43.9811 155.617 44.6973V44.707C155.617 45.4167 155.721 46.0286 155.93 46.543C156.145 47.0573 156.447 47.4512 156.838 47.7246C157.235 47.998 157.704 48.1348 158.244 48.1348ZM169.66 50.2148C168.872 50.2148 168.208 50.0586 167.668 49.7461C167.128 49.4336 166.721 48.9844 166.447 48.3984C166.174 47.806 166.037 47.0931 166.037 46.2598V39.4043H168.469V45.7129C168.469 46.5202 168.635 47.1322 168.967 47.5488C169.299 47.959 169.826 48.1641 170.549 48.1641C171.057 48.1641 171.486 48.0599 171.838 47.8516C172.196 47.6367 172.466 47.334 172.648 46.9434C172.837 46.5527 172.932 46.097 172.932 45.5762V39.4043H175.363V50H172.932V48.3789H172.795C172.541 48.9453 172.147 49.3945 171.613 49.7266C171.086 50.0521 170.435 50.2148 169.66 50.2148ZM181.047 50.1758C180.37 50.1758 179.768 50.0456 179.24 49.7852C178.713 49.5247 178.299 49.1569 178 48.6816C177.701 48.1999 177.551 47.64 177.551 47.002V46.9824C177.551 46.0319 177.899 45.2865 178.596 44.7461C179.292 44.2057 180.282 43.8965 181.564 43.8184L185.52 43.584V45.1855L181.916 45.4199C181.252 45.4525 180.757 45.5957 180.432 45.8496C180.113 46.097 179.953 46.4355 179.953 46.8652V46.8848C179.953 47.334 180.122 47.6855 180.461 47.9395C180.806 48.1934 181.245 48.3203 181.779 48.3203C182.268 48.3203 182.701 48.2227 183.078 48.0273C183.456 47.832 183.755 47.5684 183.977 47.2363C184.198 46.8978 184.309 46.5202 184.309 46.1035V42.793C184.309 42.2591 184.139 41.849 183.801 41.5625C183.462 41.2695 182.971 41.123 182.326 41.123C181.76 41.123 181.301 41.2272 180.949 41.4355C180.604 41.6374 180.373 41.9173 180.256 42.2754L180.246 42.3242H177.961L177.971 42.2363C178.049 41.6309 178.277 41.1003 178.654 40.6445C179.038 40.1888 179.549 39.834 180.188 39.5801C180.832 39.3197 181.581 39.1895 182.434 39.1895C183.339 39.1895 184.11 39.3327 184.748 39.6191C185.386 39.9056 185.874 40.3158 186.213 40.8496C186.551 41.377 186.721 42.0117 186.721 42.7539V50H184.309V48.5059H184.162C183.967 48.8509 183.713 49.1504 183.4 49.4043C183.094 49.6517 182.743 49.8438 182.346 49.9805C181.949 50.1107 181.516 50.1758 181.047 50.1758ZM189.494 50V35.3613H191.926V50H189.494Z" fill="#48484A"/>
<rect x="201.5" y="32" width="97" height="22" rx="4" fill="#EAEAEA"/>
<path d="M212.188 47.2109C211.359 47.2109 210.646 47.0312 210.049 46.6719C209.455 46.3086 208.996 45.7949 208.672 45.1309C208.348 44.4668 208.186 43.6816 208.186 42.7754V42.7637C208.186 41.8535 208.348 41.0684 208.672 40.4082C209 39.7441 209.463 39.2324 210.061 38.873C210.662 38.5137 211.371 38.334 212.188 38.334C213.008 38.334 213.717 38.5137 214.314 38.873C214.912 39.2324 215.373 39.7441 215.697 40.4082C216.021 41.0723 216.184 41.8574 216.184 42.7637V42.7754C216.184 43.6816 216.021 44.4668 215.697 45.1309C215.377 45.7949 214.918 46.3086 214.32 46.6719C213.723 47.0312 213.012 47.2109 212.188 47.2109ZM212.188 45.9043C212.691 45.9043 213.127 45.7754 213.494 45.5176C213.861 45.2598 214.145 44.8965 214.344 44.4277C214.547 43.959 214.648 43.4082 214.648 42.7754V42.7637C214.648 42.127 214.547 41.5762 214.344 41.1113C214.145 40.6426 213.861 40.2812 213.494 40.0273C213.127 39.7695 212.691 39.6406 212.188 39.6406C211.688 39.6406 211.252 39.7695 210.881 40.0273C210.514 40.2812 210.229 40.6426 210.025 41.1113C209.826 41.5762 209.727 42.127 209.727 42.7637V42.7754C209.727 43.4082 209.824 43.959 210.02 44.4277C210.219 44.8965 210.502 45.2598 210.869 45.5176C211.24 45.7754 211.68 45.9043 212.188 45.9043ZM217.766 47V40.5957H219.225V41.5801H219.324C219.477 41.2324 219.707 40.9609 220.016 40.7656C220.324 40.5703 220.709 40.4727 221.17 40.4727C221.885 40.4727 222.432 40.6797 222.811 41.0938C223.189 41.5078 223.379 42.0957 223.379 42.8574V47H221.92V43.1973C221.92 42.6973 221.814 42.3223 221.604 42.0723C221.396 41.8223 221.072 41.6973 220.631 41.6973C220.342 41.6973 220.092 41.7617 219.881 41.8906C219.67 42.0195 219.508 42.2012 219.395 42.4355C219.281 42.6699 219.225 42.9473 219.225 43.2676V47H217.766ZM227.844 47.1289C227.207 47.1289 226.66 46.9941 226.203 46.7246C225.75 46.4551 225.4 46.0723 225.154 45.5762C224.908 45.0801 224.785 44.4922 224.785 43.8125V43.8066C224.785 43.1348 224.906 42.5488 225.148 42.0488C225.395 41.5488 225.742 41.1621 226.191 40.8887C226.641 40.6113 227.168 40.4727 227.773 40.4727C228.383 40.4727 228.906 40.6074 229.344 40.877C229.785 41.1426 230.125 41.5156 230.363 41.9961C230.602 42.4766 230.721 43.0391 230.721 43.6836V44.1641H225.518V43.1855H230.006L229.314 44.0996V43.5195C229.314 43.0938 229.25 42.7402 229.121 42.459C228.992 42.1777 228.812 41.9668 228.582 41.8262C228.355 41.6855 228.092 41.6152 227.791 41.6152C227.49 41.6152 227.223 41.6895 226.988 41.8379C226.758 41.9824 226.574 42.1973 226.438 42.4824C226.305 42.7637 226.238 43.1094 226.238 43.5195V44.1055C226.238 44.5 226.305 44.8379 226.438 45.1191C226.57 45.3965 226.758 45.6113 227 45.7637C227.246 45.9121 227.537 45.9863 227.873 45.9863C228.135 45.9863 228.359 45.9492 228.547 45.875C228.738 45.7969 228.893 45.7051 229.01 45.5996C229.127 45.4902 229.209 45.3867 229.256 45.2891L229.273 45.248H230.656L230.645 45.3008C230.594 45.5078 230.5 45.7188 230.363 45.9336C230.23 46.1445 230.049 46.3418 229.818 46.5254C229.592 46.7051 229.314 46.8516 228.986 46.9648C228.658 47.0742 228.277 47.1289 227.844 47.1289ZM232.209 44.252V42.9277H236.123V44.252H232.209ZM240.289 47.0293C239.555 47.0293 239.025 46.8945 238.701 46.625C238.377 46.3555 238.215 45.9141 238.215 45.3008V41.7266H237.219V40.5957H238.215V39.0254H239.697V40.5957H241.045V41.7266H239.697V44.9551C239.697 45.2715 239.764 45.5039 239.896 45.6523C240.033 45.7969 240.252 45.8691 240.553 45.8691C240.658 45.8691 240.744 45.8672 240.811 45.8633C240.881 45.8555 240.959 45.8477 241.045 45.8398V46.9648C240.943 46.9844 240.826 47 240.693 47.0117C240.564 47.0234 240.43 47.0293 240.289 47.0293ZM242.521 47V40.5957H243.975V47H242.521ZM243.254 39.5234C243.016 39.5234 242.811 39.4395 242.639 39.2715C242.467 39.1035 242.381 38.9023 242.381 38.668C242.381 38.4258 242.467 38.2227 242.639 38.0586C242.811 37.8906 243.016 37.8066 243.254 37.8066C243.492 37.8066 243.695 37.8906 243.863 38.0586C244.035 38.2227 244.121 38.4258 244.121 38.668C244.121 38.9023 244.035 39.1035 243.863 39.2715C243.695 39.4395 243.492 39.5234 243.254 39.5234ZM245.773 47V40.5957H247.232V41.5918H247.332C247.469 41.2363 247.689 40.9609 247.994 40.7656C248.303 40.5703 248.668 40.4727 249.09 40.4727C249.379 40.4727 249.639 40.5195 249.869 40.6133C250.104 40.707 250.305 40.8398 250.473 41.0117C250.641 41.1836 250.77 41.3887 250.859 41.627H250.965C251.07 41.3965 251.217 41.1953 251.404 41.0234C251.596 40.8477 251.818 40.7129 252.072 40.6191C252.33 40.5215 252.607 40.4727 252.904 40.4727C253.334 40.4727 253.701 40.5586 254.006 40.7305C254.314 40.8984 254.551 41.1406 254.715 41.457C254.883 41.7734 254.967 42.1523 254.967 42.5938V47H253.508V42.9512C253.508 42.5332 253.412 42.2207 253.221 42.0137C253.029 41.8027 252.738 41.6973 252.348 41.6973C252.094 41.6973 251.873 41.7559 251.686 41.873C251.498 41.9863 251.352 42.1406 251.246 42.3359C251.145 42.5312 251.094 42.752 251.094 42.998V47H249.635V42.8457C249.635 42.4902 249.531 42.2109 249.324 42.0078C249.121 41.8008 248.84 41.6973 248.48 41.6973C248.242 41.6973 248.027 41.7598 247.836 41.8848C247.648 42.0059 247.5 42.1738 247.391 42.3887C247.285 42.5996 247.232 42.8379 247.232 43.1035V47H245.773ZM259.426 47.1289C258.789 47.1289 258.242 46.9941 257.785 46.7246C257.332 46.4551 256.982 46.0723 256.736 45.5762C256.49 45.0801 256.367 44.4922 256.367 43.8125V43.8066C256.367 43.1348 256.488 42.5488 256.73 42.0488C256.977 41.5488 257.324 41.1621 257.773 40.8887C258.223 40.6113 258.75 40.4727 259.355 40.4727C259.965 40.4727 260.488 40.6074 260.926 40.877C261.367 41.1426 261.707 41.5156 261.945 41.9961C262.184 42.4766 262.303 43.0391 262.303 43.6836V44.1641H257.1V43.1855H261.588L260.896 44.0996V43.5195C260.896 43.0938 260.832 42.7402 260.703 42.459C260.574 42.1777 260.395 41.9668 260.164 41.8262C259.938 41.6855 259.674 41.6152 259.373 41.6152C259.072 41.6152 258.805 41.6895 258.57 41.8379C258.34 41.9824 258.156 42.1973 258.02 42.4824C257.887 42.7637 257.82 43.1094 257.82 43.5195V44.1055C257.82 44.5 257.887 44.8379 258.02 45.1191C258.152 45.3965 258.34 45.6113 258.582 45.7637C258.828 45.9121 259.119 45.9863 259.455 45.9863C259.717 45.9863 259.941 45.9492 260.129 45.875C260.32 45.7969 260.475 45.7051 260.592 45.5996C260.709 45.4902 260.791 45.3867 260.838 45.2891L260.855 45.248H262.238L262.227 45.3008C262.176 45.5078 262.082 45.7188 261.945 45.9336C261.812 46.1445 261.631 46.3418 261.4 46.5254C261.174 46.7051 260.896 46.8516 260.568 46.9648C260.24 47.0742 259.859 47.1289 259.426 47.1289ZM267.869 44.2051V42.9863H270.119C270.662 42.9863 271.084 42.8477 271.385 42.5703C271.686 42.2891 271.836 41.8945 271.836 41.3867V41.375C271.836 40.8633 271.686 40.4688 271.385 40.1914C271.084 39.9141 270.662 39.7754 270.119 39.7754H267.869V38.5449H270.488C271.062 38.5449 271.564 38.6621 271.994 38.8965C272.424 39.1309 272.76 39.4609 273.002 39.8867C273.244 40.3086 273.365 40.8027 273.365 41.3691V41.3809C273.365 41.9434 273.244 42.4375 273.002 42.8633C272.76 43.2852 272.424 43.6152 271.994 43.8535C271.564 44.0879 271.062 44.2051 270.488 44.2051H267.869ZM267.113 47V38.5449H268.625V47H267.113ZM274.941 47V38.1172H276.4V47H274.941ZM279.98 47.1055C279.578 47.1055 279.217 47.0273 278.896 46.8711C278.58 46.7148 278.33 46.4941 278.146 46.209C277.967 45.9199 277.877 45.5801 277.877 45.1895V45.1777C277.877 44.6074 278.086 44.1582 278.504 43.8301C278.926 43.502 279.527 43.3164 280.309 43.2734L282.676 43.127V44.0879L280.514 44.2285C280.104 44.252 279.801 44.3379 279.605 44.4863C279.41 44.6348 279.312 44.8418 279.312 45.1074V45.1191C279.312 45.3926 279.416 45.6055 279.623 45.7578C279.834 45.9102 280.102 45.9863 280.426 45.9863C280.719 45.9863 280.98 45.9277 281.211 45.8105C281.441 45.6934 281.623 45.5352 281.756 45.3359C281.889 45.1328 281.955 44.9043 281.955 44.6504V42.623C281.955 42.3027 281.854 42.0586 281.65 41.8906C281.447 41.7188 281.146 41.6328 280.748 41.6328C280.416 41.6328 280.145 41.6914 279.934 41.8086C279.723 41.9219 279.58 42.084 279.506 42.2949L279.5 42.3184H278.123L278.129 42.2656C278.176 41.9062 278.316 41.5918 278.551 41.3223C278.785 41.0527 279.096 40.8438 279.482 40.6953C279.869 40.5469 280.314 40.4727 280.818 40.4727C281.373 40.4727 281.842 40.5586 282.225 40.7305C282.607 40.8984 282.898 41.1445 283.098 41.4688C283.297 41.7891 283.396 42.1738 283.396 42.623V47H281.955V46.1211H281.855C281.738 46.3242 281.586 46.5 281.398 46.6484C281.215 46.7969 281.004 46.9102 280.766 46.9883C280.527 47.0664 280.266 47.1055 279.98 47.1055ZM285.148 47V40.5957H286.607V41.5801H286.707C286.859 41.2324 287.09 40.9609 287.398 40.7656C287.707 40.5703 288.092 40.4727 288.553 40.4727C289.268 40.4727 289.814 40.6797 290.193 41.0938C290.572 41.5078 290.762 42.0957 290.762 42.8574V47H289.303V43.1973C289.303 42.6973 289.197 42.3223 288.986 42.0723C288.779 41.8223 288.455 41.6973 288.014 41.6973C287.725 41.6973 287.475 41.7617 287.264 41.8906C287.053 42.0195 286.891 42.2012 286.777 42.4355C286.664 42.6699 286.607 42.9473 286.607 43.2676V47H285.148Z" fill="#48484A"/>
<path d="M101.848 77V66.4312H103.166V77H101.848ZM108.505 77.0586C107.695 77.0586 107.106 76.895 106.74 76.5679C106.379 76.2407 106.198 75.7012 106.198 74.9492V70.1592H104.953V69.1045H106.198V67.061H107.517V69.1045H109.245V70.1592H107.517V74.627C107.517 75.0908 107.604 75.4253 107.78 75.6304C107.956 75.8306 108.249 75.9307 108.659 75.9307C108.771 75.9307 108.867 75.9282 108.945 75.9233C109.028 75.9185 109.128 75.9111 109.245 75.9014V76.9854C109.123 77.0049 109.001 77.022 108.879 77.0366C108.757 77.0513 108.632 77.0586 108.505 77.0586ZM111.435 70.5986L112.072 66.4312H113.53L112.38 70.5986H111.435ZM117.653 77.1392C117.067 77.1392 116.55 77.0513 116.101 76.8755C115.651 76.6948 115.29 76.4434 115.017 76.1211C114.748 75.7988 114.589 75.4204 114.541 74.9858H115.844C115.952 75.313 116.162 75.5767 116.474 75.7769C116.787 75.9771 117.194 76.0771 117.697 76.0771C118.054 76.0771 118.366 76.0259 118.635 75.9233C118.908 75.8159 119.123 75.6719 119.279 75.4912C119.436 75.3057 119.514 75.0933 119.514 74.854V74.8394C119.514 74.5708 119.406 74.3438 119.191 74.1582C118.977 73.9678 118.625 73.814 118.137 73.6968L116.914 73.4038C116.176 73.228 115.634 72.9717 115.288 72.6348C114.941 72.293 114.768 71.8389 114.768 71.2725V71.2651C114.768 70.8257 114.895 70.4326 115.148 70.0859C115.407 69.7393 115.759 69.4658 116.203 69.2656C116.647 69.0654 117.148 68.9653 117.705 68.9653C118.256 68.9653 118.745 69.0532 119.169 69.229C119.599 69.3999 119.943 69.644 120.202 69.9614C120.466 70.2788 120.627 70.6523 120.686 71.082H119.433C119.35 70.7695 119.16 70.5156 118.862 70.3203C118.564 70.125 118.176 70.0273 117.697 70.0273C117.385 70.0273 117.106 70.0786 116.862 70.1812C116.618 70.2788 116.425 70.4155 116.284 70.5913C116.142 70.7671 116.071 70.9722 116.071 71.2065V71.2212C116.071 71.4897 116.176 71.7119 116.386 71.8877C116.596 72.0635 116.933 72.2075 117.397 72.3198L118.613 72.6128C119.355 72.7935 119.907 73.0522 120.268 73.3892C120.634 73.7261 120.817 74.1777 120.817 74.7441V74.7588C120.817 75.2275 120.678 75.6426 120.4 76.0039C120.122 76.3604 119.743 76.6387 119.265 76.8389C118.791 77.0391 118.254 77.1392 117.653 77.1392ZM129.724 77.1392C129.138 77.1392 128.62 77.0513 128.171 76.8755C127.722 76.6948 127.36 76.4434 127.087 76.1211C126.818 75.7988 126.66 75.4204 126.611 74.9858H127.915C128.022 75.313 128.232 75.5767 128.544 75.7769C128.857 75.9771 129.265 76.0771 129.768 76.0771C130.124 76.0771 130.437 76.0259 130.705 75.9233C130.979 75.8159 131.193 75.6719 131.35 75.4912C131.506 75.3057 131.584 75.0933 131.584 74.854V74.8394C131.584 74.5708 131.477 74.3438 131.262 74.1582C131.047 73.9678 130.695 73.814 130.207 73.6968L128.984 73.4038C128.247 73.228 127.705 72.9717 127.358 72.6348C127.011 72.293 126.838 71.8389 126.838 71.2725V71.2651C126.838 70.8257 126.965 70.4326 127.219 70.0859C127.478 69.7393 127.829 69.4658 128.273 69.2656C128.718 69.0654 129.218 68.9653 129.775 68.9653C130.327 68.9653 130.815 69.0532 131.24 69.229C131.669 69.3999 132.014 69.644 132.272 69.9614C132.536 70.2788 132.697 70.6523 132.756 71.082H131.503C131.42 70.7695 131.23 70.5156 130.932 70.3203C130.634 70.125 130.246 70.0273 129.768 70.0273C129.455 70.0273 129.177 70.0786 128.933 70.1812C128.688 70.2788 128.496 70.4155 128.354 70.5913C128.212 70.7671 128.142 70.9722 128.142 71.2065V71.2212C128.142 71.4897 128.247 71.7119 128.457 71.8877C128.667 72.0635 129.003 72.2075 129.467 72.3198L130.683 72.6128C131.425 72.7935 131.977 73.0522 132.338 73.3892C132.705 73.7261 132.888 74.1777 132.888 74.7441V74.7588C132.888 75.2275 132.749 75.6426 132.47 76.0039C132.192 76.3604 131.813 76.6387 131.335 76.8389C130.861 77.0391 130.324 77.1392 129.724 77.1392ZM137.509 77.1392C136.914 77.1392 136.413 77.0269 136.008 76.8022C135.603 76.5728 135.297 76.2407 135.092 75.8062C134.892 75.3667 134.792 74.8369 134.792 74.2168V69.1045H136.066V73.9092C136.066 74.6172 136.203 75.1445 136.477 75.4912C136.755 75.8379 137.209 76.0112 137.839 76.0112C138.303 76.0112 138.693 75.9209 139.011 75.7402C139.328 75.5596 139.567 75.3032 139.729 74.9712C139.89 74.6343 139.97 74.2363 139.97 73.7773V69.1045H141.245V77H139.97V75.8208H139.853C139.658 76.2407 139.362 76.5654 138.967 76.7949C138.576 77.0244 138.09 77.1392 137.509 77.1392ZM143.654 77V69.1045H144.929V77H143.654ZM144.299 67.5811C144.06 67.5811 143.852 67.4956 143.676 67.3247C143.505 67.1489 143.42 66.9414 143.42 66.7021C143.42 66.458 143.505 66.2505 143.676 66.0796C143.852 65.9087 144.06 65.8232 144.299 65.8232C144.543 65.8232 144.75 65.9087 144.921 66.0796C145.092 66.2505 145.178 66.458 145.178 66.7021C145.178 66.9414 145.092 67.1489 144.921 67.3247C144.75 67.4956 144.543 67.5811 144.299 67.5811ZM150.136 77.0586C149.326 77.0586 148.737 76.895 148.371 76.5679C148.01 76.2407 147.829 75.7012 147.829 74.9492V70.1592H146.584V69.1045H147.829V67.061H149.147V69.1045H150.876V70.1592H149.147V74.627C149.147 75.0908 149.235 75.4253 149.411 75.6304C149.587 75.8306 149.88 75.9307 150.29 75.9307C150.402 75.9307 150.498 75.9282 150.576 75.9233C150.659 75.9185 150.759 75.9111 150.876 75.9014V76.9854C150.754 77.0049 150.632 77.022 150.51 77.0366C150.388 77.0513 150.263 77.0586 150.136 77.0586ZM154.948 77.1392C154.45 77.1392 154.001 77.0439 153.601 76.8535C153.205 76.6631 152.89 76.3921 152.656 76.0405C152.426 75.689 152.312 75.2739 152.312 74.7954V74.7808C152.312 74.0776 152.561 73.5283 153.059 73.1328C153.562 72.7324 154.272 72.5054 155.19 72.4517L158.09 72.2759V73.2939L155.344 73.4697C154.743 73.5039 154.304 73.6284 154.025 73.8433C153.752 74.0581 153.615 74.3608 153.615 74.7515V74.7661C153.615 75.1665 153.767 75.479 154.069 75.7036C154.372 75.9233 154.753 76.0332 155.212 76.0332C155.646 76.0332 156.032 75.9478 156.369 75.7769C156.706 75.6011 156.97 75.3643 157.16 75.0664C157.355 74.7686 157.453 74.4316 157.453 74.0557V71.5947C157.453 71.1064 157.304 70.7354 157.006 70.4814C156.713 70.2227 156.271 70.0933 155.681 70.0933C155.207 70.0933 154.819 70.1787 154.516 70.3496C154.213 70.5156 154.011 70.7524 153.908 71.0601L153.901 71.082H152.626L152.634 71.0381C152.702 70.623 152.873 70.2617 153.146 69.9541C153.425 69.6416 153.784 69.3999 154.223 69.229C154.663 69.0532 155.163 68.9653 155.725 68.9653C156.369 68.9653 156.914 69.0703 157.358 69.2803C157.807 69.4902 158.146 69.793 158.376 70.1885C158.61 70.5791 158.728 71.0479 158.728 71.5947V77H157.453V75.8354H157.336C157.17 76.1138 156.967 76.3506 156.728 76.5459C156.494 76.7412 156.228 76.8901 155.93 76.9927C155.632 77.0903 155.305 77.1392 154.948 77.1392ZM164.982 77.1392C164.436 77.1392 163.95 77.0171 163.525 76.7729C163.1 76.5239 162.766 76.1797 162.521 75.7402H162.404V77H161.13V65.9697H162.404V70.3496H162.521C162.736 69.9297 163.063 69.5952 163.503 69.3462C163.947 69.0923 164.44 68.9653 164.982 68.9653C165.651 68.9653 166.232 69.1338 166.726 69.4707C167.224 69.8076 167.609 70.2812 167.883 70.8916C168.156 71.502 168.293 72.2197 168.293 73.0449V73.0596C168.293 73.8799 168.156 74.5977 167.883 75.2129C167.609 75.8232 167.224 76.2969 166.726 76.6338C166.232 76.9707 165.651 77.1392 164.982 77.1392ZM164.689 76.0112C165.173 76.0112 165.585 75.894 165.927 75.6597C166.269 75.4204 166.53 75.0811 166.711 74.6416C166.896 74.1973 166.989 73.6699 166.989 73.0596V73.0449C166.989 72.4297 166.896 71.9023 166.711 71.4629C166.53 71.0234 166.269 70.6865 165.927 70.4521C165.585 70.2129 165.173 70.0933 164.689 70.0933C164.211 70.0933 163.798 70.2129 163.452 70.4521C163.105 70.6914 162.839 71.0308 162.653 71.4702C162.468 71.9097 162.375 72.4346 162.375 73.0449V73.0596C162.375 73.665 162.468 74.1899 162.653 74.6343C162.839 75.0737 163.105 75.4131 163.452 75.6523C163.798 75.8916 164.211 76.0112 164.689 76.0112ZM170.344 77V65.9697H171.618V77H170.344ZM177.287 77.1392C176.535 77.1392 175.888 76.9731 175.346 76.6411C174.809 76.3091 174.394 75.8403 174.101 75.2349C173.813 74.6245 173.669 73.9067 173.669 73.0815V73.0742C173.669 72.2588 173.813 71.5435 174.101 70.9282C174.394 70.313 174.807 69.832 175.339 69.4854C175.871 69.1387 176.494 68.9653 177.207 68.9653C177.924 68.9653 178.54 69.1313 179.052 69.4634C179.57 69.7954 179.965 70.2593 180.239 70.855C180.517 71.4458 180.656 72.1343 180.656 72.9204V73.4185H174.328V72.4004H180.004L179.375 73.3306V72.8252C179.375 72.2051 179.282 71.6948 179.096 71.2944C178.911 70.894 178.654 70.5962 178.327 70.4009C178 70.2007 177.624 70.1006 177.199 70.1006C176.774 70.1006 176.394 70.2056 176.057 70.4155C175.725 70.6206 175.461 70.9258 175.266 71.3311C175.07 71.7363 174.973 72.2344 174.973 72.8252V73.3306C174.973 73.8921 175.068 74.373 175.258 74.7734C175.449 75.1689 175.72 75.4741 176.071 75.689C176.423 75.8989 176.838 76.0039 177.316 76.0039C177.673 76.0039 177.983 75.9551 178.247 75.8574C178.51 75.7598 178.728 75.6353 178.898 75.4839C179.069 75.3325 179.189 75.1787 179.257 75.0225L179.287 74.9565H180.561L180.546 75.0151C180.478 75.2837 180.356 75.5449 180.18 75.7988C180.009 76.0479 179.787 76.2749 179.514 76.48C179.24 76.6802 178.916 76.8413 178.54 76.9634C178.168 77.0806 177.751 77.1392 177.287 77.1392ZM187.38 77V70.1592H186.069V69.1045H187.38V68.2256C187.38 67.4395 187.575 66.856 187.966 66.4751C188.356 66.0894 188.925 65.8965 189.672 65.8965C189.829 65.8965 189.975 65.9038 190.112 65.9185C190.253 65.9282 190.39 65.9453 190.522 65.9697V66.9878C190.444 66.9731 190.354 66.9634 190.251 66.9585C190.148 66.9536 190.041 66.9512 189.929 66.9512C189.475 66.9512 189.147 67.061 188.947 67.2808C188.752 67.5005 188.654 67.8276 188.654 68.2622V69.1045H190.449V70.1592H188.654V77H187.38ZM195.209 77.1392C194.462 77.1392 193.815 76.9756 193.269 76.6484C192.727 76.3164 192.307 75.8452 192.009 75.2349C191.716 74.6245 191.569 73.8994 191.569 73.0596V73.0449C191.569 72.2002 191.716 71.4727 192.009 70.8623C192.307 70.252 192.727 69.7832 193.269 69.4561C193.815 69.1289 194.462 68.9653 195.209 68.9653C195.961 68.9653 196.608 69.1289 197.15 69.4561C197.692 69.7832 198.11 70.252 198.403 70.8623C198.701 71.4727 198.85 72.2002 198.85 73.0449V73.0596C198.85 73.8994 198.701 74.6245 198.403 75.2349C198.11 75.8452 197.692 76.3164 197.15 76.6484C196.608 76.9756 195.961 77.1392 195.209 77.1392ZM195.209 76.0112C195.708 76.0112 196.13 75.894 196.477 75.6597C196.823 75.4253 197.087 75.0884 197.268 74.6489C197.453 74.2095 197.546 73.6797 197.546 73.0596V73.0449C197.546 72.4199 197.453 71.8877 197.268 71.4482C197.087 71.0088 196.823 70.6743 196.477 70.4448C196.13 70.2104 195.708 70.0933 195.209 70.0933C194.711 70.0933 194.289 70.2104 193.942 70.4448C193.596 70.6743 193.33 71.0088 193.144 71.4482C192.963 71.8877 192.873 72.4199 192.873 73.0449V73.0596C192.873 73.6797 192.963 74.2095 193.144 74.6489C193.33 75.0884 193.596 75.4253 193.942 75.6597C194.289 75.894 194.711 76.0112 195.209 76.0112ZM200.827 77V69.1045H202.102V70.2764H202.219C202.37 69.8613 202.626 69.5391 202.988 69.3096C203.349 69.0801 203.796 68.9653 204.328 68.9653C204.45 68.9653 204.57 68.9727 204.687 68.9873C204.809 68.9971 204.902 69.0068 204.965 69.0166V70.2544C204.833 70.23 204.704 70.2129 204.577 70.2031C204.455 70.1885 204.323 70.1812 204.182 70.1812C203.776 70.1812 203.417 70.2617 203.105 70.4229C202.792 70.584 202.546 70.8086 202.365 71.0967C202.189 71.3848 202.102 71.7217 202.102 72.1074V77H200.827ZM213.564 77.0586C212.753 77.0586 212.165 76.895 211.799 76.5679C211.438 76.2407 211.257 75.7012 211.257 74.9492V70.1592H210.012V69.1045H211.257V67.061H212.575V69.1045H214.304V70.1592H212.575V74.627C212.575 75.0908 212.663 75.4253 212.839 75.6304C213.015 75.8306 213.308 75.9307 213.718 75.9307C213.83 75.9307 213.925 75.9282 214.003 75.9233C214.086 75.9185 214.187 75.9111 214.304 75.9014V76.9854C214.182 77.0049 214.06 77.022 213.938 77.0366C213.815 77.0513 213.691 77.0586 213.564 77.0586ZM216.208 77V69.1045H217.482V70.2764H217.6C217.751 69.8613 218.007 69.5391 218.369 69.3096C218.73 69.0801 219.177 68.9653 219.709 68.9653C219.831 68.9653 219.951 68.9727 220.068 68.9873C220.19 68.9971 220.283 69.0068 220.346 69.0166V70.2544C220.214 70.23 220.085 70.2129 219.958 70.2031C219.836 70.1885 219.704 70.1812 219.562 70.1812C219.157 70.1812 218.798 70.2617 218.486 70.4229C218.173 70.584 217.927 70.8086 217.746 71.0967C217.57 71.3848 217.482 71.7217 217.482 72.1074V77H216.208ZM224.089 77.1392C223.591 77.1392 223.142 77.0439 222.741 76.8535C222.346 76.6631 222.031 76.3921 221.796 76.0405C221.567 75.689 221.452 75.2739 221.452 74.7954V74.7808C221.452 74.0776 221.701 73.5283 222.199 73.1328C222.702 72.7324 223.413 72.5054 224.331 72.4517L227.231 72.2759V73.2939L224.484 73.4697C223.884 73.5039 223.444 73.6284 223.166 73.8433C222.893 74.0581 222.756 74.3608 222.756 74.7515V74.7661C222.756 75.1665 222.907 75.479 223.21 75.7036C223.513 75.9233 223.894 76.0332 224.353 76.0332C224.787 76.0332 225.173 75.9478 225.51 75.7769C225.847 75.6011 226.11 75.3643 226.301 75.0664C226.496 74.7686 226.594 74.4316 226.594 74.0557V71.5947C226.594 71.1064 226.445 70.7354 226.147 70.4814C225.854 70.2227 225.412 70.0933 224.821 70.0933C224.348 70.0933 223.959 70.1787 223.657 70.3496C223.354 70.5156 223.151 70.7524 223.049 71.0601L223.042 71.082H221.767L221.774 71.0381C221.843 70.623 222.014 70.2617 222.287 69.9541C222.565 69.6416 222.924 69.3999 223.364 69.229C223.803 69.0532 224.304 68.9653 224.865 68.9653C225.51 68.9653 226.054 69.0703 226.499 69.2803C226.948 69.4902 227.287 69.793 227.517 70.1885C227.751 70.5791 227.868 71.0479 227.868 71.5947V77H226.594V75.8354H226.477C226.311 76.1138 226.108 76.3506 225.869 76.5459C225.634 76.7412 225.368 76.8901 225.07 76.9927C224.772 77.0903 224.445 77.1392 224.089 77.1392ZM232.138 77L229.216 69.1045H230.563L232.724 75.6084H232.841L235.002 69.1045H236.35L233.427 77H232.138ZM240.964 77.1392C240.212 77.1392 239.565 76.9731 239.023 76.6411C238.486 76.3091 238.071 75.8403 237.778 75.2349C237.49 74.6245 237.346 73.9067 237.346 73.0815V73.0742C237.346 72.2588 237.49 71.5435 237.778 70.9282C238.071 70.313 238.483 69.832 239.016 69.4854C239.548 69.1387 240.17 68.9653 240.883 68.9653C241.601 68.9653 242.216 69.1313 242.729 69.4634C243.247 69.7954 243.642 70.2593 243.916 70.855C244.194 71.4458 244.333 72.1343 244.333 72.9204V73.4185H238.005V72.4004H243.681L243.051 73.3306V72.8252C243.051 72.2051 242.958 71.6948 242.773 71.2944C242.587 70.894 242.331 70.5962 242.004 70.4009C241.677 70.2007 241.301 70.1006 240.876 70.1006C240.451 70.1006 240.07 70.2056 239.733 70.4155C239.401 70.6206 239.138 70.9258 238.942 71.3311C238.747 71.7363 238.649 72.2344 238.649 72.8252V73.3306C238.649 73.8921 238.745 74.373 238.935 74.7734C239.125 75.1689 239.396 75.4741 239.748 75.689C240.1 75.8989 240.515 76.0039 240.993 76.0039C241.35 76.0039 241.66 75.9551 241.923 75.8574C242.187 75.7598 242.404 75.6353 242.575 75.4839C242.746 75.3325 242.866 75.1787 242.934 75.0225L242.963 74.9565H244.238L244.223 75.0151C244.155 75.2837 244.033 75.5449 243.857 75.7988C243.686 76.0479 243.464 76.2749 243.19 76.48C242.917 76.6802 242.592 76.8413 242.216 76.9634C241.845 77.0806 241.428 77.1392 240.964 77.1392ZM246.384 77V65.9697H247.658V77H246.384ZM249.782 79.688L250.419 75.5205H251.877L250.727 79.688H249.782ZM261.486 77.1392C260.9 77.1392 260.383 77.0513 259.934 76.8755C259.484 76.6948 259.123 76.4434 258.85 76.1211C258.581 75.7988 258.422 75.4204 258.374 74.9858H259.677C259.785 75.313 259.995 75.5767 260.307 75.7769C260.62 75.9771 261.027 76.0771 261.53 76.0771C261.887 76.0771 262.199 76.0259 262.468 75.9233C262.741 75.8159 262.956 75.6719 263.112 75.4912C263.269 75.3057 263.347 75.0933 263.347 74.854V74.8394C263.347 74.5708 263.239 74.3438 263.024 74.1582C262.81 73.9678 262.458 73.814 261.97 73.6968L260.747 73.4038C260.009 73.228 259.467 72.9717 259.121 72.6348C258.774 72.293 258.601 71.8389 258.601 71.2725V71.2651C258.601 70.8257 258.728 70.4326 258.981 70.0859C259.24 69.7393 259.592 69.4658 260.036 69.2656C260.48 69.0654 260.981 68.9653 261.538 68.9653C262.089 68.9653 262.578 69.0532 263.002 69.229C263.432 69.3999 263.776 69.644 264.035 69.9614C264.299 70.2788 264.46 70.6523 264.519 71.082H263.266C263.183 70.7695 262.993 70.5156 262.695 70.3203C262.397 70.125 262.009 70.0273 261.53 70.0273C261.218 70.0273 260.939 70.0786 260.695 70.1812C260.451 70.2788 260.258 70.4155 260.117 70.5913C259.975 70.7671 259.904 70.9722 259.904 71.2065V71.2212C259.904 71.4897 260.009 71.7119 260.219 71.8877C260.429 72.0635 260.766 72.2075 261.23 72.3198L262.446 72.6128C263.188 72.7935 263.74 73.0522 264.101 73.3892C264.467 73.7261 264.65 74.1777 264.65 74.7441V74.7588C264.65 75.2275 264.511 75.6426 264.233 76.0039C263.955 76.3604 263.576 76.6387 263.098 76.8389C262.624 77.0391 262.087 77.1392 261.486 77.1392ZM266.701 77V65.9697H267.976V70.291H268.093C268.293 69.8711 268.581 69.5464 268.957 69.3169C269.333 69.0825 269.812 68.9653 270.393 68.9653C270.983 68.9653 271.484 69.0801 271.894 69.3096C272.304 69.5342 272.617 69.8638 272.832 70.2983C273.046 70.7329 273.154 71.2627 273.154 71.8877V77H271.879V72.1953C271.879 71.4824 271.728 70.9551 271.425 70.6133C271.127 70.2666 270.664 70.0933 270.034 70.0933C269.614 70.0933 269.25 70.1836 268.942 70.3643C268.635 70.5449 268.396 70.8013 268.225 71.1333C268.059 71.4653 267.976 71.8633 267.976 72.3271V77H266.701ZM278.706 77.1392C277.958 77.1392 277.312 76.9756 276.765 76.6484C276.223 76.3164 275.803 75.8452 275.505 75.2349C275.212 74.6245 275.065 73.8994 275.065 73.0596V73.0449C275.065 72.2002 275.212 71.4727 275.505 70.8623C275.803 70.252 276.223 69.7832 276.765 69.4561C277.312 69.1289 277.958 68.9653 278.706 68.9653C279.458 68.9653 280.104 69.1289 280.646 69.4561C281.188 69.7832 281.606 70.252 281.899 70.8623C282.197 71.4727 282.346 72.2002 282.346 73.0449V73.0596C282.346 73.8994 282.197 74.6245 281.899 75.2349C281.606 75.8452 281.188 76.3164 280.646 76.6484C280.104 76.9756 279.458 77.1392 278.706 77.1392ZM278.706 76.0112C279.204 76.0112 279.626 75.894 279.973 75.6597C280.319 75.4253 280.583 75.0884 280.764 74.6489C280.949 74.2095 281.042 73.6797 281.042 73.0596V73.0449C281.042 72.4199 280.949 71.8877 280.764 71.4482C280.583 71.0088 280.319 70.6743 279.973 70.4448C279.626 70.2104 279.204 70.0933 278.706 70.0933C278.208 70.0933 277.785 70.2104 277.438 70.4448C277.092 70.6743 276.826 71.0088 276.64 71.4482C276.459 71.8877 276.369 72.4199 276.369 73.0449V73.0596C276.369 73.6797 276.459 74.2095 276.64 74.6489C276.826 75.0884 277.092 75.4253 277.438 75.6597C277.785 75.894 278.208 76.0112 278.706 76.0112ZM284.323 77V69.1045H285.598V70.2764H285.715C285.866 69.8613 286.123 69.5391 286.484 69.3096C286.845 69.0801 287.292 68.9653 287.824 68.9653C287.946 68.9653 288.066 68.9727 288.183 68.9873C288.305 68.9971 288.398 69.0068 288.461 69.0166V70.2544C288.33 70.23 288.2 70.2129 288.073 70.2031C287.951 70.1885 287.819 70.1812 287.678 70.1812C287.272 70.1812 286.914 70.2617 286.601 70.4229C286.289 70.584 286.042 70.8086 285.861 71.0967C285.686 71.3848 285.598 71.7217 285.598 72.1074V77H284.323ZM292.988 77.0586C292.177 77.0586 291.589 76.895 291.223 76.5679C290.861 76.2407 290.681 75.7012 290.681 74.9492V70.1592H289.436V69.1045H290.681V67.061H291.999V69.1045H293.728V70.1592H291.999V74.627C291.999 75.0908 292.087 75.4253 292.263 75.6304C292.438 75.8306 292.731 75.9307 293.142 75.9307C293.254 75.9307 293.349 75.9282 293.427 75.9233C293.51 75.9185 293.61 75.9111 293.728 75.9014V76.9854C293.605 77.0049 293.483 77.022 293.361 77.0366C293.239 77.0513 293.115 77.0586 292.988 77.0586ZM295.229 73.3379V72.1514H300.151V73.3379H295.229ZM304.926 77.0586C304.116 77.0586 303.527 76.895 303.161 76.5679C302.8 76.2407 302.619 75.7012 302.619 74.9492V70.1592H301.374V69.1045H302.619V67.061H303.938V69.1045H305.666V70.1592H303.938V74.627C303.938 75.0908 304.025 75.4253 304.201 75.6304C304.377 75.8306 304.67 75.9307 305.08 75.9307C305.192 75.9307 305.288 75.9282 305.366 75.9233C305.449 75.9185 305.549 75.9111 305.666 75.9014V76.9854C305.544 77.0049 305.422 77.022 305.3 77.0366C305.178 77.0513 305.053 77.0586 304.926 77.0586ZM310.69 77.1392C309.938 77.1392 309.292 76.9731 308.75 76.6411C308.212 76.3091 307.797 75.8403 307.504 75.2349C307.216 74.6245 307.072 73.9067 307.072 73.0815V73.0742C307.072 72.2588 307.216 71.5435 307.504 70.9282C307.797 70.313 308.21 69.832 308.742 69.4854C309.274 69.1387 309.897 68.9653 310.61 68.9653C311.328 68.9653 311.943 69.1313 312.456 69.4634C312.973 69.7954 313.369 70.2593 313.642 70.855C313.92 71.4458 314.06 72.1343 314.06 72.9204V73.4185H307.731V72.4004H313.408L312.778 73.3306V72.8252C312.778 72.2051 312.685 71.6948 312.5 71.2944C312.314 70.894 312.058 70.5962 311.73 70.4009C311.403 70.2007 311.027 70.1006 310.603 70.1006C310.178 70.1006 309.797 70.2056 309.46 70.4155C309.128 70.6206 308.864 70.9258 308.669 71.3311C308.474 71.7363 308.376 72.2344 308.376 72.8252V73.3306C308.376 73.8921 308.471 74.373 308.662 74.7734C308.852 75.1689 309.123 75.4741 309.475 75.689C309.826 75.8989 310.241 76.0039 310.72 76.0039C311.076 76.0039 311.386 75.9551 311.65 75.8574C311.914 75.7598 312.131 75.6353 312.302 75.4839C312.473 75.3325 312.592 75.1787 312.661 75.0225L312.69 74.9565H313.964L313.95 75.0151C313.881 75.2837 313.759 75.5449 313.583 75.7988C313.413 76.0479 313.19 76.2749 312.917 76.48C312.644 76.6802 312.319 76.8413 311.943 76.9634C311.572 77.0806 311.154 77.1392 310.69 77.1392ZM316.037 77V69.1045H317.312V70.2764H317.429C317.58 69.8613 317.836 69.5391 318.198 69.3096C318.559 69.0801 319.006 68.9653 319.538 68.9653C319.66 68.9653 319.78 68.9727 319.897 68.9873C320.019 68.9971 320.112 69.0068 320.175 69.0166V70.2544C320.043 70.23 319.914 70.2129 319.787 70.2031C319.665 70.1885 319.533 70.1812 319.392 70.1812C318.986 70.1812 318.627 70.2617 318.315 70.4229C318.002 70.584 317.756 70.8086 317.575 71.0967C317.399 71.3848 317.312 71.7217 317.312 72.1074V77H316.037ZM321.896 77V69.1045H323.171V70.3057H323.288C323.464 69.8809 323.732 69.5513 324.094 69.3169C324.46 69.0825 324.902 68.9653 325.419 68.9653C325.776 68.9653 326.096 69.0239 326.379 69.1411C326.662 69.2583 326.906 69.4219 327.111 69.6318C327.316 69.8369 327.48 70.0762 327.602 70.3496H327.719C327.861 70.0713 328.051 69.8296 328.291 69.6245C328.53 69.4146 328.806 69.2534 329.118 69.1411C329.436 69.0239 329.775 68.9653 330.136 68.9653C330.673 68.9653 331.127 69.0654 331.499 69.2656C331.875 69.4658 332.16 69.7588 332.355 70.1445C332.551 70.5254 332.648 70.9917 332.648 71.5435V77H331.374V71.8364C331.374 71.2554 331.237 70.8208 330.964 70.5327C330.695 70.2397 330.283 70.0933 329.726 70.0933C329.36 70.0933 329.04 70.1763 328.767 70.3423C328.493 70.5083 328.281 70.7305 328.129 71.0088C327.978 71.2822 327.902 71.5874 327.902 71.9243V77H326.628V71.6387C326.628 71.1699 326.479 70.7964 326.181 70.5181C325.883 70.2349 325.485 70.0933 324.987 70.0933C324.646 70.0933 324.335 70.1836 324.057 70.3643C323.784 70.5449 323.566 70.7891 323.405 71.0967C323.249 71.3994 323.171 71.7363 323.171 72.1074V77H321.896ZM341.811 77.1392C341.215 77.1392 340.715 77.0269 340.31 76.8022C339.904 76.5728 339.599 76.2407 339.394 75.8062C339.194 75.3667 339.094 74.8369 339.094 74.2168V69.1045H340.368V73.9092C340.368 74.6172 340.505 75.1445 340.778 75.4912C341.057 75.8379 341.511 76.0112 342.141 76.0112C342.604 76.0112 342.995 75.9209 343.312 75.7402C343.63 75.5596 343.869 75.3032 344.03 74.9712C344.191 74.6343 344.272 74.2363 344.272 73.7773V69.1045H345.546V77H344.272V75.8208H344.155C343.959 76.2407 343.664 76.5654 343.269 76.7949C342.878 77.0244 342.392 77.1392 341.811 77.1392ZM350.637 77.1392C350.051 77.1392 349.533 77.0513 349.084 76.8755C348.635 76.6948 348.273 76.4434 348 76.1211C347.731 75.7988 347.573 75.4204 347.524 74.9858H348.828C348.935 75.313 349.145 75.5767 349.458 75.7769C349.77 75.9771 350.178 76.0771 350.681 76.0771C351.037 76.0771 351.35 76.0259 351.618 75.9233C351.892 75.8159 352.106 75.6719 352.263 75.4912C352.419 75.3057 352.497 75.0933 352.497 74.854V74.8394C352.497 74.5708 352.39 74.3438 352.175 74.1582C351.96 73.9678 351.608 73.814 351.12 73.6968L349.897 73.4038C349.16 73.228 348.618 72.9717 348.271 72.6348C347.924 72.293 347.751 71.8389 347.751 71.2725V71.2651C347.751 70.8257 347.878 70.4326 348.132 70.0859C348.391 69.7393 348.742 69.4658 349.187 69.2656C349.631 69.0654 350.131 68.9653 350.688 68.9653C351.24 68.9653 351.728 69.0532 352.153 69.229C352.583 69.3999 352.927 69.644 353.186 69.9614C353.449 70.2788 353.61 70.6523 353.669 71.082H352.417C352.333 70.7695 352.143 70.5156 351.845 70.3203C351.547 70.125 351.159 70.0273 350.681 70.0273C350.368 70.0273 350.09 70.0786 349.846 70.1812C349.602 70.2788 349.409 70.4155 349.267 70.5913C349.125 70.7671 349.055 70.9722 349.055 71.2065V71.2212C349.055 71.4897 349.16 71.7119 349.37 71.8877C349.58 72.0635 349.917 72.2075 350.38 72.3198L351.596 72.6128C352.338 72.7935 352.89 73.0522 353.251 73.3892C353.618 73.7261 353.801 74.1777 353.801 74.7441V74.7588C353.801 75.2275 353.662 75.6426 353.383 76.0039C353.105 76.3604 352.727 76.6387 352.248 76.8389C351.774 77.0391 351.237 77.1392 350.637 77.1392ZM359.001 77.1392C358.249 77.1392 357.602 76.9731 357.06 76.6411C356.523 76.3091 356.108 75.8403 355.815 75.2349C355.527 74.6245 355.383 73.9067 355.383 73.0815V73.0742C355.383 72.2588 355.527 71.5435 355.815 70.9282C356.108 70.313 356.521 69.832 357.053 69.4854C357.585 69.1387 358.208 68.9653 358.92 68.9653C359.638 68.9653 360.253 69.1313 360.766 69.4634C361.284 69.7954 361.679 70.2593 361.953 70.855C362.231 71.4458 362.37 72.1343 362.37 72.9204V73.4185H356.042V72.4004H361.718L361.088 73.3306V72.8252C361.088 72.2051 360.996 71.6948 360.81 71.2944C360.625 70.894 360.368 70.5962 360.041 70.4009C359.714 70.2007 359.338 70.1006 358.913 70.1006C358.488 70.1006 358.107 70.2056 357.771 70.4155C357.438 70.6206 357.175 70.9258 356.979 71.3311C356.784 71.7363 356.687 72.2344 356.687 72.8252V73.3306C356.687 73.8921 356.782 74.373 356.972 74.7734C357.163 75.1689 357.434 75.4741 357.785 75.689C358.137 75.8989 358.552 76.0039 359.03 76.0039C359.387 76.0039 359.697 75.9551 359.96 75.8574C360.224 75.7598 360.441 75.6353 360.612 75.4839C360.783 75.3325 360.903 75.1787 360.971 75.0225L361 74.9565H362.275L362.26 75.0151C362.192 75.2837 362.07 75.5449 361.894 75.7988C361.723 76.0479 361.501 76.2749 361.228 76.48C360.954 76.6802 360.629 76.8413 360.253 76.9634C359.882 77.0806 359.465 77.1392 359.001 77.1392ZM364.025 79.688L364.663 75.5205H366.12L364.97 79.688H364.025ZM376.264 77.1392C375.517 77.1392 374.87 76.9756 374.323 76.6484C373.781 76.3164 373.361 75.8452 373.063 75.2349C372.771 74.6245 372.624 73.8994 372.624 73.0596V73.0449C372.624 72.2002 372.771 71.4727 373.063 70.8623C373.361 70.252 373.781 69.7832 374.323 69.4561C374.87 69.1289 375.517 68.9653 376.264 68.9653C377.016 68.9653 377.663 69.1289 378.205 69.4561C378.747 69.7832 379.165 70.252 379.458 70.8623C379.755 71.4727 379.904 72.2002 379.904 73.0449V73.0596C379.904 73.8994 379.755 74.6245 379.458 75.2349C379.165 75.8452 378.747 76.3164 378.205 76.6484C377.663 76.9756 377.016 77.1392 376.264 77.1392ZM376.264 76.0112C376.762 76.0112 377.185 75.894 377.531 75.6597C377.878 75.4253 378.142 75.0884 378.322 74.6489C378.508 74.2095 378.601 73.6797 378.601 73.0596V73.0449C378.601 72.4199 378.508 71.8877 378.322 71.4482C378.142 71.0088 377.878 70.6743 377.531 70.4448C377.185 70.2104 376.762 70.0933 376.264 70.0933C375.766 70.0933 375.344 70.2104 374.997 70.4448C374.65 70.6743 374.384 71.0088 374.199 71.4482C374.018 71.8877 373.928 72.4199 373.928 73.0449V73.0596C373.928 73.6797 374.018 74.2095 374.199 74.6489C374.384 75.0884 374.65 75.4253 374.997 75.6597C375.344 75.894 375.766 76.0112 376.264 76.0112ZM381.882 77V69.1045H383.156V70.2764H383.273C383.425 69.8613 383.681 69.5391 384.042 69.3096C384.404 69.0801 384.851 68.9653 385.383 68.9653C385.505 68.9653 385.625 68.9727 385.742 68.9873C385.864 68.9971 385.957 69.0068 386.02 69.0166V70.2544C385.888 70.23 385.759 70.2129 385.632 70.2031C385.51 70.1885 385.378 70.1812 385.236 70.1812C384.831 70.1812 384.472 70.2617 384.16 70.4229C383.847 70.584 383.601 70.8086 383.42 71.0967C383.244 71.3848 383.156 71.7217 383.156 72.1074V77H381.882ZM395.058 77.1392C394.311 77.1392 393.664 76.9756 393.117 76.6484C392.575 76.3164 392.155 75.8452 391.857 75.2349C391.564 74.6245 391.418 73.8994 391.418 73.0596V73.0449C391.418 72.2002 391.564 71.4727 391.857 70.8623C392.155 70.252 392.575 69.7832 393.117 69.4561C393.664 69.1289 394.311 68.9653 395.058 68.9653C395.81 68.9653 396.457 69.1289 396.999 69.4561C397.541 69.7832 397.958 70.252 398.251 70.8623C398.549 71.4727 398.698 72.2002 398.698 73.0449V73.0596C398.698 73.8994 398.549 74.6245 398.251 75.2349C397.958 75.8452 397.541 76.3164 396.999 76.6484C396.457 76.9756 395.81 77.1392 395.058 77.1392ZM395.058 76.0112C395.556 76.0112 395.979 75.894 396.325 75.6597C396.672 75.4253 396.936 75.0884 397.116 74.6489C397.302 74.2095 397.395 73.6797 397.395 73.0596V73.0449C397.395 72.4199 397.302 71.8877 397.116 71.4482C396.936 71.0088 396.672 70.6743 396.325 70.4448C395.979 70.2104 395.556 70.0933 395.058 70.0933C394.56 70.0933 394.138 70.2104 393.791 70.4448C393.444 70.6743 393.178 71.0088 392.993 71.4482C392.812 71.8877 392.722 72.4199 392.722 73.0449V73.0596C392.722 73.6797 392.812 74.2095 392.993 74.6489C393.178 75.0884 393.444 75.4253 393.791 75.6597C394.138 75.894 394.56 76.0112 395.058 76.0112ZM400.676 77V69.1045H401.95V70.291H402.067C402.268 69.8711 402.556 69.5464 402.932 69.3169C403.308 69.0825 403.786 68.9653 404.367 68.9653C405.256 68.9653 405.937 69.2192 406.411 69.7271C406.889 70.23 407.128 70.9502 407.128 71.8877V77H405.854V72.1953C405.854 71.4824 405.703 70.9551 405.4 70.6133C405.102 70.2666 404.638 70.0933 404.008 70.0933C403.588 70.0933 403.225 70.1836 402.917 70.3643C402.609 70.5449 402.37 70.8013 402.199 71.1333C402.033 71.4653 401.95 71.8633 401.95 72.3271V77H400.676ZM412.658 77.1392C411.906 77.1392 411.259 76.9731 410.717 76.6411C410.18 76.3091 409.765 75.8403 409.472 75.2349C409.184 74.6245 409.04 73.9067 409.04 73.0815V73.0742C409.04 72.2588 409.184 71.5435 409.472 70.9282C409.765 70.313 410.178 69.832 410.71 69.4854C411.242 69.1387 411.865 68.9653 412.578 68.9653C413.295 68.9653 413.911 69.1313 414.423 69.4634C414.941 69.7954 415.336 70.2593 415.61 70.855C415.888 71.4458 416.027 72.1343 416.027 72.9204V73.4185H409.699V72.4004H415.375L414.746 73.3306V72.8252C414.746 72.2051 414.653 71.6948 414.467 71.2944C414.282 70.894 414.025 70.5962 413.698 70.4009C413.371 70.2007 412.995 70.1006 412.57 70.1006C412.146 70.1006 411.765 70.2056 411.428 70.4155C411.096 70.6206 410.832 70.9258 410.637 71.3311C410.441 71.7363 410.344 72.2344 410.344 72.8252V73.3306C410.344 73.8921 410.439 74.373 410.629 74.7734C410.82 75.1689 411.091 75.4741 411.442 75.689C411.794 75.8989 412.209 76.0039 412.688 76.0039C413.044 76.0039 413.354 75.9551 413.618 75.8574C413.881 75.7598 414.099 75.6353 414.27 75.4839C414.44 75.3325 414.56 75.1787 414.628 75.0225L414.658 74.9565H415.932L415.917 75.0151C415.849 75.2837 415.727 75.5449 415.551 75.7988C415.38 76.0479 415.158 76.2749 414.885 76.48C414.611 76.6802 414.287 76.8413 413.911 76.9634C413.54 77.0806 413.122 77.1392 412.658 77.1392ZM417.895 73.3379V72.1514H422.817V73.3379H417.895ZM427.592 77.0586C426.782 77.0586 426.193 76.895 425.827 76.5679C425.466 76.2407 425.285 75.7012 425.285 74.9492V70.1592H424.04V69.1045H425.285V67.061H426.604V69.1045H428.332V70.1592H426.604V74.627C426.604 75.0908 426.691 75.4253 426.867 75.6304C427.043 75.8306 427.336 75.9307 427.746 75.9307C427.858 75.9307 427.954 75.9282 428.032 75.9233C428.115 75.9185 428.215 75.9111 428.332 75.9014V76.9854C428.21 77.0049 428.088 77.022 427.966 77.0366C427.844 77.0513 427.719 77.0586 427.592 77.0586ZM430.266 77V69.1045H431.54V77H430.266ZM430.91 67.5811C430.671 67.5811 430.463 67.4956 430.288 67.3247C430.117 67.1489 430.031 66.9414 430.031 66.7021C430.031 66.458 430.117 66.2505 430.288 66.0796C430.463 65.9087 430.671 65.8232 430.91 65.8232C431.154 65.8232 431.362 65.9087 431.533 66.0796C431.704 66.2505 431.789 66.458 431.789 66.7021C431.789 66.9414 431.704 67.1489 431.533 67.3247C431.362 67.4956 431.154 67.5811 430.91 67.5811ZM433.942 77V69.1045H435.217V70.3057H435.334C435.51 69.8809 435.778 69.5513 436.14 69.3169C436.506 69.0825 436.948 68.9653 437.465 68.9653C437.822 68.9653 438.142 69.0239 438.425 69.1411C438.708 69.2583 438.952 69.4219 439.157 69.6318C439.362 69.8369 439.526 70.0762 439.648 70.3496H439.765C439.907 70.0713 440.097 69.8296 440.336 69.6245C440.576 69.4146 440.852 69.2534 441.164 69.1411C441.481 69.0239 441.821 68.9653 442.182 68.9653C442.719 68.9653 443.173 69.0654 443.544 69.2656C443.92 69.4658 444.206 69.7588 444.401 70.1445C444.597 70.5254 444.694 70.9917 444.694 71.5435V77H443.42V71.8364C443.42 71.2554 443.283 70.8208 443.01 70.5327C442.741 70.2397 442.329 70.0933 441.772 70.0933C441.406 70.0933 441.086 70.1763 440.812 70.3423C440.539 70.5083 440.327 70.7305 440.175 71.0088C440.024 71.2822 439.948 71.5874 439.948 71.9243V77H438.674V71.6387C438.674 71.1699 438.525 70.7964 438.227 70.5181C437.929 70.2349 437.531 70.0933 437.033 70.0933C436.691 70.0933 436.381 70.1836 436.103 70.3643C435.83 70.5449 435.612 70.7891 435.451 71.0967C435.295 71.3994 435.217 71.7363 435.217 72.1074V77H433.942ZM450.217 77.1392C449.465 77.1392 448.818 76.9731 448.276 76.6411C447.739 76.3091 447.324 75.8403 447.031 75.2349C446.743 74.6245 446.599 73.9067 446.599 73.0815V73.0742C446.599 72.2588 446.743 71.5435 447.031 70.9282C447.324 70.313 447.736 69.832 448.269 69.4854C448.801 69.1387 449.423 68.9653 450.136 68.9653C450.854 68.9653 451.469 69.1313 451.982 69.4634C452.5 69.7954 452.895 70.2593 453.168 70.855C453.447 71.4458 453.586 72.1343 453.586 72.9204V73.4185H447.258V72.4004H452.934L452.304 73.3306V72.8252C452.304 72.2051 452.211 71.6948 452.026 71.2944C451.84 70.894 451.584 70.5962 451.257 70.4009C450.93 70.2007 450.554 70.1006 450.129 70.1006C449.704 70.1006 449.323 70.2056 448.986 70.4155C448.654 70.6206 448.391 70.9258 448.195 71.3311C448 71.7363 447.902 72.2344 447.902 72.8252V73.3306C447.902 73.8921 447.998 74.373 448.188 74.7734C448.378 75.1689 448.649 75.4741 449.001 75.689C449.353 75.8989 449.768 76.0039 450.246 76.0039C450.603 76.0039 450.913 75.9551 451.176 75.8574C451.44 75.7598 451.657 75.6353 451.828 75.4839C451.999 75.3325 452.119 75.1787 452.187 75.0225L452.216 74.9565H453.491L453.476 75.0151C453.408 75.2837 453.286 75.5449 453.11 75.7988C452.939 76.0479 452.717 76.2749 452.443 76.48C452.17 76.6802 451.845 76.8413 451.469 76.9634C451.098 77.0806 450.681 77.1392 450.217 77.1392ZM463.027 77.1392C462.28 77.1392 461.633 76.9756 461.086 76.6484C460.544 76.3164 460.124 75.8452 459.826 75.2349C459.533 74.6245 459.387 73.8994 459.387 73.0596V73.0449C459.387 72.2002 459.533 71.4727 459.826 70.8623C460.124 70.252 460.544 69.7832 461.086 69.4561C461.633 69.1289 462.28 68.9653 463.027 68.9653C463.779 68.9653 464.426 69.1289 464.968 69.4561C465.51 69.7832 465.927 70.252 466.22 70.8623C466.518 71.4727 466.667 72.2002 466.667 73.0449V73.0596C466.667 73.8994 466.518 74.6245 466.22 75.2349C465.927 75.8452 465.51 76.3164 464.968 76.6484C464.426 76.9756 463.779 77.1392 463.027 77.1392ZM463.027 76.0112C463.525 76.0112 463.947 75.894 464.294 75.6597C464.641 75.4253 464.904 75.0884 465.085 74.6489C465.271 74.2095 465.363 73.6797 465.363 73.0596V73.0449C465.363 72.4199 465.271 71.8877 465.085 71.4482C464.904 71.0088 464.641 70.6743 464.294 70.4448C463.947 70.2104 463.525 70.0933 463.027 70.0933C462.529 70.0933 462.106 70.2104 461.76 70.4448C461.413 70.6743 461.147 71.0088 460.961 71.4482C460.781 71.8877 460.69 72.4199 460.69 73.0449V73.0596C460.69 73.6797 460.781 74.2095 460.961 74.6489C461.147 75.0884 461.413 75.4253 461.76 75.6597C462.106 75.894 462.529 76.0112 463.027 76.0112ZM471.875 77.1392C471.137 77.1392 470.498 76.9707 469.956 76.6338C469.414 76.2969 468.994 75.8208 468.696 75.2056C468.398 74.5903 468.249 73.8652 468.249 73.0303V73.0156C468.249 72.1953 468.396 71.4824 468.688 70.877C468.986 70.2715 469.406 69.8027 469.948 69.4707C470.49 69.1338 471.13 68.9653 471.867 68.9653C472.507 68.9653 473.059 69.0776 473.522 69.3022C473.986 69.5269 474.357 69.8296 474.636 70.2104C474.914 70.5864 475.092 71.0088 475.17 71.4775L475.178 71.5215H473.911L473.903 71.4995C473.806 71.1089 473.583 70.7769 473.237 70.5034C472.89 70.23 472.434 70.0933 471.867 70.0933C471.394 70.0933 470.983 70.2129 470.637 70.4521C470.29 70.6914 470.021 71.0308 469.831 71.4702C469.646 71.9048 469.553 72.4199 469.553 73.0156V73.0303C469.553 73.6357 469.648 74.1631 469.838 74.6123C470.029 75.0566 470.297 75.4009 470.644 75.645C470.991 75.8892 471.398 76.0112 471.867 76.0112C472.399 76.0112 472.834 75.8965 473.171 75.667C473.508 75.4375 473.75 75.103 473.896 74.6636L473.911 74.6196L475.17 74.6123L475.156 74.6929C475.048 75.1665 474.858 75.5889 474.584 75.96C474.311 76.3262 473.95 76.6143 473.5 76.8242C473.051 77.0342 472.509 77.1392 471.875 77.1392ZM480.268 77.1392C479.531 77.1392 478.891 76.9707 478.349 76.6338C477.807 76.2969 477.387 75.8208 477.089 75.2056C476.792 74.5903 476.643 73.8652 476.643 73.0303V73.0156C476.643 72.1953 476.789 71.4824 477.082 70.877C477.38 70.2715 477.8 69.8027 478.342 69.4707C478.884 69.1338 479.523 68.9653 480.261 68.9653C480.9 68.9653 481.452 69.0776 481.916 69.3022C482.38 69.5269 482.751 69.8296 483.029 70.2104C483.308 70.5864 483.486 71.0088 483.564 71.4775L483.571 71.5215H482.304L482.297 71.4995C482.199 71.1089 481.977 70.7769 481.63 70.5034C481.284 70.23 480.827 70.0933 480.261 70.0933C479.787 70.0933 479.377 70.2129 479.03 70.4521C478.684 70.6914 478.415 71.0308 478.225 71.4702C478.039 71.9048 477.946 72.4199 477.946 73.0156V73.0303C477.946 73.6357 478.042 74.1631 478.232 74.6123C478.422 75.0566 478.691 75.4009 479.038 75.645C479.384 75.8892 479.792 76.0112 480.261 76.0112C480.793 76.0112 481.228 75.8965 481.564 75.667C481.901 75.4375 482.143 75.103 482.29 74.6636L482.304 74.6196L483.564 74.6123L483.549 74.6929C483.442 75.1665 483.251 75.5889 482.978 75.96C482.705 76.3262 482.343 76.6143 481.894 76.8242C481.445 77.0342 480.903 77.1392 480.268 77.1392ZM487.6 77.1392C487.102 77.1392 486.652 77.0439 486.252 76.8535C485.856 76.6631 485.542 76.3921 485.307 76.0405C485.078 75.689 484.963 75.2739 484.963 74.7954V74.7808C484.963 74.0776 485.212 73.5283 485.71 73.1328C486.213 72.7324 486.923 72.5054 487.841 72.4517L490.742 72.2759V73.2939L487.995 73.4697C487.395 73.5039 486.955 73.6284 486.677 73.8433C486.403 74.0581 486.267 74.3608 486.267 74.7515V74.7661C486.267 75.1665 486.418 75.479 486.721 75.7036C487.023 75.9233 487.404 76.0332 487.863 76.0332C488.298 76.0332 488.684 75.9478 489.021 75.7769C489.357 75.6011 489.621 75.3643 489.812 75.0664C490.007 74.7686 490.104 74.4316 490.104 74.0557V71.5947C490.104 71.1064 489.956 70.7354 489.658 70.4814C489.365 70.2227 488.923 70.0933 488.332 70.0933C487.858 70.0933 487.47 70.1787 487.167 70.3496C486.865 70.5156 486.662 70.7524 486.56 71.0601L486.552 71.082H485.278L485.285 71.0381C485.354 70.623 485.524 70.2617 485.798 69.9541C486.076 69.6416 486.435 69.3999 486.875 69.229C487.314 69.0532 487.814 68.9653 488.376 68.9653C489.021 68.9653 489.565 69.0703 490.009 69.2803C490.458 69.4902 490.798 69.793 491.027 70.1885C491.262 70.5791 491.379 71.0479 491.379 71.5947V77H490.104V75.8354H489.987C489.821 76.1138 489.619 76.3506 489.379 76.5459C489.145 76.7412 488.879 76.8901 488.581 76.9927C488.283 77.0903 487.956 77.1392 487.6 77.1392ZM496.418 77.1392C495.832 77.1392 495.314 77.0513 494.865 76.8755C494.416 76.6948 494.055 76.4434 493.781 76.1211C493.513 75.7988 493.354 75.4204 493.305 74.9858H494.609C494.716 75.313 494.926 75.5767 495.239 75.7769C495.551 75.9771 495.959 76.0771 496.462 76.0771C496.818 76.0771 497.131 76.0259 497.399 75.9233C497.673 75.8159 497.888 75.6719 498.044 75.4912C498.2 75.3057 498.278 75.0933 498.278 74.854V74.8394C498.278 74.5708 498.171 74.3438 497.956 74.1582C497.741 73.9678 497.39 73.814 496.901 73.6968L495.678 73.4038C494.941 73.228 494.399 72.9717 494.052 72.6348C493.706 72.293 493.532 71.8389 493.532 71.2725V71.2651C493.532 70.8257 493.659 70.4326 493.913 70.0859C494.172 69.7393 494.523 69.4658 494.968 69.2656C495.412 69.0654 495.913 68.9653 496.469 68.9653C497.021 68.9653 497.509 69.0532 497.934 69.229C498.364 69.3999 498.708 69.644 498.967 69.9614C499.23 70.2788 499.392 70.6523 499.45 71.082H498.198C498.115 70.7695 497.924 70.5156 497.626 70.3203C497.329 70.125 496.94 70.0273 496.462 70.0273C496.149 70.0273 495.871 70.0786 495.627 70.1812C495.383 70.2788 495.19 70.4155 495.048 70.5913C494.907 70.7671 494.836 70.9722 494.836 71.2065V71.2212C494.836 71.4897 494.941 71.7119 495.151 71.8877C495.361 72.0635 495.698 72.2075 496.162 72.3198L497.377 72.6128C498.12 72.7935 498.671 73.0522 499.033 73.3892C499.399 73.7261 499.582 74.1777 499.582 74.7441V74.7588C499.582 75.2275 499.443 75.6426 499.165 76.0039C498.886 76.3604 498.508 76.6387 498.029 76.8389C497.556 77.0391 497.019 77.1392 496.418 77.1392ZM501.589 77V69.1045H502.863V77H501.589ZM502.233 67.5811C501.994 67.5811 501.787 67.4956 501.611 67.3247C501.44 67.1489 501.354 66.9414 501.354 66.7021C501.354 66.458 501.44 66.2505 501.611 66.0796C501.787 65.9087 501.994 65.8232 502.233 65.8232C502.478 65.8232 502.685 65.9087 502.856 66.0796C503.027 66.2505 503.112 66.458 503.112 66.7021C503.112 66.9414 503.027 67.1489 502.856 67.3247C502.685 67.4956 502.478 67.5811 502.233 67.5811ZM508.51 77.1392C507.763 77.1392 507.116 76.9756 506.569 76.6484C506.027 76.3164 505.607 75.8452 505.31 75.2349C505.017 74.6245 504.87 73.8994 504.87 73.0596V73.0449C504.87 72.2002 505.017 71.4727 505.31 70.8623C505.607 70.252 506.027 69.7832 506.569 69.4561C507.116 69.1289 507.763 68.9653 508.51 68.9653C509.262 68.9653 509.909 69.1289 510.451 69.4561C510.993 69.7832 511.411 70.252 511.704 70.8623C512.001 71.4727 512.15 72.2002 512.15 73.0449V73.0596C512.15 73.8994 512.001 74.6245 511.704 75.2349C511.411 75.8452 510.993 76.3164 510.451 76.6484C509.909 76.9756 509.262 77.1392 508.51 77.1392ZM508.51 76.0112C509.008 76.0112 509.431 75.894 509.777 75.6597C510.124 75.4253 510.388 75.0884 510.568 74.6489C510.754 74.2095 510.847 73.6797 510.847 73.0596V73.0449C510.847 72.4199 510.754 71.8877 510.568 71.4482C510.388 71.0088 510.124 70.6743 509.777 70.4448C509.431 70.2104 509.008 70.0933 508.51 70.0933C508.012 70.0933 507.59 70.2104 507.243 70.4448C506.896 70.6743 506.63 71.0088 506.445 71.4482C506.264 71.8877 506.174 72.4199 506.174 73.0449V73.0596C506.174 73.6797 506.264 74.2095 506.445 74.6489C506.63 75.0884 506.896 75.4253 507.243 75.6597C507.59 75.894 508.012 76.0112 508.51 76.0112ZM514.128 77V69.1045H515.402V70.291H515.52C515.72 69.8711 516.008 69.5464 516.384 69.3169C516.76 69.0825 517.238 68.9653 517.819 68.9653C518.708 68.9653 519.389 69.2192 519.863 69.7271C520.341 70.23 520.581 70.9502 520.581 71.8877V77H519.306V72.1953C519.306 71.4824 519.155 70.9551 518.852 70.6133C518.554 70.2666 518.09 70.0933 517.46 70.0933C517.041 70.0933 516.677 70.1836 516.369 70.3643C516.062 70.5449 515.822 70.8013 515.651 71.1333C515.485 71.4653 515.402 71.8633 515.402 72.3271V77H514.128ZM525.598 77.1392C525.012 77.1392 524.494 77.0513 524.045 76.8755C523.596 76.6948 523.234 76.4434 522.961 76.1211C522.692 75.7988 522.534 75.4204 522.485 74.9858H523.789C523.896 75.313 524.106 75.5767 524.418 75.7769C524.731 75.9771 525.139 76.0771 525.642 76.0771C525.998 76.0771 526.311 76.0259 526.579 75.9233C526.853 75.8159 527.067 75.6719 527.224 75.4912C527.38 75.3057 527.458 75.0933 527.458 74.854V74.8394C527.458 74.5708 527.351 74.3438 527.136 74.1582C526.921 73.9678 526.569 73.814 526.081 73.6968L524.858 73.4038C524.121 73.228 523.579 72.9717 523.232 72.6348C522.885 72.293 522.712 71.8389 522.712 71.2725V71.2651C522.712 70.8257 522.839 70.4326 523.093 70.0859C523.352 69.7393 523.703 69.4658 524.147 69.2656C524.592 69.0654 525.092 68.9653 525.649 68.9653C526.201 68.9653 526.689 69.0532 527.114 69.229C527.543 69.3999 527.888 69.644 528.146 69.9614C528.41 70.2788 528.571 70.6523 528.63 71.082H527.377C527.294 70.7695 527.104 70.5156 526.806 70.3203C526.508 70.125 526.12 70.0273 525.642 70.0273C525.329 70.0273 525.051 70.0786 524.807 70.1812C524.562 70.2788 524.37 70.4155 524.228 70.5913C524.086 70.7671 524.016 70.9722 524.016 71.2065V71.2212C524.016 71.4897 524.121 71.7119 524.331 71.8877C524.541 72.0635 524.877 72.2075 525.341 72.3198L526.557 72.6128C527.299 72.7935 527.851 73.0522 528.212 73.3892C528.579 73.7261 528.762 74.1777 528.762 74.7441V74.7588C528.762 75.2275 528.623 75.6426 528.344 76.0039C528.066 76.3604 527.688 76.6387 527.209 76.8389C526.735 77.0391 526.198 77.1392 525.598 77.1392ZM531.779 77.0732C531.521 77.0732 531.296 76.9805 531.105 76.7949C530.92 76.6045 530.827 76.3799 530.827 76.1211C530.827 75.8574 530.92 75.6328 531.105 75.4473C531.296 75.2617 531.521 75.1689 531.779 75.1689C532.043 75.1689 532.268 75.2617 532.453 75.4473C532.639 75.6328 532.731 75.8574 532.731 76.1211C532.731 76.3799 532.639 76.6045 532.453 76.7949C532.268 76.9805 532.043 77.0732 531.779 77.0732Z" fill="#48484A"/>
</svg>
