<svg width="112" height="112" viewBox="0 0 112 112" fill="none" xmlns="http://www.w3.org/2000/svg">
<rect width="112" height="112" rx="56" fill="#007AFF" fill-opacity="0.15"/>
<path d="M37.167 62V49.9805H39.3252V60.1738H44.6377V62H37.167ZM50.1992 62.1826C47.5679 62.1826 45.8828 60.3149 45.8828 57.5342C45.8828 54.7285 47.5679 52.8691 50.1992 52.8691C52.8389 52.8691 54.5239 54.7285 54.5156 57.5342C54.5239 60.3149 52.8389 62.1826 50.1992 62.1826ZM48.0244 57.5176C48.0244 59.1694 48.7466 60.4893 50.2158 60.4893C51.6602 60.4893 52.3823 59.1694 52.374 57.5176C52.3823 55.8657 51.6602 54.5376 50.2158 54.5459C48.7466 54.5376 48.0244 55.8657 48.0244 57.5176ZM60.0938 65.5693C57.7031 65.5693 56.1841 64.5068 56.043 62.8135H58.1514C58.3008 63.6021 59.0396 63.9673 60.127 63.9756C61.397 63.9673 62.2188 63.4194 62.2188 62.0996V60.373H62.1191C61.7871 61.0371 61.0649 61.8672 59.5127 61.8672C57.4292 61.8672 55.7939 60.3564 55.7939 57.418C55.7939 54.4546 57.4375 52.8691 59.5293 52.8691C61.1147 52.8691 61.7871 53.8237 62.1191 54.4629H62.2188V52.9854H64.3105V62.1494C64.3105 64.457 62.5259 65.5693 60.0938 65.5693ZM57.9521 57.4512C57.9521 59.1113 58.6992 60.207 60.0938 60.207C61.4634 60.207 62.2354 59.1777 62.2354 57.4512C62.2354 55.7329 61.4717 54.604 60.0938 54.5957C58.6826 54.604 57.9521 55.8076 57.9521 57.4512ZM70.2705 62.1826C67.6392 62.1826 65.9541 60.3149 65.9541 57.5342C65.9541 54.7285 67.6392 52.8691 70.2705 52.8691C72.9102 52.8691 74.5952 54.7285 74.5869 57.5342C74.5952 60.3149 72.9102 62.1826 70.2705 62.1826ZM68.0957 57.5176C68.0957 59.1694 68.8179 60.4893 70.2871 60.4893C71.7314 60.4893 72.4536 59.1694 72.4453 57.5176C72.4536 55.8657 71.7314 54.5376 70.2871 54.5459C68.8179 54.5376 68.0957 55.8657 68.0957 57.5176Z" fill="#007AFF"/>
</svg>
