<svg width="721" height="411" viewBox="0 0 721 411" fill="none" xmlns="http://www.w3.org/2000/svg">
<rect x="187.5" y="11" width="347" height="214" rx="8" fill="#EAEAEA"/>
<rect x="328.615" y="92" width="184.048" height="12" rx="6" fill="#C6C6C6"/>
<rect x="357.676" y="117" width="125.927" height="12" rx="6" fill="#8E8E93"/>
<rect x="353.801" y="67" width="133.677" height="12" rx="6" fill="#E0E0E0"/>
<rect x="432.263" y="155" width="72.6504" height="12" rx="6" fill="black"/>
<rect x="335.396" y="155" width="72.6504" height="12" rx="6" fill="#48484A"/>
<g clip-path="url(#clip0_149_455)">
<path d="M311.881 57H209.119C207.396 57 206 58.3956 206 60.1172V175.369C206 177.09 207.396 178.486 209.119 178.486H311.881C313.604 178.486 315 177.09 315 175.369V60.1172C315 58.3956 313.604 57 311.881 57Z" fill="#007AFF" fill-opacity="0.15"/>
<mask id="mask0_149_455" style="mask-type:luminance" maskUnits="userSpaceOnUse" x="206" y="57" width="109" height="122">
<path d="M311.881 57H209.119C207.396 57 206 58.3956 206 60.1172V175.369C206 177.09 207.396 178.486 209.119 178.486H311.881C313.604 178.486 315 177.09 315 175.369V60.1172C315 58.3956 313.604 57 311.881 57Z" fill="white"/>
</mask>
<g mask="url(#mask0_149_455)">
<path d="M239.695 146.336C240.483 146.046 241.272 145.499 242.002 144.836C244.548 142.523 245.892 139.157 245.892 135.716V135.211C238.584 134.116 234.337 132.732 234.337 132.732V108.707C233.507 107.272 232.354 105.946 232.172 104.313C231.997 102.729 232.91 101.088 234.337 100.383V89.3323L234.436 89.3157C234.627 64.8925 264.656 64.594 268.762 70.762C276.958 69.2615 287.045 72.4035 288.14 84.3995V84.4244C288.264 85.8172 288.273 87.3343 288.14 88.9758V100.922C289.094 101.759 289.65 103.053 289.509 104.313C289.384 105.457 288.779 106.443 288.14 107.422V132.732C288.14 132.732 283.279 134.307 275.042 135.426V135.716C275.042 139.157 276.377 142.523 278.932 144.836C279.662 145.499 280.442 146.046 281.238 146.336C284.407 147.489 306 151.949 314.934 159.576V179H206V159.576C214.926 151.949 236.527 147.489 239.695 146.336Z" fill="#3A3A3C"/>
</g>
</g>
<path d="M203 3H183C180.791 3 179 4.79086 179 7V27" stroke="#007AFF" stroke-opacity="0.27" stroke-width="5" stroke-linecap="round" stroke-linejoin="round"/>
<path d="M542 27L542 7C542 4.79086 540.209 3 538 3L518 3" stroke="#007AFF" stroke-opacity="0.27" stroke-width="5" stroke-linecap="round" stroke-linejoin="round"/>
<path d="M518 233L538 233C540.209 233 542 231.209 542 229L542 209" stroke="#007AFF" stroke-opacity="0.27" stroke-width="5" stroke-linecap="round" stroke-linejoin="round"/>
<path d="M179 209L179 229C179 231.209 180.791 233 183 233L203 233" stroke="#007AFF" stroke-opacity="0.27" stroke-width="5" stroke-linecap="round" stroke-linejoin="round"/>
<path d="M100.274 274.725V273.397H103.661C104.519 273.397 105.183 273.176 105.653 272.733C106.124 272.285 106.359 271.668 106.359 270.882V270.865C106.359 270.074 106.124 269.457 105.653 269.014C105.183 268.571 104.519 268.35 103.661 268.35H100.274V267.022H104.043C104.796 267.022 105.46 267.182 106.035 267.503C106.611 267.824 107.062 268.273 107.388 268.848C107.72 269.424 107.886 270.09 107.886 270.849V270.865C107.886 271.623 107.72 272.293 107.388 272.874C107.062 273.455 106.611 273.909 106.035 274.235C105.46 274.562 104.796 274.725 104.043 274.725H100.274ZM99.5273 279V267.022H101.021V279H99.5273ZM110.235 279V266.499H111.68V279H110.235ZM118.104 279.158C117.252 279.158 116.519 278.97 115.905 278.593C115.296 278.217 114.826 277.686 114.494 277C114.167 276.308 114.004 275.494 114.004 274.559V274.551C114.004 273.627 114.167 272.816 114.494 272.119C114.826 271.421 115.293 270.876 115.896 270.483C116.5 270.09 117.205 269.894 118.013 269.894C118.827 269.894 119.524 270.082 120.105 270.458C120.692 270.835 121.14 271.361 121.45 272.036C121.765 272.705 121.923 273.486 121.923 274.376V274.941H114.751V273.787H121.184L120.47 274.841V274.269C120.47 273.566 120.365 272.987 120.155 272.534C119.944 272.08 119.654 271.742 119.283 271.521C118.912 271.294 118.486 271.181 118.005 271.181C117.523 271.181 117.092 271.3 116.71 271.538C116.334 271.77 116.035 272.116 115.813 272.575C115.592 273.035 115.481 273.599 115.481 274.269V274.841C115.481 275.478 115.589 276.023 115.805 276.477C116.021 276.925 116.328 277.271 116.727 277.514C117.125 277.752 117.595 277.871 118.138 277.871C118.542 277.871 118.893 277.816 119.192 277.705C119.491 277.594 119.737 277.453 119.931 277.282C120.124 277.11 120.26 276.936 120.337 276.759L120.371 276.684H121.815L121.798 276.75C121.721 277.055 121.583 277.351 121.383 277.639C121.19 277.921 120.938 278.178 120.628 278.411C120.318 278.638 119.95 278.82 119.524 278.958C119.103 279.091 118.63 279.158 118.104 279.158ZM126.621 279.158C126.057 279.158 125.548 279.05 125.094 278.834C124.646 278.618 124.289 278.311 124.023 277.913C123.763 277.514 123.633 277.044 123.633 276.501V276.485C123.633 275.688 123.915 275.065 124.479 274.617C125.049 274.163 125.855 273.906 126.895 273.845L130.182 273.646V274.8L127.069 274.999C126.389 275.038 125.891 275.179 125.575 275.422C125.265 275.666 125.11 276.009 125.11 276.452V276.468C125.11 276.922 125.282 277.276 125.625 277.531C125.968 277.78 126.4 277.904 126.92 277.904C127.412 277.904 127.85 277.807 128.231 277.614C128.613 277.415 128.912 277.146 129.128 276.809C129.349 276.471 129.46 276.089 129.46 275.663V272.874C129.46 272.321 129.291 271.9 128.954 271.612C128.622 271.319 128.121 271.172 127.451 271.172C126.914 271.172 126.474 271.269 126.131 271.463C125.788 271.651 125.559 271.919 125.442 272.268L125.434 272.293H123.99L123.998 272.243C124.076 271.773 124.269 271.363 124.579 271.015C124.895 270.66 125.301 270.387 125.799 270.193C126.297 269.994 126.865 269.894 127.501 269.894C128.231 269.894 128.848 270.013 129.352 270.251C129.861 270.489 130.246 270.832 130.506 271.28C130.771 271.723 130.904 272.254 130.904 272.874V279H129.46V277.68H129.327C129.139 277.996 128.909 278.264 128.638 278.485C128.373 278.707 128.071 278.875 127.733 278.992C127.396 279.102 127.025 279.158 126.621 279.158ZM136.615 279.158C135.951 279.158 135.365 279.058 134.855 278.859C134.346 278.654 133.937 278.369 133.627 278.004C133.323 277.639 133.143 277.21 133.087 276.717H134.565C134.687 277.088 134.925 277.387 135.279 277.614C135.633 277.841 136.095 277.954 136.665 277.954C137.069 277.954 137.423 277.896 137.728 277.78C138.037 277.658 138.281 277.495 138.458 277.29C138.635 277.08 138.724 276.839 138.724 276.568V276.551C138.724 276.247 138.602 275.99 138.358 275.779C138.115 275.563 137.716 275.389 137.163 275.256L135.777 274.924C134.941 274.725 134.327 274.435 133.934 274.053C133.541 273.665 133.345 273.151 133.345 272.509V272.5C133.345 272.002 133.489 271.557 133.776 271.164C134.07 270.771 134.468 270.461 134.972 270.234C135.475 270.007 136.042 269.894 136.673 269.894C137.299 269.894 137.852 269.994 138.333 270.193C138.82 270.387 139.211 270.663 139.504 271.023C139.803 271.383 139.985 271.806 140.052 272.293H138.632C138.538 271.939 138.322 271.651 137.985 271.43C137.647 271.208 137.207 271.098 136.665 271.098C136.311 271.098 135.995 271.156 135.719 271.272C135.442 271.383 135.223 271.538 135.063 271.737C134.903 271.936 134.822 272.168 134.822 272.434V272.451C134.822 272.755 134.941 273.007 135.179 273.206C135.417 273.405 135.799 273.569 136.325 273.696L137.703 274.028C138.544 274.233 139.169 274.526 139.579 274.908C139.994 275.29 140.201 275.801 140.201 276.443V276.46C140.201 276.991 140.043 277.462 139.728 277.871C139.413 278.275 138.984 278.59 138.441 278.817C137.905 279.044 137.296 279.158 136.615 279.158ZM146.095 279.158C145.243 279.158 144.509 278.97 143.895 278.593C143.286 278.217 142.816 277.686 142.484 277C142.157 276.308 141.994 275.494 141.994 274.559V274.551C141.994 273.627 142.157 272.816 142.484 272.119C142.816 271.421 143.284 270.876 143.887 270.483C144.49 270.09 145.195 269.894 146.003 269.894C146.817 269.894 147.514 270.082 148.095 270.458C148.682 270.835 149.13 271.361 149.44 272.036C149.755 272.705 149.913 273.486 149.913 274.376V274.941H142.741V273.787H149.174L148.46 274.841V274.269C148.46 273.566 148.355 272.987 148.145 272.534C147.935 272.08 147.644 271.742 147.273 271.521C146.903 271.294 146.477 271.181 145.995 271.181C145.514 271.181 145.082 271.3 144.7 271.538C144.324 271.77 144.025 272.116 143.804 272.575C143.582 273.035 143.472 273.599 143.472 274.269V274.841C143.472 275.478 143.58 276.023 143.795 276.477C144.011 276.925 144.318 277.271 144.717 277.514C145.115 277.752 145.586 277.871 146.128 277.871C146.532 277.871 146.883 277.816 147.182 277.705C147.481 277.594 147.727 277.453 147.921 277.282C148.115 277.11 148.25 276.936 148.328 276.759L148.361 276.684H149.805L149.789 276.75C149.711 277.055 149.573 277.351 149.374 277.639C149.18 277.921 148.928 278.178 148.618 278.411C148.308 278.638 147.94 278.82 147.514 278.958C147.094 279.091 146.62 279.158 146.095 279.158ZM160.115 279.066C159.196 279.066 158.529 278.881 158.114 278.51C157.705 278.139 157.5 277.528 157.5 276.676V271.247H156.089V270.052H157.5V267.736H158.994V270.052H160.953V271.247H158.994V276.311C158.994 276.836 159.094 277.215 159.293 277.448C159.492 277.675 159.824 277.788 160.289 277.788C160.416 277.788 160.524 277.785 160.613 277.78C160.707 277.774 160.82 277.766 160.953 277.755V278.983C160.815 279.006 160.676 279.025 160.538 279.042C160.4 279.058 160.259 279.066 160.115 279.066ZM165.568 279.158C165.004 279.158 164.495 279.05 164.041 278.834C163.593 278.618 163.236 278.311 162.97 277.913C162.71 277.514 162.58 277.044 162.58 276.501V276.485C162.58 275.688 162.862 275.065 163.427 274.617C163.997 274.163 164.802 273.906 165.842 273.845L169.129 273.646V274.8L166.017 274.999C165.336 275.038 164.838 275.179 164.522 275.422C164.213 275.666 164.058 276.009 164.058 276.452V276.468C164.058 276.922 164.229 277.276 164.572 277.531C164.915 277.78 165.347 277.904 165.867 277.904C166.36 277.904 166.797 277.807 167.179 277.614C167.561 277.415 167.859 277.146 168.075 276.809C168.297 276.471 168.407 276.089 168.407 275.663V272.874C168.407 272.321 168.238 271.9 167.901 271.612C167.569 271.319 167.068 271.172 166.398 271.172C165.862 271.172 165.422 271.269 165.079 271.463C164.736 271.651 164.506 271.919 164.39 272.268L164.381 272.293H162.937L162.945 272.243C163.023 271.773 163.216 271.363 163.526 271.015C163.842 270.66 164.249 270.387 164.747 270.193C165.245 269.994 165.812 269.894 166.448 269.894C167.179 269.894 167.796 270.013 168.299 270.251C168.808 270.489 169.193 270.832 169.453 271.28C169.719 271.723 169.852 272.254 169.852 272.874V279H168.407V277.68H168.274C168.086 277.996 167.857 278.264 167.585 278.485C167.32 278.707 167.018 278.875 166.681 278.992C166.343 279.102 165.972 279.158 165.568 279.158ZM172.574 279V266.499H174.019V279H172.574ZM178.21 279L174.716 274.617L175.778 273.696L180.028 279H178.21ZM173.836 275.779L173.77 273.961H174.151L178.02 270.052H179.771L175.521 274.152L175.172 274.493L173.836 275.779ZM184.959 279.158C184.107 279.158 183.374 278.97 182.759 278.593C182.151 278.217 181.68 277.686 181.348 277C181.022 276.308 180.858 275.494 180.858 274.559V274.551C180.858 273.627 181.022 272.816 181.348 272.119C181.68 271.421 182.148 270.876 182.751 270.483C183.354 270.09 184.06 269.894 184.868 269.894C185.681 269.894 186.378 270.082 186.959 270.458C187.546 270.835 187.994 271.361 188.304 272.036C188.62 272.705 188.777 273.486 188.777 274.376V274.941H181.605V273.787H188.039L187.325 274.841V274.269C187.325 273.566 187.22 272.987 187.009 272.534C186.799 272.08 186.508 271.742 186.138 271.521C185.767 271.294 185.341 271.181 184.859 271.181C184.378 271.181 183.946 271.3 183.564 271.538C183.188 271.77 182.889 272.116 182.668 272.575C182.447 273.035 182.336 273.599 182.336 274.269V274.841C182.336 275.478 182.444 276.023 182.66 276.477C182.875 276.925 183.183 277.271 183.581 277.514C183.979 277.752 184.45 277.871 184.992 277.871C185.396 277.871 185.748 277.816 186.046 277.705C186.345 277.594 186.591 277.453 186.785 277.282C186.979 277.11 187.114 276.936 187.192 276.759L187.225 276.684H188.669L188.653 276.75C188.575 277.055 188.437 277.351 188.238 277.639C188.044 277.921 187.792 278.178 187.482 278.411C187.173 278.638 186.805 278.82 186.378 278.958C185.958 279.091 185.485 279.158 184.959 279.158ZM198.979 279.066C198.06 279.066 197.394 278.881 196.979 278.51C196.569 278.139 196.364 277.528 196.364 276.676V271.247H194.953V270.052H196.364V267.736H197.858V270.052H199.817V271.247H197.858V276.311C197.858 276.836 197.958 277.215 198.157 277.448C198.356 277.675 198.688 277.788 199.153 277.788C199.281 277.788 199.389 277.785 199.477 277.78C199.571 277.774 199.685 277.766 199.817 277.755V278.983C199.679 279.006 199.541 279.025 199.402 279.042C199.264 279.058 199.123 279.066 198.979 279.066ZM202.059 279V266.499H203.503V271.396H203.636C203.863 270.921 204.189 270.553 204.615 270.292C205.041 270.027 205.584 269.894 206.242 269.894C206.912 269.894 207.479 270.024 207.944 270.284C208.409 270.539 208.763 270.912 209.006 271.405C209.25 271.897 209.372 272.498 209.372 273.206V279H207.927V273.555C207.927 272.747 207.756 272.149 207.413 271.762C207.075 271.369 206.549 271.172 205.835 271.172C205.36 271.172 204.947 271.275 204.599 271.479C204.25 271.684 203.979 271.975 203.785 272.351C203.597 272.727 203.503 273.178 203.503 273.704V279H202.059ZM215.639 279.158C214.786 279.158 214.053 278.97 213.439 278.593C212.83 278.217 212.36 277.686 212.028 277C211.701 276.308 211.538 275.494 211.538 274.559V274.551C211.538 273.627 211.701 272.816 212.028 272.119C212.36 271.421 212.827 270.876 213.431 270.483C214.034 270.09 214.739 269.894 215.547 269.894C216.361 269.894 217.058 270.082 217.639 270.458C218.226 270.835 218.674 271.361 218.984 272.036C219.299 272.705 219.457 273.486 219.457 274.376V274.941H212.285V273.787H218.718L218.004 274.841V274.269C218.004 273.566 217.899 272.987 217.689 272.534C217.479 272.08 217.188 271.742 216.817 271.521C216.447 271.294 216.021 271.181 215.539 271.181C215.058 271.181 214.626 271.3 214.244 271.538C213.868 271.77 213.569 272.116 213.348 272.575C213.126 273.035 213.016 273.599 213.016 274.269V274.841C213.016 275.478 213.124 276.023 213.339 276.477C213.555 276.925 213.862 277.271 214.261 277.514C214.659 277.752 215.13 277.871 215.672 277.871C216.076 277.871 216.427 277.816 216.726 277.705C217.025 277.594 217.271 277.453 217.465 277.282C217.659 277.11 217.794 276.936 217.872 276.759L217.905 276.684H219.349L219.333 276.75C219.255 277.055 219.117 277.351 218.917 277.639C218.724 277.921 218.472 278.178 218.162 278.411C217.852 278.638 217.484 278.82 217.058 278.958C216.638 279.091 216.164 279.158 215.639 279.158ZM226.479 281.988V270.052H227.924V271.479H228.057C228.239 271.147 228.469 270.865 228.746 270.633C229.022 270.395 229.338 270.212 229.692 270.085C230.046 269.958 230.431 269.894 230.846 269.894C231.604 269.894 232.262 270.088 232.821 270.475C233.386 270.857 233.823 271.394 234.133 272.085C234.443 272.777 234.598 273.588 234.598 274.518V274.534C234.598 275.469 234.443 276.283 234.133 276.975C233.823 277.666 233.386 278.203 232.821 278.585C232.262 278.967 231.604 279.158 230.846 279.158C230.436 279.158 230.049 279.094 229.684 278.967C229.324 278.834 229.003 278.651 228.721 278.419C228.444 278.187 228.223 277.91 228.057 277.589H227.924V281.988H226.479ZM230.514 277.879C231.062 277.879 231.529 277.747 231.917 277.481C232.304 277.21 232.6 276.825 232.805 276.327C233.015 275.824 233.12 275.226 233.12 274.534V274.518C233.12 273.82 233.015 273.223 232.805 272.725C232.6 272.227 232.304 271.845 231.917 271.579C231.529 271.308 231.062 271.172 230.514 271.172C229.971 271.172 229.504 271.308 229.111 271.579C228.718 271.85 228.416 272.235 228.206 272.733C227.996 273.231 227.891 273.826 227.891 274.518V274.534C227.891 275.22 227.996 275.815 228.206 276.319C228.416 276.817 228.718 277.201 229.111 277.473C229.504 277.744 229.971 277.879 230.514 277.879ZM236.938 279V266.499H238.383V271.396H238.516C238.743 270.921 239.069 270.553 239.495 270.292C239.921 270.027 240.464 269.894 241.122 269.894C241.792 269.894 242.359 270.024 242.824 270.284C243.289 270.539 243.643 270.912 243.886 271.405C244.13 271.897 244.251 272.498 244.251 273.206V279H242.807V273.555C242.807 272.747 242.636 272.149 242.292 271.762C241.955 271.369 241.429 271.172 240.715 271.172C240.239 271.172 239.827 271.275 239.479 271.479C239.13 271.684 238.859 271.975 238.665 272.351C238.477 272.727 238.383 273.178 238.383 273.704V279H236.938ZM250.543 279.158C249.697 279.158 248.964 278.972 248.344 278.602C247.729 278.225 247.254 277.691 246.916 277C246.584 276.308 246.418 275.486 246.418 274.534V274.518C246.418 273.56 246.584 272.736 246.916 272.044C247.254 271.352 247.729 270.821 248.344 270.45C248.964 270.079 249.697 269.894 250.543 269.894C251.396 269.894 252.129 270.079 252.743 270.45C253.357 270.821 253.831 271.352 254.163 272.044C254.5 272.736 254.669 273.56 254.669 274.518V274.534C254.669 275.486 254.5 276.308 254.163 277C253.831 277.691 253.357 278.225 252.743 278.602C252.129 278.972 251.396 279.158 250.543 279.158ZM250.543 277.879C251.108 277.879 251.587 277.747 251.979 277.481C252.372 277.215 252.671 276.833 252.876 276.335C253.086 275.837 253.191 275.237 253.191 274.534V274.518C253.191 273.809 253.086 273.206 252.876 272.708C252.671 272.21 252.372 271.831 251.979 271.571C251.587 271.305 251.108 271.172 250.543 271.172C249.979 271.172 249.5 271.305 249.107 271.571C248.715 271.831 248.413 272.21 248.203 272.708C247.998 273.206 247.896 273.809 247.896 274.518V274.534C247.896 275.237 247.998 275.837 248.203 276.335C248.413 276.833 248.715 277.215 249.107 277.481C249.5 277.747 249.979 277.879 250.543 277.879ZM260.089 279.066C259.171 279.066 258.504 278.881 258.089 278.51C257.679 278.139 257.475 277.528 257.475 276.676V271.247H256.063V270.052H257.475V267.736H258.969V270.052H260.928V271.247H258.969V276.311C258.969 276.836 259.068 277.215 259.268 277.448C259.467 277.675 259.799 277.788 260.264 277.788C260.391 277.788 260.499 277.785 260.587 277.78C260.681 277.774 260.795 277.766 260.928 277.755V278.983C260.789 279.006 260.651 279.025 260.513 279.042C260.374 279.058 260.233 279.066 260.089 279.066ZM266.647 279.158C265.8 279.158 265.067 278.972 264.447 278.602C263.833 278.225 263.357 277.691 263.02 277C262.688 276.308 262.521 275.486 262.521 274.534V274.518C262.521 273.56 262.688 272.736 263.02 272.044C263.357 271.352 263.833 270.821 264.447 270.45C265.067 270.079 265.8 269.894 266.647 269.894C267.499 269.894 268.232 270.079 268.847 270.45C269.461 270.821 269.934 271.352 270.266 272.044C270.604 272.736 270.772 273.56 270.772 274.518V274.534C270.772 275.486 270.604 276.308 270.266 277C269.934 277.691 269.461 278.225 268.847 278.602C268.232 278.972 267.499 279.158 266.647 279.158ZM266.647 277.879C267.211 277.879 267.69 277.747 268.083 277.481C268.476 277.215 268.775 276.833 268.979 276.335C269.19 275.837 269.295 275.237 269.295 274.534V274.518C269.295 273.809 269.19 273.206 268.979 272.708C268.775 272.21 268.476 271.831 268.083 271.571C267.69 271.305 267.211 271.172 266.647 271.172C266.083 271.172 265.604 271.305 265.211 271.571C264.818 271.831 264.516 272.21 264.306 272.708C264.101 273.206 263.999 273.809 263.999 274.518V274.534C263.999 275.237 264.101 275.837 264.306 276.335C264.516 276.833 264.818 277.215 265.211 277.481C265.604 277.747 266.083 277.879 266.647 277.879ZM280.866 279.158C280.202 279.158 279.616 279.058 279.106 278.859C278.597 278.654 278.188 278.369 277.878 278.004C277.574 277.639 277.394 277.21 277.338 276.717H278.816C278.938 277.088 279.176 277.387 279.53 277.614C279.884 277.841 280.346 277.954 280.916 277.954C281.32 277.954 281.674 277.896 281.979 277.78C282.288 277.658 282.532 277.495 282.709 277.29C282.886 277.08 282.975 276.839 282.975 276.568V276.551C282.975 276.247 282.853 275.99 282.609 275.779C282.366 275.563 281.967 275.389 281.414 275.256L280.028 274.924C279.192 274.725 278.578 274.435 278.185 274.053C277.792 273.665 277.596 273.151 277.596 272.509V272.5C277.596 272.002 277.74 271.557 278.027 271.164C278.321 270.771 278.719 270.461 279.223 270.234C279.726 270.007 280.293 269.894 280.924 269.894C281.55 269.894 282.103 269.994 282.584 270.193C283.071 270.387 283.462 270.663 283.755 271.023C284.054 271.383 284.236 271.806 284.303 272.293H282.883C282.789 271.939 282.573 271.651 282.236 271.43C281.898 271.208 281.458 271.098 280.916 271.098C280.562 271.098 280.246 271.156 279.97 271.272C279.693 271.383 279.474 271.538 279.314 271.737C279.153 271.936 279.073 272.168 279.073 272.434V272.451C279.073 272.755 279.192 273.007 279.43 273.206C279.668 273.405 280.05 273.569 280.576 273.696L281.954 274.028C282.795 274.233 283.42 274.526 283.83 274.908C284.245 275.29 284.452 275.801 284.452 276.443V276.46C284.452 276.991 284.294 277.462 283.979 277.871C283.664 278.275 283.235 278.59 282.692 278.817C282.156 279.044 281.547 279.158 280.866 279.158ZM290.371 279.158C289.524 279.158 288.791 278.972 288.171 278.602C287.557 278.225 287.081 277.691 286.743 277C286.411 276.308 286.245 275.486 286.245 274.534V274.518C286.245 273.56 286.411 272.736 286.743 272.044C287.081 271.352 287.557 270.821 288.171 270.45C288.791 270.079 289.524 269.894 290.371 269.894C291.223 269.894 291.956 270.079 292.57 270.45C293.185 270.821 293.658 271.352 293.99 272.044C294.327 272.736 294.496 273.56 294.496 274.518V274.534C294.496 275.486 294.327 276.308 293.99 277C293.658 277.691 293.185 278.225 292.57 278.602C291.956 278.972 291.223 279.158 290.371 279.158ZM290.371 277.879C290.935 277.879 291.414 277.747 291.807 277.481C292.2 277.215 292.498 276.833 292.703 276.335C292.913 275.837 293.019 275.237 293.019 274.534V274.518C293.019 273.809 292.913 273.206 292.703 272.708C292.498 272.21 292.2 271.831 291.807 271.571C291.414 271.305 290.935 271.172 290.371 271.172C289.806 271.172 289.327 271.305 288.935 271.571C288.542 271.831 288.24 272.21 288.03 272.708C287.825 273.206 287.723 273.809 287.723 274.518V274.534C287.723 275.237 287.825 275.837 288.03 276.335C288.24 276.833 288.542 277.215 288.935 277.481C289.327 277.747 289.806 277.879 290.371 277.879ZM304.698 279.066C303.779 279.066 303.112 278.881 302.697 278.51C302.288 278.139 302.083 277.528 302.083 276.676V271.247H300.672V270.052H302.083V267.736H303.577V270.052H305.536V271.247H303.577V276.311C303.577 276.836 303.677 277.215 303.876 277.448C304.075 277.675 304.407 277.788 304.872 277.788C304.999 277.788 305.107 277.785 305.196 277.78C305.29 277.774 305.403 277.766 305.536 277.755V278.983C305.398 279.006 305.259 279.025 305.121 279.042C304.983 279.058 304.842 279.066 304.698 279.066ZM307.777 279V266.499H309.222V271.396H309.354C309.581 270.921 309.908 270.553 310.334 270.292C310.76 270.027 311.302 269.894 311.961 269.894C312.631 269.894 313.198 270.024 313.663 270.284C314.127 270.539 314.482 270.912 314.725 271.405C314.969 271.897 315.09 272.498 315.09 273.206V279H313.646V273.555C313.646 272.747 313.474 272.149 313.131 271.762C312.794 271.369 312.268 271.172 311.554 271.172C311.078 271.172 310.666 271.275 310.317 271.479C309.969 271.684 309.698 271.975 309.504 272.351C309.316 272.727 309.222 273.178 309.222 273.704V279H307.777ZM320.162 279.158C319.598 279.158 319.089 279.05 318.635 278.834C318.187 278.618 317.83 278.311 317.564 277.913C317.304 277.514 317.174 277.044 317.174 276.501V276.485C317.174 275.688 317.456 275.065 318.021 274.617C318.59 274.163 319.396 273.906 320.436 273.845L323.723 273.646V274.8L320.61 274.999C319.93 275.038 319.432 275.179 319.116 275.422C318.806 275.666 318.651 276.009 318.651 276.452V276.468C318.651 276.922 318.823 277.276 319.166 277.531C319.509 277.78 319.941 277.904 320.461 277.904C320.953 277.904 321.391 277.807 321.772 277.614C322.154 277.415 322.453 277.146 322.669 276.809C322.89 276.471 323.001 276.089 323.001 275.663V272.874C323.001 272.321 322.832 271.9 322.495 271.612C322.163 271.319 321.662 271.172 320.992 271.172C320.455 271.172 320.015 271.269 319.672 271.463C319.329 271.651 319.1 271.919 318.983 272.268L318.975 272.293H317.531L317.539 272.243C317.617 271.773 317.81 271.363 318.12 271.015C318.436 270.66 318.842 270.387 319.34 270.193C319.838 269.994 320.406 269.894 321.042 269.894C321.772 269.894 322.389 270.013 322.893 270.251C323.402 270.489 323.787 270.832 324.047 271.28C324.312 271.723 324.445 272.254 324.445 272.874V279H323.001V277.68H322.868C322.68 277.996 322.45 278.264 322.179 278.485C321.914 278.707 321.612 278.875 321.274 278.992C320.937 279.102 320.566 279.158 320.162 279.158ZM330.264 279.066C329.346 279.066 328.679 278.881 328.264 278.51C327.854 278.139 327.649 277.528 327.649 276.676V271.247H326.238V270.052H327.649V267.736H329.144V270.052H331.103V271.247H329.144V276.311C329.144 276.836 329.243 277.215 329.442 277.448C329.642 277.675 329.974 277.788 330.438 277.788C330.566 277.788 330.674 277.785 330.762 277.78C330.856 277.774 330.97 277.766 331.103 277.755V278.983C330.964 279.006 330.826 279.025 330.688 279.042C330.549 279.058 330.408 279.066 330.264 279.066ZM338.042 279V270.052H339.486V271.413H339.619C339.818 270.932 340.123 270.558 340.532 270.292C340.947 270.027 341.448 269.894 342.035 269.894C342.439 269.894 342.801 269.96 343.122 270.093C343.443 270.226 343.72 270.411 343.952 270.649C344.185 270.882 344.37 271.153 344.508 271.463H344.641C344.802 271.147 345.017 270.874 345.289 270.641C345.56 270.403 345.872 270.221 346.227 270.093C346.586 269.96 346.971 269.894 347.38 269.894C347.989 269.894 348.504 270.007 348.924 270.234C349.35 270.461 349.674 270.793 349.896 271.23C350.117 271.662 350.228 272.191 350.228 272.816V279H348.783V273.148C348.783 272.489 348.628 271.997 348.318 271.67C348.014 271.338 347.546 271.172 346.916 271.172C346.5 271.172 346.138 271.266 345.828 271.455C345.518 271.643 345.278 271.895 345.106 272.21C344.934 272.52 344.849 272.866 344.849 273.248V279H343.404V272.924C343.404 272.393 343.236 271.969 342.898 271.654C342.56 271.333 342.109 271.172 341.545 271.172C341.158 271.172 340.806 271.275 340.491 271.479C340.181 271.684 339.935 271.961 339.752 272.31C339.575 272.653 339.486 273.035 339.486 273.455V279H338.042ZM353.266 282.138C353.172 282.138 353.066 282.132 352.95 282.121C352.834 282.116 352.726 282.104 352.626 282.088V280.901C352.715 280.917 352.812 280.929 352.917 280.934C353.022 280.94 353.125 280.942 353.224 280.942C353.634 280.942 353.968 280.837 354.229 280.627C354.494 280.417 354.707 280.054 354.868 279.54L355.034 279.008L351.722 270.052H353.266L356.021 278.319L355.449 277.415H356.129L355.557 278.319L358.304 270.052H359.823L356.329 279.548C356.08 280.217 355.819 280.74 355.548 281.117C355.283 281.493 354.967 281.756 354.602 281.905C354.242 282.06 353.797 282.138 353.266 282.138ZM369.817 279.158C369.065 279.158 368.406 278.967 367.842 278.585C367.277 278.203 366.84 277.666 366.53 276.975C366.22 276.277 366.065 275.464 366.065 274.534V274.518C366.065 273.582 366.22 272.769 366.53 272.077C366.84 271.385 367.275 270.849 367.833 270.467C368.398 270.085 369.059 269.894 369.817 269.894C370.432 269.894 370.988 270.038 371.486 270.326C371.989 270.608 372.363 270.987 372.606 271.463H372.739V266.499H374.184V279H372.739V277.572H372.606C372.335 278.07 371.959 278.46 371.478 278.743C370.996 279.019 370.443 279.158 369.817 279.158ZM370.149 277.879C370.692 277.879 371.159 277.744 371.552 277.473C371.945 277.201 372.247 276.817 372.457 276.319C372.667 275.815 372.772 275.22 372.772 274.534V274.518C372.772 273.826 372.667 273.231 372.457 272.733C372.247 272.235 371.945 271.85 371.552 271.579C371.159 271.308 370.692 271.172 370.149 271.172C369.607 271.172 369.139 271.308 368.747 271.579C368.359 271.845 368.06 272.227 367.85 272.725C367.645 273.223 367.543 273.82 367.543 274.518V274.534C367.543 275.226 367.645 275.824 367.85 276.327C368.06 276.825 368.359 277.21 368.747 277.481C369.139 277.747 369.607 277.879 370.149 277.879ZM376.956 279V270.052H378.4V271.38H378.533C378.705 270.91 378.995 270.544 379.405 270.284C379.814 270.024 380.321 269.894 380.924 269.894C381.062 269.894 381.198 269.902 381.331 269.919C381.469 269.93 381.574 269.941 381.646 269.952V271.355C381.497 271.327 381.35 271.308 381.206 271.297C381.068 271.28 380.918 271.272 380.758 271.272C380.299 271.272 379.892 271.363 379.538 271.546C379.183 271.729 378.904 271.983 378.699 272.31C378.5 272.636 378.4 273.018 378.4 273.455V279H376.956ZM383.464 279V270.052H384.908V279H383.464ZM384.194 268.325C383.923 268.325 383.688 268.228 383.489 268.035C383.295 267.835 383.198 267.6 383.198 267.329C383.198 267.052 383.295 266.817 383.489 266.624C383.688 266.43 383.923 266.333 384.194 266.333C384.471 266.333 384.706 266.43 384.9 266.624C385.094 266.817 385.19 267.052 385.19 267.329C385.19 267.6 385.094 267.835 384.9 268.035C384.706 268.228 384.471 268.325 384.194 268.325ZM390.163 279L386.851 270.052H388.378L390.827 277.423H390.959L393.408 270.052H394.936L391.624 279H390.163ZM400.165 279.158C399.313 279.158 398.58 278.97 397.965 278.593C397.357 278.217 396.886 277.686 396.554 277C396.228 276.308 396.064 275.494 396.064 274.559V274.551C396.064 273.627 396.228 272.816 396.554 272.119C396.886 271.421 397.354 270.876 397.957 270.483C398.56 270.09 399.266 269.894 400.074 269.894C400.887 269.894 401.584 270.082 402.166 270.458C402.752 270.835 403.2 271.361 403.51 272.036C403.826 272.705 403.983 273.486 403.983 274.376V274.941H396.812V273.787H403.245L402.531 274.841V274.269C402.531 273.566 402.426 272.987 402.215 272.534C402.005 272.08 401.715 271.742 401.344 271.521C400.973 271.294 400.547 271.181 400.065 271.181C399.584 271.181 399.152 271.3 398.771 271.538C398.394 271.77 398.095 272.116 397.874 272.575C397.653 273.035 397.542 273.599 397.542 274.269V274.841C397.542 275.478 397.65 276.023 397.866 276.477C398.082 276.925 398.389 277.271 398.787 277.514C399.186 277.752 399.656 277.871 400.198 277.871C400.602 277.871 400.954 277.816 401.252 277.705C401.551 277.594 401.798 277.453 401.991 277.282C402.185 277.11 402.32 276.936 402.398 276.759L402.431 276.684H403.875L403.859 276.75C403.781 277.055 403.643 277.351 403.444 277.639C403.25 277.921 402.998 278.178 402.688 278.411C402.379 278.638 402.011 278.82 401.584 278.958C401.164 279.091 400.691 279.158 400.165 279.158ZM406.225 279V270.052H407.669V271.38H407.802C407.973 270.91 408.264 270.544 408.673 270.284C409.083 270.024 409.589 269.894 410.192 269.894C410.331 269.894 410.466 269.902 410.599 269.919C410.737 269.93 410.843 269.941 410.915 269.952V271.355C410.765 271.327 410.618 271.308 410.475 271.297C410.336 271.28 410.187 271.272 410.026 271.272C409.567 271.272 409.16 271.363 408.806 271.546C408.452 271.729 408.173 271.983 407.968 272.31C407.769 272.636 407.669 273.018 407.669 273.455V279H406.225ZM413.28 271.745L413.106 267.022H414.65L414.476 271.745H413.28ZM420.817 279.158C420.153 279.158 419.567 279.058 419.058 278.859C418.549 278.654 418.139 278.369 417.829 278.004C417.525 277.639 417.345 277.21 417.29 276.717H418.767C418.889 277.088 419.127 277.387 419.481 277.614C419.835 277.841 420.297 277.954 420.867 277.954C421.271 277.954 421.625 277.896 421.93 277.78C422.24 277.658 422.483 277.495 422.66 277.29C422.837 277.08 422.926 276.839 422.926 276.568V276.551C422.926 276.247 422.804 275.99 422.561 275.779C422.317 275.563 421.919 275.389 421.365 275.256L419.979 274.924C419.143 274.725 418.529 274.435 418.136 274.053C417.743 273.665 417.547 273.151 417.547 272.509V272.5C417.547 272.002 417.691 271.557 417.979 271.164C418.272 270.771 418.67 270.461 419.174 270.234C419.677 270.007 420.245 269.894 420.875 269.894C421.501 269.894 422.054 269.994 422.536 270.193C423.023 270.387 423.413 270.663 423.706 271.023C424.005 271.383 424.188 271.806 424.254 272.293H422.834C422.74 271.939 422.525 271.651 422.187 271.43C421.849 271.208 421.41 271.098 420.867 271.098C420.513 271.098 420.198 271.156 419.921 271.272C419.644 271.383 419.426 271.538 419.265 271.737C419.105 271.936 419.024 272.168 419.024 272.434V272.451C419.024 272.755 419.143 273.007 419.381 273.206C419.619 273.405 420.001 273.569 420.527 273.696L421.905 274.028C422.746 274.233 423.371 274.526 423.781 274.908C424.196 275.29 424.403 275.801 424.403 276.443V276.46C424.403 276.991 424.246 277.462 423.93 277.871C423.615 278.275 423.186 278.59 422.644 278.817C422.107 279.044 421.498 279.158 420.817 279.158ZM431.509 279V266.499H432.953V279H431.509ZM435.759 279V270.052H437.203V279H435.759ZM436.489 268.325C436.218 268.325 435.983 268.228 435.784 268.035C435.59 267.835 435.493 267.6 435.493 267.329C435.493 267.052 435.59 266.817 435.784 266.624C435.983 266.43 436.218 266.333 436.489 266.333C436.766 266.333 437.001 266.43 437.195 266.624C437.389 266.817 437.485 267.052 437.485 267.329C437.485 267.6 437.389 267.835 437.195 268.035C437.001 268.228 436.766 268.325 436.489 268.325ZM443.586 279.158C442.751 279.158 442.026 278.967 441.412 278.585C440.797 278.203 440.321 277.664 439.984 276.966C439.646 276.269 439.478 275.447 439.478 274.501V274.484C439.478 273.555 439.644 272.747 439.976 272.061C440.313 271.374 440.789 270.843 441.403 270.467C442.018 270.085 442.743 269.894 443.578 269.894C444.303 269.894 444.928 270.021 445.454 270.276C445.98 270.53 446.4 270.874 446.716 271.305C447.031 271.731 447.233 272.21 447.322 272.741L447.33 272.791H445.894L445.886 272.766C445.775 272.323 445.523 271.947 445.13 271.637C444.737 271.327 444.22 271.172 443.578 271.172C443.041 271.172 442.576 271.308 442.184 271.579C441.791 271.85 441.486 272.235 441.271 272.733C441.06 273.225 440.955 273.809 440.955 274.484V274.501C440.955 275.187 441.063 275.785 441.279 276.294C441.495 276.798 441.799 277.188 442.192 277.464C442.585 277.741 443.047 277.879 443.578 277.879C444.181 277.879 444.674 277.749 445.056 277.489C445.438 277.229 445.711 276.85 445.877 276.352L445.894 276.302L447.322 276.294L447.305 276.385C447.183 276.922 446.968 277.401 446.658 277.821C446.348 278.236 445.938 278.563 445.429 278.801C444.92 279.039 444.306 279.158 443.586 279.158ZM453.091 279.158C452.239 279.158 451.505 278.97 450.891 278.593C450.282 278.217 449.812 277.686 449.48 277C449.153 276.308 448.99 275.494 448.99 274.559V274.551C448.99 273.627 449.153 272.816 449.48 272.119C449.812 271.421 450.28 270.876 450.883 270.483C451.486 270.09 452.192 269.894 453 269.894C453.813 269.894 454.51 270.082 455.091 270.458C455.678 270.835 456.126 271.361 456.436 272.036C456.751 272.705 456.909 273.486 456.909 274.376V274.941H449.737V273.787H456.17L455.457 274.841V274.269C455.457 273.566 455.351 272.987 455.141 272.534C454.931 272.08 454.64 271.742 454.27 271.521C453.899 271.294 453.473 271.181 452.991 271.181C452.51 271.181 452.078 271.3 451.696 271.538C451.32 271.77 451.021 272.116 450.8 272.575C450.578 273.035 450.468 273.599 450.468 274.269V274.841C450.468 275.478 450.576 276.023 450.792 276.477C451.007 276.925 451.314 277.271 451.713 277.514C452.111 277.752 452.582 277.871 453.124 277.871C453.528 277.871 453.879 277.816 454.178 277.705C454.477 277.594 454.723 277.453 454.917 277.282C455.111 277.11 455.246 276.936 455.324 276.759L455.357 276.684H456.801L456.785 276.75C456.707 277.055 456.569 277.351 456.37 277.639C456.176 277.921 455.924 278.178 455.614 278.411C455.304 278.638 454.936 278.82 454.51 278.958C454.09 279.091 453.617 279.158 453.091 279.158ZM459.15 279V270.052H460.595V271.396H460.728C460.954 270.921 461.281 270.553 461.707 270.292C462.133 270.027 462.675 269.894 463.334 269.894C464.341 269.894 465.113 270.182 465.65 270.757C466.192 271.327 466.463 272.144 466.463 273.206V279H465.019V273.555C465.019 272.747 464.847 272.149 464.504 271.762C464.167 271.369 463.641 271.172 462.927 271.172C462.451 271.172 462.039 271.275 461.69 271.479C461.342 271.684 461.071 271.975 460.877 272.351C460.689 272.727 460.595 273.178 460.595 273.704V279H459.15ZM472.149 279.158C471.485 279.158 470.899 279.058 470.39 278.859C469.881 278.654 469.471 278.369 469.161 278.004C468.857 277.639 468.677 277.21 468.622 276.717H470.099C470.221 277.088 470.459 277.387 470.813 277.614C471.167 277.841 471.629 277.954 472.199 277.954C472.603 277.954 472.957 277.896 473.262 277.78C473.572 277.658 473.815 277.495 473.992 277.29C474.169 277.08 474.258 276.839 474.258 276.568V276.551C474.258 276.247 474.136 275.99 473.893 275.779C473.649 275.563 473.251 275.389 472.697 275.256L471.311 274.924C470.475 274.725 469.861 274.435 469.468 274.053C469.075 273.665 468.879 273.151 468.879 272.509V272.5C468.879 272.002 469.023 271.557 469.311 271.164C469.604 270.771 470.002 270.461 470.506 270.234C471.009 270.007 471.577 269.894 472.208 269.894C472.833 269.894 473.386 269.994 473.868 270.193C474.355 270.387 474.745 270.663 475.038 271.023C475.337 271.383 475.52 271.806 475.586 272.293H474.167C474.072 271.939 473.857 271.651 473.519 271.43C473.181 271.208 472.742 271.098 472.199 271.098C471.845 271.098 471.53 271.156 471.253 271.272C470.976 271.383 470.758 271.538 470.597 271.737C470.437 271.936 470.356 272.168 470.356 272.434V272.451C470.356 272.755 470.475 273.007 470.713 273.206C470.951 273.405 471.333 273.569 471.859 273.696L473.237 274.028C474.078 274.233 474.703 274.526 475.113 274.908C475.528 275.29 475.735 275.801 475.735 276.443V276.46C475.735 276.991 475.578 277.462 475.262 277.871C474.947 278.275 474.518 278.59 473.976 278.817C473.439 279.044 472.83 279.158 472.149 279.158ZM481.629 279.158C480.777 279.158 480.043 278.97 479.429 278.593C478.82 278.217 478.35 277.686 478.018 277C477.692 276.308 477.528 275.494 477.528 274.559V274.551C477.528 273.627 477.692 272.816 478.018 272.119C478.35 271.421 478.818 270.876 479.421 270.483C480.024 270.09 480.73 269.894 481.538 269.894C482.351 269.894 483.048 270.082 483.629 270.458C484.216 270.835 484.664 271.361 484.974 272.036C485.29 272.705 485.447 273.486 485.447 274.376V274.941H478.275V273.787H484.708L483.995 274.841V274.269C483.995 273.566 483.889 272.987 483.679 272.534C483.469 272.08 483.178 271.742 482.808 271.521C482.437 271.294 482.011 271.181 481.529 271.181C481.048 271.181 480.616 271.3 480.234 271.538C479.858 271.77 479.559 272.116 479.338 272.575C479.117 273.035 479.006 273.599 479.006 274.269V274.841C479.006 275.478 479.114 276.023 479.33 276.477C479.545 276.925 479.853 277.271 480.251 277.514C480.649 277.752 481.12 277.871 481.662 277.871C482.066 277.871 482.417 277.816 482.716 277.705C483.015 277.594 483.261 277.453 483.455 277.282C483.649 277.11 483.784 276.936 483.862 276.759L483.895 276.684H485.339L485.323 276.75C485.245 277.055 485.107 277.351 484.908 277.639C484.714 277.921 484.462 278.178 484.152 278.411C483.842 278.638 483.474 278.82 483.048 278.958C482.628 279.091 482.155 279.158 481.629 279.158ZM492.503 279V270.052H493.947V279H492.503ZM493.233 268.325C492.962 268.325 492.727 268.228 492.528 268.035C492.334 267.835 492.237 267.6 492.237 267.329C492.237 267.052 492.334 266.817 492.528 266.624C492.727 266.43 492.962 266.333 493.233 266.333C493.51 266.333 493.745 266.43 493.939 266.624C494.133 266.817 494.229 267.052 494.229 267.329C494.229 267.6 494.133 267.835 493.939 268.035C493.745 268.228 493.51 268.325 493.233 268.325ZM499.741 279.158C499.077 279.158 498.491 279.058 497.981 278.859C497.472 278.654 497.063 278.369 496.753 278.004C496.449 277.639 496.269 277.21 496.213 276.717H497.691C497.813 277.088 498.051 277.387 498.405 277.614C498.759 277.841 499.221 277.954 499.791 277.954C500.195 277.954 500.549 277.896 500.854 277.78C501.163 277.658 501.407 277.495 501.584 277.29C501.761 277.08 501.85 276.839 501.85 276.568V276.551C501.85 276.247 501.728 275.99 501.484 275.779C501.241 275.563 500.842 275.389 500.289 275.256L498.903 274.924C498.067 274.725 497.453 274.435 497.06 274.053C496.667 273.665 496.471 273.151 496.471 272.509V272.5C496.471 272.002 496.615 271.557 496.902 271.164C497.196 270.771 497.594 270.461 498.098 270.234C498.601 270.007 499.168 269.894 499.799 269.894C500.425 269.894 500.978 269.994 501.459 270.193C501.946 270.387 502.337 270.663 502.63 271.023C502.929 271.383 503.111 271.806 503.178 272.293H501.758C501.664 271.939 501.448 271.651 501.111 271.43C500.773 271.208 500.333 271.098 499.791 271.098C499.437 271.098 499.121 271.156 498.845 271.272C498.568 271.383 498.349 271.538 498.189 271.737C498.028 271.936 497.948 272.168 497.948 272.434V272.451C497.948 272.755 498.067 273.007 498.305 273.206C498.543 273.405 498.925 273.569 499.451 273.696L500.829 274.028C501.67 274.233 502.295 274.526 502.705 274.908C503.12 275.29 503.327 275.801 503.327 276.443V276.46C503.327 276.991 503.169 277.462 502.854 277.871C502.539 278.275 502.11 278.59 501.567 278.817C501.031 279.044 500.422 279.158 499.741 279.158ZM514.01 279.158C513.175 279.158 512.45 278.967 511.835 278.585C511.221 278.203 510.745 277.664 510.408 276.966C510.07 276.269 509.901 275.447 509.901 274.501V274.484C509.901 273.555 510.067 272.747 510.399 272.061C510.737 271.374 511.213 270.843 511.827 270.467C512.441 270.085 513.166 269.894 514.002 269.894C514.727 269.894 515.352 270.021 515.878 270.276C516.404 270.53 516.824 270.874 517.14 271.305C517.455 271.731 517.657 272.21 517.746 272.741L517.754 272.791H516.318L516.31 272.766C516.199 272.323 515.947 271.947 515.554 271.637C515.161 271.327 514.644 271.172 514.002 271.172C513.465 271.172 513 271.308 512.607 271.579C512.215 271.85 511.91 272.235 511.694 272.733C511.484 273.225 511.379 273.809 511.379 274.484V274.501C511.379 275.187 511.487 275.785 511.703 276.294C511.918 276.798 512.223 277.188 512.616 277.464C513.009 277.741 513.471 277.879 514.002 277.879C514.605 277.879 515.098 277.749 515.479 277.489C515.861 277.229 516.135 276.85 516.301 276.352L516.318 276.302L517.746 276.294L517.729 276.385C517.607 276.922 517.391 277.401 517.082 277.821C516.772 278.236 516.362 278.563 515.853 278.801C515.344 279.039 514.73 279.158 514.01 279.158ZM519.945 279V266.499H521.39V279H519.945ZM527.814 279.158C526.962 279.158 526.229 278.97 525.615 278.593C525.006 278.217 524.536 277.686 524.204 277C523.877 276.308 523.714 275.494 523.714 274.559V274.551C523.714 273.627 523.877 272.816 524.204 272.119C524.536 271.421 525.003 270.876 525.606 270.483C526.21 270.09 526.915 269.894 527.723 269.894C528.537 269.894 529.234 270.082 529.815 270.458C530.402 270.835 530.85 271.361 531.16 272.036C531.475 272.705 531.633 273.486 531.633 274.376V274.941H524.461V273.787H530.894L530.18 274.841V274.269C530.18 273.566 530.075 272.987 529.865 272.534C529.654 272.08 529.364 271.742 528.993 271.521C528.622 271.294 528.196 271.181 527.715 271.181C527.233 271.181 526.802 271.3 526.42 271.538C526.044 271.77 525.745 272.116 525.523 272.575C525.302 273.035 525.191 273.599 525.191 274.269V274.841C525.191 275.478 525.299 276.023 525.515 276.477C525.731 276.925 526.038 277.271 526.437 277.514C526.835 277.752 527.305 277.871 527.848 277.871C528.252 277.871 528.603 277.816 528.902 277.705C529.201 277.594 529.447 277.453 529.641 277.282C529.834 277.11 529.97 276.936 530.047 276.759L530.081 276.684H531.525L531.508 276.75C531.431 277.055 531.292 277.351 531.093 277.639C530.9 277.921 530.648 278.178 530.338 278.411C530.028 278.638 529.66 278.82 529.234 278.958C528.813 279.091 528.34 279.158 527.814 279.158ZM536.331 279.158C535.767 279.158 535.257 279.05 534.804 278.834C534.355 278.618 533.999 278.311 533.733 277.913C533.473 277.514 533.343 277.044 533.343 276.501V276.485C533.343 275.688 533.625 275.065 534.189 274.617C534.759 274.163 535.565 273.906 536.605 273.845L539.892 273.646V274.8L536.779 274.999C536.099 275.038 535.601 275.179 535.285 275.422C534.975 275.666 534.82 276.009 534.82 276.452V276.468C534.82 276.922 534.992 277.276 535.335 277.531C535.678 277.78 536.11 277.904 536.63 277.904C537.122 277.904 537.56 277.807 537.941 277.614C538.323 277.415 538.622 277.146 538.838 276.809C539.059 276.471 539.17 276.089 539.17 275.663V272.874C539.17 272.321 539.001 271.9 538.664 271.612C538.332 271.319 537.831 271.172 537.161 271.172C536.624 271.172 536.184 271.269 535.841 271.463C535.498 271.651 535.269 271.919 535.152 272.268L535.144 272.293H533.7L533.708 272.243C533.785 271.773 533.979 271.363 534.289 271.015C534.604 270.66 535.011 270.387 535.509 270.193C536.007 269.994 536.575 269.894 537.211 269.894C537.941 269.894 538.558 270.013 539.062 270.251C539.571 270.489 539.956 270.832 540.216 271.28C540.481 271.723 540.614 272.254 540.614 272.874V279H539.17V277.68H539.037C538.849 277.996 538.619 278.264 538.348 278.485C538.083 278.707 537.781 278.875 537.443 278.992C537.106 279.102 536.735 279.158 536.331 279.158ZM543.254 279V270.052H544.698V271.38H544.831C545.003 270.91 545.293 270.544 545.703 270.284C546.112 270.024 546.618 269.894 547.222 269.894C547.36 269.894 547.496 269.902 547.628 269.919C547.767 269.93 547.872 269.941 547.944 269.952V271.355C547.794 271.327 547.648 271.308 547.504 271.297C547.366 271.28 547.216 271.272 547.056 271.272C546.596 271.272 546.19 271.363 545.835 271.546C545.481 271.729 545.202 271.983 544.997 272.31C544.798 272.636 544.698 273.018 544.698 273.455V279H543.254ZM549.812 279V266.499H551.256V279H549.812ZM554.792 282.138C554.698 282.138 554.593 282.132 554.477 282.121C554.36 282.116 554.252 282.104 554.153 282.088V280.901C554.241 280.917 554.338 280.929 554.443 280.934C554.549 280.94 554.651 280.942 554.75 280.942C555.16 280.942 555.495 280.837 555.755 280.627C556.021 280.417 556.234 280.054 556.394 279.54L556.56 279.008L553.248 270.052H554.792L557.548 278.319L556.975 277.415H557.656L557.083 278.319L559.831 270.052H561.35L557.855 279.548C557.606 280.217 557.346 280.74 557.075 281.117C556.809 281.493 556.494 281.756 556.128 281.905C555.769 282.06 555.323 282.138 554.792 282.138ZM570.572 279L567.26 270.052H568.787L571.236 277.423H571.369L573.817 270.052H575.345L572.033 279H570.572ZM577.287 279V270.052H578.731V279H577.287ZM578.018 268.325C577.746 268.325 577.511 268.228 577.312 268.035C577.118 267.835 577.021 267.6 577.021 267.329C577.021 267.052 577.118 266.817 577.312 266.624C577.511 266.43 577.746 266.333 578.018 266.333C578.294 266.333 578.529 266.43 578.723 266.624C578.917 266.817 579.014 267.052 579.014 267.329C579.014 267.6 578.917 267.835 578.723 268.035C578.529 268.228 578.294 268.325 578.018 268.325ZM584.525 279.158C583.861 279.158 583.275 279.058 582.766 278.859C582.257 278.654 581.847 278.369 581.537 278.004C581.233 277.639 581.053 277.21 580.998 276.717H582.475C582.597 277.088 582.835 277.387 583.189 277.614C583.543 277.841 584.005 277.954 584.575 277.954C584.979 277.954 585.333 277.896 585.638 277.78C585.948 277.658 586.191 277.495 586.368 277.29C586.545 277.08 586.634 276.839 586.634 276.568V276.551C586.634 276.247 586.512 275.99 586.269 275.779C586.025 275.563 585.627 275.389 585.073 275.256L583.687 274.924C582.851 274.725 582.237 274.435 581.844 274.053C581.451 273.665 581.255 273.151 581.255 272.509V272.5C581.255 272.002 581.399 271.557 581.687 271.164C581.98 270.771 582.378 270.461 582.882 270.234C583.385 270.007 583.953 269.894 584.583 269.894C585.209 269.894 585.762 269.994 586.244 270.193C586.731 270.387 587.121 270.663 587.414 271.023C587.713 271.383 587.896 271.806 587.962 272.293H586.542C586.448 271.939 586.233 271.651 585.895 271.43C585.557 271.208 585.118 271.098 584.575 271.098C584.221 271.098 583.906 271.156 583.629 271.272C583.352 271.383 583.134 271.538 582.973 271.737C582.813 271.936 582.732 272.168 582.732 272.434V272.451C582.732 272.755 582.851 273.007 583.089 273.206C583.327 273.405 583.709 273.569 584.235 273.696L585.613 274.028C586.454 274.233 587.079 274.526 587.489 274.908C587.904 275.29 588.111 275.801 588.111 276.443V276.46C588.111 276.991 587.954 277.462 587.638 277.871C587.323 278.275 586.894 278.59 586.352 278.817C585.815 279.044 585.206 279.158 584.525 279.158ZM590.386 279V270.052H591.83V279H590.386ZM591.116 268.325C590.845 268.325 590.61 268.228 590.411 268.035C590.217 267.835 590.12 267.6 590.12 267.329C590.12 267.052 590.217 266.817 590.411 266.624C590.61 266.43 590.845 266.333 591.116 266.333C591.393 266.333 591.628 266.43 591.822 266.624C592.015 266.817 592.112 267.052 592.112 267.329C592.112 267.6 592.015 267.835 591.822 268.035C591.628 268.228 591.393 268.325 591.116 268.325ZM599.002 279.158C598.382 279.158 597.832 279.019 597.35 278.743C596.869 278.46 596.49 278.07 596.213 277.572H596.08V279H594.636V266.499H596.08V271.463H596.213C596.456 270.987 596.827 270.608 597.325 270.326C597.829 270.038 598.388 269.894 599.002 269.894C599.76 269.894 600.419 270.085 600.978 270.467C601.542 270.849 601.979 271.385 602.289 272.077C602.599 272.769 602.754 273.582 602.754 274.518V274.534C602.754 275.464 602.599 276.277 602.289 276.975C601.979 277.666 601.542 278.203 600.978 278.585C600.419 278.967 599.76 279.158 599.002 279.158ZM598.67 277.879C599.218 277.879 599.685 277.747 600.073 277.481C600.46 277.21 600.756 276.825 600.961 276.327C601.171 275.824 601.276 275.226 601.276 274.534V274.518C601.276 273.82 601.171 273.223 600.961 272.725C600.756 272.227 600.46 271.845 600.073 271.579C599.685 271.308 599.218 271.172 598.67 271.172C598.128 271.172 597.66 271.308 597.267 271.579C596.874 271.85 596.573 272.235 596.362 272.733C596.152 273.231 596.047 273.826 596.047 274.518V274.534C596.047 275.22 596.152 275.815 596.362 276.319C596.573 276.817 596.874 277.201 597.267 277.473C597.66 277.744 598.128 277.879 598.67 277.879ZM605.078 279V266.499H606.522V279H605.078ZM612.947 279.158C612.095 279.158 611.362 278.97 610.748 278.593C610.139 278.217 609.668 277.686 609.336 277C609.01 276.308 608.847 275.494 608.847 274.559V274.551C608.847 273.627 609.01 272.816 609.336 272.119C609.668 271.421 610.136 270.876 610.739 270.483C611.342 270.09 612.048 269.894 612.856 269.894C613.669 269.894 614.367 270.082 614.948 270.458C615.534 270.835 615.983 271.361 616.292 272.036C616.608 272.705 616.766 273.486 616.766 274.376V274.941H609.594V273.787H616.027L615.313 274.841V274.269C615.313 273.566 615.208 272.987 614.998 272.534C614.787 272.08 614.497 271.742 614.126 271.521C613.755 271.294 613.329 271.181 612.848 271.181C612.366 271.181 611.935 271.3 611.553 271.538C611.176 271.77 610.878 272.116 610.656 272.575C610.435 273.035 610.324 273.599 610.324 274.269V274.841C610.324 275.478 610.432 276.023 610.648 276.477C610.864 276.925 611.171 277.271 611.569 277.514C611.968 277.752 612.438 277.871 612.98 277.871C613.384 277.871 613.736 277.816 614.035 277.705C614.333 277.594 614.58 277.453 614.773 277.282C614.967 277.11 615.103 276.936 615.18 276.759L615.213 276.684H616.658L616.641 276.75C616.564 277.055 616.425 277.351 616.226 277.639C616.032 277.921 615.781 278.178 615.471 278.411C615.161 278.638 614.793 278.82 614.367 278.958C613.946 279.091 613.473 279.158 612.947 279.158ZM620.186 279.083C619.892 279.083 619.638 278.978 619.422 278.768C619.212 278.552 619.106 278.297 619.106 278.004C619.106 277.705 619.212 277.451 619.422 277.24C619.638 277.03 619.892 276.925 620.186 276.925C620.484 276.925 620.739 277.03 620.949 277.24C621.16 277.451 621.265 277.705 621.265 278.004C621.265 278.297 621.16 278.552 620.949 278.768C620.739 278.978 620.484 279.083 620.186 279.083Z" fill="black"/>
<rect y="347" width="721" height="64" rx="32" fill="#007AFF"/>
<path d="M313.5 372.25H310.901L309.623 370.334C309.555 370.231 309.462 370.147 309.354 370.089C309.245 370.031 309.123 370 309 370H303C302.877 370 302.755 370.031 302.646 370.089C302.538 370.147 302.445 370.231 302.377 370.334L301.098 372.25H298.5C297.903 372.25 297.331 372.487 296.909 372.909C296.487 373.331 296.25 373.903 296.25 374.5V385C296.25 385.597 296.487 386.169 296.909 386.591C297.331 387.013 297.903 387.25 298.5 387.25H313.5C314.097 387.25 314.669 387.013 315.091 386.591C315.513 386.169 315.75 385.597 315.75 385V374.5C315.75 373.903 315.513 373.331 315.091 372.909C314.669 372.487 314.097 372.25 313.5 372.25ZM314.25 385C314.25 385.199 314.171 385.39 314.03 385.53C313.89 385.671 313.699 385.75 313.5 385.75H298.5C298.301 385.75 298.11 385.671 297.97 385.53C297.829 385.39 297.75 385.199 297.75 385V374.5C297.75 374.301 297.829 374.11 297.97 373.97C298.11 373.829 298.301 373.75 298.5 373.75H301.5C301.624 373.75 301.745 373.72 301.854 373.661C301.963 373.603 302.056 373.519 302.124 373.416L303.401 371.5H308.598L309.876 373.416C309.944 373.519 310.037 373.603 310.146 373.661C310.255 373.72 310.376 373.75 310.5 373.75H313.5C313.699 373.75 313.89 373.829 314.03 373.97C314.171 374.11 314.25 374.301 314.25 374.5V385ZM306 375.25C305.184 375.25 304.387 375.492 303.708 375.945C303.03 376.398 302.501 377.043 302.189 377.796C301.877 378.55 301.795 379.38 301.954 380.18C302.113 380.98 302.506 381.715 303.083 382.292C303.66 382.869 304.395 383.262 305.195 383.421C305.995 383.58 306.825 383.498 307.579 383.186C308.332 382.874 308.977 382.345 309.43 381.667C309.883 380.988 310.125 380.191 310.125 379.375C310.124 378.281 309.689 377.233 308.915 376.46C308.142 375.686 307.094 375.251 306 375.25ZM306 382C305.481 382 304.973 381.846 304.542 381.558C304.11 381.269 303.773 380.859 303.575 380.38C303.376 379.9 303.324 379.372 303.425 378.863C303.527 378.354 303.777 377.886 304.144 377.519C304.511 377.152 304.979 376.902 305.488 376.8C305.997 376.699 306.525 376.751 307.005 376.95C307.484 377.148 307.894 377.485 308.183 377.917C308.471 378.348 308.625 378.856 308.625 379.375C308.625 380.071 308.348 380.739 307.856 381.231C307.364 381.723 306.696 382 306 382Z" fill="white"/>
<path d="M326.581 374.79V372.98H336.16V374.79H332.458V385H330.3V374.79H326.581ZM336.11 382.46C336.11 380.435 337.795 379.845 339.464 379.737C340.095 379.688 341.381 379.629 341.78 379.613L341.771 378.891C341.771 377.994 341.199 377.479 340.145 377.479C339.198 377.479 338.617 377.911 338.451 378.559H336.409C336.559 377.023 337.937 375.869 340.194 375.869C341.904 375.869 343.88 376.575 343.88 378.974V385H341.854V383.755H341.788C341.39 384.519 340.551 385.183 339.132 385.183C337.414 385.183 336.11 384.245 336.11 382.46ZM338.152 382.443C338.152 383.224 338.792 383.622 339.68 383.622C340.966 383.622 341.788 382.775 341.788 381.763L341.78 381.024C341.398 381.041 340.219 381.115 339.796 381.148C338.792 381.231 338.152 381.655 338.152 382.443ZM345.872 385V372.98H347.997V379.604H348.146L351.384 375.985H353.857L350.363 379.87L354.073 385H351.55L348.777 381.132L347.997 381.962V385H345.872ZM358.738 385.183C356.024 385.183 354.355 383.373 354.355 380.551C354.355 377.762 356.049 375.869 358.622 375.869C360.83 375.869 362.739 377.255 362.739 380.418V381.082H356.447C356.48 382.618 357.385 383.531 358.755 383.522C359.685 383.531 360.307 383.132 360.581 382.593H362.656C362.274 384.153 360.83 385.183 358.738 385.183ZM356.456 379.638H360.714C360.706 378.409 359.875 377.513 358.655 377.513C357.385 377.513 356.53 378.492 356.456 379.638ZM368.002 382.46C368.002 380.435 369.687 379.845 371.355 379.737C371.986 379.688 373.273 379.629 373.671 379.613L373.663 378.891C373.663 377.994 373.09 377.479 372.036 377.479C371.09 377.479 370.509 377.911 370.343 378.559H368.301C368.45 377.023 369.828 375.869 372.086 375.869C373.796 375.869 375.771 376.575 375.771 378.974V385H373.746V383.755H373.68C373.281 384.519 372.443 385.183 371.023 385.183C369.305 385.183 368.002 384.245 368.002 382.46ZM370.044 382.443C370.044 383.224 370.683 383.622 371.571 383.622C372.858 383.622 373.68 382.775 373.68 381.763L373.671 381.024C373.29 381.041 372.111 381.115 371.688 381.148C370.683 381.231 370.044 381.655 370.044 382.443ZM381.798 388.387V375.985H383.873V377.463H384.006C384.33 376.824 384.994 375.869 386.596 375.869C388.671 375.869 390.306 377.496 390.314 380.501C390.306 383.464 388.721 385.158 386.596 385.166C385.043 385.158 384.338 384.236 384.006 383.572H383.923V388.387H381.798ZM383.873 380.484C383.881 382.244 384.645 383.423 386.015 383.423C387.417 383.423 388.156 382.186 388.156 380.484C388.156 378.808 387.434 377.604 386.015 377.596C384.628 377.604 383.881 378.733 383.873 380.484ZM394.1 379.721V385H391.975V372.98H394.05V377.513H394.166C394.573 376.492 395.453 375.869 396.839 375.869C398.707 375.869 399.943 377.081 399.943 379.256V385H397.835V379.588C397.827 378.359 397.171 377.654 396.059 377.662C394.913 377.654 394.1 378.409 394.1 379.721ZM405.887 385.183C403.255 385.183 401.57 383.315 401.57 380.534C401.57 377.729 403.255 375.869 405.887 375.869C408.526 375.869 410.211 377.729 410.203 380.534C410.211 383.315 408.526 385.183 405.887 385.183ZM403.712 380.518C403.712 382.169 404.434 383.489 405.903 383.489C407.348 383.489 408.07 382.169 408.062 380.518C408.07 378.866 407.348 377.538 405.903 377.546C404.434 377.538 403.712 378.866 403.712 380.518ZM416.346 375.985V377.612H414.569V382.294C414.569 383.157 415.001 383.332 415.532 383.34C415.781 383.348 416.196 383.323 416.462 383.307V385.033C416.213 385.075 415.806 385.125 415.267 385.116C413.673 385.125 412.444 384.336 412.461 382.643V377.612H411.166V375.985H412.461V373.827H414.569V375.985H416.346ZM421.808 385.183C419.176 385.183 417.491 383.315 417.491 380.534C417.491 377.729 419.176 375.869 421.808 375.869C424.447 375.869 426.132 377.729 426.124 380.534C426.132 383.315 424.447 385.183 421.808 385.183ZM419.633 380.518C419.633 382.169 420.355 383.489 421.824 383.489C423.269 383.489 423.991 382.169 423.982 380.518C423.991 378.866 423.269 377.538 421.824 377.546C420.355 377.538 419.633 378.866 419.633 380.518Z" fill="white"/>
<defs>
<clipPath id="clip0_149_455">
<rect x="206" y="57" width="109" height="122" rx="8" fill="white"/>
</clipPath>
</defs>
</svg>
