<svg width="352" height="48" viewBox="0 0 352 48" fill="none" xmlns="http://www.w3.org/2000/svg">
<line x1="188" y1="11.5" x2="315.6" y2="11.5" stroke="#007AFF"/>
<line x1="45.5996" y1="11.5" x2="180.1" y2="11.5" stroke="#007AFF"/>
<circle cx="43" cy="12" r="12" fill="#007AFF"/>
<path d="M48.3337 8L41.0003 15.3333L37.667 12" stroke="white" stroke-width="2" stroke-linecap="round" stroke-linejoin="round"/>
<path d="M5.44492 39.2881H2.8541V37.9277H5.44492C5.8961 37.9277 6.26068 37.8548 6.53867 37.709C6.81667 37.5632 7.01947 37.3626 7.14707 37.1074C7.27923 36.8477 7.34531 36.5514 7.34531 36.2188C7.34531 35.9043 7.27923 35.6104 7.14707 35.3369C7.01947 35.0589 6.81667 34.8356 6.53867 34.667C6.26068 34.4984 5.8961 34.4141 5.44492 34.4141H3.38047V43H1.66465L1.66465 33.0469H5.44492C6.21511 33.0469 6.86908 33.1836 7.40684 33.457C7.94916 33.7259 8.36159 34.0996 8.64414 34.5781C8.92669 35.0521 9.06797 35.5944 9.06797 36.2051C9.06797 36.8477 8.92669 37.3991 8.64414 37.8594C8.36159 38.3197 7.94916 38.6729 7.40684 38.9189C6.86908 39.165 6.21511 39.2881 5.44492 39.2881ZM13.707 43.1367C13.1602 43.1367 12.6657 43.0479 12.2236 42.8701C11.7861 42.6878 11.4124 42.4349 11.1025 42.1113C10.7972 41.7878 10.5625 41.4072 10.3984 40.9697C10.2344 40.5322 10.1523 40.0605 10.1523 39.5547V39.2812C10.1523 38.7025 10.2367 38.1784 10.4053 37.709C10.5739 37.2396 10.8086 36.8385 11.1094 36.5059C11.4102 36.1686 11.7656 35.9111 12.1758 35.7334C12.5859 35.5557 13.0303 35.4668 13.5088 35.4668C14.0374 35.4668 14.5 35.5557 14.8965 35.7334C15.293 35.9111 15.6211 36.1618 15.8809 36.4854C16.1452 36.8044 16.3411 37.1849 16.4688 37.627C16.6009 38.069 16.667 38.5566 16.667 39.0898V39.7939H10.9522V38.6113H15.04V38.4814C15.0309 38.1852 14.9717 37.9072 14.8623 37.6475C14.7575 37.3877 14.5957 37.1781 14.377 37.0186C14.1582 36.859 13.8665 36.7793 13.502 36.7793C13.2285 36.7793 12.9847 36.8385 12.7705 36.957C12.5609 37.071 12.3854 37.2373 12.2441 37.4561C12.1029 37.6748 11.9935 37.9391 11.916 38.249C11.8431 38.5544 11.8066 38.8984 11.8066 39.2812V39.5547C11.8066 39.8783 11.8499 40.179 11.9365 40.457C12.0277 40.7305 12.1598 40.9697 12.333 41.1748C12.5062 41.3799 12.7158 41.5417 12.9619 41.6602C13.208 41.7741 13.4883 41.8311 13.8027 41.8311C14.1992 41.8311 14.5524 41.7513 14.8623 41.5918C15.1722 41.4323 15.4411 41.2067 15.6689 40.915L16.5371 41.7559C16.3776 41.9883 16.1702 42.2116 15.915 42.4258C15.6598 42.6354 15.3477 42.8063 14.9785 42.9385C14.6139 43.0706 14.1901 43.1367 13.707 43.1367ZM19.7064 37.0117V43H18.059V35.6035H19.6313L19.7064 37.0117ZM21.9691 35.5557L21.9555 37.0869C21.8552 37.0687 21.7458 37.055 21.6273 37.0459C21.5134 37.0368 21.3995 37.0322 21.2855 37.0322C21.003 37.0322 20.7546 37.0732 20.5404 37.1553C20.3262 37.2327 20.1462 37.3467 20.0004 37.4971C19.8591 37.6429 19.7497 37.8206 19.6723 38.0303C19.5948 38.2399 19.5492 38.4746 19.5355 38.7344L19.1596 38.7617C19.1596 38.2969 19.2051 37.8662 19.2963 37.4697C19.3874 37.0732 19.5242 36.7246 19.7064 36.4238C19.8933 36.123 20.1257 35.8883 20.4037 35.7197C20.6863 35.5511 21.0121 35.4668 21.3813 35.4668C21.4815 35.4668 21.5886 35.4759 21.7025 35.4941C21.821 35.5124 21.9099 35.5329 21.9691 35.5557ZM27.2508 40.9971C27.2508 40.833 27.2098 40.6849 27.1277 40.5527C27.0457 40.416 26.8885 40.293 26.6561 40.1836C26.4282 40.0742 26.091 39.974 25.6443 39.8828C25.2524 39.7962 24.8924 39.6937 24.5643 39.5752C24.2407 39.4521 23.9627 39.304 23.7303 39.1309C23.4979 38.9577 23.3178 38.7526 23.1902 38.5156C23.0626 38.2786 22.9988 38.0052 22.9988 37.6953C22.9988 37.3945 23.0649 37.1097 23.1971 36.8408C23.3292 36.5719 23.5184 36.335 23.7645 36.1299C24.0105 35.9248 24.3091 35.763 24.66 35.6445C25.0154 35.526 25.4119 35.4668 25.8494 35.4668C26.4692 35.4668 27.0001 35.5716 27.4422 35.7812C27.8888 35.9863 28.2306 36.2666 28.4676 36.6221C28.7046 36.973 28.823 37.3695 28.823 37.8115H27.1756C27.1756 37.6156 27.1255 37.4333 27.0252 37.2646C26.9295 37.0915 26.7837 36.9525 26.5877 36.8477C26.3917 36.7383 26.1456 36.6836 25.8494 36.6836C25.5669 36.6836 25.3322 36.7292 25.1453 36.8203C24.963 36.9069 24.8263 37.0208 24.7352 37.1621C24.6486 37.3034 24.6053 37.4583 24.6053 37.627C24.6053 37.75 24.6281 37.8617 24.6736 37.9619C24.7238 38.0576 24.8058 38.1465 24.9197 38.2285C25.0337 38.306 25.1886 38.3789 25.3846 38.4473C25.5851 38.5156 25.8357 38.5817 26.1365 38.6455C26.7016 38.764 27.187 38.9167 27.5926 39.1035C28.0027 39.2858 28.3172 39.5228 28.5359 39.8145C28.7547 40.1016 28.8641 40.4661 28.8641 40.9082C28.8641 41.2363 28.7934 41.5371 28.6521 41.8105C28.5154 42.0794 28.3149 42.3141 28.0506 42.5146C27.7863 42.7106 27.4695 42.8633 27.1004 42.9727C26.7358 43.082 26.3257 43.1367 25.8699 43.1367C25.2 43.1367 24.6326 43.0182 24.1678 42.7812C23.7029 42.5397 23.3497 42.2321 23.1082 41.8584C22.8712 41.4801 22.7527 41.0882 22.7527 40.6826H24.3455C24.3637 40.988 24.448 41.2318 24.5984 41.4141C24.7534 41.5918 24.9448 41.7217 25.1727 41.8037C25.4051 41.8812 25.6443 41.9199 25.8904 41.9199C26.1867 41.9199 26.435 41.8812 26.6355 41.8037C26.8361 41.7217 26.9887 41.6123 27.0936 41.4756C27.1984 41.3343 27.2508 41.1748 27.2508 40.9971ZM30.092 39.3838V39.2266C30.092 38.6934 30.1695 38.1989 30.3244 37.7432C30.4794 37.2829 30.7027 36.8841 30.9943 36.5469C31.2906 36.2051 31.6506 35.9408 32.0744 35.7539C32.5028 35.5625 32.9859 35.4668 33.5236 35.4668C34.066 35.4668 34.549 35.5625 34.9729 35.7539C35.4012 35.9408 35.7635 36.2051 36.0598 36.5469C36.356 36.8841 36.5816 37.2829 36.7365 37.7432C36.8915 38.1989 36.9689 38.6934 36.9689 39.2266V39.3838C36.9689 39.917 36.8915 40.4115 36.7365 40.8672C36.5816 41.3229 36.356 41.7217 36.0598 42.0635C35.7635 42.4007 35.4035 42.665 34.9797 42.8564C34.5559 43.0433 34.0751 43.1367 33.5373 43.1367C32.995 43.1367 32.5096 43.0433 32.0813 42.8564C31.6574 42.665 31.2974 42.4007 31.0012 42.0635C30.7049 41.7217 30.4794 41.3229 30.3244 40.8672C30.1695 40.4115 30.092 39.917 30.092 39.3838ZM31.7395 39.2266V39.3838C31.7395 39.7165 31.7736 40.0309 31.842 40.3271C31.9104 40.6234 32.0174 40.8831 32.1633 41.1064C32.3091 41.3298 32.496 41.5052 32.7238 41.6328C32.9517 41.7604 33.2229 41.8242 33.5373 41.8242C33.8426 41.8242 34.107 41.7604 34.3303 41.6328C34.5581 41.5052 34.745 41.3298 34.8908 41.1064C35.0367 40.8831 35.1438 40.6234 35.2121 40.3271C35.285 40.0309 35.3215 39.7165 35.3215 39.3838V39.2266C35.3215 38.8984 35.285 38.5885 35.2121 38.2969C35.1438 38.0007 35.0344 37.7386 34.884 37.5107C34.7382 37.2829 34.5513 37.1051 34.3234 36.9775C34.1001 36.8454 33.8335 36.7793 33.5236 36.7793C33.2137 36.7793 32.9449 36.8454 32.717 36.9775C32.4937 37.1051 32.3091 37.2829 32.1633 37.5107C32.0174 37.7386 31.9104 38.0007 31.842 38.2969C31.7736 38.5885 31.7395 38.8984 31.7395 39.2266ZM40.0836 37.1826V43H38.4361V35.6035H39.9879L40.0836 37.1826ZM39.7896 39.0283L39.2564 39.0215C39.261 38.4974 39.3339 38.0166 39.4752 37.5791C39.621 37.1416 39.8216 36.7656 40.0768 36.4512C40.3365 36.1367 40.6464 35.8952 41.0064 35.7266C41.3665 35.5534 41.7675 35.4668 42.2096 35.4668C42.565 35.4668 42.8863 35.5169 43.1734 35.6172C43.4651 35.7129 43.7135 35.8701 43.9186 36.0889C44.1282 36.3076 44.2877 36.5924 44.3971 36.9434C44.5064 37.2897 44.5611 37.7158 44.5611 38.2217V43H42.9068V38.2148C42.9068 37.8594 42.8544 37.5791 42.7496 37.374C42.6494 37.1644 42.5012 37.0163 42.3053 36.9297C42.1139 36.8385 41.8746 36.793 41.5875 36.793C41.3049 36.793 41.052 36.8522 40.8287 36.9707C40.6054 37.0892 40.4163 37.251 40.2613 37.4561C40.1109 37.6611 39.9947 37.8981 39.9127 38.167C39.8307 38.4359 39.7896 38.723 39.7896 39.0283ZM50.5127 41.5166V37.9893C50.5127 37.7249 50.4648 37.4971 50.3691 37.3057C50.2734 37.1143 50.1276 36.9661 49.9316 36.8613C49.7402 36.7565 49.4987 36.7041 49.207 36.7041C48.9382 36.7041 48.7057 36.7497 48.5098 36.8408C48.3138 36.932 48.1611 37.055 48.0518 37.21C47.9424 37.3649 47.8877 37.5404 47.8877 37.7363H46.2471C46.2471 37.4447 46.3177 37.1621 46.459 36.8887C46.6003 36.6152 46.8053 36.3714 47.0742 36.1572C47.3431 35.943 47.6644 35.7744 48.0381 35.6514C48.4118 35.5283 48.8311 35.4668 49.2959 35.4668C49.8519 35.4668 50.3441 35.5602 50.7725 35.7471C51.2054 35.9339 51.5449 36.2165 51.791 36.5947C52.0417 36.9684 52.167 37.4378 52.167 38.0029V41.291C52.167 41.6283 52.1898 41.9313 52.2354 42.2002C52.2855 42.4645 52.3561 42.6947 52.4473 42.8906V43H50.7588C50.6813 42.8223 50.6198 42.5967 50.5742 42.3232C50.5332 42.0452 50.5127 41.7764 50.5127 41.5166ZM50.752 38.502L50.7656 39.5205H49.583C49.2777 39.5205 49.0088 39.5501 48.7764 39.6094C48.5439 39.6641 48.3503 39.7461 48.1953 39.8555C48.0404 39.9648 47.9242 40.097 47.8467 40.252C47.7692 40.4069 47.7305 40.5824 47.7305 40.7783C47.7305 40.9743 47.776 41.1543 47.8672 41.3184C47.9583 41.4779 48.0905 41.6032 48.2637 41.6943C48.4414 41.7855 48.6556 41.8311 48.9062 41.8311C49.2435 41.8311 49.5374 41.7627 49.7881 41.626C50.0433 41.4847 50.2438 41.3138 50.3896 41.1133C50.5355 40.9082 50.613 40.7145 50.6221 40.5322L51.1553 41.2637C51.1006 41.4505 51.0072 41.651 50.875 41.8652C50.7428 42.0794 50.5697 42.2845 50.3555 42.4805C50.1458 42.6719 49.8929 42.8291 49.5967 42.9521C49.305 43.0752 48.9678 43.1367 48.585 43.1367C48.1019 43.1367 47.6712 43.041 47.293 42.8496C46.9147 42.6536 46.6185 42.3916 46.4043 42.0635C46.1901 41.7308 46.083 41.3548 46.083 40.9355C46.083 40.5436 46.1559 40.1973 46.3018 39.8965C46.4521 39.5911 46.6709 39.3359 46.958 39.1309C47.2497 38.9258 47.6051 38.7708 48.0244 38.666C48.4437 38.5566 48.9222 38.502 49.46 38.502H50.752ZM55.7533 32.5V43H54.099V32.5H55.7533ZM63.2404 33.0469V43H61.5246V33.0469H63.2404ZM66.943 37.1826V43H65.2955V35.6035H66.8473L66.943 37.1826ZM66.649 39.0283L66.1158 39.0215C66.1204 38.4974 66.1933 38.0166 66.3346 37.5791C66.4804 37.1416 66.6809 36.7656 66.9361 36.4512C67.1959 36.1367 67.5058 35.8952 67.8658 35.7266C68.2258 35.5534 68.6269 35.4668 69.0689 35.4668C69.4244 35.4668 69.7457 35.5169 70.0328 35.6172C70.3245 35.7129 70.5729 35.8701 70.7779 36.0889C70.9876 36.3076 71.1471 36.5924 71.2564 36.9434C71.3658 37.2897 71.4205 37.7158 71.4205 38.2217V43H69.7662V38.2148C69.7662 37.8594 69.7138 37.5791 69.609 37.374C69.5087 37.1644 69.3606 37.0163 69.1646 36.9297C68.9732 36.8385 68.734 36.793 68.4469 36.793C68.1643 36.793 67.9114 36.8522 67.6881 36.9707C67.4648 37.0892 67.2757 37.251 67.1207 37.4561C66.9703 37.6611 66.8541 37.8981 66.7721 38.167C66.69 38.4359 66.649 38.723 66.649 39.0283ZM75.4307 43H73.7832V34.8926C73.7832 34.3411 73.8857 33.8786 74.0908 33.5049C74.3005 33.1266 74.599 32.8418 74.9863 32.6504C75.3737 32.4544 75.8317 32.3564 76.3604 32.3564C76.5244 32.3564 76.6862 32.3678 76.8457 32.3906C77.0052 32.4089 77.1602 32.4385 77.3105 32.4795L77.2695 33.751C77.1784 33.7282 77.0781 33.7122 76.9688 33.7031C76.8639 33.694 76.75 33.6895 76.627 33.6895C76.3763 33.6895 76.1598 33.7373 75.9775 33.833C75.7998 33.9242 75.6631 34.0586 75.5674 34.2363C75.4762 34.4141 75.4307 34.6328 75.4307 34.8926V43ZM76.9551 35.6035V36.8066H72.6484V35.6035H76.9551ZM77.9369 39.3838V39.2266C77.9369 38.6934 78.0144 38.1989 78.1693 37.7432C78.3243 37.2829 78.5476 36.8841 78.8393 36.5469C79.1355 36.2051 79.4955 35.9408 79.9193 35.7539C80.3477 35.5625 80.8308 35.4668 81.3686 35.4668C81.9109 35.4668 82.3939 35.5625 82.8178 35.7539C83.2462 35.9408 83.6085 36.2051 83.9047 36.5469C84.2009 36.8841 84.4265 37.2829 84.5814 37.7432C84.7364 38.1989 84.8139 38.6934 84.8139 39.2266V39.3838C84.8139 39.917 84.7364 40.4115 84.5814 40.8672C84.4265 41.3229 84.2009 41.7217 83.9047 42.0635C83.6085 42.4007 83.2484 42.665 82.8246 42.8564C82.4008 43.0433 81.92 43.1367 81.3822 43.1367C80.8399 43.1367 80.3546 43.0433 79.9262 42.8564C79.5023 42.665 79.1423 42.4007 78.8461 42.0635C78.5499 41.7217 78.3243 41.3229 78.1693 40.8672C78.0144 40.4115 77.9369 39.917 77.9369 39.3838ZM79.5844 39.2266V39.3838C79.5844 39.7165 79.6186 40.0309 79.6869 40.3271C79.7553 40.6234 79.8624 40.8831 80.0082 41.1064C80.154 41.3298 80.3409 41.5052 80.5687 41.6328C80.7966 41.7604 81.0678 41.8242 81.3822 41.8242C81.6876 41.8242 81.9519 41.7604 82.1752 41.6328C82.4031 41.5052 82.5899 41.3298 82.7357 41.1064C82.8816 40.8831 82.9887 40.6234 83.057 40.3271C83.1299 40.0309 83.1664 39.7165 83.1664 39.3838V39.2266C83.1664 38.8984 83.1299 38.5885 83.057 38.2969C82.9887 38.0007 82.8793 37.7386 82.7289 37.5107C82.5831 37.2829 82.3962 37.1051 82.1684 36.9775C81.9451 36.8454 81.6784 36.7793 81.3686 36.7793C81.0587 36.7793 80.7898 36.8454 80.5619 36.9775C80.3386 37.1051 80.154 37.2829 80.0082 37.5107C79.8624 37.7386 79.7553 38.0007 79.6869 38.2969C79.6186 38.5885 79.5844 38.8984 79.5844 39.2266Z" fill="#007AFF"/>
<circle cx="176" cy="12" r="12" fill="#007AFF"/>
<path d="M181.334 8L174 15.3333L170.667 12" stroke="white" stroke-width="2" stroke-linecap="round" stroke-linejoin="round"/>
<path d="M128.171 33.0469V43H126.455V33.0469H128.171ZM131.873 37.1826V43H130.226V35.6035H131.778L131.873 37.1826ZM131.579 39.0283L131.046 39.0215C131.051 38.4974 131.124 38.0166 131.265 37.5791C131.411 37.1416 131.611 36.7656 131.867 36.4512C132.126 36.1367 132.436 35.8952 132.796 35.7266C133.156 35.5534 133.557 35.4668 133.999 35.4668C134.355 35.4668 134.676 35.5169 134.963 35.6172C135.255 35.7129 135.503 35.8701 135.708 36.0889C135.918 36.3076 136.078 36.5924 136.187 36.9434C136.296 37.2897 136.351 37.7158 136.351 38.2217V43H134.697V38.2148C134.697 37.8594 134.644 37.5791 134.539 37.374C134.439 37.1644 134.291 37.0163 134.095 36.9297C133.904 36.8385 133.664 36.793 133.377 36.793C133.095 36.793 132.842 36.8522 132.619 36.9707C132.395 37.0892 132.206 37.251 132.051 37.4561C131.901 37.6611 131.785 37.8981 131.703 38.167C131.621 38.4359 131.579 38.723 131.579 39.0283ZM142.282 40.9971C142.282 40.833 142.241 40.6849 142.159 40.5527C142.077 40.416 141.92 40.293 141.687 40.1836C141.459 40.0742 141.122 39.974 140.676 39.8828C140.284 39.7962 139.924 39.6937 139.596 39.5752C139.272 39.4521 138.994 39.304 138.762 39.1309C138.529 38.9577 138.349 38.7526 138.221 38.5156C138.094 38.2786 138.03 38.0052 138.03 37.6953C138.03 37.3945 138.096 37.1097 138.228 36.8408C138.36 36.5719 138.55 36.335 138.796 36.1299C139.042 35.9248 139.34 35.763 139.691 35.6445C140.047 35.526 140.443 35.4668 140.881 35.4668C141.5 35.4668 142.031 35.5716 142.473 35.7812C142.92 35.9863 143.262 36.2666 143.499 36.6221C143.736 36.973 143.854 37.3695 143.854 37.8115H142.207C142.207 37.6156 142.157 37.4333 142.056 37.2646C141.961 37.0915 141.815 36.9525 141.619 36.8477C141.423 36.7383 141.177 36.6836 140.881 36.6836C140.598 36.6836 140.363 36.7292 140.177 36.8203C139.994 36.9069 139.858 37.0208 139.766 37.1621C139.68 37.3034 139.637 37.4583 139.637 37.627C139.637 37.75 139.659 37.8617 139.705 37.9619C139.755 38.0576 139.837 38.1465 139.951 38.2285C140.065 38.306 140.22 38.3789 140.416 38.4473C140.616 38.5156 140.867 38.5817 141.168 38.6455C141.733 38.764 142.218 38.9167 142.624 39.1035C143.034 39.2858 143.348 39.5228 143.567 39.8145C143.786 40.1016 143.895 40.4661 143.895 40.9082C143.895 41.2363 143.825 41.5371 143.683 41.8105C143.547 42.0794 143.346 42.3141 143.082 42.5146C142.818 42.7106 142.501 42.8633 142.132 42.9727C141.767 43.082 141.357 43.1367 140.901 43.1367C140.231 43.1367 139.664 43.0182 139.199 42.7812C138.734 42.5397 138.381 42.2321 138.139 41.8584C137.902 41.4801 137.784 41.0882 137.784 40.6826H139.377C139.395 40.988 139.479 41.2318 139.63 41.4141C139.785 41.5918 139.976 41.7217 140.204 41.8037C140.436 41.8812 140.676 41.9199 140.922 41.9199C141.218 41.9199 141.466 41.8812 141.667 41.8037C141.867 41.7217 142.02 41.6123 142.125 41.4756C142.23 41.3343 142.282 41.1748 142.282 40.9971ZM149.888 41.2568V35.6035H151.542V43H149.984L149.888 41.2568ZM150.12 39.7188L150.674 39.7051C150.674 40.2018 150.619 40.6598 150.51 41.0791C150.401 41.4938 150.232 41.8561 150.004 42.166C149.776 42.4714 149.485 42.7106 149.129 42.8838C148.774 43.0524 148.348 43.1367 147.851 43.1367C147.491 43.1367 147.16 43.0843 146.86 42.9795C146.559 42.8747 146.299 42.7129 146.08 42.4941C145.866 42.2754 145.7 41.9906 145.581 41.6396C145.463 41.2887 145.404 40.8695 145.404 40.3818V35.6035H147.051V40.3955C147.051 40.6644 147.083 40.89 147.147 41.0723C147.21 41.25 147.297 41.3936 147.406 41.5029C147.516 41.6123 147.643 41.6898 147.789 41.7354C147.935 41.7809 148.09 41.8037 148.254 41.8037C148.724 41.8037 149.093 41.7126 149.362 41.5303C149.635 41.3434 149.829 41.0928 149.943 40.7783C150.061 40.4639 150.12 40.1107 150.12 39.7188ZM154.985 37.0117V43H153.337V35.6035H154.91L154.985 37.0117ZM157.248 35.5557L157.234 37.0869C157.134 37.0687 157.024 37.055 156.906 37.0459C156.792 37.0368 156.678 37.0322 156.564 37.0322C156.282 37.0322 156.033 37.0732 155.819 37.1553C155.605 37.2327 155.425 37.3467 155.279 37.4971C155.138 37.6429 155.028 37.8206 154.951 38.0303C154.873 38.2399 154.828 38.4746 154.814 38.7344L154.438 38.7617C154.438 38.2969 154.484 37.8662 154.575 37.4697C154.666 37.0732 154.803 36.7246 154.985 36.4238C155.172 36.123 155.404 35.8883 155.682 35.7197C155.965 35.5511 156.291 35.4668 156.66 35.4668C156.76 35.4668 156.867 35.4759 156.981 35.4941C157.1 35.5124 157.188 35.5329 157.248 35.5557ZM162.304 41.5166V37.9893C162.304 37.7249 162.256 37.4971 162.16 37.3057C162.064 37.1143 161.919 36.9661 161.723 36.8613C161.531 36.7565 161.29 36.7041 160.998 36.7041C160.729 36.7041 160.497 36.7497 160.301 36.8408C160.105 36.932 159.952 37.055 159.843 37.21C159.733 37.3649 159.679 37.5404 159.679 37.7363H158.038C158.038 37.4447 158.109 37.1621 158.25 36.8887C158.391 36.6152 158.596 36.3714 158.865 36.1572C159.134 35.943 159.455 35.7744 159.829 35.6514C160.203 35.5283 160.622 35.4668 161.087 35.4668C161.643 35.4668 162.135 35.5602 162.563 35.7471C162.996 35.9339 163.336 36.2165 163.582 36.5947C163.833 36.9684 163.958 37.4378 163.958 38.0029V41.291C163.958 41.6283 163.981 41.9313 164.026 42.2002C164.076 42.4645 164.147 42.6947 164.238 42.8906V43H162.55C162.472 42.8223 162.411 42.5967 162.365 42.3232C162.324 42.0452 162.304 41.7764 162.304 41.5166ZM162.543 38.502L162.557 39.5205H161.374C161.069 39.5205 160.8 39.5501 160.567 39.6094C160.335 39.6641 160.141 39.7461 159.986 39.8555C159.831 39.9648 159.715 40.097 159.638 40.252C159.56 40.4069 159.521 40.5824 159.521 40.7783C159.521 40.9743 159.567 41.1543 159.658 41.3184C159.749 41.4779 159.882 41.6032 160.055 41.6943C160.232 41.7855 160.447 41.8311 160.697 41.8311C161.035 41.8311 161.328 41.7627 161.579 41.626C161.834 41.4847 162.035 41.3138 162.181 41.1133C162.326 40.9082 162.404 40.7145 162.413 40.5322L162.946 41.2637C162.892 41.4505 162.798 41.651 162.666 41.8652C162.534 42.0794 162.361 42.2845 162.146 42.4805C161.937 42.6719 161.684 42.8291 161.388 42.9521C161.096 43.0752 160.759 43.1367 160.376 43.1367C159.893 43.1367 159.462 43.041 159.084 42.8496C158.706 42.6536 158.41 42.3916 158.195 42.0635C157.981 41.7308 157.874 41.3548 157.874 40.9355C157.874 40.5436 157.947 40.1973 158.093 39.8965C158.243 39.5911 158.462 39.3359 158.749 39.1309C159.041 38.9258 159.396 38.7708 159.815 38.666C160.235 38.5566 160.713 38.502 161.251 38.502H162.543ZM167.414 37.1826V43H165.767V35.6035H167.319L167.414 37.1826ZM167.121 39.0283L166.587 39.0215C166.592 38.4974 166.665 38.0166 166.806 37.5791C166.952 37.1416 167.152 36.7656 167.408 36.4512C167.667 36.1367 167.977 35.8952 168.337 35.7266C168.697 35.5534 169.098 35.4668 169.54 35.4668C169.896 35.4668 170.217 35.5169 170.504 35.6172C170.796 35.7129 171.044 35.8701 171.249 36.0889C171.459 36.3076 171.619 36.5924 171.728 36.9434C171.837 37.2897 171.892 37.7158 171.892 38.2217V43H170.238V38.2148C170.238 37.8594 170.185 37.5791 170.08 37.374C169.98 37.1644 169.832 37.0163 169.636 36.9297C169.445 36.8385 169.205 36.793 168.918 36.793C168.636 36.793 168.383 36.8522 168.16 36.9707C167.936 37.0892 167.747 37.251 167.592 37.4561C167.442 37.6611 167.326 37.8981 167.244 38.167C167.162 38.4359 167.121 38.723 167.121 39.0283ZM176.695 41.8242C176.964 41.8242 177.206 41.7718 177.42 41.667C177.638 41.5576 177.814 41.4072 177.946 41.2158C178.083 41.0244 178.158 40.8034 178.172 40.5527H179.723C179.714 41.0312 179.573 41.4665 179.3 41.8584C179.026 42.2503 178.664 42.5625 178.213 42.7949C177.762 43.0228 177.263 43.1367 176.716 43.1367C176.151 43.1367 175.658 43.041 175.239 42.8496C174.82 42.6536 174.471 42.3848 174.193 42.043C173.915 41.7012 173.706 41.307 173.564 40.8604C173.428 40.4137 173.359 39.9352 173.359 39.4248V39.1855C173.359 38.6751 173.428 38.1966 173.564 37.75C173.706 37.2988 173.915 36.9023 174.193 36.5605C174.471 36.2188 174.82 35.9521 175.239 35.7607C175.658 35.5648 176.148 35.4668 176.709 35.4668C177.301 35.4668 177.821 35.5853 178.267 35.8223C178.714 36.0547 179.065 36.3805 179.32 36.7998C179.58 37.2145 179.714 37.6976 179.723 38.249H178.172C178.158 37.9756 178.09 37.7295 177.967 37.5107C177.848 37.2874 177.679 37.1097 177.461 36.9775C177.247 36.8454 176.989 36.7793 176.688 36.7793C176.356 36.7793 176.08 36.8477 175.861 36.9844C175.642 37.1165 175.471 37.2988 175.348 37.5312C175.225 37.7591 175.137 38.0166 175.082 38.3037C175.032 38.5863 175.007 38.8802 175.007 39.1855V39.4248C175.007 39.7301 175.032 40.0264 175.082 40.3135C175.132 40.6006 175.219 40.8581 175.342 41.0859C175.469 41.3092 175.642 41.4893 175.861 41.626C176.08 41.7581 176.358 41.8242 176.695 41.8242ZM184.349 43.1367C183.802 43.1367 183.307 43.0479 182.865 42.8701C182.428 42.6878 182.054 42.4349 181.744 42.1113C181.439 41.7878 181.204 41.4072 181.04 40.9697C180.876 40.5322 180.794 40.0605 180.794 39.5547V39.2812C180.794 38.7025 180.878 38.1784 181.047 37.709C181.216 37.2396 181.45 36.8385 181.751 36.5059C182.052 36.1686 182.407 35.9111 182.818 35.7334C183.228 35.5557 183.672 35.4668 184.151 35.4668C184.679 35.4668 185.142 35.5557 185.538 35.7334C185.935 35.9111 186.263 36.1618 186.523 36.4854C186.787 36.8044 186.983 37.1849 187.111 37.627C187.243 38.069 187.309 38.5566 187.309 39.0898V39.7939H181.594V38.6113H185.682V38.4814C185.673 38.1852 185.613 37.9072 185.504 37.6475C185.399 37.3877 185.237 37.1781 185.019 37.0186C184.8 36.859 184.508 36.7793 184.144 36.7793C183.87 36.7793 183.626 36.8385 183.412 36.957C183.203 37.071 183.027 37.2373 182.886 37.4561C182.745 37.6748 182.635 37.9391 182.558 38.249C182.485 38.5544 182.448 38.8984 182.448 39.2812V39.5547C182.448 39.8783 182.492 40.179 182.578 40.457C182.669 40.7305 182.802 40.9697 182.975 41.1748C183.148 41.3799 183.358 41.5417 183.604 41.6602C183.85 41.7741 184.13 41.8311 184.445 41.8311C184.841 41.8311 185.194 41.7513 185.504 41.5918C185.814 41.4323 186.083 41.2067 186.311 40.915L187.179 41.7559C187.019 41.9883 186.812 42.2116 186.557 42.4258C186.302 42.6354 185.989 42.8063 185.62 42.9385C185.256 43.0706 184.832 43.1367 184.349 43.1367ZM196.792 41.4688V32.5H198.446V43H196.949L196.792 41.4688ZM191.979 39.3838V39.2402C191.979 38.6797 192.046 38.1693 192.178 37.709C192.31 37.2441 192.501 36.8454 192.752 36.5127C193.003 36.1755 193.308 35.918 193.668 35.7402C194.028 35.5579 194.434 35.4668 194.885 35.4668C195.331 35.4668 195.723 35.5534 196.061 35.7266C196.398 35.8997 196.685 36.1481 196.922 36.4717C197.159 36.7907 197.348 37.1735 197.489 37.6201C197.631 38.0622 197.731 38.5544 197.79 39.0967V39.5547C197.731 40.0833 197.631 40.5664 197.489 41.0039C197.348 41.4414 197.159 41.8197 196.922 42.1387C196.685 42.4577 196.396 42.7038 196.054 42.877C195.716 43.0501 195.322 43.1367 194.871 43.1367C194.424 43.1367 194.021 43.0433 193.661 42.8564C193.306 42.6696 193.003 42.4076 192.752 42.0703C192.501 41.7331 192.31 41.3366 192.178 40.8809C192.046 40.4206 191.979 39.9215 191.979 39.3838ZM193.627 39.2402V39.3838C193.627 39.721 193.657 40.0355 193.716 40.3271C193.78 40.6188 193.878 40.8763 194.01 41.0996C194.142 41.3184 194.313 41.4915 194.522 41.6191C194.737 41.7422 194.992 41.8037 195.288 41.8037C195.662 41.8037 195.969 41.7217 196.211 41.5576C196.452 41.3936 196.642 41.1725 196.778 40.8945C196.92 40.612 197.015 40.2975 197.065 39.9512V38.7139C197.038 38.445 196.981 38.1943 196.895 37.9619C196.812 37.7295 196.701 37.5267 196.56 37.3535C196.418 37.1758 196.243 37.0391 196.033 36.9434C195.828 36.8431 195.584 36.793 195.302 36.793C195.001 36.793 194.746 36.8568 194.536 36.9844C194.326 37.112 194.153 37.2874 194.017 37.5107C193.884 37.734 193.786 37.9938 193.723 38.29C193.659 38.5863 193.627 38.903 193.627 39.2402ZM203.53 43.1367C202.983 43.1367 202.488 43.0479 202.046 42.8701C201.609 42.6878 201.235 42.4349 200.925 42.1113C200.62 41.7878 200.385 41.4072 200.221 40.9697C200.057 40.5322 199.975 40.0605 199.975 39.5547V39.2812C199.975 38.7025 200.059 38.1784 200.228 37.709C200.397 37.2396 200.631 36.8385 200.932 36.5059C201.233 36.1686 201.588 35.9111 201.998 35.7334C202.409 35.5557 202.853 35.4668 203.331 35.4668C203.86 35.4668 204.323 35.5557 204.719 35.7334C205.116 35.9111 205.444 36.1618 205.704 36.4854C205.968 36.8044 206.164 37.1849 206.291 37.627C206.424 38.069 206.49 38.5566 206.49 39.0898V39.7939H200.775V38.6113H204.863V38.4814C204.854 38.1852 204.794 37.9072 204.685 37.6475C204.58 37.3877 204.418 37.1781 204.2 37.0186C203.981 36.859 203.689 36.7793 203.325 36.7793C203.051 36.7793 202.807 36.8385 202.593 36.957C202.384 37.071 202.208 37.2373 202.067 37.4561C201.926 37.6748 201.816 37.9391 201.739 38.249C201.666 38.5544 201.629 38.8984 201.629 39.2812V39.5547C201.629 39.8783 201.673 40.179 201.759 40.457C201.85 40.7305 201.982 40.9697 202.156 41.1748C202.329 41.3799 202.538 41.5417 202.785 41.6602C203.031 41.7741 203.311 41.8311 203.625 41.8311C204.022 41.8311 204.375 41.7513 204.685 41.5918C204.995 41.4323 205.264 41.2067 205.492 40.915L206.36 41.7559C206.2 41.9883 205.993 42.2116 205.738 42.4258C205.482 42.6354 205.17 42.8063 204.801 42.9385C204.437 43.0706 204.013 43.1367 203.53 43.1367ZM211.265 35.6035V36.8066H207.096V35.6035H211.265ZM208.299 33.792H209.946V40.9561C209.946 41.1839 209.978 41.3594 210.042 41.4824C210.11 41.6009 210.204 41.6807 210.322 41.7217C210.441 41.7627 210.58 41.7832 210.739 41.7832C210.853 41.7832 210.962 41.7764 211.067 41.7627C211.172 41.749 211.256 41.7354 211.32 41.7217L211.327 42.9795C211.19 43.0205 211.031 43.057 210.848 43.0889C210.671 43.1208 210.466 43.1367 210.233 43.1367C209.855 43.1367 209.52 43.0706 209.228 42.9385C208.937 42.8018 208.709 42.5807 208.545 42.2754C208.381 41.9701 208.299 41.5645 208.299 41.0586V33.792ZM216.807 41.5166V37.9893C216.807 37.7249 216.759 37.4971 216.663 37.3057C216.568 37.1143 216.422 36.9661 216.226 36.8613C216.034 36.7565 215.793 36.7041 215.501 36.7041C215.232 36.7041 215 36.7497 214.804 36.8408C214.608 36.932 214.455 37.055 214.346 37.21C214.237 37.3649 214.182 37.5404 214.182 37.7363H212.541C212.541 37.4447 212.612 37.1621 212.753 36.8887C212.894 36.6152 213.099 36.3714 213.368 36.1572C213.637 35.943 213.959 35.7744 214.332 35.6514C214.706 35.5283 215.125 35.4668 215.59 35.4668C216.146 35.4668 216.638 35.5602 217.067 35.7471C217.5 35.9339 217.839 36.2165 218.085 36.5947C218.336 36.9684 218.461 37.4378 218.461 38.0029V41.291C218.461 41.6283 218.484 41.9313 218.529 42.2002C218.58 42.4645 218.65 42.6947 218.741 42.8906V43H217.053C216.975 42.8223 216.914 42.5967 216.868 42.3232C216.827 42.0452 216.807 41.7764 216.807 41.5166ZM217.046 38.502L217.06 39.5205H215.877C215.572 39.5205 215.303 39.5501 215.071 39.6094C214.838 39.6641 214.644 39.7461 214.489 39.8555C214.335 39.9648 214.218 40.097 214.141 40.252C214.063 40.4069 214.025 40.5824 214.025 40.7783C214.025 40.9743 214.07 41.1543 214.161 41.3184C214.252 41.4779 214.385 41.6032 214.558 41.6943C214.736 41.7855 214.95 41.8311 215.2 41.8311C215.538 41.8311 215.832 41.7627 216.082 41.626C216.337 41.4847 216.538 41.3138 216.684 41.1133C216.83 40.9082 216.907 40.7145 216.916 40.5322L217.449 41.2637C217.395 41.4505 217.301 41.651 217.169 41.8652C217.037 42.0794 216.864 42.2845 216.65 42.4805C216.44 42.6719 216.187 42.8291 215.891 42.9521C215.599 43.0752 215.262 43.1367 214.879 43.1367C214.396 43.1367 213.965 43.041 213.587 42.8496C213.209 42.6536 212.913 42.3916 212.698 42.0635C212.484 41.7308 212.377 41.3548 212.377 40.9355C212.377 40.5436 212.45 40.1973 212.596 39.8965C212.746 39.5911 212.965 39.3359 213.252 39.1309C213.544 38.9258 213.899 38.7708 214.319 38.666C214.738 38.5566 215.216 38.502 215.754 38.502H217.046ZM222.047 35.6035V43H220.393V35.6035H222.047ZM220.284 33.6621C220.284 33.4115 220.366 33.2041 220.53 33.04C220.699 32.8714 220.931 32.7871 221.227 32.7871C221.519 32.7871 221.749 32.8714 221.918 33.04C222.086 33.2041 222.171 33.4115 222.171 33.6621C222.171 33.9082 222.086 34.1133 221.918 34.2773C221.749 34.4414 221.519 34.5234 221.227 34.5234C220.931 34.5234 220.699 34.4414 220.53 34.2773C220.366 34.1133 220.284 33.9082 220.284 33.6621ZM225.716 32.5V43H224.062V32.5H225.716Z" fill="#007AFF"/>
<circle cx="309" cy="12" r="11.56" fill="white" stroke="#007AFF" stroke-width="0.88"/>
<path d="M305.837 9.506C305.863 8.65667 306.162 7.998 306.734 7.53C307.315 7.05333 308.069 6.815 308.996 6.815C309.932 6.815 310.664 7.05333 311.193 7.53C311.722 7.998 311.986 8.59167 311.986 9.311C311.986 9.86567 311.843 10.3337 311.557 10.715C311.271 11.0877 310.95 11.3347 310.595 11.456V11.508C311.635 11.8633 312.155 12.6477 312.155 13.861C312.155 14.667 311.878 15.317 311.323 15.811C310.768 16.305 310.006 16.552 309.035 16.552C308.064 16.552 307.271 16.305 306.656 15.811C306.041 15.317 305.72 14.5933 305.694 13.64H307.462C307.479 14.0647 307.622 14.407 307.891 14.667C308.168 14.9183 308.537 15.044 308.996 15.044C309.455 15.044 309.802 14.9227 310.036 14.68C310.279 14.4287 310.4 14.0733 310.4 13.614C310.4 13.1547 310.235 12.8167 309.906 12.6C309.585 12.3747 309.074 12.262 308.372 12.262H307.995V10.767H308.372C309.603 10.767 310.218 10.3553 310.218 9.532C310.218 9.17667 310.105 8.895 309.88 8.687C309.655 8.479 309.334 8.375 308.918 8.375C308.502 8.375 308.19 8.492 307.982 8.726C307.774 8.96 307.653 9.22 307.618 9.506H305.837Z" fill="#007AFF"/>
<path d="M278.884 34.373L275.911 43H274.113L277.859 33.0469H279.007L278.884 34.373ZM281.372 43L278.392 34.373L278.262 33.0469H279.417L283.177 43H281.372ZM281.229 39.3086V40.6689H275.815V39.3086H281.229ZM288.965 35.6035H290.462V42.7949C290.462 43.4603 290.32 44.0254 290.038 44.4902C289.755 44.9551 289.361 45.3083 288.855 45.5498C288.349 45.7959 287.764 45.9189 287.098 45.9189C286.816 45.9189 286.501 45.8779 286.155 45.7959C285.813 45.7139 285.481 45.5817 285.157 45.3994C284.838 45.2217 284.571 44.987 284.357 44.6953L285.13 43.7246C285.394 44.0391 285.686 44.2692 286.005 44.415C286.324 44.5609 286.659 44.6338 287.01 44.6338C287.388 44.6338 287.709 44.5632 287.973 44.4219C288.242 44.2852 288.45 44.0824 288.596 43.8135C288.741 43.5446 288.814 43.2165 288.814 42.8291V37.2783L288.965 35.6035ZM283.94 39.3838V39.2402C283.94 38.6797 284.009 38.1693 284.145 37.709C284.282 37.2441 284.478 36.8454 284.733 36.5127C284.988 36.1755 285.298 35.918 285.663 35.7402C286.027 35.5579 286.44 35.4668 286.9 35.4668C287.379 35.4668 287.787 35.5534 288.124 35.7266C288.466 35.8997 288.75 36.1481 288.978 36.4717C289.206 36.7907 289.384 37.1735 289.512 37.6201C289.644 38.0622 289.742 38.5544 289.805 39.0967V39.5547C289.746 40.0833 289.646 40.5664 289.505 41.0039C289.363 41.4414 289.177 41.8197 288.944 42.1387C288.712 42.4577 288.425 42.7038 288.083 42.877C287.746 43.0501 287.347 43.1367 286.887 43.1367C286.435 43.1367 286.027 43.0433 285.663 42.8564C285.303 42.6696 284.993 42.4076 284.733 42.0703C284.478 41.7331 284.282 41.3366 284.145 40.8809C284.009 40.4206 283.94 39.9215 283.94 39.3838ZM285.588 39.2402V39.3838C285.588 39.721 285.62 40.0355 285.683 40.3271C285.752 40.6188 285.854 40.8763 285.991 41.0996C286.132 41.3184 286.31 41.4915 286.524 41.6191C286.743 41.7422 287 41.8037 287.297 41.8037C287.684 41.8037 288.001 41.7217 288.247 41.5576C288.498 41.3936 288.689 41.1725 288.821 40.8945C288.958 40.612 289.054 40.2975 289.108 39.9512V38.7139C289.081 38.445 289.024 38.1943 288.937 37.9619C288.855 37.7295 288.744 37.5267 288.602 37.3535C288.461 37.1758 288.283 37.0391 288.069 36.9434C287.855 36.8431 287.602 36.793 287.31 36.793C287.014 36.793 286.757 36.8568 286.538 36.9844C286.319 37.112 286.139 37.2874 285.998 37.5107C285.861 37.734 285.759 37.9938 285.69 38.29C285.622 38.5863 285.588 38.903 285.588 39.2402ZM293.925 37.0117V43H292.278V35.6035H293.85L293.925 37.0117ZM296.188 35.5557L296.174 37.0869C296.074 37.0687 295.964 37.055 295.846 37.0459C295.732 37.0368 295.618 37.0322 295.504 37.0322C295.222 37.0322 294.973 37.0732 294.759 37.1553C294.545 37.2327 294.365 37.3467 294.219 37.4971C294.078 37.6429 293.968 37.8206 293.891 38.0303C293.813 38.2399 293.768 38.4746 293.754 38.7344L293.378 38.7617C293.378 38.2969 293.424 37.8662 293.515 37.4697C293.606 37.0732 293.743 36.7246 293.925 36.4238C294.112 36.123 294.344 35.8883 294.622 35.7197C294.905 35.5511 295.231 35.4668 295.6 35.4668C295.7 35.4668 295.807 35.4759 295.921 35.4941C296.04 35.5124 296.128 35.5329 296.188 35.5557ZM300.444 43.1367C299.897 43.1367 299.403 43.0479 298.961 42.8701C298.523 42.6878 298.149 42.4349 297.839 42.1113C297.534 41.7878 297.299 41.4072 297.135 40.9697C296.971 40.5322 296.889 40.0605 296.889 39.5547V39.2812C296.889 38.7025 296.974 38.1784 297.142 37.709C297.311 37.2396 297.546 36.8385 297.846 36.5059C298.147 36.1686 298.503 35.9111 298.913 35.7334C299.323 35.5557 299.767 35.4668 300.246 35.4668C300.774 35.4668 301.237 35.5557 301.633 35.7334C302.03 35.9111 302.358 36.1618 302.618 36.4854C302.882 36.8044 303.078 37.1849 303.206 37.627C303.338 38.069 303.404 38.5566 303.404 39.0898V39.7939H297.689V38.6113H301.777V38.4814C301.768 38.1852 301.709 37.9072 301.599 37.6475C301.494 37.3877 301.333 37.1781 301.114 37.0186C300.895 36.859 300.603 36.7793 300.239 36.7793C299.965 36.7793 299.722 36.8385 299.507 36.957C299.298 37.071 299.122 37.2373 298.981 37.4561C298.84 37.6748 298.73 37.9391 298.653 38.249C298.58 38.5544 298.544 38.8984 298.544 39.2812V39.5547C298.544 39.8783 298.587 40.179 298.673 40.457C298.765 40.7305 298.897 40.9697 299.07 41.1748C299.243 41.3799 299.453 41.5417 299.699 41.6602C299.945 41.7741 300.225 41.8311 300.54 41.8311C300.936 41.8311 301.289 41.7513 301.599 41.5918C301.909 41.4323 302.178 41.2067 302.406 40.915L303.274 41.7559C303.115 41.9883 302.907 42.2116 302.652 42.4258C302.397 42.6354 302.085 42.8063 301.715 42.9385C301.351 43.0706 300.927 43.1367 300.444 43.1367ZM308.05 43.1367C307.503 43.1367 307.008 43.0479 306.566 42.8701C306.129 42.6878 305.755 42.4349 305.445 42.1113C305.14 41.7878 304.905 41.4072 304.741 40.9697C304.577 40.5322 304.495 40.0605 304.495 39.5547V39.2812C304.495 38.7025 304.579 38.1784 304.748 37.709C304.917 37.2396 305.151 36.8385 305.452 36.5059C305.753 36.1686 306.108 35.9111 306.519 35.7334C306.929 35.5557 307.373 35.4668 307.852 35.4668C308.38 35.4668 308.843 35.5557 309.239 35.7334C309.636 35.9111 309.964 36.1618 310.224 36.4854C310.488 36.8044 310.684 37.1849 310.812 37.627C310.944 38.069 311.01 38.5566 311.01 39.0898V39.7939H305.295V38.6113H309.383V38.4814C309.374 38.1852 309.314 37.9072 309.205 37.6475C309.1 37.3877 308.938 37.1781 308.72 37.0186C308.501 36.859 308.209 36.7793 307.845 36.7793C307.571 36.7793 307.327 36.8385 307.113 36.957C306.904 37.071 306.728 37.2373 306.587 37.4561C306.446 37.6748 306.336 37.9391 306.259 38.249C306.186 38.5544 306.149 38.8984 306.149 39.2812V39.5547C306.149 39.8783 306.193 40.179 306.279 40.457C306.37 40.7305 306.503 40.9697 306.676 41.1748C306.849 41.3799 307.059 41.5417 307.305 41.6602C307.551 41.7741 307.831 41.8311 308.146 41.8311C308.542 41.8311 308.895 41.7513 309.205 41.5918C309.515 41.4323 309.784 41.2067 310.012 40.915L310.88 41.7559C310.72 41.9883 310.513 42.2116 310.258 42.4258C310.003 42.6354 309.69 42.8063 309.321 42.9385C308.957 43.0706 308.533 43.1367 308.05 43.1367ZM314.042 37.1074V43H312.395V35.6035H313.947L314.042 37.1074ZM313.776 39.0283L313.215 39.0215C313.215 38.5111 313.279 38.0394 313.407 37.6064C313.534 37.1735 313.721 36.7975 313.967 36.4785C314.213 36.1549 314.519 35.9066 314.883 35.7334C315.252 35.5557 315.678 35.4668 316.162 35.4668C316.499 35.4668 316.806 35.5169 317.084 35.6172C317.367 35.7129 317.611 35.8656 317.816 36.0752C318.025 36.2848 318.185 36.5537 318.294 36.8818C318.408 37.21 318.465 37.6064 318.465 38.0713V43H316.818V38.2148C316.818 37.8548 316.763 37.5723 316.654 37.3672C316.549 37.1621 316.396 37.0163 316.196 36.9297C316 36.8385 315.765 36.793 315.492 36.793C315.182 36.793 314.917 36.8522 314.699 36.9707C314.484 37.0892 314.309 37.251 314.172 37.4561C314.036 37.6611 313.935 37.8981 313.871 38.167C313.808 38.4359 313.776 38.723 313.776 39.0283ZM318.363 38.5908L317.59 38.7617C317.59 38.3151 317.652 37.8936 317.775 37.4971C317.902 37.096 318.087 36.7451 318.329 36.4443C318.575 36.139 318.878 35.8997 319.238 35.7266C319.598 35.5534 320.01 35.4668 320.475 35.4668C320.853 35.4668 321.19 35.5192 321.487 35.624C321.787 35.7243 322.043 35.8838 322.252 36.1025C322.462 36.3213 322.621 36.6061 322.731 36.957C322.84 37.3034 322.895 37.7227 322.895 38.2148V43H321.241V38.208C321.241 37.8343 321.186 37.5449 321.077 37.3398C320.972 37.1348 320.821 36.9935 320.625 36.916C320.429 36.834 320.195 36.793 319.921 36.793C319.666 36.793 319.44 36.8408 319.245 36.9365C319.053 37.0277 318.891 37.1576 318.759 37.3262C318.627 37.4902 318.527 37.6794 318.458 37.8936C318.395 38.1077 318.363 38.3402 318.363 38.5908ZM327.951 43.1367C327.404 43.1367 326.91 43.0479 326.468 42.8701C326.03 42.6878 325.656 42.4349 325.346 42.1113C325.041 41.7878 324.806 41.4072 324.642 40.9697C324.478 40.5322 324.396 40.0605 324.396 39.5547V39.2812C324.396 38.7025 324.481 38.1784 324.649 37.709C324.818 37.2396 325.053 36.8385 325.353 36.5059C325.654 36.1686 326.01 35.9111 326.42 35.7334C326.83 35.5557 327.274 35.4668 327.753 35.4668C328.281 35.4668 328.744 35.5557 329.14 35.7334C329.537 35.9111 329.865 36.1618 330.125 36.4854C330.389 36.8044 330.585 37.1849 330.713 37.627C330.845 38.069 330.911 38.5566 330.911 39.0898V39.7939H325.196V38.6113H329.284V38.4814C329.275 38.1852 329.216 37.9072 329.106 37.6475C329.001 37.3877 328.84 37.1781 328.621 37.0186C328.402 36.859 328.11 36.7793 327.746 36.7793C327.472 36.7793 327.229 36.8385 327.014 36.957C326.805 37.071 326.629 37.2373 326.488 37.4561C326.347 37.6748 326.237 37.9391 326.16 38.249C326.087 38.5544 326.051 38.8984 326.051 39.2812V39.5547C326.051 39.8783 326.094 40.179 326.18 40.457C326.272 40.7305 326.404 40.9697 326.577 41.1748C326.75 41.3799 326.96 41.5417 327.206 41.6602C327.452 41.7741 327.732 41.8311 328.047 41.8311C328.443 41.8311 328.796 41.7513 329.106 41.5918C329.416 41.4323 329.685 41.2067 329.913 40.915L330.781 41.7559C330.622 41.9883 330.414 42.2116 330.159 42.4258C329.904 42.6354 329.592 42.8063 329.222 42.9385C328.858 43.0706 328.434 43.1367 327.951 43.1367ZM333.93 37.1826V43H332.282V35.6035H333.834L333.93 37.1826ZM333.636 39.0283L333.103 39.0215C333.107 38.4974 333.18 38.0166 333.321 37.5791C333.467 37.1416 333.668 36.7656 333.923 36.4512C334.183 36.1367 334.493 35.8952 334.853 35.7266C335.213 35.5534 335.614 35.4668 336.056 35.4668C336.411 35.4668 336.733 35.5169 337.02 35.6172C337.311 35.7129 337.56 35.8701 337.765 36.0889C337.974 36.3076 338.134 36.5924 338.243 36.9434C338.353 37.2897 338.407 37.7158 338.407 38.2217V43H336.753V38.2148C336.753 37.8594 336.701 37.5791 336.596 37.374C336.496 37.1644 336.348 37.0163 336.152 36.9297C335.96 36.8385 335.721 36.793 335.434 36.793C335.151 36.793 334.898 36.8522 334.675 36.9707C334.452 37.0892 334.263 37.251 334.108 37.4561C333.957 37.6611 333.841 37.8981 333.759 38.167C333.677 38.4359 333.636 38.723 333.636 39.0283ZM343.58 35.6035V36.8066H339.41V35.6035H343.58ZM340.613 33.792H342.26V40.9561C342.26 41.1839 342.292 41.3594 342.356 41.4824C342.424 41.6009 342.518 41.6807 342.636 41.7217C342.755 41.7627 342.894 41.7832 343.053 41.7832C343.167 41.7832 343.277 41.7764 343.381 41.7627C343.486 41.749 343.571 41.7354 343.634 41.7217L343.641 42.9795C343.504 43.0205 343.345 43.057 343.163 43.0889C342.985 43.1208 342.78 43.1367 342.547 43.1367C342.169 43.1367 341.834 43.0706 341.543 42.9385C341.251 42.8018 341.023 42.5807 340.859 42.2754C340.695 41.9701 340.613 41.5645 340.613 41.0586V33.792Z" fill="#007AFF"/>
</svg>
