<svg width="368" height="48" viewBox="0 0 368 48" fill="none" xmlns="http://www.w3.org/2000/svg">
<line x1="187.5" y1="11.5" x2="315.1" y2="11.5" stroke="#E0E0E0"/>
<line x1="45.1001" y1="11.5" x2="179.6" y2="11.5" stroke="#007AFF"/>
<circle cx="42.5" cy="12" r="12" fill="#007AFF"/>
<path d="M47.8334 8L40.5001 15.3333L37.1667 12" stroke="white" stroke-width="2" stroke-linecap="round" stroke-linejoin="round"/>
<path d="M4.94492 39.2881H2.3541V37.9277H4.94492C5.3961 37.9277 5.76068 37.8548 6.03867 37.709C6.31667 37.5632 6.51947 37.3626 6.64707 37.1074C6.77923 36.8477 6.84531 36.5514 6.84531 36.2188C6.84531 35.9043 6.77923 35.6104 6.64707 35.3369C6.51947 35.0589 6.31667 34.8356 6.03867 34.667C5.76068 34.4984 5.3961 34.4141 4.94492 34.4141H2.88047V43H1.16465L1.16465 33.0469H4.94492C5.71511 33.0469 6.36908 33.1836 6.90684 33.457C7.44916 33.7259 7.86159 34.0996 8.14414 34.5781C8.42669 35.0521 8.56797 35.5944 8.56797 36.2051C8.56797 36.8477 8.42669 37.3991 8.14414 37.8594C7.86159 38.3197 7.44916 38.6729 6.90684 38.9189C6.36908 39.165 5.71511 39.2881 4.94492 39.2881ZM13.207 43.1367C12.6602 43.1367 12.1657 43.0479 11.7236 42.8701C11.2861 42.6878 10.9124 42.4349 10.6025 42.1113C10.2972 41.7878 10.0625 41.4072 9.89844 40.9697C9.73438 40.5322 9.65235 40.0605 9.65235 39.5547V39.2812C9.65235 38.7025 9.73666 38.1784 9.90528 37.709C10.0739 37.2396 10.3086 36.8385 10.6094 36.5059C10.9102 36.1686 11.2656 35.9111 11.6758 35.7334C12.0859 35.5557 12.5303 35.4668 13.0088 35.4668C13.5374 35.4668 14 35.5557 14.3965 35.7334C14.793 35.9111 15.1211 36.1618 15.3809 36.4854C15.6452 36.8044 15.8411 37.1849 15.9688 37.627C16.1009 38.069 16.167 38.5566 16.167 39.0898V39.7939H10.4522V38.6113H14.54V38.4814C14.5309 38.1852 14.4717 37.9072 14.3623 37.6475C14.2575 37.3877 14.0957 37.1781 13.877 37.0186C13.6582 36.859 13.3665 36.7793 13.002 36.7793C12.7285 36.7793 12.4847 36.8385 12.2705 36.957C12.0609 37.071 11.8854 37.2373 11.7441 37.4561C11.6029 37.6748 11.4935 37.9391 11.416 38.249C11.3431 38.5544 11.3066 38.8984 11.3066 39.2812V39.5547C11.3066 39.8783 11.3499 40.179 11.4365 40.457C11.5277 40.7305 11.6598 40.9697 11.833 41.1748C12.0062 41.3799 12.2158 41.5417 12.4619 41.6602C12.708 41.7741 12.9883 41.8311 13.3027 41.8311C13.6992 41.8311 14.0524 41.7513 14.3623 41.5918C14.6722 41.4323 14.9411 41.2067 15.1689 40.915L16.0371 41.7559C15.8776 41.9883 15.6702 42.2116 15.415 42.4258C15.1598 42.6354 14.8477 42.8063 14.4785 42.9385C14.1139 43.0706 13.6901 43.1367 13.207 43.1367ZM19.2064 37.0117V43H17.559V35.6035H19.1313L19.2064 37.0117ZM21.4691 35.5557L21.4555 37.0869C21.3552 37.0687 21.2458 37.055 21.1273 37.0459C21.0134 37.0368 20.8995 37.0322 20.7855 37.0322C20.503 37.0322 20.2546 37.0732 20.0404 37.1553C19.8262 37.2327 19.6462 37.3467 19.5004 37.4971C19.3591 37.6429 19.2497 37.8206 19.1723 38.0303C19.0948 38.2399 19.0492 38.4746 19.0355 38.7344L18.6596 38.7617C18.6596 38.2969 18.7051 37.8662 18.7963 37.4697C18.8874 37.0732 19.0242 36.7246 19.2064 36.4238C19.3933 36.123 19.6257 35.8883 19.9037 35.7197C20.1863 35.5511 20.5121 35.4668 20.8813 35.4668C20.9815 35.4668 21.0886 35.4759 21.2025 35.4941C21.321 35.5124 21.4099 35.5329 21.4691 35.5557ZM26.7508 40.9971C26.7508 40.833 26.7098 40.6849 26.6277 40.5527C26.5457 40.416 26.3885 40.293 26.1561 40.1836C25.9282 40.0742 25.591 39.974 25.1443 39.8828C24.7524 39.7962 24.3924 39.6937 24.0643 39.5752C23.7407 39.4521 23.4627 39.304 23.2303 39.1309C22.9979 38.9577 22.8178 38.7526 22.6902 38.5156C22.5626 38.2786 22.4988 38.0052 22.4988 37.6953C22.4988 37.3945 22.5649 37.1097 22.6971 36.8408C22.8292 36.5719 23.0184 36.335 23.2645 36.1299C23.5105 35.9248 23.8091 35.763 24.16 35.6445C24.5154 35.526 24.9119 35.4668 25.3494 35.4668C25.9692 35.4668 26.5001 35.5716 26.9422 35.7812C27.3888 35.9863 27.7306 36.2666 27.9676 36.6221C28.2046 36.973 28.323 37.3695 28.323 37.8115H26.6756C26.6756 37.6156 26.6255 37.4333 26.5252 37.2646C26.4295 37.0915 26.2837 36.9525 26.0877 36.8477C25.8917 36.7383 25.6456 36.6836 25.3494 36.6836C25.0669 36.6836 24.8322 36.7292 24.6453 36.8203C24.463 36.9069 24.3263 37.0208 24.2352 37.1621C24.1486 37.3034 24.1053 37.4583 24.1053 37.627C24.1053 37.75 24.1281 37.8617 24.1736 37.9619C24.2238 38.0576 24.3058 38.1465 24.4197 38.2285C24.5337 38.306 24.6886 38.3789 24.8846 38.4473C25.0851 38.5156 25.3357 38.5817 25.6365 38.6455C26.2016 38.764 26.687 38.9167 27.0926 39.1035C27.5027 39.2858 27.8172 39.5228 28.0359 39.8145C28.2547 40.1016 28.3641 40.4661 28.3641 40.9082C28.3641 41.2363 28.2934 41.5371 28.1521 41.8105C28.0154 42.0794 27.8149 42.3141 27.5506 42.5146C27.2863 42.7106 26.9695 42.8633 26.6004 42.9727C26.2358 43.082 25.8257 43.1367 25.3699 43.1367C24.7 43.1367 24.1326 43.0182 23.6678 42.7812C23.2029 42.5397 22.8497 42.2321 22.6082 41.8584C22.3712 41.4801 22.2527 41.0882 22.2527 40.6826H23.8455C23.8637 40.988 23.948 41.2318 24.0984 41.4141C24.2534 41.5918 24.4448 41.7217 24.6727 41.8037C24.9051 41.8812 25.1443 41.9199 25.3904 41.9199C25.6867 41.9199 25.935 41.8812 26.1355 41.8037C26.3361 41.7217 26.4887 41.6123 26.5936 41.4756C26.6984 41.3343 26.7508 41.1748 26.7508 40.9971ZM29.592 39.3838V39.2266C29.592 38.6934 29.6695 38.1989 29.8244 37.7432C29.9794 37.2829 30.2027 36.8841 30.4943 36.5469C30.7906 36.2051 31.1506 35.9408 31.5744 35.7539C32.0028 35.5625 32.4859 35.4668 33.0236 35.4668C33.566 35.4668 34.049 35.5625 34.4729 35.7539C34.9012 35.9408 35.2635 36.2051 35.5598 36.5469C35.856 36.8841 36.0816 37.2829 36.2365 37.7432C36.3915 38.1989 36.4689 38.6934 36.4689 39.2266V39.3838C36.4689 39.917 36.3915 40.4115 36.2365 40.8672C36.0816 41.3229 35.856 41.7217 35.5598 42.0635C35.2635 42.4007 34.9035 42.665 34.4797 42.8564C34.0559 43.0433 33.5751 43.1367 33.0373 43.1367C32.495 43.1367 32.0096 43.0433 31.5813 42.8564C31.1574 42.665 30.7974 42.4007 30.5012 42.0635C30.2049 41.7217 29.9794 41.3229 29.8244 40.8672C29.6695 40.4115 29.592 39.917 29.592 39.3838ZM31.2395 39.2266V39.3838C31.2395 39.7165 31.2736 40.0309 31.342 40.3271C31.4104 40.6234 31.5174 40.8831 31.6633 41.1064C31.8091 41.3298 31.996 41.5052 32.2238 41.6328C32.4517 41.7604 32.7229 41.8242 33.0373 41.8242C33.3426 41.8242 33.607 41.7604 33.8303 41.6328C34.0581 41.5052 34.245 41.3298 34.3908 41.1064C34.5367 40.8831 34.6438 40.6234 34.7121 40.3271C34.785 40.0309 34.8215 39.7165 34.8215 39.3838V39.2266C34.8215 38.8984 34.785 38.5885 34.7121 38.2969C34.6438 38.0007 34.5344 37.7386 34.384 37.5107C34.2382 37.2829 34.0513 37.1051 33.8234 36.9775C33.6001 36.8454 33.3335 36.7793 33.0236 36.7793C32.7137 36.7793 32.4449 36.8454 32.217 36.9775C31.9937 37.1051 31.8091 37.2829 31.6633 37.5107C31.5174 37.7386 31.4104 38.0007 31.342 38.2969C31.2736 38.5885 31.2395 38.8984 31.2395 39.2266ZM39.5836 37.1826V43H37.9361V35.6035H39.4879L39.5836 37.1826ZM39.2896 39.0283L38.7564 39.0215C38.761 38.4974 38.8339 38.0166 38.9752 37.5791C39.121 37.1416 39.3216 36.7656 39.5768 36.4512C39.8365 36.1367 40.1464 35.8952 40.5064 35.7266C40.8665 35.5534 41.2675 35.4668 41.7096 35.4668C42.065 35.4668 42.3863 35.5169 42.6734 35.6172C42.9651 35.7129 43.2135 35.8701 43.4186 36.0889C43.6282 36.3076 43.7877 36.5924 43.8971 36.9434C44.0064 37.2897 44.0611 37.7158 44.0611 38.2217V43H42.4068V38.2148C42.4068 37.8594 42.3544 37.5791 42.2496 37.374C42.1494 37.1644 42.0012 37.0163 41.8053 36.9297C41.6139 36.8385 41.3746 36.793 41.0875 36.793C40.8049 36.793 40.552 36.8522 40.3287 36.9707C40.1054 37.0892 39.9163 37.251 39.7613 37.4561C39.6109 37.6611 39.4947 37.8981 39.4127 38.167C39.3307 38.4359 39.2896 38.723 39.2896 39.0283ZM50.0127 41.5166V37.9893C50.0127 37.7249 49.9648 37.4971 49.8691 37.3057C49.7734 37.1143 49.6276 36.9661 49.4316 36.8613C49.2402 36.7565 48.9987 36.7041 48.707 36.7041C48.4382 36.7041 48.2057 36.7497 48.0098 36.8408C47.8138 36.932 47.6611 37.055 47.5518 37.21C47.4424 37.3649 47.3877 37.5404 47.3877 37.7363H45.7471C45.7471 37.4447 45.8177 37.1621 45.959 36.8887C46.1003 36.6152 46.3053 36.3714 46.5742 36.1572C46.8431 35.943 47.1644 35.7744 47.5381 35.6514C47.9118 35.5283 48.3311 35.4668 48.7959 35.4668C49.3519 35.4668 49.8441 35.5602 50.2725 35.7471C50.7054 35.9339 51.0449 36.2165 51.291 36.5947C51.5417 36.9684 51.667 37.4378 51.667 38.0029V41.291C51.667 41.6283 51.6898 41.9313 51.7354 42.2002C51.7855 42.4645 51.8561 42.6947 51.9473 42.8906V43H50.2588C50.1813 42.8223 50.1198 42.5967 50.0742 42.3232C50.0332 42.0452 50.0127 41.7764 50.0127 41.5166ZM50.252 38.502L50.2656 39.5205H49.083C48.7777 39.5205 48.5088 39.5501 48.2764 39.6094C48.0439 39.6641 47.8503 39.7461 47.6953 39.8555C47.5404 39.9648 47.4242 40.097 47.3467 40.252C47.2692 40.4069 47.2305 40.5824 47.2305 40.7783C47.2305 40.9743 47.276 41.1543 47.3672 41.3184C47.4583 41.4779 47.5905 41.6032 47.7637 41.6943C47.9414 41.7855 48.1556 41.8311 48.4062 41.8311C48.7435 41.8311 49.0374 41.7627 49.2881 41.626C49.5433 41.4847 49.7438 41.3138 49.8896 41.1133C50.0355 40.9082 50.113 40.7145 50.1221 40.5322L50.6553 41.2637C50.6006 41.4505 50.5072 41.651 50.375 41.8652C50.2428 42.0794 50.0697 42.2845 49.8555 42.4805C49.6458 42.6719 49.3929 42.8291 49.0967 42.9521C48.805 43.0752 48.4678 43.1367 48.085 43.1367C47.6019 43.1367 47.1712 43.041 46.793 42.8496C46.4147 42.6536 46.1185 42.3916 45.9043 42.0635C45.6901 41.7308 45.583 41.3548 45.583 40.9355C45.583 40.5436 45.6559 40.1973 45.8018 39.8965C45.9521 39.5911 46.1709 39.3359 46.458 39.1309C46.7497 38.9258 47.1051 38.7708 47.5244 38.666C47.9437 38.5566 48.4222 38.502 48.96 38.502H50.252ZM55.2533 32.5V43H53.599V32.5H55.2533ZM62.7404 33.0469V43H61.0246V33.0469H62.7404ZM66.443 37.1826V43H64.7955V35.6035H66.3473L66.443 37.1826ZM66.149 39.0283L65.6158 39.0215C65.6204 38.4974 65.6933 38.0166 65.8346 37.5791C65.9804 37.1416 66.1809 36.7656 66.4361 36.4512C66.6959 36.1367 67.0058 35.8952 67.3658 35.7266C67.7258 35.5534 68.1269 35.4668 68.5689 35.4668C68.9244 35.4668 69.2457 35.5169 69.5328 35.6172C69.8245 35.7129 70.0729 35.8701 70.2779 36.0889C70.4876 36.3076 70.6471 36.5924 70.7564 36.9434C70.8658 37.2897 70.9205 37.7158 70.9205 38.2217V43H69.2662V38.2148C69.2662 37.8594 69.2138 37.5791 69.109 37.374C69.0087 37.1644 68.8606 37.0163 68.6646 36.9297C68.4732 36.8385 68.234 36.793 67.9469 36.793C67.6643 36.793 67.4114 36.8522 67.1881 36.9707C66.9648 37.0892 66.7757 37.251 66.6207 37.4561C66.4703 37.6611 66.3541 37.8981 66.2721 38.167C66.19 38.4359 66.149 38.723 66.149 39.0283ZM74.9307 43H73.2832V34.8926C73.2832 34.3411 73.3857 33.8786 73.5908 33.5049C73.8005 33.1266 74.099 32.8418 74.4863 32.6504C74.8737 32.4544 75.3317 32.3564 75.8604 32.3564C76.0244 32.3564 76.1862 32.3678 76.3457 32.3906C76.5052 32.4089 76.6602 32.4385 76.8105 32.4795L76.7695 33.751C76.6784 33.7282 76.5781 33.7122 76.4688 33.7031C76.3639 33.694 76.25 33.6895 76.127 33.6895C75.8763 33.6895 75.6598 33.7373 75.4775 33.833C75.2998 33.9242 75.1631 34.0586 75.0674 34.2363C74.9762 34.4141 74.9307 34.6328 74.9307 34.8926V43ZM76.4551 35.6035V36.8066H72.1484V35.6035H76.4551ZM77.4369 39.3838V39.2266C77.4369 38.6934 77.5144 38.1989 77.6693 37.7432C77.8243 37.2829 78.0476 36.8841 78.3393 36.5469C78.6355 36.2051 78.9955 35.9408 79.4193 35.7539C79.8477 35.5625 80.3308 35.4668 80.8686 35.4668C81.4109 35.4668 81.8939 35.5625 82.3178 35.7539C82.7462 35.9408 83.1085 36.2051 83.4047 36.5469C83.7009 36.8841 83.9265 37.2829 84.0814 37.7432C84.2364 38.1989 84.3139 38.6934 84.3139 39.2266V39.3838C84.3139 39.917 84.2364 40.4115 84.0814 40.8672C83.9265 41.3229 83.7009 41.7217 83.4047 42.0635C83.1085 42.4007 82.7484 42.665 82.3246 42.8564C81.9008 43.0433 81.42 43.1367 80.8822 43.1367C80.3399 43.1367 79.8546 43.0433 79.4262 42.8564C79.0023 42.665 78.6423 42.4007 78.3461 42.0635C78.0499 41.7217 77.8243 41.3229 77.6693 40.8672C77.5144 40.4115 77.4369 39.917 77.4369 39.3838ZM79.0844 39.2266V39.3838C79.0844 39.7165 79.1186 40.0309 79.1869 40.3271C79.2553 40.6234 79.3624 40.8831 79.5082 41.1064C79.654 41.3298 79.8409 41.5052 80.0687 41.6328C80.2966 41.7604 80.5678 41.8242 80.8822 41.8242C81.1876 41.8242 81.4519 41.7604 81.6752 41.6328C81.9031 41.5052 82.0899 41.3298 82.2357 41.1064C82.3816 40.8831 82.4887 40.6234 82.557 40.3271C82.6299 40.0309 82.6664 39.7165 82.6664 39.3838V39.2266C82.6664 38.8984 82.6299 38.5885 82.557 38.2969C82.4887 38.0007 82.3793 37.7386 82.2289 37.5107C82.0831 37.2829 81.8962 37.1051 81.6684 36.9775C81.4451 36.8454 81.1784 36.7793 80.8686 36.7793C80.5587 36.7793 80.2898 36.8454 80.0619 36.9775C79.8386 37.1051 79.654 37.2829 79.5082 37.5107C79.3624 37.7386 79.2553 38.0007 79.1869 38.2969C79.1186 38.5885 79.0844 38.8984 79.0844 39.2266Z" fill="#007AFF"/>
<circle cx="184" cy="12" r="11.56" fill="white" stroke="#007AFF" stroke-width="0.88"/>
<path d="M180.466 16.87V15.531C180.691 15.3317 181.038 15.0327 181.506 14.634C181.974 14.2267 182.325 13.919 182.559 13.711C182.793 13.503 183.079 13.23 183.417 12.892C183.763 12.5453 184.019 12.255 184.184 12.021C184.608 11.4143 184.821 10.877 184.821 10.409C184.821 9.49033 184.396 9.031 183.547 9.031C183.131 9.031 182.806 9.16967 182.572 9.447C182.338 9.72433 182.216 10.1057 182.208 10.591H180.44C180.448 9.577 180.743 8.80567 181.324 8.277C181.913 7.74833 182.68 7.484 183.625 7.484C184.569 7.484 185.31 7.75267 185.848 8.29C186.385 8.82733 186.654 9.50333 186.654 10.318C186.654 10.9247 186.498 11.488 186.186 12.008C186.03 12.2853 185.878 12.5323 185.731 12.749C185.583 12.957 185.371 13.1997 185.094 13.477C184.825 13.7543 184.613 13.971 184.457 14.127C184.301 14.283 184.062 14.504 183.742 14.79C183.43 15.0673 183.213 15.2623 183.092 15.375H186.875V16.87H180.466Z" fill="#007AFF"/>
<path d="M136.171 33.0469V43H134.455V33.0469H136.171ZM139.873 37.1826V43H138.226V35.6035H139.778L139.873 37.1826ZM139.579 39.0283L139.046 39.0215C139.051 38.4974 139.124 38.0166 139.265 37.5791C139.411 37.1416 139.611 36.7656 139.867 36.4512C140.126 36.1367 140.436 35.8952 140.796 35.7266C141.156 35.5534 141.557 35.4668 141.999 35.4668C142.355 35.4668 142.676 35.5169 142.963 35.6172C143.255 35.7129 143.503 35.8701 143.708 36.0889C143.918 36.3076 144.078 36.5924 144.187 36.9434C144.296 37.2897 144.351 37.7158 144.351 38.2217V43H142.697V38.2148C142.697 37.8594 142.644 37.5791 142.539 37.374C142.439 37.1644 142.291 37.0163 142.095 36.9297C141.904 36.8385 141.664 36.793 141.377 36.793C141.095 36.793 140.842 36.8522 140.619 36.9707C140.395 37.0892 140.206 37.251 140.051 37.4561C139.901 37.6611 139.785 37.8981 139.703 38.167C139.621 38.4359 139.579 38.723 139.579 39.0283ZM150.282 40.9971C150.282 40.833 150.241 40.6849 150.159 40.5527C150.077 40.416 149.92 40.293 149.687 40.1836C149.459 40.0742 149.122 39.974 148.676 39.8828C148.284 39.7962 147.924 39.6937 147.596 39.5752C147.272 39.4521 146.994 39.304 146.762 39.1309C146.529 38.9577 146.349 38.7526 146.221 38.5156C146.094 38.2786 146.03 38.0052 146.03 37.6953C146.03 37.3945 146.096 37.1097 146.228 36.8408C146.36 36.5719 146.55 36.335 146.796 36.1299C147.042 35.9248 147.34 35.763 147.691 35.6445C148.047 35.526 148.443 35.4668 148.881 35.4668C149.5 35.4668 150.031 35.5716 150.473 35.7812C150.92 35.9863 151.262 36.2666 151.499 36.6221C151.736 36.973 151.854 37.3695 151.854 37.8115H150.207C150.207 37.6156 150.157 37.4333 150.056 37.2646C149.961 37.0915 149.815 36.9525 149.619 36.8477C149.423 36.7383 149.177 36.6836 148.881 36.6836C148.598 36.6836 148.363 36.7292 148.177 36.8203C147.994 36.9069 147.858 37.0208 147.766 37.1621C147.68 37.3034 147.637 37.4583 147.637 37.627C147.637 37.75 147.659 37.8617 147.705 37.9619C147.755 38.0576 147.837 38.1465 147.951 38.2285C148.065 38.306 148.22 38.3789 148.416 38.4473C148.616 38.5156 148.867 38.5817 149.168 38.6455C149.733 38.764 150.218 38.9167 150.624 39.1035C151.034 39.2858 151.348 39.5228 151.567 39.8145C151.786 40.1016 151.895 40.4661 151.895 40.9082C151.895 41.2363 151.825 41.5371 151.683 41.8105C151.547 42.0794 151.346 42.3141 151.082 42.5146C150.818 42.7106 150.501 42.8633 150.132 42.9727C149.767 43.082 149.357 43.1367 148.901 43.1367C148.231 43.1367 147.664 43.0182 147.199 42.7812C146.734 42.5397 146.381 42.2321 146.139 41.8584C145.902 41.4801 145.784 41.0882 145.784 40.6826H147.377C147.395 40.988 147.479 41.2318 147.63 41.4141C147.785 41.5918 147.976 41.7217 148.204 41.8037C148.436 41.8812 148.676 41.9199 148.922 41.9199C149.218 41.9199 149.466 41.8812 149.667 41.8037C149.867 41.7217 150.02 41.6123 150.125 41.4756C150.23 41.3343 150.282 41.1748 150.282 40.9971ZM157.888 41.2568V35.6035H159.542V43H157.984L157.888 41.2568ZM158.12 39.7188L158.674 39.7051C158.674 40.2018 158.619 40.6598 158.51 41.0791C158.401 41.4938 158.232 41.8561 158.004 42.166C157.776 42.4714 157.485 42.7106 157.129 42.8838C156.774 43.0524 156.348 43.1367 155.851 43.1367C155.491 43.1367 155.16 43.0843 154.86 42.9795C154.559 42.8747 154.299 42.7129 154.08 42.4941C153.866 42.2754 153.7 41.9906 153.581 41.6396C153.463 41.2887 153.404 40.8695 153.404 40.3818V35.6035H155.051V40.3955C155.051 40.6644 155.083 40.89 155.147 41.0723C155.21 41.25 155.297 41.3936 155.406 41.5029C155.516 41.6123 155.643 41.6898 155.789 41.7354C155.935 41.7809 156.09 41.8037 156.254 41.8037C156.724 41.8037 157.093 41.7126 157.362 41.5303C157.635 41.3434 157.829 41.0928 157.943 40.7783C158.061 40.4639 158.12 40.1107 158.12 39.7188ZM162.985 37.0117V43H161.337V35.6035H162.91L162.985 37.0117ZM165.248 35.5557L165.234 37.0869C165.134 37.0687 165.024 37.055 164.906 37.0459C164.792 37.0368 164.678 37.0322 164.564 37.0322C164.282 37.0322 164.033 37.0732 163.819 37.1553C163.605 37.2327 163.425 37.3467 163.279 37.4971C163.138 37.6429 163.028 37.8206 162.951 38.0303C162.873 38.2399 162.828 38.4746 162.814 38.7344L162.438 38.7617C162.438 38.2969 162.484 37.8662 162.575 37.4697C162.666 37.0732 162.803 36.7246 162.985 36.4238C163.172 36.123 163.404 35.8883 163.682 35.7197C163.965 35.5511 164.291 35.4668 164.66 35.4668C164.76 35.4668 164.867 35.4759 164.981 35.4941C165.1 35.5124 165.188 35.5329 165.248 35.5557ZM170.304 41.5166V37.9893C170.304 37.7249 170.256 37.4971 170.16 37.3057C170.064 37.1143 169.919 36.9661 169.723 36.8613C169.531 36.7565 169.29 36.7041 168.998 36.7041C168.729 36.7041 168.497 36.7497 168.301 36.8408C168.105 36.932 167.952 37.055 167.843 37.21C167.733 37.3649 167.679 37.5404 167.679 37.7363H166.038C166.038 37.4447 166.109 37.1621 166.25 36.8887C166.391 36.6152 166.596 36.3714 166.865 36.1572C167.134 35.943 167.455 35.7744 167.829 35.6514C168.203 35.5283 168.622 35.4668 169.087 35.4668C169.643 35.4668 170.135 35.5602 170.563 35.7471C170.996 35.9339 171.336 36.2165 171.582 36.5947C171.833 36.9684 171.958 37.4378 171.958 38.0029V41.291C171.958 41.6283 171.981 41.9313 172.026 42.2002C172.076 42.4645 172.147 42.6947 172.238 42.8906V43H170.55C170.472 42.8223 170.411 42.5967 170.365 42.3232C170.324 42.0452 170.304 41.7764 170.304 41.5166ZM170.543 38.502L170.557 39.5205H169.374C169.069 39.5205 168.8 39.5501 168.567 39.6094C168.335 39.6641 168.141 39.7461 167.986 39.8555C167.831 39.9648 167.715 40.097 167.638 40.252C167.56 40.4069 167.521 40.5824 167.521 40.7783C167.521 40.9743 167.567 41.1543 167.658 41.3184C167.749 41.4779 167.882 41.6032 168.055 41.6943C168.232 41.7855 168.447 41.8311 168.697 41.8311C169.035 41.8311 169.328 41.7627 169.579 41.626C169.834 41.4847 170.035 41.3138 170.181 41.1133C170.326 40.9082 170.404 40.7145 170.413 40.5322L170.946 41.2637C170.892 41.4505 170.798 41.651 170.666 41.8652C170.534 42.0794 170.361 42.2845 170.146 42.4805C169.937 42.6719 169.684 42.8291 169.388 42.9521C169.096 43.0752 168.759 43.1367 168.376 43.1367C167.893 43.1367 167.462 43.041 167.084 42.8496C166.706 42.6536 166.41 42.3916 166.195 42.0635C165.981 41.7308 165.874 41.3548 165.874 40.9355C165.874 40.5436 165.947 40.1973 166.093 39.8965C166.243 39.5911 166.462 39.3359 166.749 39.1309C167.041 38.9258 167.396 38.7708 167.815 38.666C168.235 38.5566 168.713 38.502 169.251 38.502H170.543ZM175.414 37.1826V43H173.767V35.6035H175.319L175.414 37.1826ZM175.121 39.0283L174.587 39.0215C174.592 38.4974 174.665 38.0166 174.806 37.5791C174.952 37.1416 175.152 36.7656 175.408 36.4512C175.667 36.1367 175.977 35.8952 176.337 35.7266C176.697 35.5534 177.098 35.4668 177.54 35.4668C177.896 35.4668 178.217 35.5169 178.504 35.6172C178.796 35.7129 179.044 35.8701 179.249 36.0889C179.459 36.3076 179.619 36.5924 179.728 36.9434C179.837 37.2897 179.892 37.7158 179.892 38.2217V43H178.238V38.2148C178.238 37.8594 178.185 37.5791 178.08 37.374C177.98 37.1644 177.832 37.0163 177.636 36.9297C177.445 36.8385 177.205 36.793 176.918 36.793C176.636 36.793 176.383 36.8522 176.16 36.9707C175.936 37.0892 175.747 37.251 175.592 37.4561C175.442 37.6611 175.326 37.8981 175.244 38.167C175.162 38.4359 175.121 38.723 175.121 39.0283ZM184.695 41.8242C184.964 41.8242 185.206 41.7718 185.42 41.667C185.638 41.5576 185.814 41.4072 185.946 41.2158C186.083 41.0244 186.158 40.8034 186.172 40.5527H187.723C187.714 41.0312 187.573 41.4665 187.3 41.8584C187.026 42.2503 186.664 42.5625 186.213 42.7949C185.762 43.0228 185.263 43.1367 184.716 43.1367C184.151 43.1367 183.658 43.041 183.239 42.8496C182.82 42.6536 182.471 42.3848 182.193 42.043C181.915 41.7012 181.706 41.307 181.564 40.8604C181.428 40.4137 181.359 39.9352 181.359 39.4248V39.1855C181.359 38.6751 181.428 38.1966 181.564 37.75C181.706 37.2988 181.915 36.9023 182.193 36.5605C182.471 36.2188 182.82 35.9521 183.239 35.7607C183.658 35.5648 184.148 35.4668 184.709 35.4668C185.301 35.4668 185.821 35.5853 186.267 35.8223C186.714 36.0547 187.065 36.3805 187.32 36.7998C187.58 37.2145 187.714 37.6976 187.723 38.249H186.172C186.158 37.9756 186.09 37.7295 185.967 37.5107C185.848 37.2874 185.679 37.1097 185.461 36.9775C185.247 36.8454 184.989 36.7793 184.688 36.7793C184.356 36.7793 184.08 36.8477 183.861 36.9844C183.642 37.1165 183.471 37.2988 183.348 37.5312C183.225 37.7591 183.137 38.0166 183.082 38.3037C183.032 38.5863 183.007 38.8802 183.007 39.1855V39.4248C183.007 39.7301 183.032 40.0264 183.082 40.3135C183.132 40.6006 183.219 40.8581 183.342 41.0859C183.469 41.3092 183.642 41.4893 183.861 41.626C184.08 41.7581 184.358 41.8242 184.695 41.8242ZM192.349 43.1367C191.802 43.1367 191.307 43.0479 190.865 42.8701C190.428 42.6878 190.054 42.4349 189.744 42.1113C189.439 41.7878 189.204 41.4072 189.04 40.9697C188.876 40.5322 188.794 40.0605 188.794 39.5547V39.2812C188.794 38.7025 188.878 38.1784 189.047 37.709C189.216 37.2396 189.45 36.8385 189.751 36.5059C190.052 36.1686 190.407 35.9111 190.818 35.7334C191.228 35.5557 191.672 35.4668 192.151 35.4668C192.679 35.4668 193.142 35.5557 193.538 35.7334C193.935 35.9111 194.263 36.1618 194.523 36.4854C194.787 36.8044 194.983 37.1849 195.111 37.627C195.243 38.069 195.309 38.5566 195.309 39.0898V39.7939H189.594V38.6113H193.682V38.4814C193.673 38.1852 193.613 37.9072 193.504 37.6475C193.399 37.3877 193.237 37.1781 193.019 37.0186C192.8 36.859 192.508 36.7793 192.144 36.7793C191.87 36.7793 191.626 36.8385 191.412 36.957C191.203 37.071 191.027 37.2373 190.886 37.4561C190.745 37.6748 190.635 37.9391 190.558 38.249C190.485 38.5544 190.448 38.8984 190.448 39.2812V39.5547C190.448 39.8783 190.492 40.179 190.578 40.457C190.669 40.7305 190.802 40.9697 190.975 41.1748C191.148 41.3799 191.358 41.5417 191.604 41.6602C191.85 41.7741 192.13 41.8311 192.445 41.8311C192.841 41.8311 193.194 41.7513 193.504 41.5918C193.814 41.4323 194.083 41.2067 194.311 40.915L195.179 41.7559C195.019 41.9883 194.812 42.2116 194.557 42.4258C194.302 42.6354 193.989 42.8063 193.62 42.9385C193.256 43.0706 192.832 43.1367 192.349 43.1367ZM204.792 41.4688V32.5H206.446V43H204.949L204.792 41.4688ZM199.979 39.3838V39.2402C199.979 38.6797 200.046 38.1693 200.178 37.709C200.31 37.2441 200.501 36.8454 200.752 36.5127C201.003 36.1755 201.308 35.918 201.668 35.7402C202.028 35.5579 202.434 35.4668 202.885 35.4668C203.331 35.4668 203.723 35.5534 204.061 35.7266C204.398 35.8997 204.685 36.1481 204.922 36.4717C205.159 36.7907 205.348 37.1735 205.489 37.6201C205.631 38.0622 205.731 38.5544 205.79 39.0967V39.5547C205.731 40.0833 205.631 40.5664 205.489 41.0039C205.348 41.4414 205.159 41.8197 204.922 42.1387C204.685 42.4577 204.396 42.7038 204.054 42.877C203.716 43.0501 203.322 43.1367 202.871 43.1367C202.424 43.1367 202.021 43.0433 201.661 42.8564C201.306 42.6696 201.003 42.4076 200.752 42.0703C200.501 41.7331 200.31 41.3366 200.178 40.8809C200.046 40.4206 199.979 39.9215 199.979 39.3838ZM201.627 39.2402V39.3838C201.627 39.721 201.657 40.0355 201.716 40.3271C201.78 40.6188 201.878 40.8763 202.01 41.0996C202.142 41.3184 202.313 41.4915 202.522 41.6191C202.737 41.7422 202.992 41.8037 203.288 41.8037C203.662 41.8037 203.969 41.7217 204.211 41.5576C204.452 41.3936 204.642 41.1725 204.778 40.8945C204.92 40.612 205.015 40.2975 205.065 39.9512V38.7139C205.038 38.445 204.981 38.1943 204.895 37.9619C204.812 37.7295 204.701 37.5267 204.56 37.3535C204.418 37.1758 204.243 37.0391 204.033 36.9434C203.828 36.8431 203.584 36.793 203.302 36.793C203.001 36.793 202.746 36.8568 202.536 36.9844C202.326 37.112 202.153 37.2874 202.017 37.5107C201.884 37.734 201.786 37.9938 201.723 38.29C201.659 38.5863 201.627 38.903 201.627 39.2402ZM211.53 43.1367C210.983 43.1367 210.488 43.0479 210.046 42.8701C209.609 42.6878 209.235 42.4349 208.925 42.1113C208.62 41.7878 208.385 41.4072 208.221 40.9697C208.057 40.5322 207.975 40.0605 207.975 39.5547V39.2812C207.975 38.7025 208.059 38.1784 208.228 37.709C208.397 37.2396 208.631 36.8385 208.932 36.5059C209.233 36.1686 209.588 35.9111 209.998 35.7334C210.409 35.5557 210.853 35.4668 211.331 35.4668C211.86 35.4668 212.323 35.5557 212.719 35.7334C213.116 35.9111 213.444 36.1618 213.704 36.4854C213.968 36.8044 214.164 37.1849 214.291 37.627C214.424 38.069 214.49 38.5566 214.49 39.0898V39.7939H208.775V38.6113H212.863V38.4814C212.854 38.1852 212.794 37.9072 212.685 37.6475C212.58 37.3877 212.418 37.1781 212.2 37.0186C211.981 36.859 211.689 36.7793 211.325 36.7793C211.051 36.7793 210.807 36.8385 210.593 36.957C210.384 37.071 210.208 37.2373 210.067 37.4561C209.926 37.6748 209.816 37.9391 209.739 38.249C209.666 38.5544 209.629 38.8984 209.629 39.2812V39.5547C209.629 39.8783 209.673 40.179 209.759 40.457C209.85 40.7305 209.982 40.9697 210.156 41.1748C210.329 41.3799 210.538 41.5417 210.785 41.6602C211.031 41.7741 211.311 41.8311 211.625 41.8311C212.022 41.8311 212.375 41.7513 212.685 41.5918C212.995 41.4323 213.264 41.2067 213.492 40.915L214.36 41.7559C214.2 41.9883 213.993 42.2116 213.738 42.4258C213.482 42.6354 213.17 42.8063 212.801 42.9385C212.437 43.0706 212.013 43.1367 211.53 43.1367ZM219.265 35.6035V36.8066H215.096V35.6035H219.265ZM216.299 33.792H217.946V40.9561C217.946 41.1839 217.978 41.3594 218.042 41.4824C218.11 41.6009 218.204 41.6807 218.322 41.7217C218.441 41.7627 218.58 41.7832 218.739 41.7832C218.853 41.7832 218.962 41.7764 219.067 41.7627C219.172 41.749 219.256 41.7354 219.32 41.7217L219.327 42.9795C219.19 43.0205 219.031 43.057 218.848 43.0889C218.671 43.1208 218.466 43.1367 218.233 43.1367C217.855 43.1367 217.52 43.0706 217.228 42.9385C216.937 42.8018 216.709 42.5807 216.545 42.2754C216.381 41.9701 216.299 41.5645 216.299 41.0586V33.792ZM224.807 41.5166V37.9893C224.807 37.7249 224.759 37.4971 224.663 37.3057C224.568 37.1143 224.422 36.9661 224.226 36.8613C224.034 36.7565 223.793 36.7041 223.501 36.7041C223.232 36.7041 223 36.7497 222.804 36.8408C222.608 36.932 222.455 37.055 222.346 37.21C222.237 37.3649 222.182 37.5404 222.182 37.7363H220.541C220.541 37.4447 220.612 37.1621 220.753 36.8887C220.894 36.6152 221.099 36.3714 221.368 36.1572C221.637 35.943 221.959 35.7744 222.332 35.6514C222.706 35.5283 223.125 35.4668 223.59 35.4668C224.146 35.4668 224.638 35.5602 225.067 35.7471C225.5 35.9339 225.839 36.2165 226.085 36.5947C226.336 36.9684 226.461 37.4378 226.461 38.0029V41.291C226.461 41.6283 226.484 41.9313 226.529 42.2002C226.58 42.4645 226.65 42.6947 226.741 42.8906V43H225.053C224.975 42.8223 224.914 42.5967 224.868 42.3232C224.827 42.0452 224.807 41.7764 224.807 41.5166ZM225.046 38.502L225.06 39.5205H223.877C223.572 39.5205 223.303 39.5501 223.071 39.6094C222.838 39.6641 222.644 39.7461 222.489 39.8555C222.335 39.9648 222.218 40.097 222.141 40.252C222.063 40.4069 222.025 40.5824 222.025 40.7783C222.025 40.9743 222.07 41.1543 222.161 41.3184C222.252 41.4779 222.385 41.6032 222.558 41.6943C222.736 41.7855 222.95 41.8311 223.2 41.8311C223.538 41.8311 223.832 41.7627 224.082 41.626C224.337 41.4847 224.538 41.3138 224.684 41.1133C224.83 40.9082 224.907 40.7145 224.916 40.5322L225.449 41.2637C225.395 41.4505 225.301 41.651 225.169 41.8652C225.037 42.0794 224.864 42.2845 224.65 42.4805C224.44 42.6719 224.187 42.8291 223.891 42.9521C223.599 43.0752 223.262 43.1367 222.879 43.1367C222.396 43.1367 221.965 43.041 221.587 42.8496C221.209 42.6536 220.913 42.3916 220.698 42.0635C220.484 41.7308 220.377 41.3548 220.377 40.9355C220.377 40.5436 220.45 40.1973 220.596 39.8965C220.746 39.5911 220.965 39.3359 221.252 39.1309C221.544 38.9258 221.899 38.7708 222.319 38.666C222.738 38.5566 223.216 38.502 223.754 38.502H225.046ZM230.047 35.6035V43H228.393V35.6035H230.047ZM228.284 33.6621C228.284 33.4115 228.366 33.2041 228.53 33.04C228.699 32.8714 228.931 32.7871 229.227 32.7871C229.519 32.7871 229.749 32.8714 229.918 33.04C230.086 33.2041 230.171 33.4115 230.171 33.6621C230.171 33.9082 230.086 34.1133 229.918 34.2773C229.749 34.4414 229.519 34.5234 229.227 34.5234C228.931 34.5234 228.699 34.4414 228.53 34.2773C228.366 34.1133 228.284 33.9082 228.284 33.6621ZM233.716 32.5V43H232.062V32.5H233.716Z" fill="#007AFF"/>
<circle cx="325.5" cy="12" r="11.56" fill="white" stroke="#C6C6C6" stroke-width="0.88"/>
<path d="M322.337 9.506C322.363 8.65667 322.662 7.998 323.234 7.53C323.815 7.05333 324.569 6.815 325.496 6.815C326.432 6.815 327.164 7.05333 327.693 7.53C328.222 7.998 328.486 8.59167 328.486 9.311C328.486 9.86567 328.343 10.3337 328.057 10.715C327.771 11.0877 327.45 11.3347 327.095 11.456V11.508C328.135 11.8633 328.655 12.6477 328.655 13.861C328.655 14.667 328.378 15.317 327.823 15.811C327.268 16.305 326.506 16.552 325.535 16.552C324.564 16.552 323.771 16.305 323.156 15.811C322.541 15.317 322.22 14.5933 322.194 13.64H323.962C323.979 14.0647 324.122 14.407 324.391 14.667C324.668 14.9183 325.037 15.044 325.496 15.044C325.955 15.044 326.302 14.9227 326.536 14.68C326.779 14.4287 326.9 14.0733 326.9 13.614C326.9 13.1547 326.735 12.8167 326.406 12.6C326.085 12.3747 325.574 12.262 324.872 12.262H324.495V10.767H324.872C326.103 10.767 326.718 10.3553 326.718 9.532C326.718 9.17667 326.605 8.895 326.38 8.687C326.155 8.479 325.834 8.375 325.418 8.375C325.002 8.375 324.69 8.492 324.482 8.726C324.274 8.96 324.153 9.22 324.118 9.506H322.337Z" fill="#8E8E93"/>
<path d="M295.384 34.373L292.411 43H290.613L294.359 33.0469H295.507L295.384 34.373ZM297.872 43L294.892 34.373L294.762 33.0469H295.917L299.677 43H297.872ZM297.729 39.3086V40.6689H292.315V39.3086H297.729ZM305.465 35.6035H306.962V42.7949C306.962 43.4603 306.82 44.0254 306.538 44.4902C306.255 44.9551 305.861 45.3083 305.355 45.5498C304.849 45.7959 304.264 45.9189 303.598 45.9189C303.316 45.9189 303.001 45.8779 302.655 45.7959C302.313 45.7139 301.981 45.5817 301.657 45.3994C301.338 45.2217 301.071 44.987 300.857 44.6953L301.63 43.7246C301.894 44.0391 302.186 44.2692 302.505 44.415C302.824 44.5609 303.159 44.6338 303.51 44.6338C303.888 44.6338 304.209 44.5632 304.473 44.4219C304.742 44.2852 304.95 44.0824 305.096 43.8135C305.241 43.5446 305.314 43.2165 305.314 42.8291V37.2783L305.465 35.6035ZM300.44 39.3838V39.2402C300.44 38.6797 300.509 38.1693 300.645 37.709C300.782 37.2441 300.978 36.8454 301.233 36.5127C301.488 36.1755 301.798 35.918 302.163 35.7402C302.527 35.5579 302.94 35.4668 303.4 35.4668C303.879 35.4668 304.287 35.5534 304.624 35.7266C304.966 35.8997 305.25 36.1481 305.478 36.4717C305.706 36.7907 305.884 37.1735 306.012 37.6201C306.144 38.0622 306.242 38.5544 306.305 39.0967V39.5547C306.246 40.0833 306.146 40.5664 306.005 41.0039C305.863 41.4414 305.677 41.8197 305.444 42.1387C305.212 42.4577 304.925 42.7038 304.583 42.877C304.246 43.0501 303.847 43.1367 303.387 43.1367C302.935 43.1367 302.527 43.0433 302.163 42.8564C301.803 42.6696 301.493 42.4076 301.233 42.0703C300.978 41.7331 300.782 41.3366 300.645 40.8809C300.509 40.4206 300.44 39.9215 300.44 39.3838ZM302.088 39.2402V39.3838C302.088 39.721 302.12 40.0355 302.183 40.3271C302.252 40.6188 302.354 40.8763 302.491 41.0996C302.632 41.3184 302.81 41.4915 303.024 41.6191C303.243 41.7422 303.5 41.8037 303.797 41.8037C304.184 41.8037 304.501 41.7217 304.747 41.5576C304.998 41.3936 305.189 41.1725 305.321 40.8945C305.458 40.612 305.554 40.2975 305.608 39.9512V38.7139C305.581 38.445 305.524 38.1943 305.437 37.9619C305.355 37.7295 305.244 37.5267 305.102 37.3535C304.961 37.1758 304.783 37.0391 304.569 36.9434C304.355 36.8431 304.102 36.793 303.81 36.793C303.514 36.793 303.257 36.8568 303.038 36.9844C302.819 37.112 302.639 37.2874 302.498 37.5107C302.361 37.734 302.259 37.9938 302.19 38.29C302.122 38.5863 302.088 38.903 302.088 39.2402ZM310.425 37.0117V43H308.778V35.6035H310.35L310.425 37.0117ZM312.688 35.5557L312.674 37.0869C312.574 37.0687 312.464 37.055 312.346 37.0459C312.232 37.0368 312.118 37.0322 312.004 37.0322C311.722 37.0322 311.473 37.0732 311.259 37.1553C311.045 37.2327 310.865 37.3467 310.719 37.4971C310.578 37.6429 310.468 37.8206 310.391 38.0303C310.313 38.2399 310.268 38.4746 310.254 38.7344L309.878 38.7617C309.878 38.2969 309.924 37.8662 310.015 37.4697C310.106 37.0732 310.243 36.7246 310.425 36.4238C310.612 36.123 310.844 35.8883 311.122 35.7197C311.405 35.5511 311.731 35.4668 312.1 35.4668C312.2 35.4668 312.307 35.4759 312.421 35.4941C312.54 35.5124 312.628 35.5329 312.688 35.5557ZM316.944 43.1367C316.397 43.1367 315.903 43.0479 315.461 42.8701C315.023 42.6878 314.649 42.4349 314.339 42.1113C314.034 41.7878 313.799 41.4072 313.635 40.9697C313.471 40.5322 313.389 40.0605 313.389 39.5547V39.2812C313.389 38.7025 313.474 38.1784 313.642 37.709C313.811 37.2396 314.046 36.8385 314.346 36.5059C314.647 36.1686 315.003 35.9111 315.413 35.7334C315.823 35.5557 316.267 35.4668 316.746 35.4668C317.274 35.4668 317.737 35.5557 318.133 35.7334C318.53 35.9111 318.858 36.1618 319.118 36.4854C319.382 36.8044 319.578 37.1849 319.706 37.627C319.838 38.069 319.904 38.5566 319.904 39.0898V39.7939H314.189V38.6113H318.277V38.4814C318.268 38.1852 318.209 37.9072 318.099 37.6475C317.994 37.3877 317.833 37.1781 317.614 37.0186C317.395 36.859 317.103 36.7793 316.739 36.7793C316.465 36.7793 316.222 36.8385 316.007 36.957C315.798 37.071 315.622 37.2373 315.481 37.4561C315.34 37.6748 315.23 37.9391 315.153 38.249C315.08 38.5544 315.044 38.8984 315.044 39.2812V39.5547C315.044 39.8783 315.087 40.179 315.173 40.457C315.265 40.7305 315.397 40.9697 315.57 41.1748C315.743 41.3799 315.953 41.5417 316.199 41.6602C316.445 41.7741 316.725 41.8311 317.04 41.8311C317.436 41.8311 317.789 41.7513 318.099 41.5918C318.409 41.4323 318.678 41.2067 318.906 40.915L319.774 41.7559C319.615 41.9883 319.407 42.2116 319.152 42.4258C318.897 42.6354 318.585 42.8063 318.215 42.9385C317.851 43.0706 317.427 43.1367 316.944 43.1367ZM324.55 43.1367C324.003 43.1367 323.508 43.0479 323.066 42.8701C322.629 42.6878 322.255 42.4349 321.945 42.1113C321.64 41.7878 321.405 41.4072 321.241 40.9697C321.077 40.5322 320.995 40.0605 320.995 39.5547V39.2812C320.995 38.7025 321.079 38.1784 321.248 37.709C321.417 37.2396 321.651 36.8385 321.952 36.5059C322.253 36.1686 322.608 35.9111 323.019 35.7334C323.429 35.5557 323.873 35.4668 324.352 35.4668C324.88 35.4668 325.343 35.5557 325.739 35.7334C326.136 35.9111 326.464 36.1618 326.724 36.4854C326.988 36.8044 327.184 37.1849 327.312 37.627C327.444 38.069 327.51 38.5566 327.51 39.0898V39.7939H321.795V38.6113H325.883V38.4814C325.874 38.1852 325.814 37.9072 325.705 37.6475C325.6 37.3877 325.438 37.1781 325.22 37.0186C325.001 36.859 324.709 36.7793 324.345 36.7793C324.071 36.7793 323.827 36.8385 323.613 36.957C323.404 37.071 323.228 37.2373 323.087 37.4561C322.946 37.6748 322.836 37.9391 322.759 38.249C322.686 38.5544 322.649 38.8984 322.649 39.2812V39.5547C322.649 39.8783 322.693 40.179 322.779 40.457C322.87 40.7305 323.003 40.9697 323.176 41.1748C323.349 41.3799 323.559 41.5417 323.805 41.6602C324.051 41.7741 324.331 41.8311 324.646 41.8311C325.042 41.8311 325.395 41.7513 325.705 41.5918C326.015 41.4323 326.284 41.2067 326.512 40.915L327.38 41.7559C327.22 41.9883 327.013 42.2116 326.758 42.4258C326.503 42.6354 326.19 42.8063 325.821 42.9385C325.457 43.0706 325.033 43.1367 324.55 43.1367ZM330.542 37.1074V43H328.895V35.6035H330.447L330.542 37.1074ZM330.276 39.0283L329.715 39.0215C329.715 38.5111 329.779 38.0394 329.907 37.6064C330.034 37.1735 330.221 36.7975 330.467 36.4785C330.713 36.1549 331.019 35.9066 331.383 35.7334C331.752 35.5557 332.178 35.4668 332.662 35.4668C332.999 35.4668 333.306 35.5169 333.584 35.6172C333.867 35.7129 334.111 35.8656 334.316 36.0752C334.525 36.2848 334.685 36.5537 334.794 36.8818C334.908 37.21 334.965 37.6064 334.965 38.0713V43H333.318V38.2148C333.318 37.8548 333.263 37.5723 333.154 37.3672C333.049 37.1621 332.896 37.0163 332.696 36.9297C332.5 36.8385 332.265 36.793 331.992 36.793C331.682 36.793 331.417 36.8522 331.199 36.9707C330.984 37.0892 330.809 37.251 330.672 37.4561C330.536 37.6611 330.435 37.8981 330.371 38.167C330.308 38.4359 330.276 38.723 330.276 39.0283ZM334.863 38.5908L334.09 38.7617C334.09 38.3151 334.152 37.8936 334.275 37.4971C334.402 37.096 334.587 36.7451 334.829 36.4443C335.075 36.139 335.378 35.8997 335.738 35.7266C336.098 35.5534 336.51 35.4668 336.975 35.4668C337.353 35.4668 337.69 35.5192 337.987 35.624C338.287 35.7243 338.543 35.8838 338.752 36.1025C338.962 36.3213 339.121 36.6061 339.231 36.957C339.34 37.3034 339.395 37.7227 339.395 38.2148V43H337.741V38.208C337.741 37.8343 337.686 37.5449 337.577 37.3398C337.472 37.1348 337.321 36.9935 337.125 36.916C336.929 36.834 336.695 36.793 336.421 36.793C336.166 36.793 335.94 36.8408 335.745 36.9365C335.553 37.0277 335.391 37.1576 335.259 37.3262C335.127 37.4902 335.027 37.6794 334.958 37.8936C334.895 38.1077 334.863 38.3402 334.863 38.5908ZM344.451 43.1367C343.904 43.1367 343.41 43.0479 342.968 42.8701C342.53 42.6878 342.156 42.4349 341.846 42.1113C341.541 41.7878 341.306 41.4072 341.142 40.9697C340.978 40.5322 340.896 40.0605 340.896 39.5547V39.2812C340.896 38.7025 340.981 38.1784 341.149 37.709C341.318 37.2396 341.553 36.8385 341.853 36.5059C342.154 36.1686 342.51 35.9111 342.92 35.7334C343.33 35.5557 343.774 35.4668 344.253 35.4668C344.781 35.4668 345.244 35.5557 345.64 35.7334C346.037 35.9111 346.365 36.1618 346.625 36.4854C346.889 36.8044 347.085 37.1849 347.213 37.627C347.345 38.069 347.411 38.5566 347.411 39.0898V39.7939H341.696V38.6113H345.784V38.4814C345.775 38.1852 345.716 37.9072 345.606 37.6475C345.501 37.3877 345.34 37.1781 345.121 37.0186C344.902 36.859 344.61 36.7793 344.246 36.7793C343.972 36.7793 343.729 36.8385 343.514 36.957C343.305 37.071 343.129 37.2373 342.988 37.4561C342.847 37.6748 342.737 37.9391 342.66 38.249C342.587 38.5544 342.551 38.8984 342.551 39.2812V39.5547C342.551 39.8783 342.594 40.179 342.68 40.457C342.772 40.7305 342.904 40.9697 343.077 41.1748C343.25 41.3799 343.46 41.5417 343.706 41.6602C343.952 41.7741 344.232 41.8311 344.547 41.8311C344.943 41.8311 345.296 41.7513 345.606 41.5918C345.916 41.4323 346.185 41.2067 346.413 40.915L347.281 41.7559C347.122 41.9883 346.914 42.2116 346.659 42.4258C346.404 42.6354 346.092 42.8063 345.722 42.9385C345.358 43.0706 344.934 43.1367 344.451 43.1367ZM350.43 37.1826V43H348.782V35.6035H350.334L350.43 37.1826ZM350.136 39.0283L349.603 39.0215C349.607 38.4974 349.68 38.0166 349.821 37.5791C349.967 37.1416 350.168 36.7656 350.423 36.4512C350.683 36.1367 350.993 35.8952 351.353 35.7266C351.713 35.5534 352.114 35.4668 352.556 35.4668C352.911 35.4668 353.233 35.5169 353.52 35.6172C353.811 35.7129 354.06 35.8701 354.265 36.0889C354.474 36.3076 354.634 36.5924 354.743 36.9434C354.853 37.2897 354.907 37.7158 354.907 38.2217V43H353.253V38.2148C353.253 37.8594 353.201 37.5791 353.096 37.374C352.996 37.1644 352.848 37.0163 352.652 36.9297C352.46 36.8385 352.221 36.793 351.934 36.793C351.651 36.793 351.398 36.8522 351.175 36.9707C350.952 37.0892 350.763 37.251 350.608 37.4561C350.457 37.6611 350.341 37.8981 350.259 38.167C350.177 38.4359 350.136 38.723 350.136 39.0283ZM360.08 35.6035V36.8066H355.91V35.6035H360.08ZM357.113 33.792H358.76V40.9561C358.76 41.1839 358.792 41.3594 358.856 41.4824C358.924 41.6009 359.018 41.6807 359.136 41.7217C359.255 41.7627 359.394 41.7832 359.553 41.7832C359.667 41.7832 359.777 41.7764 359.881 41.7627C359.986 41.749 360.071 41.7354 360.134 41.7217L360.141 42.9795C360.004 43.0205 359.845 43.057 359.663 43.0889C359.485 43.1208 359.28 43.1367 359.047 43.1367C358.669 43.1367 358.334 43.0706 358.043 42.9385C357.751 42.8018 357.523 42.5807 357.359 42.2754C357.195 41.9701 357.113 41.5645 357.113 41.0586V33.792Z" fill="#8E8E93"/>
</svg>
