<svg width="720" height="48" viewBox="0 0 720 48" fill="none" xmlns="http://www.w3.org/2000/svg">
<line x1="35.5" y1="11.5" x2="175.5" y2="11.5" stroke="#E0E0E0"/>
<line x1="175.5" y1="11.5" x2="308.5" y2="11.5" stroke="#E0E0E0"/>
<circle cx="42.5" cy="12" r="11.5" fill="white" stroke="#007AFF"/>
<path d="M41.9708 17V9.447H40.5928V7.77H43.8428V17H41.9708Z" fill="#007AFF"/>
<path d="M4.94492 39.2881H2.3541V37.9277H4.94492C5.3961 37.9277 5.76068 37.8548 6.03867 37.709C6.31667 37.5632 6.51947 37.3626 6.64707 37.1074C6.77923 36.8477 6.84531 36.5514 6.84531 36.2188C6.84531 35.9043 6.77923 35.6104 6.64707 35.3369C6.51947 35.0589 6.31667 34.8356 6.03867 34.667C5.76068 34.4984 5.3961 34.4141 4.94492 34.4141H2.88047V43H1.16465L1.16465 33.0469H4.94492C5.71511 33.0469 6.36908 33.1836 6.90684 33.457C7.44916 33.7259 7.86159 34.0996 8.14414 34.5781C8.42669 35.0521 8.56797 35.5944 8.56797 36.2051C8.56797 36.8477 8.42669 37.3991 8.14414 37.8594C7.86159 38.3197 7.44916 38.6729 6.90684 38.9189C6.36908 39.165 5.71511 39.2881 4.94492 39.2881ZM13.207 43.1367C12.6602 43.1367 12.1657 43.0479 11.7236 42.8701C11.2861 42.6878 10.9124 42.4349 10.6025 42.1113C10.2972 41.7878 10.0625 41.4072 9.89844 40.9697C9.73438 40.5322 9.65235 40.0605 9.65235 39.5547V39.2812C9.65235 38.7025 9.73666 38.1784 9.90528 37.709C10.0739 37.2396 10.3086 36.8385 10.6094 36.5059C10.9102 36.1686 11.2656 35.9111 11.6758 35.7334C12.0859 35.5557 12.5303 35.4668 13.0088 35.4668C13.5374 35.4668 14 35.5557 14.3965 35.7334C14.793 35.9111 15.1211 36.1618 15.3809 36.4854C15.6452 36.8044 15.8411 37.1849 15.9688 37.627C16.1009 38.069 16.167 38.5566 16.167 39.0898V39.7939H10.4522V38.6113H14.54V38.4814C14.5309 38.1852 14.4717 37.9072 14.3623 37.6475C14.2575 37.3877 14.0957 37.1781 13.877 37.0186C13.6582 36.859 13.3665 36.7793 13.002 36.7793C12.7285 36.7793 12.4847 36.8385 12.2705 36.957C12.0609 37.071 11.8854 37.2373 11.7441 37.4561C11.6029 37.6748 11.4935 37.9391 11.416 38.249C11.3431 38.5544 11.3066 38.8984 11.3066 39.2812V39.5547C11.3066 39.8783 11.3499 40.179 11.4365 40.457C11.5277 40.7305 11.6598 40.9697 11.833 41.1748C12.0062 41.3799 12.2158 41.5417 12.4619 41.6602C12.708 41.7741 12.9883 41.8311 13.3027 41.8311C13.6992 41.8311 14.0524 41.7513 14.3623 41.5918C14.6722 41.4323 14.9411 41.2067 15.1689 40.915L16.0371 41.7559C15.8776 41.9883 15.6702 42.2116 15.415 42.4258C15.1598 42.6354 14.8477 42.8063 14.4785 42.9385C14.1139 43.0706 13.6901 43.1367 13.207 43.1367ZM19.2064 37.0117V43H17.559V35.6035H19.1313L19.2064 37.0117ZM21.4691 35.5557L21.4555 37.0869C21.3552 37.0687 21.2458 37.055 21.1273 37.0459C21.0134 37.0368 20.8995 37.0322 20.7855 37.0322C20.503 37.0322 20.2546 37.0732 20.0404 37.1553C19.8262 37.2327 19.6462 37.3467 19.5004 37.4971C19.3591 37.6429 19.2497 37.8206 19.1723 38.0303C19.0948 38.2399 19.0492 38.4746 19.0355 38.7344L18.6596 38.7617C18.6596 38.2969 18.7051 37.8662 18.7963 37.4697C18.8874 37.0732 19.0242 36.7246 19.2064 36.4238C19.3933 36.123 19.6257 35.8883 19.9037 35.7197C20.1863 35.5511 20.5121 35.4668 20.8813 35.4668C20.9815 35.4668 21.0886 35.4759 21.2025 35.4941C21.321 35.5124 21.4099 35.5329 21.4691 35.5557ZM26.7508 40.9971C26.7508 40.833 26.7098 40.6849 26.6277 40.5527C26.5457 40.416 26.3885 40.293 26.1561 40.1836C25.9282 40.0742 25.591 39.974 25.1443 39.8828C24.7524 39.7962 24.3924 39.6937 24.0643 39.5752C23.7407 39.4521 23.4627 39.304 23.2303 39.1309C22.9979 38.9577 22.8178 38.7526 22.6902 38.5156C22.5626 38.2786 22.4988 38.0052 22.4988 37.6953C22.4988 37.3945 22.5649 37.1097 22.6971 36.8408C22.8292 36.5719 23.0184 36.335 23.2645 36.1299C23.5105 35.9248 23.8091 35.763 24.16 35.6445C24.5154 35.526 24.9119 35.4668 25.3494 35.4668C25.9692 35.4668 26.5001 35.5716 26.9422 35.7812C27.3888 35.9863 27.7306 36.2666 27.9676 36.6221C28.2046 36.973 28.323 37.3695 28.323 37.8115H26.6756C26.6756 37.6156 26.6255 37.4333 26.5252 37.2646C26.4295 37.0915 26.2837 36.9525 26.0877 36.8477C25.8917 36.7383 25.6456 36.6836 25.3494 36.6836C25.0669 36.6836 24.8322 36.7292 24.6453 36.8203C24.463 36.9069 24.3263 37.0208 24.2352 37.1621C24.1486 37.3034 24.1053 37.4583 24.1053 37.627C24.1053 37.75 24.1281 37.8617 24.1736 37.9619C24.2238 38.0576 24.3058 38.1465 24.4197 38.2285C24.5337 38.306 24.6886 38.3789 24.8846 38.4473C25.0851 38.5156 25.3357 38.5817 25.6365 38.6455C26.2016 38.764 26.687 38.9167 27.0926 39.1035C27.5027 39.2858 27.8172 39.5228 28.0359 39.8145C28.2547 40.1016 28.3641 40.4661 28.3641 40.9082C28.3641 41.2363 28.2934 41.5371 28.1521 41.8105C28.0154 42.0794 27.8149 42.3141 27.5506 42.5146C27.2863 42.7106 26.9695 42.8633 26.6004 42.9727C26.2358 43.082 25.8257 43.1367 25.3699 43.1367C24.7 43.1367 24.1326 43.0182 23.6678 42.7812C23.2029 42.5397 22.8497 42.2321 22.6082 41.8584C22.3712 41.4801 22.2527 41.0882 22.2527 40.6826H23.8455C23.8637 40.988 23.948 41.2318 24.0984 41.4141C24.2534 41.5918 24.4448 41.7217 24.6727 41.8037C24.9051 41.8812 25.1443 41.9199 25.3904 41.9199C25.6867 41.9199 25.935 41.8812 26.1355 41.8037C26.3361 41.7217 26.4887 41.6123 26.5936 41.4756C26.6984 41.3343 26.7508 41.1748 26.7508 40.9971ZM29.592 39.3838V39.2266C29.592 38.6934 29.6695 38.1989 29.8244 37.7432C29.9794 37.2829 30.2027 36.8841 30.4943 36.5469C30.7906 36.2051 31.1506 35.9408 31.5744 35.7539C32.0028 35.5625 32.4859 35.4668 33.0236 35.4668C33.566 35.4668 34.049 35.5625 34.4729 35.7539C34.9012 35.9408 35.2635 36.2051 35.5598 36.5469C35.856 36.8841 36.0816 37.2829 36.2365 37.7432C36.3915 38.1989 36.4689 38.6934 36.4689 39.2266V39.3838C36.4689 39.917 36.3915 40.4115 36.2365 40.8672C36.0816 41.3229 35.856 41.7217 35.5598 42.0635C35.2635 42.4007 34.9035 42.665 34.4797 42.8564C34.0559 43.0433 33.5751 43.1367 33.0373 43.1367C32.495 43.1367 32.0096 43.0433 31.5813 42.8564C31.1574 42.665 30.7974 42.4007 30.5012 42.0635C30.2049 41.7217 29.9794 41.3229 29.8244 40.8672C29.6695 40.4115 29.592 39.917 29.592 39.3838ZM31.2395 39.2266V39.3838C31.2395 39.7165 31.2736 40.0309 31.342 40.3271C31.4104 40.6234 31.5174 40.8831 31.6633 41.1064C31.8091 41.3298 31.996 41.5052 32.2238 41.6328C32.4517 41.7604 32.7229 41.8242 33.0373 41.8242C33.3426 41.8242 33.607 41.7604 33.8303 41.6328C34.0581 41.5052 34.245 41.3298 34.3908 41.1064C34.5367 40.8831 34.6438 40.6234 34.7121 40.3271C34.785 40.0309 34.8215 39.7165 34.8215 39.3838V39.2266C34.8215 38.8984 34.785 38.5885 34.7121 38.2969C34.6438 38.0007 34.5344 37.7386 34.384 37.5107C34.2382 37.2829 34.0513 37.1051 33.8234 36.9775C33.6001 36.8454 33.3335 36.7793 33.0236 36.7793C32.7137 36.7793 32.4449 36.8454 32.217 36.9775C31.9937 37.1051 31.8091 37.2829 31.6633 37.5107C31.5174 37.7386 31.4104 38.0007 31.342 38.2969C31.2736 38.5885 31.2395 38.8984 31.2395 39.2266ZM39.5836 37.1826V43H37.9361V35.6035H39.4879L39.5836 37.1826ZM39.2896 39.0283L38.7564 39.0215C38.761 38.4974 38.8339 38.0166 38.9752 37.5791C39.121 37.1416 39.3216 36.7656 39.5768 36.4512C39.8365 36.1367 40.1464 35.8952 40.5064 35.7266C40.8665 35.5534 41.2675 35.4668 41.7096 35.4668C42.065 35.4668 42.3863 35.5169 42.6734 35.6172C42.9651 35.7129 43.2135 35.8701 43.4186 36.0889C43.6282 36.3076 43.7877 36.5924 43.8971 36.9434C44.0064 37.2897 44.0611 37.7158 44.0611 38.2217V43H42.4068V38.2148C42.4068 37.8594 42.3544 37.5791 42.2496 37.374C42.1494 37.1644 42.0012 37.0163 41.8053 36.9297C41.6139 36.8385 41.3746 36.793 41.0875 36.793C40.8049 36.793 40.552 36.8522 40.3287 36.9707C40.1054 37.0892 39.9163 37.251 39.7613 37.4561C39.6109 37.6611 39.4947 37.8981 39.4127 38.167C39.3307 38.4359 39.2896 38.723 39.2896 39.0283ZM50.0127 41.5166V37.9893C50.0127 37.7249 49.9648 37.4971 49.8691 37.3057C49.7734 37.1143 49.6276 36.9661 49.4316 36.8613C49.2402 36.7565 48.9987 36.7041 48.707 36.7041C48.4382 36.7041 48.2057 36.7497 48.0098 36.8408C47.8138 36.932 47.6611 37.055 47.5518 37.21C47.4424 37.3649 47.3877 37.5404 47.3877 37.7363H45.7471C45.7471 37.4447 45.8177 37.1621 45.959 36.8887C46.1003 36.6152 46.3053 36.3714 46.5742 36.1572C46.8431 35.943 47.1644 35.7744 47.5381 35.6514C47.9118 35.5283 48.3311 35.4668 48.7959 35.4668C49.3519 35.4668 49.8441 35.5602 50.2725 35.7471C50.7054 35.9339 51.0449 36.2165 51.291 36.5947C51.5417 36.9684 51.667 37.4378 51.667 38.0029V41.291C51.667 41.6283 51.6898 41.9313 51.7354 42.2002C51.7855 42.4645 51.8561 42.6947 51.9473 42.8906V43H50.2588C50.1813 42.8223 50.1198 42.5967 50.0742 42.3232C50.0332 42.0452 50.0127 41.7764 50.0127 41.5166ZM50.252 38.502L50.2656 39.5205H49.083C48.7777 39.5205 48.5088 39.5501 48.2764 39.6094C48.0439 39.6641 47.8503 39.7461 47.6953 39.8555C47.5404 39.9648 47.4242 40.097 47.3467 40.252C47.2692 40.4069 47.2305 40.5824 47.2305 40.7783C47.2305 40.9743 47.276 41.1543 47.3672 41.3184C47.4583 41.4779 47.5905 41.6032 47.7637 41.6943C47.9414 41.7855 48.1556 41.8311 48.4062 41.8311C48.7435 41.8311 49.0374 41.7627 49.2881 41.626C49.5433 41.4847 49.7438 41.3138 49.8896 41.1133C50.0355 40.9082 50.113 40.7145 50.1221 40.5322L50.6553 41.2637C50.6006 41.4505 50.5072 41.651 50.375 41.8652C50.2428 42.0794 50.0697 42.2845 49.8555 42.4805C49.6458 42.6719 49.3929 42.8291 49.0967 42.9521C48.805 43.0752 48.4678 43.1367 48.085 43.1367C47.6019 43.1367 47.1712 43.041 46.793 42.8496C46.4147 42.6536 46.1185 42.3916 45.9043 42.0635C45.6901 41.7308 45.583 41.3548 45.583 40.9355C45.583 40.5436 45.6559 40.1973 45.8018 39.8965C45.9521 39.5911 46.1709 39.3359 46.458 39.1309C46.7497 38.9258 47.1051 38.7708 47.5244 38.666C47.9437 38.5566 48.4222 38.502 48.96 38.502H50.252ZM55.2533 32.5V43H53.599V32.5H55.2533ZM62.7404 33.0469V43H61.0246V33.0469H62.7404ZM66.443 37.1826V43H64.7955V35.6035H66.3473L66.443 37.1826ZM66.149 39.0283L65.6158 39.0215C65.6204 38.4974 65.6933 38.0166 65.8346 37.5791C65.9804 37.1416 66.1809 36.7656 66.4361 36.4512C66.6959 36.1367 67.0058 35.8952 67.3658 35.7266C67.7258 35.5534 68.1269 35.4668 68.5689 35.4668C68.9244 35.4668 69.2457 35.5169 69.5328 35.6172C69.8245 35.7129 70.0729 35.8701 70.2779 36.0889C70.4876 36.3076 70.6471 36.5924 70.7564 36.9434C70.8658 37.2897 70.9205 37.7158 70.9205 38.2217V43H69.2662V38.2148C69.2662 37.8594 69.2138 37.5791 69.109 37.374C69.0087 37.1644 68.8606 37.0163 68.6646 36.9297C68.4732 36.8385 68.234 36.793 67.9469 36.793C67.6643 36.793 67.4114 36.8522 67.1881 36.9707C66.9648 37.0892 66.7757 37.251 66.6207 37.4561C66.4703 37.6611 66.3541 37.8981 66.2721 38.167C66.19 38.4359 66.149 38.723 66.149 39.0283ZM74.9307 43H73.2832V34.8926C73.2832 34.3411 73.3857 33.8786 73.5908 33.5049C73.8005 33.1266 74.099 32.8418 74.4863 32.6504C74.8737 32.4544 75.3317 32.3564 75.8604 32.3564C76.0244 32.3564 76.1862 32.3678 76.3457 32.3906C76.5052 32.4089 76.6602 32.4385 76.8105 32.4795L76.7695 33.751C76.6784 33.7282 76.5781 33.7122 76.4688 33.7031C76.3639 33.694 76.25 33.6895 76.127 33.6895C75.8763 33.6895 75.6598 33.7373 75.4775 33.833C75.2998 33.9242 75.1631 34.0586 75.0674 34.2363C74.9762 34.4141 74.9307 34.6328 74.9307 34.8926V43ZM76.4551 35.6035V36.8066H72.1484V35.6035H76.4551ZM77.4369 39.3838V39.2266C77.4369 38.6934 77.5144 38.1989 77.6693 37.7432C77.8243 37.2829 78.0476 36.8841 78.3393 36.5469C78.6355 36.2051 78.9955 35.9408 79.4193 35.7539C79.8477 35.5625 80.3308 35.4668 80.8686 35.4668C81.4109 35.4668 81.8939 35.5625 82.3178 35.7539C82.7462 35.9408 83.1085 36.2051 83.4047 36.5469C83.7009 36.8841 83.9265 37.2829 84.0814 37.7432C84.2364 38.1989 84.3139 38.6934 84.3139 39.2266V39.3838C84.3139 39.917 84.2364 40.4115 84.0814 40.8672C83.9265 41.3229 83.7009 41.7217 83.4047 42.0635C83.1085 42.4007 82.7484 42.665 82.3246 42.8564C81.9008 43.0433 81.42 43.1367 80.8822 43.1367C80.3399 43.1367 79.8546 43.0433 79.4262 42.8564C79.0023 42.665 78.6423 42.4007 78.3461 42.0635C78.0499 41.7217 77.8243 41.3229 77.6693 40.8672C77.5144 40.4115 77.4369 39.917 77.4369 39.3838ZM79.0844 39.2266V39.3838C79.0844 39.7165 79.1186 40.0309 79.1869 40.3271C79.2553 40.6234 79.3624 40.8831 79.5082 41.1064C79.654 41.3298 79.8409 41.5052 80.0687 41.6328C80.2966 41.7604 80.5678 41.8242 80.8822 41.8242C81.1876 41.8242 81.4519 41.7604 81.6752 41.6328C81.9031 41.5052 82.0899 41.3298 82.2357 41.1064C82.3816 40.8831 82.4887 40.6234 82.557 40.3271C82.6299 40.0309 82.6664 39.7165 82.6664 39.3838V39.2266C82.6664 38.8984 82.6299 38.5885 82.557 38.2969C82.4887 38.0007 82.3793 37.7386 82.2289 37.5107C82.0831 37.2829 81.8962 37.1051 81.6684 36.9775C81.4451 36.8454 81.1784 36.7793 80.8686 36.7793C80.5587 36.7793 80.2898 36.8454 80.0619 36.9775C79.8386 37.1051 79.654 37.2829 79.5082 37.5107C79.3624 37.7386 79.2553 38.0007 79.1869 38.2969C79.1186 38.5885 79.0844 38.8984 79.0844 39.2266Z" fill="#007AFF"/>
<circle cx="175.5" cy="12" r="11.5" fill="white" stroke="#C6C6C6"/>
<path d="M172.366 16.37V15.031C172.591 14.8317 172.938 14.5327 173.406 14.134C173.874 13.7267 174.225 13.419 174.459 13.211C174.693 13.003 174.979 12.73 175.317 12.392C175.663 12.0453 175.919 11.755 176.084 11.521C176.508 10.9143 176.721 10.377 176.721 9.909C176.721 8.99033 176.296 8.531 175.447 8.531C175.031 8.531 174.706 8.66967 174.472 8.947C174.238 9.22433 174.116 9.60567 174.108 10.091H172.34C172.348 9.077 172.643 8.30567 173.224 7.777C173.813 7.24833 174.58 6.984 175.525 6.984C176.469 6.984 177.21 7.25267 177.748 7.79C178.285 8.32733 178.554 9.00333 178.554 9.818C178.554 10.4247 178.398 10.988 178.086 11.508C177.93 11.7853 177.778 12.0323 177.631 12.249C177.483 12.457 177.271 12.6997 176.994 12.977C176.725 13.2543 176.513 13.471 176.357 13.627C176.201 13.783 175.962 14.004 175.642 14.29C175.33 14.5673 175.113 14.7623 174.992 14.875H178.775V16.37H172.366Z" fill="#8E8E93"/>
<path d="M127.671 33.0469V43H125.955V33.0469H127.671ZM131.373 37.1826V43H129.726V35.6035H131.278L131.373 37.1826ZM131.079 39.0283L130.546 39.0215C130.551 38.4974 130.624 38.0166 130.765 37.5791C130.911 37.1416 131.111 36.7656 131.367 36.4512C131.626 36.1367 131.936 35.8952 132.296 35.7266C132.656 35.5534 133.057 35.4668 133.499 35.4668C133.855 35.4668 134.176 35.5169 134.463 35.6172C134.755 35.7129 135.003 35.8701 135.208 36.0889C135.418 36.3076 135.578 36.5924 135.687 36.9434C135.796 37.2897 135.851 37.7158 135.851 38.2217V43H134.197V38.2148C134.197 37.8594 134.144 37.5791 134.039 37.374C133.939 37.1644 133.791 37.0163 133.595 36.9297C133.404 36.8385 133.164 36.793 132.877 36.793C132.595 36.793 132.342 36.8522 132.119 36.9707C131.895 37.0892 131.706 37.251 131.551 37.4561C131.401 37.6611 131.285 37.8981 131.203 38.167C131.121 38.4359 131.079 38.723 131.079 39.0283ZM141.782 40.9971C141.782 40.833 141.741 40.6849 141.659 40.5527C141.577 40.416 141.42 40.293 141.187 40.1836C140.959 40.0742 140.622 39.974 140.176 39.8828C139.784 39.7962 139.424 39.6937 139.096 39.5752C138.772 39.4521 138.494 39.304 138.262 39.1309C138.029 38.9577 137.849 38.7526 137.721 38.5156C137.594 38.2786 137.53 38.0052 137.53 37.6953C137.53 37.3945 137.596 37.1097 137.728 36.8408C137.86 36.5719 138.05 36.335 138.296 36.1299C138.542 35.9248 138.84 35.763 139.191 35.6445C139.547 35.526 139.943 35.4668 140.381 35.4668C141 35.4668 141.531 35.5716 141.973 35.7812C142.42 35.9863 142.762 36.2666 142.999 36.6221C143.236 36.973 143.354 37.3695 143.354 37.8115H141.707C141.707 37.6156 141.657 37.4333 141.556 37.2646C141.461 37.0915 141.315 36.9525 141.119 36.8477C140.923 36.7383 140.677 36.6836 140.381 36.6836C140.098 36.6836 139.863 36.7292 139.677 36.8203C139.494 36.9069 139.358 37.0208 139.266 37.1621C139.18 37.3034 139.137 37.4583 139.137 37.627C139.137 37.75 139.159 37.8617 139.205 37.9619C139.255 38.0576 139.337 38.1465 139.451 38.2285C139.565 38.306 139.72 38.3789 139.916 38.4473C140.116 38.5156 140.367 38.5817 140.668 38.6455C141.233 38.764 141.718 38.9167 142.124 39.1035C142.534 39.2858 142.848 39.5228 143.067 39.8145C143.286 40.1016 143.395 40.4661 143.395 40.9082C143.395 41.2363 143.325 41.5371 143.183 41.8105C143.047 42.0794 142.846 42.3141 142.582 42.5146C142.318 42.7106 142.001 42.8633 141.632 42.9727C141.267 43.082 140.857 43.1367 140.401 43.1367C139.731 43.1367 139.164 43.0182 138.699 42.7812C138.234 42.5397 137.881 42.2321 137.639 41.8584C137.402 41.4801 137.284 41.0882 137.284 40.6826H138.877C138.895 40.988 138.979 41.2318 139.13 41.4141C139.285 41.5918 139.476 41.7217 139.704 41.8037C139.936 41.8812 140.176 41.9199 140.422 41.9199C140.718 41.9199 140.966 41.8812 141.167 41.8037C141.367 41.7217 141.52 41.6123 141.625 41.4756C141.73 41.3343 141.782 41.1748 141.782 40.9971ZM149.388 41.2568V35.6035H151.042V43H149.484L149.388 41.2568ZM149.62 39.7188L150.174 39.7051C150.174 40.2018 150.119 40.6598 150.01 41.0791C149.901 41.4938 149.732 41.8561 149.504 42.166C149.276 42.4714 148.985 42.7106 148.629 42.8838C148.274 43.0524 147.848 43.1367 147.351 43.1367C146.991 43.1367 146.66 43.0843 146.36 42.9795C146.059 42.8747 145.799 42.7129 145.58 42.4941C145.366 42.2754 145.2 41.9906 145.081 41.6396C144.963 41.2887 144.904 40.8695 144.904 40.3818V35.6035H146.551V40.3955C146.551 40.6644 146.583 40.89 146.647 41.0723C146.71 41.25 146.797 41.3936 146.906 41.5029C147.016 41.6123 147.143 41.6898 147.289 41.7354C147.435 41.7809 147.59 41.8037 147.754 41.8037C148.224 41.8037 148.593 41.7126 148.862 41.5303C149.135 41.3434 149.329 41.0928 149.443 40.7783C149.561 40.4639 149.62 40.1107 149.62 39.7188ZM154.485 37.0117V43H152.837V35.6035H154.41L154.485 37.0117ZM156.748 35.5557L156.734 37.0869C156.634 37.0687 156.524 37.055 156.406 37.0459C156.292 37.0368 156.178 37.0322 156.064 37.0322C155.782 37.0322 155.533 37.0732 155.319 37.1553C155.105 37.2327 154.925 37.3467 154.779 37.4971C154.638 37.6429 154.528 37.8206 154.451 38.0303C154.373 38.2399 154.328 38.4746 154.314 38.7344L153.938 38.7617C153.938 38.2969 153.984 37.8662 154.075 37.4697C154.166 37.0732 154.303 36.7246 154.485 36.4238C154.672 36.123 154.904 35.8883 155.182 35.7197C155.465 35.5511 155.791 35.4668 156.16 35.4668C156.26 35.4668 156.367 35.4759 156.481 35.4941C156.6 35.5124 156.688 35.5329 156.748 35.5557ZM161.804 41.5166V37.9893C161.804 37.7249 161.756 37.4971 161.66 37.3057C161.564 37.1143 161.419 36.9661 161.223 36.8613C161.031 36.7565 160.79 36.7041 160.498 36.7041C160.229 36.7041 159.997 36.7497 159.801 36.8408C159.605 36.932 159.452 37.055 159.343 37.21C159.233 37.3649 159.179 37.5404 159.179 37.7363H157.538C157.538 37.4447 157.609 37.1621 157.75 36.8887C157.891 36.6152 158.096 36.3714 158.365 36.1572C158.634 35.943 158.955 35.7744 159.329 35.6514C159.703 35.5283 160.122 35.4668 160.587 35.4668C161.143 35.4668 161.635 35.5602 162.063 35.7471C162.496 35.9339 162.836 36.2165 163.082 36.5947C163.333 36.9684 163.458 37.4378 163.458 38.0029V41.291C163.458 41.6283 163.481 41.9313 163.526 42.2002C163.576 42.4645 163.647 42.6947 163.738 42.8906V43H162.05C161.972 42.8223 161.911 42.5967 161.865 42.3232C161.824 42.0452 161.804 41.7764 161.804 41.5166ZM162.043 38.502L162.057 39.5205H160.874C160.569 39.5205 160.3 39.5501 160.067 39.6094C159.835 39.6641 159.641 39.7461 159.486 39.8555C159.331 39.9648 159.215 40.097 159.138 40.252C159.06 40.4069 159.021 40.5824 159.021 40.7783C159.021 40.9743 159.067 41.1543 159.158 41.3184C159.249 41.4779 159.382 41.6032 159.555 41.6943C159.732 41.7855 159.947 41.8311 160.197 41.8311C160.535 41.8311 160.828 41.7627 161.079 41.626C161.334 41.4847 161.535 41.3138 161.681 41.1133C161.826 40.9082 161.904 40.7145 161.913 40.5322L162.446 41.2637C162.392 41.4505 162.298 41.651 162.166 41.8652C162.034 42.0794 161.861 42.2845 161.646 42.4805C161.437 42.6719 161.184 42.8291 160.888 42.9521C160.596 43.0752 160.259 43.1367 159.876 43.1367C159.393 43.1367 158.962 43.041 158.584 42.8496C158.206 42.6536 157.91 42.3916 157.695 42.0635C157.481 41.7308 157.374 41.3548 157.374 40.9355C157.374 40.5436 157.447 40.1973 157.593 39.8965C157.743 39.5911 157.962 39.3359 158.249 39.1309C158.541 38.9258 158.896 38.7708 159.315 38.666C159.735 38.5566 160.213 38.502 160.751 38.502H162.043ZM166.914 37.1826V43H165.267V35.6035H166.819L166.914 37.1826ZM166.621 39.0283L166.087 39.0215C166.092 38.4974 166.165 38.0166 166.306 37.5791C166.452 37.1416 166.652 36.7656 166.908 36.4512C167.167 36.1367 167.477 35.8952 167.837 35.7266C168.197 35.5534 168.598 35.4668 169.04 35.4668C169.396 35.4668 169.717 35.5169 170.004 35.6172C170.296 35.7129 170.544 35.8701 170.749 36.0889C170.959 36.3076 171.119 36.5924 171.228 36.9434C171.337 37.2897 171.392 37.7158 171.392 38.2217V43H169.738V38.2148C169.738 37.8594 169.685 37.5791 169.58 37.374C169.48 37.1644 169.332 37.0163 169.136 36.9297C168.945 36.8385 168.705 36.793 168.418 36.793C168.136 36.793 167.883 36.8522 167.66 36.9707C167.436 37.0892 167.247 37.251 167.092 37.4561C166.942 37.6611 166.826 37.8981 166.744 38.167C166.662 38.4359 166.621 38.723 166.621 39.0283ZM176.195 41.8242C176.464 41.8242 176.706 41.7718 176.92 41.667C177.138 41.5576 177.314 41.4072 177.446 41.2158C177.583 41.0244 177.658 40.8034 177.672 40.5527H179.223C179.214 41.0312 179.073 41.4665 178.8 41.8584C178.526 42.2503 178.164 42.5625 177.713 42.7949C177.262 43.0228 176.763 43.1367 176.216 43.1367C175.651 43.1367 175.158 43.041 174.739 42.8496C174.32 42.6536 173.971 42.3848 173.693 42.043C173.415 41.7012 173.206 41.307 173.064 40.8604C172.928 40.4137 172.859 39.9352 172.859 39.4248V39.1855C172.859 38.6751 172.928 38.1966 173.064 37.75C173.206 37.2988 173.415 36.9023 173.693 36.5605C173.971 36.2188 174.32 35.9521 174.739 35.7607C175.158 35.5648 175.648 35.4668 176.209 35.4668C176.801 35.4668 177.321 35.5853 177.767 35.8223C178.214 36.0547 178.565 36.3805 178.82 36.7998C179.08 37.2145 179.214 37.6976 179.223 38.249H177.672C177.658 37.9756 177.59 37.7295 177.467 37.5107C177.348 37.2874 177.179 37.1097 176.961 36.9775C176.747 36.8454 176.489 36.7793 176.188 36.7793C175.856 36.7793 175.58 36.8477 175.361 36.9844C175.142 37.1165 174.971 37.2988 174.848 37.5312C174.725 37.7591 174.637 38.0166 174.582 38.3037C174.532 38.5863 174.507 38.8802 174.507 39.1855V39.4248C174.507 39.7301 174.532 40.0264 174.582 40.3135C174.632 40.6006 174.719 40.8581 174.842 41.0859C174.969 41.3092 175.142 41.4893 175.361 41.626C175.58 41.7581 175.858 41.8242 176.195 41.8242ZM183.849 43.1367C183.302 43.1367 182.807 43.0479 182.365 42.8701C181.928 42.6878 181.554 42.4349 181.244 42.1113C180.939 41.7878 180.704 41.4072 180.54 40.9697C180.376 40.5322 180.294 40.0605 180.294 39.5547V39.2812C180.294 38.7025 180.378 38.1784 180.547 37.709C180.716 37.2396 180.95 36.8385 181.251 36.5059C181.552 36.1686 181.907 35.9111 182.318 35.7334C182.728 35.5557 183.172 35.4668 183.651 35.4668C184.179 35.4668 184.642 35.5557 185.038 35.7334C185.435 35.9111 185.763 36.1618 186.023 36.4854C186.287 36.8044 186.483 37.1849 186.611 37.627C186.743 38.069 186.809 38.5566 186.809 39.0898V39.7939H181.094V38.6113H185.182V38.4814C185.173 38.1852 185.113 37.9072 185.004 37.6475C184.899 37.3877 184.737 37.1781 184.519 37.0186C184.3 36.859 184.008 36.7793 183.644 36.7793C183.37 36.7793 183.126 36.8385 182.912 36.957C182.703 37.071 182.527 37.2373 182.386 37.4561C182.245 37.6748 182.135 37.9391 182.058 38.249C181.985 38.5544 181.948 38.8984 181.948 39.2812V39.5547C181.948 39.8783 181.992 40.179 182.078 40.457C182.169 40.7305 182.302 40.9697 182.475 41.1748C182.648 41.3799 182.858 41.5417 183.104 41.6602C183.35 41.7741 183.63 41.8311 183.945 41.8311C184.341 41.8311 184.694 41.7513 185.004 41.5918C185.314 41.4323 185.583 41.2067 185.811 40.915L186.679 41.7559C186.519 41.9883 186.312 42.2116 186.057 42.4258C185.802 42.6354 185.489 42.8063 185.12 42.9385C184.756 43.0706 184.332 43.1367 183.849 43.1367ZM196.292 41.4688V32.5H197.946V43H196.449L196.292 41.4688ZM191.479 39.3838V39.2402C191.479 38.6797 191.546 38.1693 191.678 37.709C191.81 37.2441 192.001 36.8454 192.252 36.5127C192.503 36.1755 192.808 35.918 193.168 35.7402C193.528 35.5579 193.934 35.4668 194.385 35.4668C194.831 35.4668 195.223 35.5534 195.561 35.7266C195.898 35.8997 196.185 36.1481 196.422 36.4717C196.659 36.7907 196.848 37.1735 196.989 37.6201C197.131 38.0622 197.231 38.5544 197.29 39.0967V39.5547C197.231 40.0833 197.131 40.5664 196.989 41.0039C196.848 41.4414 196.659 41.8197 196.422 42.1387C196.185 42.4577 195.896 42.7038 195.554 42.877C195.216 43.0501 194.822 43.1367 194.371 43.1367C193.924 43.1367 193.521 43.0433 193.161 42.8564C192.806 42.6696 192.503 42.4076 192.252 42.0703C192.001 41.7331 191.81 41.3366 191.678 40.8809C191.546 40.4206 191.479 39.9215 191.479 39.3838ZM193.127 39.2402V39.3838C193.127 39.721 193.157 40.0355 193.216 40.3271C193.28 40.6188 193.378 40.8763 193.51 41.0996C193.642 41.3184 193.813 41.4915 194.022 41.6191C194.237 41.7422 194.492 41.8037 194.788 41.8037C195.162 41.8037 195.469 41.7217 195.711 41.5576C195.952 41.3936 196.142 41.1725 196.278 40.8945C196.42 40.612 196.515 40.2975 196.565 39.9512V38.7139C196.538 38.445 196.481 38.1943 196.395 37.9619C196.312 37.7295 196.201 37.5267 196.06 37.3535C195.918 37.1758 195.743 37.0391 195.533 36.9434C195.328 36.8431 195.084 36.793 194.802 36.793C194.501 36.793 194.246 36.8568 194.036 36.9844C193.826 37.112 193.653 37.2874 193.517 37.5107C193.384 37.734 193.286 37.9938 193.223 38.29C193.159 38.5863 193.127 38.903 193.127 39.2402ZM203.03 43.1367C202.483 43.1367 201.988 43.0479 201.546 42.8701C201.109 42.6878 200.735 42.4349 200.425 42.1113C200.12 41.7878 199.885 41.4072 199.721 40.9697C199.557 40.5322 199.475 40.0605 199.475 39.5547V39.2812C199.475 38.7025 199.559 38.1784 199.728 37.709C199.897 37.2396 200.131 36.8385 200.432 36.5059C200.733 36.1686 201.088 35.9111 201.498 35.7334C201.909 35.5557 202.353 35.4668 202.831 35.4668C203.36 35.4668 203.823 35.5557 204.219 35.7334C204.616 35.9111 204.944 36.1618 205.204 36.4854C205.468 36.8044 205.664 37.1849 205.791 37.627C205.924 38.069 205.99 38.5566 205.99 39.0898V39.7939H200.275V38.6113H204.363V38.4814C204.354 38.1852 204.294 37.9072 204.185 37.6475C204.08 37.3877 203.918 37.1781 203.7 37.0186C203.481 36.859 203.189 36.7793 202.825 36.7793C202.551 36.7793 202.307 36.8385 202.093 36.957C201.884 37.071 201.708 37.2373 201.567 37.4561C201.426 37.6748 201.316 37.9391 201.239 38.249C201.166 38.5544 201.129 38.8984 201.129 39.2812V39.5547C201.129 39.8783 201.173 40.179 201.259 40.457C201.35 40.7305 201.482 40.9697 201.656 41.1748C201.829 41.3799 202.038 41.5417 202.285 41.6602C202.531 41.7741 202.811 41.8311 203.125 41.8311C203.522 41.8311 203.875 41.7513 204.185 41.5918C204.495 41.4323 204.764 41.2067 204.992 40.915L205.86 41.7559C205.7 41.9883 205.493 42.2116 205.238 42.4258C204.982 42.6354 204.67 42.8063 204.301 42.9385C203.937 43.0706 203.513 43.1367 203.03 43.1367ZM210.765 35.6035V36.8066H206.596V35.6035H210.765ZM207.799 33.792H209.446V40.9561C209.446 41.1839 209.478 41.3594 209.542 41.4824C209.61 41.6009 209.704 41.6807 209.822 41.7217C209.941 41.7627 210.08 41.7832 210.239 41.7832C210.353 41.7832 210.462 41.7764 210.567 41.7627C210.672 41.749 210.756 41.7354 210.82 41.7217L210.827 42.9795C210.69 43.0205 210.531 43.057 210.348 43.0889C210.171 43.1208 209.966 43.1367 209.733 43.1367C209.355 43.1367 209.02 43.0706 208.728 42.9385C208.437 42.8018 208.209 42.5807 208.045 42.2754C207.881 41.9701 207.799 41.5645 207.799 41.0586V33.792ZM216.307 41.5166V37.9893C216.307 37.7249 216.259 37.4971 216.163 37.3057C216.068 37.1143 215.922 36.9661 215.726 36.8613C215.534 36.7565 215.293 36.7041 215.001 36.7041C214.732 36.7041 214.5 36.7497 214.304 36.8408C214.108 36.932 213.955 37.055 213.846 37.21C213.737 37.3649 213.682 37.5404 213.682 37.7363H212.041C212.041 37.4447 212.112 37.1621 212.253 36.8887C212.394 36.6152 212.599 36.3714 212.868 36.1572C213.137 35.943 213.459 35.7744 213.832 35.6514C214.206 35.5283 214.625 35.4668 215.09 35.4668C215.646 35.4668 216.138 35.5602 216.567 35.7471C217 35.9339 217.339 36.2165 217.585 36.5947C217.836 36.9684 217.961 37.4378 217.961 38.0029V41.291C217.961 41.6283 217.984 41.9313 218.029 42.2002C218.08 42.4645 218.15 42.6947 218.241 42.8906V43H216.553C216.475 42.8223 216.414 42.5967 216.368 42.3232C216.327 42.0452 216.307 41.7764 216.307 41.5166ZM216.546 38.502L216.56 39.5205H215.377C215.072 39.5205 214.803 39.5501 214.571 39.6094C214.338 39.6641 214.144 39.7461 213.989 39.8555C213.835 39.9648 213.718 40.097 213.641 40.252C213.563 40.4069 213.525 40.5824 213.525 40.7783C213.525 40.9743 213.57 41.1543 213.661 41.3184C213.752 41.4779 213.885 41.6032 214.058 41.6943C214.236 41.7855 214.45 41.8311 214.7 41.8311C215.038 41.8311 215.332 41.7627 215.582 41.626C215.837 41.4847 216.038 41.3138 216.184 41.1133C216.33 40.9082 216.407 40.7145 216.416 40.5322L216.949 41.2637C216.895 41.4505 216.801 41.651 216.669 41.8652C216.537 42.0794 216.364 42.2845 216.15 42.4805C215.94 42.6719 215.687 42.8291 215.391 42.9521C215.099 43.0752 214.762 43.1367 214.379 43.1367C213.896 43.1367 213.465 43.041 213.087 42.8496C212.709 42.6536 212.413 42.3916 212.198 42.0635C211.984 41.7308 211.877 41.3548 211.877 40.9355C211.877 40.5436 211.95 40.1973 212.096 39.8965C212.246 39.5911 212.465 39.3359 212.752 39.1309C213.044 38.9258 213.399 38.7708 213.819 38.666C214.238 38.5566 214.716 38.502 215.254 38.502H216.546ZM221.547 35.6035V43H219.893V35.6035H221.547ZM219.784 33.6621C219.784 33.4115 219.866 33.2041 220.03 33.04C220.199 32.8714 220.431 32.7871 220.727 32.7871C221.019 32.7871 221.249 32.8714 221.418 33.04C221.586 33.2041 221.671 33.4115 221.671 33.6621C221.671 33.9082 221.586 34.1133 221.418 34.2773C221.249 34.4414 221.019 34.5234 220.727 34.5234C220.431 34.5234 220.199 34.4414 220.03 34.2773C219.866 34.1133 219.784 33.9082 219.784 33.6621ZM225.216 32.5V43H223.562V32.5H225.216Z" fill="#8E8E93"/>
<circle cx="308.5" cy="12" r="11.5" fill="white" stroke="#C6C6C6"/>
<path d="M305.337 9.506C305.363 8.65667 305.662 7.998 306.234 7.53C306.815 7.05333 307.569 6.815 308.496 6.815C309.432 6.815 310.164 7.05333 310.693 7.53C311.222 7.998 311.486 8.59167 311.486 9.311C311.486 9.86567 311.343 10.3337 311.057 10.715C310.771 11.0877 310.45 11.3347 310.095 11.456V11.508C311.135 11.8633 311.655 12.6477 311.655 13.861C311.655 14.667 311.378 15.317 310.823 15.811C310.268 16.305 309.506 16.552 308.535 16.552C307.564 16.552 306.771 16.305 306.156 15.811C305.541 15.317 305.22 14.5933 305.194 13.64H306.962C306.979 14.0647 307.122 14.407 307.391 14.667C307.668 14.9183 308.037 15.044 308.496 15.044C308.955 15.044 309.302 14.9227 309.536 14.68C309.779 14.4287 309.9 14.0733 309.9 13.614C309.9 13.1547 309.735 12.8167 309.406 12.6C309.085 12.3747 308.574 12.262 307.872 12.262H307.495V10.767H307.872C309.103 10.767 309.718 10.3553 309.718 9.532C309.718 9.17667 309.605 8.895 309.38 8.687C309.155 8.479 308.834 8.375 308.418 8.375C308.002 8.375 307.69 8.492 307.482 8.726C307.274 8.96 307.153 9.22 307.118 9.506H305.337Z" fill="#8E8E93"/>
<path d="M278.384 34.373L275.411 43H273.613L277.359 33.0469H278.507L278.384 34.373ZM280.872 43L277.892 34.373L277.762 33.0469H278.917L282.677 43H280.872ZM280.729 39.3086V40.6689H275.315V39.3086H280.729ZM288.465 35.6035H289.962V42.7949C289.962 43.4603 289.82 44.0254 289.538 44.4902C289.255 44.9551 288.861 45.3083 288.355 45.5498C287.849 45.7959 287.264 45.9189 286.598 45.9189C286.316 45.9189 286.001 45.8779 285.655 45.7959C285.313 45.7139 284.981 45.5817 284.657 45.3994C284.338 45.2217 284.071 44.987 283.857 44.6953L284.63 43.7246C284.894 44.0391 285.186 44.2692 285.505 44.415C285.824 44.5609 286.159 44.6338 286.51 44.6338C286.888 44.6338 287.209 44.5632 287.473 44.4219C287.742 44.2852 287.95 44.0824 288.096 43.8135C288.241 43.5446 288.314 43.2165 288.314 42.8291V37.2783L288.465 35.6035ZM283.44 39.3838V39.2402C283.44 38.6797 283.509 38.1693 283.645 37.709C283.782 37.2441 283.978 36.8454 284.233 36.5127C284.488 36.1755 284.798 35.918 285.163 35.7402C285.527 35.5579 285.94 35.4668 286.4 35.4668C286.879 35.4668 287.287 35.5534 287.624 35.7266C287.966 35.8997 288.25 36.1481 288.478 36.4717C288.706 36.7907 288.884 37.1735 289.012 37.6201C289.144 38.0622 289.242 38.5544 289.305 39.0967V39.5547C289.246 40.0833 289.146 40.5664 289.005 41.0039C288.863 41.4414 288.677 41.8197 288.444 42.1387C288.212 42.4577 287.925 42.7038 287.583 42.877C287.246 43.0501 286.847 43.1367 286.387 43.1367C285.935 43.1367 285.527 43.0433 285.163 42.8564C284.803 42.6696 284.493 42.4076 284.233 42.0703C283.978 41.7331 283.782 41.3366 283.645 40.8809C283.509 40.4206 283.44 39.9215 283.44 39.3838ZM285.088 39.2402V39.3838C285.088 39.721 285.12 40.0355 285.183 40.3271C285.252 40.6188 285.354 40.8763 285.491 41.0996C285.632 41.3184 285.81 41.4915 286.024 41.6191C286.243 41.7422 286.5 41.8037 286.797 41.8037C287.184 41.8037 287.501 41.7217 287.747 41.5576C287.998 41.3936 288.189 41.1725 288.321 40.8945C288.458 40.612 288.554 40.2975 288.608 39.9512V38.7139C288.581 38.445 288.524 38.1943 288.437 37.9619C288.355 37.7295 288.244 37.5267 288.102 37.3535C287.961 37.1758 287.783 37.0391 287.569 36.9434C287.355 36.8431 287.102 36.793 286.81 36.793C286.514 36.793 286.257 36.8568 286.038 36.9844C285.819 37.112 285.639 37.2874 285.498 37.5107C285.361 37.734 285.259 37.9938 285.19 38.29C285.122 38.5863 285.088 38.903 285.088 39.2402ZM293.425 37.0117V43H291.778V35.6035H293.35L293.425 37.0117ZM295.688 35.5557L295.674 37.0869C295.574 37.0687 295.464 37.055 295.346 37.0459C295.232 37.0368 295.118 37.0322 295.004 37.0322C294.722 37.0322 294.473 37.0732 294.259 37.1553C294.045 37.2327 293.865 37.3467 293.719 37.4971C293.578 37.6429 293.468 37.8206 293.391 38.0303C293.313 38.2399 293.268 38.4746 293.254 38.7344L292.878 38.7617C292.878 38.2969 292.924 37.8662 293.015 37.4697C293.106 37.0732 293.243 36.7246 293.425 36.4238C293.612 36.123 293.844 35.8883 294.122 35.7197C294.405 35.5511 294.731 35.4668 295.1 35.4668C295.2 35.4668 295.307 35.4759 295.421 35.4941C295.54 35.5124 295.628 35.5329 295.688 35.5557ZM299.944 43.1367C299.397 43.1367 298.903 43.0479 298.461 42.8701C298.023 42.6878 297.649 42.4349 297.339 42.1113C297.034 41.7878 296.799 41.4072 296.635 40.9697C296.471 40.5322 296.389 40.0605 296.389 39.5547V39.2812C296.389 38.7025 296.474 38.1784 296.642 37.709C296.811 37.2396 297.046 36.8385 297.346 36.5059C297.647 36.1686 298.003 35.9111 298.413 35.7334C298.823 35.5557 299.267 35.4668 299.746 35.4668C300.274 35.4668 300.737 35.5557 301.133 35.7334C301.53 35.9111 301.858 36.1618 302.118 36.4854C302.382 36.8044 302.578 37.1849 302.706 37.627C302.838 38.069 302.904 38.5566 302.904 39.0898V39.7939H297.189V38.6113H301.277V38.4814C301.268 38.1852 301.209 37.9072 301.099 37.6475C300.994 37.3877 300.833 37.1781 300.614 37.0186C300.395 36.859 300.103 36.7793 299.739 36.7793C299.465 36.7793 299.222 36.8385 299.007 36.957C298.798 37.071 298.622 37.2373 298.481 37.4561C298.34 37.6748 298.23 37.9391 298.153 38.249C298.08 38.5544 298.044 38.8984 298.044 39.2812V39.5547C298.044 39.8783 298.087 40.179 298.173 40.457C298.265 40.7305 298.397 40.9697 298.57 41.1748C298.743 41.3799 298.953 41.5417 299.199 41.6602C299.445 41.7741 299.725 41.8311 300.04 41.8311C300.436 41.8311 300.789 41.7513 301.099 41.5918C301.409 41.4323 301.678 41.2067 301.906 40.915L302.774 41.7559C302.615 41.9883 302.407 42.2116 302.152 42.4258C301.897 42.6354 301.585 42.8063 301.215 42.9385C300.851 43.0706 300.427 43.1367 299.944 43.1367ZM307.55 43.1367C307.003 43.1367 306.508 43.0479 306.066 42.8701C305.629 42.6878 305.255 42.4349 304.945 42.1113C304.64 41.7878 304.405 41.4072 304.241 40.9697C304.077 40.5322 303.995 40.0605 303.995 39.5547V39.2812C303.995 38.7025 304.079 38.1784 304.248 37.709C304.417 37.2396 304.651 36.8385 304.952 36.5059C305.253 36.1686 305.608 35.9111 306.019 35.7334C306.429 35.5557 306.873 35.4668 307.352 35.4668C307.88 35.4668 308.343 35.5557 308.739 35.7334C309.136 35.9111 309.464 36.1618 309.724 36.4854C309.988 36.8044 310.184 37.1849 310.312 37.627C310.444 38.069 310.51 38.5566 310.51 39.0898V39.7939H304.795V38.6113H308.883V38.4814C308.874 38.1852 308.814 37.9072 308.705 37.6475C308.6 37.3877 308.438 37.1781 308.22 37.0186C308.001 36.859 307.709 36.7793 307.345 36.7793C307.071 36.7793 306.827 36.8385 306.613 36.957C306.404 37.071 306.228 37.2373 306.087 37.4561C305.946 37.6748 305.836 37.9391 305.759 38.249C305.686 38.5544 305.649 38.8984 305.649 39.2812V39.5547C305.649 39.8783 305.693 40.179 305.779 40.457C305.87 40.7305 306.003 40.9697 306.176 41.1748C306.349 41.3799 306.559 41.5417 306.805 41.6602C307.051 41.7741 307.331 41.8311 307.646 41.8311C308.042 41.8311 308.395 41.7513 308.705 41.5918C309.015 41.4323 309.284 41.2067 309.512 40.915L310.38 41.7559C310.22 41.9883 310.013 42.2116 309.758 42.4258C309.503 42.6354 309.19 42.8063 308.821 42.9385C308.457 43.0706 308.033 43.1367 307.55 43.1367ZM313.542 37.1074V43H311.895V35.6035H313.447L313.542 37.1074ZM313.276 39.0283L312.715 39.0215C312.715 38.5111 312.779 38.0394 312.907 37.6064C313.034 37.1735 313.221 36.7975 313.467 36.4785C313.713 36.1549 314.019 35.9066 314.383 35.7334C314.752 35.5557 315.178 35.4668 315.662 35.4668C315.999 35.4668 316.306 35.5169 316.584 35.6172C316.867 35.7129 317.111 35.8656 317.316 36.0752C317.525 36.2848 317.685 36.5537 317.794 36.8818C317.908 37.21 317.965 37.6064 317.965 38.0713V43H316.318V38.2148C316.318 37.8548 316.263 37.5723 316.154 37.3672C316.049 37.1621 315.896 37.0163 315.696 36.9297C315.5 36.8385 315.265 36.793 314.992 36.793C314.682 36.793 314.417 36.8522 314.199 36.9707C313.984 37.0892 313.809 37.251 313.672 37.4561C313.536 37.6611 313.435 37.8981 313.371 38.167C313.308 38.4359 313.276 38.723 313.276 39.0283ZM317.863 38.5908L317.09 38.7617C317.09 38.3151 317.152 37.8936 317.275 37.4971C317.402 37.096 317.587 36.7451 317.829 36.4443C318.075 36.139 318.378 35.8997 318.738 35.7266C319.098 35.5534 319.51 35.4668 319.975 35.4668C320.353 35.4668 320.69 35.5192 320.987 35.624C321.287 35.7243 321.543 35.8838 321.752 36.1025C321.962 36.3213 322.121 36.6061 322.231 36.957C322.34 37.3034 322.395 37.7227 322.395 38.2148V43H320.741V38.208C320.741 37.8343 320.686 37.5449 320.577 37.3398C320.472 37.1348 320.321 36.9935 320.125 36.916C319.929 36.834 319.695 36.793 319.421 36.793C319.166 36.793 318.94 36.8408 318.745 36.9365C318.553 37.0277 318.391 37.1576 318.259 37.3262C318.127 37.4902 318.027 37.6794 317.958 37.8936C317.895 38.1077 317.863 38.3402 317.863 38.5908ZM327.451 43.1367C326.904 43.1367 326.41 43.0479 325.968 42.8701C325.53 42.6878 325.156 42.4349 324.846 42.1113C324.541 41.7878 324.306 41.4072 324.142 40.9697C323.978 40.5322 323.896 40.0605 323.896 39.5547V39.2812C323.896 38.7025 323.981 38.1784 324.149 37.709C324.318 37.2396 324.553 36.8385 324.853 36.5059C325.154 36.1686 325.51 35.9111 325.92 35.7334C326.33 35.5557 326.774 35.4668 327.253 35.4668C327.781 35.4668 328.244 35.5557 328.64 35.7334C329.037 35.9111 329.365 36.1618 329.625 36.4854C329.889 36.8044 330.085 37.1849 330.213 37.627C330.345 38.069 330.411 38.5566 330.411 39.0898V39.7939H324.696V38.6113H328.784V38.4814C328.775 38.1852 328.716 37.9072 328.606 37.6475C328.501 37.3877 328.34 37.1781 328.121 37.0186C327.902 36.859 327.61 36.7793 327.246 36.7793C326.972 36.7793 326.729 36.8385 326.514 36.957C326.305 37.071 326.129 37.2373 325.988 37.4561C325.847 37.6748 325.737 37.9391 325.66 38.249C325.587 38.5544 325.551 38.8984 325.551 39.2812V39.5547C325.551 39.8783 325.594 40.179 325.68 40.457C325.772 40.7305 325.904 40.9697 326.077 41.1748C326.25 41.3799 326.46 41.5417 326.706 41.6602C326.952 41.7741 327.232 41.8311 327.547 41.8311C327.943 41.8311 328.296 41.7513 328.606 41.5918C328.916 41.4323 329.185 41.2067 329.413 40.915L330.281 41.7559C330.122 41.9883 329.914 42.2116 329.659 42.4258C329.404 42.6354 329.092 42.8063 328.722 42.9385C328.358 43.0706 327.934 43.1367 327.451 43.1367ZM333.43 37.1826V43H331.782V35.6035H333.334L333.43 37.1826ZM333.136 39.0283L332.603 39.0215C332.607 38.4974 332.68 38.0166 332.821 37.5791C332.967 37.1416 333.168 36.7656 333.423 36.4512C333.683 36.1367 333.993 35.8952 334.353 35.7266C334.713 35.5534 335.114 35.4668 335.556 35.4668C335.911 35.4668 336.233 35.5169 336.52 35.6172C336.811 35.7129 337.06 35.8701 337.265 36.0889C337.474 36.3076 337.634 36.5924 337.743 36.9434C337.853 37.2897 337.907 37.7158 337.907 38.2217V43H336.253V38.2148C336.253 37.8594 336.201 37.5791 336.096 37.374C335.996 37.1644 335.848 37.0163 335.652 36.9297C335.46 36.8385 335.221 36.793 334.934 36.793C334.651 36.793 334.398 36.8522 334.175 36.9707C333.952 37.0892 333.763 37.251 333.608 37.4561C333.457 37.6611 333.341 37.8981 333.259 38.167C333.177 38.4359 333.136 38.723 333.136 39.0283ZM343.08 35.6035V36.8066H338.91V35.6035H343.08ZM340.113 33.792H341.76V40.9561C341.76 41.1839 341.792 41.3594 341.856 41.4824C341.924 41.6009 342.018 41.6807 342.136 41.7217C342.255 41.7627 342.394 41.7832 342.553 41.7832C342.667 41.7832 342.777 41.7764 342.881 41.7627C342.986 41.749 343.071 41.7354 343.134 41.7217L343.141 42.9795C343.004 43.0205 342.845 43.057 342.663 43.0889C342.485 43.1208 342.28 43.1367 342.047 43.1367C341.669 43.1367 341.334 43.0706 341.043 42.9385C340.751 42.8018 340.523 42.5807 340.359 42.2754C340.195 41.9701 340.113 41.5645 340.113 41.0586V33.792Z" fill="#8E8E93"/>
</svg>
