<svg width="12" height="12" viewBox="0 0 12 12" fill="none" xmlns="http://www.w3.org/2000/svg">
<path d="M10.2324 8.53922C10.1944 8.60261 10.1443 8.6579 10.0849 8.70192C10.0255 8.74594 9.95809 8.77783 9.88639 8.79577C9.81469 8.8137 9.74016 8.81733 9.66706 8.80645C9.59396 8.79557 9.52372 8.77039 9.46035 8.73234L6.56254 6.99328V10.125C6.56254 10.2742 6.50328 10.4173 6.39779 10.5227C6.2923 10.6282 6.14922 10.6875 6.00004 10.6875C5.85086 10.6875 5.70778 10.6282 5.60229 10.5227C5.4968 10.4173 5.43754 10.2742 5.43754 10.125V6.99328L2.53973 8.73234C2.47639 8.77035 2.40618 8.79552 2.33311 8.8064C2.26004 8.81727 2.18555 8.81365 2.11388 8.79574C2.04221 8.77783 1.97477 8.74598 1.91542 8.702C1.85606 8.65803 1.80594 8.6028 1.76793 8.53945C1.69116 8.41153 1.66836 8.25835 1.70453 8.11361C1.74071 7.96887 1.8329 7.84442 1.96082 7.76766L4.90692 6L1.96082 4.23234C1.8329 4.15558 1.74071 4.03113 1.70453 3.88639C1.66836 3.74165 1.69116 3.58847 1.76793 3.46055C1.8447 3.33262 1.96914 3.24043 2.11388 3.20426C2.25862 3.16808 2.4118 3.19089 2.53973 3.26766L5.43754 5.00672V1.875C5.43754 1.72582 5.4968 1.58274 5.60229 1.47725C5.70778 1.37176 5.85086 1.3125 6.00004 1.3125C6.14922 1.3125 6.2923 1.37176 6.39779 1.47725C6.50328 1.58274 6.56254 1.72582 6.56254 1.875V5.00672L9.46035 3.26766C9.5237 3.22964 9.5939 3.20448 9.66697 3.1936C9.74004 3.18273 9.81453 3.18635 9.8862 3.20426C9.95787 3.22217 10.0253 3.25402 10.0847 3.298C10.144 3.34197 10.1941 3.3972 10.2322 3.46055C10.2702 3.52389 10.2953 3.5941 10.3062 3.66717C10.3171 3.74023 10.3135 3.81473 10.2955 3.88639C10.2776 3.95806 10.2458 4.0255 10.2018 4.08486C10.1578 4.14422 10.1026 4.19433 10.0393 4.23234L7.09317 6L10.0393 7.76766C10.1672 7.84438 10.2594 7.96876 10.2956 8.11345C10.3318 8.25814 10.3091 8.41129 10.2324 8.53922Z" fill="#FF3B30"/>
</svg>
